<svg width="170" height="160" xmlns="http://www.w3.org/2000/svg" xmlns:xlink="http://www.w3.org/1999/xlink"><defs><path d="M76 13.77v102L7.333 98.438a8.446 8.446 0 0 1-6.194-9.944L18.516 6.693A8.446 8.446 0 0 1 29.105.329L76 13.77zm4 0L126.895.33a8.446 8.446 0 0 1 10.589 6.363l17.377 81.8a8.446 8.446 0 0 1-6.194 9.945L80 115.77v-102z" id="a"/><filter x="-2.6%" y="-1.7%" width="105.2%" height="106.9%" filterUnits="objectBoundingBox" id="b"><feMorphology radius="1" operator="dilate" in="SourceAlpha" result="shadowSpreadOuter1"/><feOffset dy="2" in="shadowSpreadOuter1" result="shadowOffsetOuter1"/><feColorMatrix values="0 0 0 0 0.719228316 0 0 0 0 0.579059125 0 0 0 0 0.0843697042 0 0 0 1 0" in="shadowOffsetOuter1"/></filter><path d="M76 13.77v102L7.333 98.438a8.446 8.446 0 0 1-6.194-9.944L18.516 6.693A8.446 8.446 0 0 1 29.105.329L76 13.77zm4 0L126.895.33a8.446 8.446 0 0 1 10.589 6.363l17.377 81.8a8.446 8.446 0 0 1-6.194 9.945L80 115.77v-102z" id="d"/><linearGradient x1="50%" y1="0%" y2="100%" id="e"><stop stop-color="#FAF9F7" offset="0%"/><stop stop-color="#FFF" offset="100%"/></linearGradient></defs><g fill="none" fill-rule="evenodd"><path d="M85.5 61.37V153l-61.752-15.568a7.601 7.601 0 0 1-5.577-8.952l15.624-73.458a7.601 7.601 0 0 1 9.527-5.726L85.5 61.37zm0 0l42.178-12.074a7.601 7.601 0 0 1 9.527 5.726l15.624 73.458a7.601 7.601 0 0 1-5.577 8.952L85.5 153V61.37z" fill="#F4F1EC"/><g transform="translate(7 23)"><mask id="c" fill="#fff"><use xlink:href="#a"/></mask><use fill="#000" filter="url(#b)" xlink:href="#a"/><use fill="#F8D763" xlink:href="#a"/><path d="M9.5 91.5l1.5 11c32.627 11.596 54.294 18.43 65 20.5 10.706 2.07 32.04-1.596 64-11l6.5-20.5H9.5z" fill="#DCB11C" mask="url(#c)"/><path stroke="#DCB11C" stroke-width="2.534" d="M74.733 14.725L28.756 1.547a7.179 7.179 0 0 0-9 5.41l-17.378 81.8a7.179 7.179 0 0 0 5.265 8.453l67.09 16.933V14.725zm6.534 0v99.418l67.09-16.933a7.179 7.179 0 0 0 5.265-8.453l-17.378-81.8a7.18 7.18 0 0 0-9-5.41L81.267 14.725z"/></g><path fill="#EAE8E2" d="M15.99 114.246l68.716 19.221-26.397-39.696-39.385 15.46z"/><path d="M18.017 6.268L0 90.675s12.57-3.76 32.263 0c19.692 3.76 36.452 19.221 36.452 19.221V15.854S58.24 2.507 41.061.418c-17.178-2.09-23.044 5.85-23.044 5.85z" fill="url(#e)" transform="translate(15.99 23.571)"/><path fill="#EAE8E2" d="M153.42 114.246l-68.714 19.221 26.396-39.696 39.386 15.46z"/><path d="M18.017 6.268L0 90.675s12.57-3.76 32.263 0c19.692 3.76 36.452 19.221 36.452 19.221V15.854S58.24 2.507 41.061.418c-17.178-2.09-23.044 5.85-23.044 5.85z" fill="url(#e)" transform="matrix(-1 0 0 1 153.42 23.571)"/><path d="M89.376 44.308a.5.5 0 0 1-.65-.76c14.407-12.293 28.395-15.497 43.541-10.015a.5.5 0 0 1-.34.94c-14.79-5.353-28.406-2.235-42.551 9.835zm.02 4.388a.5.5 0 0 1-.645-.764c14.732-12.42 29.04-15.748 44.504-10.397a.5.5 0 0 1-.327.945c-15.113-5.23-29.058-1.986-43.533 10.216zm.018 4.388a.5.5 0 1 1-.64-.768c15.059-12.545 29.688-16 45.47-10.779a.5.5 0 0 1-.314.95c-15.437-5.107-29.71-1.737-44.516 10.597zm.016 4.311a.5.5 0 0 1-.637-.771c15.32-12.647 30.206-16.202 46.242-11.085a.5.5 0 0 1-.304.953c-15.695-5.008-30.232-1.537-45.301 10.903zm.03 8.621a.5.5 0 0 1-.63-.777c15.843-12.849 31.242-16.605 47.787-11.696a.5.5 0 0 1-.285.959c-16.212-4.81-31.274-1.137-46.871 11.514zm.032 8.621a.5.5 0 1 1-.624-.782c16.365-13.052 32.277-17.01 49.331-12.307a.5.5 0 0 1-.266.964c-16.729-4.613-32.316-.736-48.441 12.125zm.031 8.62a.5.5 0 0 1-.617-.786c16.887-13.255 33.313-17.414 50.876-12.919a.5.5 0 0 1-.248.97c-17.246-4.415-33.358-.336-50.011 12.736zm.031 8.621a.5.5 0 1 1-.611-.79c17.41-13.46 34.35-17.82 52.422-13.53a.5.5 0 0 1-.23.973c-17.763-4.216-34.4.065-51.58 13.347zm.064 17.241a.5.5 0 0 1-.601-.8c18.455-13.865 36.425-18.628 55.516-14.75a.5.5 0 0 1-.2.98c-18.795-3.819-36.479.869-54.715 14.57zm.031 8.62a.5.5 0 1 1-.595-.803c18.978-14.07 37.463-19.035 57.063-15.362a.5.5 0 0 1-.184.983c-19.312-3.619-37.52 1.271-56.284 15.182zm.016 4.31a.5.5 0 0 1-.593-.805c19.24-14.171 37.983-19.237 57.837-15.667a.5.5 0 0 1-.177.984c-19.57-3.519-38.039 1.473-57.067 15.488zm-.032-8.62a.5.5 0 0 1-.598-.801c18.717-13.968 36.945-18.832 56.29-15.057a.5.5 0 1 1-.192.982c-19.054-3.719-37 1.07-55.5 14.876zm-.031-8.62a.5.5 0 0 1-.604-.798c18.194-13.764 35.907-18.426 54.743-14.445a.5.5 0 1 1-.207.978c-18.538-3.918-35.96.668-53.932 14.265zm-.016-4.31a.5.5 0 0 1-.606-.796c17.932-13.662 35.388-18.223 53.969-14.14a.5.5 0 1 1-.215.977c-18.28-4.017-35.44.467-53.148 13.959zm-.016-4.31a.5.5 0 0 1-.609-.794c17.672-13.56 34.87-18.021 53.196-13.835a.5.5 0 1 1-.223.975c-18.02-4.116-34.919.267-52.364 13.654zm-.031-8.621a.5.5 0 1 1-.615-.789c17.149-13.357 33.832-17.616 51.65-13.224a.5.5 0 0 1-.24.97c-17.504-4.314-33.878-.134-50.795 13.043zm-.032-8.62a.5.5 0 0 1-.62-.785c16.626-13.154 32.795-17.212 50.103-12.613a.5.5 0 1 1-.256.966c-16.988-4.513-32.837-.535-49.227 12.431zm-.03-8.621a.5.5 0 1 1-.627-.78c16.103-12.95 31.759-16.807 48.558-12.002a.5.5 0 0 1-.275.962c-16.47-4.712-31.795-.937-47.657 11.82zm-.032-8.621a.5.5 0 0 1-.633-.774c15.58-12.748 30.723-16.404 47.014-11.391a.5.5 0 1 1-.295.956c-15.953-4.91-30.753-1.337-46.086 11.209zM80.496 44.308a.5.5 0 0 0 .65-.76C66.74 31.254 52.75 28.05 37.606 33.532a.5.5 0 0 0 .34.94c14.79-5.353 28.406-2.235 42.55 9.835zm-.019 4.388a.5.5 0 0 0 .645-.764C66.39 35.512 52.08 32.184 36.617 37.535a.5.5 0 0 0 .327.945c15.113-5.23 29.059-1.986 43.533 10.216zm-.019 4.388a.5.5 0 1 0 .64-.768c-15.058-12.545-29.688-16-45.47-10.779a.5.5 0 0 0 .315.95c15.436-5.107 29.71-1.737 44.515 10.597zm-.015 4.311a.5.5 0 0 0 .636-.771C65.76 43.977 50.874 40.422 34.838 45.539a.5.5 0 0 0 .304.953c15.695-5.008 30.232-1.537 45.3 10.903zm-.031 8.621a.5.5 0 0 0 .63-.777C65.2 52.39 49.8 48.634 33.256 53.543a.5.5 0 0 0 .284.959c16.212-4.81 31.274-1.137 46.872 11.514zm-.031 8.621a.5.5 0 1 0 .623-.782c-16.364-13.052-32.277-17.01-49.33-12.307a.5.5 0 0 0 .265.964c16.73-4.613 32.316-.736 48.442 12.125zm-.032 8.62a.5.5 0 0 0 .618-.786C64.08 69.216 47.653 65.057 30.09 69.552a.5.5 0 0 0 .248.97c17.245-4.415 33.357-.336 50.01 12.736zm-.03 8.621a.5.5 0 1 0 .61-.79c-17.41-13.46-34.35-17.82-52.422-13.53a.5.5 0 0 0 .231.973c17.763-4.216 34.399.065 51.58 13.347zm-.064 17.241a.5.5 0 0 0 .6-.8C62.4 94.455 44.43 89.692 25.34 93.57a.5.5 0 0 0 .199.98c18.796-3.819 36.48.869 54.716 14.57zm-.032 8.62a.5.5 0 1 0 .596-.803c-18.979-14.07-37.464-19.035-57.064-15.362a.5.5 0 0 0 .184.983c19.313-3.619 37.52 1.271 56.284 15.182zm-.016 4.31a.5.5 0 0 0 .593-.805c-19.24-14.171-37.982-19.237-57.837-15.667a.5.5 0 0 0 .177.984c19.57-3.519 38.04 1.473 57.067 15.488zm.032-8.62a.5.5 0 0 0 .598-.801C62.12 98.66 43.893 93.796 24.547 97.57a.5.5 0 1 0 .192.982c19.054-3.719 37 1.07 55.5 14.876zm.032-8.62a.5.5 0 0 0 .603-.798C62.68 90.247 44.967 85.585 26.132 89.566a.5.5 0 1 0 .206.978c18.538-3.918 35.96.668 53.933 14.265zm.016-4.31a.5.5 0 0 0 .606-.796C62.96 86.041 45.505 81.48 26.923 85.563a.5.5 0 1 0 .215.977c18.28-4.017 35.44.467 53.149 13.959zm.015-4.31a.5.5 0 0 0 .61-.794C63.24 81.835 46.041 77.374 27.715 81.56a.5.5 0 1 0 .222.975c18.021-4.116 34.92.267 52.364 13.654zm.032-8.621a.5.5 0 1 0 .614-.789C63.8 73.422 47.116 69.163 29.3 73.555a.5.5 0 0 0 .24.97c17.504-4.314 33.877-.134 50.795 13.043zm.031-8.62a.5.5 0 0 0 .62-.785C64.36 65.01 48.19 60.951 30.883 65.55a.5.5 0 1 0 .257.966c16.987-4.513 32.837-.535 49.226 12.431zm.031-8.621a.5.5 0 1 0 .627-.78C64.92 56.597 49.263 52.74 32.465 57.545a.5.5 0 0 0 .275.962c16.47-4.712 31.795-.937 47.656 11.82zm.031-8.621a.5.5 0 0 0 .634-.774C65.48 48.184 50.337 44.528 34.047 49.54a.5.5 0 1 0 .294.956c15.954-4.91 30.753-1.337 46.086 11.209z" fill="#D5D5D5" fill-rule="nonzero"/><path d="M113 24.5c-3.333-1.333-6.167-.833-8.5 1.5-3.5 3.5 5 30.5 6.25 41 .833 7 .083 16-2.25 27l2.5-1.5 1.5 1.5c1.333-12.667 1.5-22.333.5-29-1.5-10-10.5-39-6-40 3-.667 5-.833 6-.5z" fill="#7D7D7D" opacity=".2"/><path d="M112 24.5c-3.333-1.333-6.167-.833-8.5 1.5-3.5 3.5 2 30.5 3.25 41 .833 7-.25 17-3.25 30l2.5-1.5 1.5 1.5c2-14.667 2.5-25.333 1.5-32-1.5-10-7.5-39-3-40 3-.667 5-.833 6-.5z" fill="#F8D763"/></g></svg>
