<svg width="503" height="532" xmlns="http://www.w3.org/2000/svg" xmlns:xlink="http://www.w3.org/1999/xlink"><defs><path d="M.606 294.63v28.192a8.56 8.56 0 0 0 3.81 7.122L220.533 474.05a14.382 14.382 0 0 0 15.96 0l162.118-107.91 1.036-4.356a21.942 21.942 0 0 1 11.326-14.442l57.485-167.499c4.063-11.381-.15-24.07-10.21-30.752L238.228 2.956a15.575 15.575 0 0 0-8.618-2.602h-8.014l-56.903 191.83L.606 294.63z" id="a"/><linearGradient x1="39.606%" y1="76.518%" x2="53.281%" y2="54.668%" id="c"><stop stop-color="#FAF8F0" offset="0%"/><stop stop-color="#FFF" offset="100%"/></linearGradient><path d="M177.294 203.885s-7.409-41.98 12.719-86.574c14.62-32.392 28.13-76.39 34.428-98.043 1.887-6.489 9.522-9.275 15.141-5.529L461.93 161.997c8.935 5.958 12.623 17.27 8.915 27.355-8.936 24.306-29.048 58.66-40.69 91.914-16.7 47.704-18.943 78.59-18.943 78.59L177.294 203.886z" id="d"/><path d="M177.294 203.885s-10.099-3.234-67.374 34.117L16.537 300.08c-4.44 2.962-4.44 9.495 0 12.456L233.133 456.96a14.382 14.382 0 0 0 15.96 0l100.463-66.8c51.69-31.494 61.655-30.303 61.655-30.303L177.294 203.885z" id="e"/><path d="M.125 45.178l60.354-40.1A764.762 764.762 0 0 1 67.67.444h83.805l139.815 93.227v25.214a803.51 803.51 0 0 0-11.203 6.708l-.327.198-98.386 65.416L.125 70.35V45.178z" id="f"/><path d="M.125 45.178l60.354-40.1A764.762 764.762 0 0 1 67.67.444h83.805l139.815 93.227v25.214a803.51 803.51 0 0 0-11.203 6.708l-.327.198-98.386 65.416L.125 70.35V45.178z" id="h"/><path d="M.007.83h330.54v162.35c-8.585 4.542-19.024 10.473-31.746 18.225l-98.713 65.614L.008 113.607V.83z" id="j"/><radialGradient fx="50%" fy="50%" r="96.375%" gradientTransform="matrix(.47087 .675 -.25707 .4403 .393 -.058)" id="m"><stop stop-color="#C4DE8A" offset="0%"/><stop stop-color="#91AA5A" offset="100%"/></radialGradient><path d="M332.791 129.302s-31.75-6.796-64.666-25.872c-13.325-7.722-21.234-22.76-36-31.95-12.348-7.683-51.434-22.43-62.55-30.15C153.375 30.08 132.372.444 132.372.444c-6.688 2.503-28.614 24.937-55.309 43.674C50.368 62.854.007 81.809.007 81.809L200.09 212.821l132.702-83.519z" id="l"/><path d="M.228 5.973L2.702.518a.585.585 0 0 1 1.135 0l2.474 5.455a1.772 1.772 0 0 1-.536 1.748c-.76.68-1.595 1.02-2.505 1.02-.91 0-1.746-.34-2.505-1.02a1.772 1.772 0 0 1-.537-1.748z" id="o"/><path d="M.228 5.973L2.702.518a.585.585 0 0 1 1.135 0l2.474 5.455a1.772 1.772 0 0 1-.536 1.748c-.76.68-1.595 1.02-2.505 1.02-.91 0-1.746-.34-2.505-1.02a1.772 1.772 0 0 1-.537-1.748z" id="q"/><path d="M.228 5.973L2.702.518a.585.585 0 0 1 1.135 0l2.474 5.455a1.772 1.772 0 0 1-.536 1.748c-.76.68-1.595 1.02-2.505 1.02-.91 0-1.746-.34-2.505-1.02a1.772 1.772 0 0 1-.537-1.748z" id="s"/><path d="M.228 5.973L2.702.518a.585.585 0 0 1 1.135 0l2.474 5.455a1.772 1.772 0 0 1-.536 1.748c-.76.68-1.595 1.02-2.505 1.02-.91 0-1.746-.34-2.505-1.02a1.772 1.772 0 0 1-.537-1.748z" id="u"/><path d="M.456 20.947l4.948-19.91a1.17 1.17 0 0 1 2.27 0l4.949 19.91a3.544 3.544 0 0 1-1.074 3.495c-1.52 1.36-3.19 2.039-5.01 2.039-1.82 0-3.49-.68-5.01-2.039a3.544 3.544 0 0 1-1.073-3.495z" id="w"/><path d="M.35 16.018L4.158.793a.9.9 0 0 1 1.746 0L9.71 16.018a2.7 2.7 0 0 1-.826 2.673c-1.17 1.04-2.454 1.559-3.854 1.559s-2.685-.52-3.854-1.559a2.7 2.7 0 0 1-.825-2.673z" id="y"/><path d="M.35 16.018L4.158.793a.9.9 0 0 1 1.746 0L9.71 16.018a2.7 2.7 0 0 1-.826 2.673c-1.17 1.04-2.454 1.559-3.854 1.559s-2.685-.52-3.854-1.559a2.7 2.7 0 0 1-.825-2.673z" id="A"/><path d="M.35 16.018L4.158.793a.9.9 0 0 1 1.746 0L9.71 16.018a2.7 2.7 0 0 1-.826 2.673c-1.17 1.04-2.454 1.559-3.854 1.559s-2.685-.52-3.854-1.559a2.7 2.7 0 0 1-.825-2.673z" id="C"/><path d="M.35 16.018L4.158.793a.9.9 0 0 1 1.746 0L9.71 16.018a2.7 2.7 0 0 1-.826 2.673c-1.17 1.04-2.454 1.559-3.854 1.559s-2.685-.52-3.854-1.559a2.7 2.7 0 0 1-.825-2.673z" id="E"/><path d="M.35 11.518L4.158.793a.9.9 0 0 1 1.746 0L9.71 11.518a2.7 2.7 0 0 1-.826 2.673c-1.17 1.04-2.454 1.559-3.854 1.559s-2.685-.52-3.854-1.559a2.7 2.7 0 0 1-.825-2.673z" id="G"/><path d="M.35 16.018L4.158.793a.9.9 0 0 1 1.746 0L9.71 16.018a2.7 2.7 0 0 1-.826 2.673c-1.17 1.04-2.454 1.559-3.854 1.559s-2.685-.52-3.854-1.559a2.7 2.7 0 0 1-.825-2.673z" id="I"/><path d="M.35 16.018L4.158.793a.9.9 0 0 1 1.746 0L9.71 16.018a2.7 2.7 0 0 1-.826 2.673c-1.17 1.04-2.454 1.559-3.854 1.559s-2.685-.52-3.854-1.559a2.7 2.7 0 0 1-.825-2.673z" id="K"/><path d="M.35 13.318L4.158.793a.9.9 0 0 1 1.746 0L9.71 13.318a2.7 2.7 0 0 1-.826 2.673c-1.17 1.04-2.454 1.559-3.854 1.559s-2.685-.52-3.854-1.559a2.7 2.7 0 0 1-.825-2.673z" id="M"/><path d="M.228 5.973L2.702.518a.585.585 0 0 1 1.135 0l2.474 5.455a1.772 1.772 0 0 1-.536 1.748c-.76.68-1.595 1.02-2.505 1.02-.91 0-1.746-.34-2.505-1.02a1.772 1.772 0 0 1-.537-1.748z" id="O"/><path d="M.228 5.973L2.702.518a.585.585 0 0 1 1.135 0l2.474 5.455a1.772 1.772 0 0 1-.536 1.748c-.76.68-1.595 1.02-2.505 1.02-.91 0-1.746-.34-2.505-1.02a1.772 1.772 0 0 1-.537-1.748z" id="Q"/><path d="M.228 5.973L2.702.518a.585.585 0 0 1 1.135 0l2.474 5.455a1.772 1.772 0 0 1-.536 1.748c-.76.68-1.595 1.02-2.505 1.02-.91 0-1.746-.34-2.505-1.02a1.772 1.772 0 0 1-.537-1.748z" id="S"/><path d="M.228 5.973L2.702.518a.585.585 0 0 1 1.135 0l2.474 5.455a1.772 1.772 0 0 1-.536 1.748c-.76.68-1.595 1.02-2.505 1.02-.91 0-1.746-.34-2.505-1.02a1.772 1.772 0 0 1-.537-1.748z" id="U"/><path d="M.228 5.973L2.702.518a.585.585 0 0 1 1.135 0l2.474 5.455a1.772 1.772 0 0 1-.536 1.748c-.76.68-1.595 1.02-2.505 1.02-.91 0-1.746-.34-2.505-1.02a1.772 1.772 0 0 1-.537-1.748z" id="W"/><path d="M.228 5.973L2.702.518a.585.585 0 0 1 1.135 0l2.474 5.455a1.772 1.772 0 0 1-.536 1.748c-.76.68-1.595 1.02-2.505 1.02-.91 0-1.746-.34-2.505-1.02a1.772 1.772 0 0 1-.537-1.748z" id="Y"/><path d="M.228 6.873L2.702.518a.585.585 0 0 1 1.135 0l2.474 6.355a1.772 1.772 0 0 1-.536 1.748c-.76.68-1.595 1.02-2.505 1.02-.91 0-1.746-.34-2.505-1.02a1.772 1.772 0 0 1-.537-1.748z" id="aa"/><path d="M.228 6.873L2.702.518a.585.585 0 0 1 1.135 0l2.474 6.355a1.772 1.772 0 0 1-.536 1.748c-.76.68-1.595 1.02-2.505 1.02-.91 0-1.746-.34-2.505-1.02a1.772 1.772 0 0 1-.537-1.748z" id="ac"/><path d="M.228 6.873L2.702.518a.585.585 0 0 1 1.135 0l2.474 6.355a1.772 1.772 0 0 1-.536 1.748c-.76.68-1.595 1.02-2.505 1.02-.91 0-1.746-.34-2.505-1.02a1.772 1.772 0 0 1-.537-1.748z" id="ae"/><path d="M.228 6.873L2.702.518a.585.585 0 0 1 1.135 0l2.474 6.355a1.772 1.772 0 0 1-.536 1.748c-.76.68-1.595 1.02-2.505 1.02-.91 0-1.746-.34-2.505-1.02a1.772 1.772 0 0 1-.537-1.748z" id="ag"/><path d="M149.475 147.88c-9.846-5.583-14.1-10.7-28.05-11.6-13.95-.9-36 19.8-13.95 27.9 22.05 8.1 29.7 4.5 50.85 16.65 21.15 12.15 37.65 8.05 36.9-2.7-1.25-14.75-35.905-24.666-45.75-30.25z" id="ai"/><filter x="-5.1%" y="-9.6%" width="110.3%" height="119.2%" filterUnits="objectBoundingBox" id="aj"><feMorphology radius="4" in="SourceAlpha" result="shadowSpreadInner1"/><feGaussianBlur stdDeviation="3" in="shadowSpreadInner1" result="shadowBlurInner1"/><feOffset in="shadowBlurInner1" result="shadowOffsetInner1"/><feComposite in="shadowOffsetInner1" in2="SourceAlpha" operator="arithmetic" k2="-1" k3="1" result="shadowInnerInner1"/><feColorMatrix values="0 0 0 0 0.694622001 0 0 0 0 0.911601106 0 0 0 0 1 0 0 0 1 0" in="shadowInnerInner1" result="shadowMatrixInner1"/><feGaussianBlur stdDeviation=".5" in="SourceAlpha" result="shadowBlurInner2"/><feOffset in="shadowBlurInner2" result="shadowOffsetInner2"/><feComposite in="shadowOffsetInner2" in2="SourceAlpha" operator="arithmetic" k2="-1" k3="1" result="shadowInnerInner2"/><feColorMatrix values="0 0 0 0 0 0 0 0 0 0 0 0 0 0 0 0 0 0 0.5 0" in="shadowInnerInner2" result="shadowMatrixInner2"/><feMerge><feMergeNode in="shadowMatrixInner1"/><feMergeNode in="shadowMatrixInner2"/></feMerge></filter><path d="M.375 28.28c2.7-6.9 4.5-10.8 5.4-11.7 1.35-1.35 5.876 5.086 6.75 4.05 1.093-1.295 3.9-7.499 8.418-18.612a2.7 2.7 0 0 1 4.761-.46l4.82 7.372 4.157 5.74c3.122-4.317 5.186-5.78 6.194-4.39 1.51 2.087 6.466 8.114 9.9 12.15 3.434 4.037 14.115 12.236 13.05 12.6-5.824 1.993-18.921 1.55-19.8 2.7-1.56 2.04-1.225 5.326-2.25 6.3-2.586 2.457-4.047-1.65-11.25.45-4.803 1.401-7.653 2.901-8.55 4.5l-15.3-13.95-6.3-6.75z" id="ak"/><path d="M.375 31.88c2.311-9.544 4.111-15.694 5.4-18.45.6 1.8 1.52 2.134 2.758 1l5.964-12.757a2.7 2.7 0 0 1 4.71-.328c2.45 3.767 4.423 6.596 5.918 8.485 2.994 3.788 6.041 4.884 7.2 7.2 1.35 2.7 1.862 5.706 3.6 8.55 1.262 2.067 3.662 5.217 7.2 9.45-2.56.44-4.36 1.34-5.4 2.7-1.56 2.04-1.225 5.326-2.25 6.3-2.586 2.457-4.047-1.65-11.25.45-4.803 1.401-7.653 2.901-8.55 4.5L.375 35.03v-3.15z" id="am"/><path d="M.375 31.88c2.311-9.544 4.111-15.694 5.4-18.45.6 1.8 1.52 2.134 2.758 1l5.964-12.757a2.7 2.7 0 0 1 4.71-.328c2.45 3.767 4.423 6.596 5.918 8.485 2.994 3.788 6.041 4.884 7.2 7.2 1.35 2.7 1.862 5.706 3.6 8.55 1.262 2.067 3.662 5.217 7.2 9.45-2.56.44-4.36 1.34-5.4 2.7-1.56 2.04-1.225 5.326-2.25 6.3-2.586 2.457-4.047-1.65-11.25.45-4.803 1.401-7.653 2.901-8.55 4.5L.375 35.03v-3.15z" id="ao"/><path d="M.375 31.88L14.522 1.622a2.7 2.7 0 0 1 4.705-.334l4.998 7.642 18.9 26.1c-2.56.44-4.36 1.34-5.4 2.7-1.56 2.04-1.225 5.326-2.25 6.3-2.586 2.457-4.047-1.65-11.25.45-4.803 1.401-7.653 2.901-8.55 4.5L.375 35.03v-3.15z" id="aq"/><path d="M.35 16.018L4.158.793a.9.9 0 0 1 1.746 0L9.71 16.018a2.7 2.7 0 0 1-.826 2.673c-1.17 1.04-2.454 1.559-3.854 1.559s-2.685-.52-3.854-1.559a2.7 2.7 0 0 1-.825-2.673z" id="as"/><path d="M.35 13.318L4.158.793a.9.9 0 0 1 1.746 0L9.71 13.318a2.7 2.7 0 0 1-.826 2.673c-1.17 1.04-2.454 1.559-3.854 1.559s-2.685-.52-3.854-1.559a2.7 2.7 0 0 1-.825-2.673z" id="au"/><path d="M.456 17.347l4.948-16.31a1.17 1.17 0 0 1 2.27 0l4.949 16.31a3.544 3.544 0 0 1-1.074 3.495c-1.52 1.36-3.19 2.039-5.01 2.039-1.82 0-3.49-.68-5.01-2.039a3.544 3.544 0 0 1-1.073-3.495z" id="aw"/><path d="M.456 20.947l4.948-19.91a1.17 1.17 0 0 1 2.27 0l4.949 19.91a3.544 3.544 0 0 1-1.074 3.495c-1.52 1.36-3.19 2.039-5.01 2.039-1.82 0-3.49-.68-5.01-2.039a3.544 3.544 0 0 1-1.073-3.495z" id="ay"/><path d="M.456 20.947l4.948-19.91a1.17 1.17 0 0 1 2.27 0l4.949 19.91a3.544 3.544 0 0 1-1.074 3.495c-1.52 1.36-3.19 2.039-5.01 2.039-1.82 0-3.49-.68-5.01-2.039a3.544 3.544 0 0 1-1.073-3.495z" id="aA"/><path d="M.456 16.447l4.948-15.41a1.17 1.17 0 0 1 2.27 0l4.949 15.41a3.544 3.544 0 0 1-1.074 3.495c-1.52 1.36-3.19 2.039-5.01 2.039-1.82 0-3.49-.68-5.01-2.039a3.544 3.544 0 0 1-1.073-3.495z" id="aC"/><path d="M.456 20.947l4.948-19.91a1.17 1.17 0 0 1 2.27 0l4.949 19.91a3.544 3.544 0 0 1-1.074 3.495c-1.52 1.36-3.19 2.039-5.01 2.039-1.82 0-3.49-.68-5.01-2.039a3.544 3.544 0 0 1-1.073-3.495z" id="aE"/><path d="M.456 20.947l4.948-19.91a1.17 1.17 0 0 1 2.27 0l4.949 19.91a3.544 3.544 0 0 1-1.074 3.495c-1.52 1.36-3.19 2.039-5.01 2.039-1.82 0-3.49-.68-5.01-2.039a3.544 3.544 0 0 1-1.073-3.495z" id="aG"/><path d="M10.95 76.5c.804-5.121 1.608-11.185 2.411-18.193 1.206-10.511-.036-12.533 0-16.98.037-4.447 4.621-14.15 5.425-20.214-.201 3.639-.603 22.64 2.611 31.534 2.143 5.93 4.152 14.554 6.027 25.874.874.986 1.678 1.525 2.41 1.617.734.092 2.073-.177 4.019-.808.267-10.512-.268-17.923-1.608-22.236-2.009-6.468-2.812-11.32-2.812-13.34 0-2.022 1.607-15.768 2.41-20.62.777-4.686 1.812-13.303 0-19-.063-.2-1.137-.617-1.205-.809C20.192.9 11.486 1.17 4.522 4.134 2.915 21.383 2.513 33.242 3.317 39.71c1.205 9.703 2.009 19.001 2.009 19.81v14.554c.258 1.28.66 2.088 1.205 2.426.546.337 2.019.337 4.42 0z" id="aI"/><path d="M3.792 56.994c7.5 3.234 16.875 3.369 28.125.404 6.314-6.065 4.688-35.67.401-48.918-1.168-3.611-2.556-6.32-4.42-6.546C19.2.882 16.248 2.636 13.034 7.197 10.89 7.244 8.9 8.24 7.065 10.181c-2.45 4.918-3.81 8.663-4.077 11.236-.402 3.86 1.607 7.182 1.607 11.041 0 2.573-.268 10.752-.803 24.536z" id="aK"/><path d="M6.59 2.315c8.988-.925 14.417-1.305 16.285-1.14 2.802.246 6.246 4.824 5.025 9.586-.847.467-.894 1.004-.14 1.611 3.027 2.296 1.62 24.807-.064 28.826-1.684 4.02-20.05 4.633-22.417 4.02-2.367-.615-3.497-1.526-3.548-5.589-.05-4.063-1.24-22.835 2.642-25.74-3.723-3.574-1.701-8.266-.76-9.807.626-1.027 1.619-1.616 2.976-1.767z" id="aM"/><path d="M76.5 2C66.833 9 59.667 14.5 55 18.5c-7 6-9.5 5-14 8S32.5 33 19.5 39-1 52 1 54s5 6.5 10 4.5S24.5 50 33 47s11-9 14.5-8 3.5 8.5 5.5 9.5 8.5-1 14.5-8c0-4-13-3.5-11-5.5.5-2 4-5.5 9.5-8.5s11.5-12 16.5-13 8-5.5 4-9.5c-1.86-1.86-4.165-3.25-7-3-.818.072-1.818.405-3 1z" id="aO"/></defs><g fill="none" fill-rule="evenodd"><path d="M24.287 391.906l202.14 134.785a25.806 25.806 0 0 0 28.703-.045l164.293-110.715c7.393-4.963 7.376-15.853-.033-20.793L210.34 255.745a12.483 12.483 0 0 0-13.851 0L24.287 371.091c-7.422 4.95-7.422 15.866 0 20.815" fill="#93B4AB" opacity=".225"/><path d="M0 347.7v-5.001L173.936 227.92a7.218 7.218 0 0 1 8.01 0L246.454 2.38s8.205-3.317 12.943-.575l228.165 149.18c12.622 8.253 18.027 24.037 13.116 38.305L437.75 373.093c-2.136 6.625-6.801 12.754-11.967 17.415v.002l-9.026 6.018-157.554 104.867a30.942 30.942 0 0 1-34.335 0L2.9 353.128A6.53 6.53 0 0 1 0 347.7" fill="#D1B49A"/><path d="M3.207 348.694c-4.276-2.851-4.276-9.141 0-11.993l170.097-113.23a7.193 7.193 0 0 1 7.98 0L239.853 9.646c1.94-7.085 10.213-10.224 16.358-6.206l227.296 148.61c12.574 8.222 17.958 23.947 13.065 38.16l-61.022 177.28-.252.783a39.407 39.407 0 0 1-11.104 17.165l-8.992 5.996-158.356 105.403a28.349 28.349 0 0 1-31.462 0L3.207 348.694" fill="#867054"/><path d="M496.571 190.211l-61.022 177.28c-2.38 7.383-6.21 13.304-11.356 17.948l-8.992 5.996L278.55 482.4c-9.527 6.353-30.523 11.753-40.05 5.4 127.882-189.738 205.282-292.788 232.2-309.15 22.95-13.95 26.726 9.078 25.871 11.561z" fill="#513B20" opacity=".5"/><path d="M186.588 228.63L246.1 11.362c.607-2.216 2.554-3.207 4.214-3.207.837 0 1.63.24 2.355.715L479.964 157.48a26.31 26.31 0 0 1 10.483 30.618L429.384 365.5l-.252.783a32.974 32.974 0 0 1-8.943 14.035l-8.58 5.721-158.351 105.4a21.817 21.817 0 0 1-12.144 3.68 21.81 21.81 0 0 1-12.14-3.678L10.582 345.766c-2.183-1.457-2.182-4.667.002-6.122L176.89 228.87a.707.707 0 0 1 .403-.124c.145 0 .28.04.4.121l4.47 2.98" stroke="#BE9365" stroke-width="1.08" stroke-linecap="round" stroke-linejoin="round" stroke-dasharray="3.603599643611915,3.603599643611915"/><path stroke="#F7931E" stroke-width=".72" stroke-linecap="round" stroke-linejoin="round" d="M183.662 232.847l1.498.998.476-1.737"/><path d="M393.26 354.18l-144.166 95.94a14.382 14.382 0 0 1-15.96 0L16.537 305.697" fill="#FFF"/><path d="M393.26 354.18l-144.166 95.94a14.382 14.382 0 0 1-15.96 0L16.537 305.697" stroke="#000" stroke-width=".72" stroke-linecap="round" stroke-linejoin="round"/><g transform="translate(12.6 12.065)"><mask id="b" fill="#fff"><use xlink:href="#a"/></mask><use fill="#F4F1EC" xlink:href="#a"/><path stroke="#DCD3C4" stroke-width="1.8" d="M1.506 295.13v27.692a7.66 7.66 0 0 0 3.409 6.374L221.033 473.3a13.482 13.482 0 0 0 14.962 0l161.822-107.714.955-4.011a22.843 22.843 0 0 1 11.466-14.865l57.372-167.17c3.925-10.993-.144-23.247-9.86-29.7L237.73 3.705a14.675 14.675 0 0 0-8.12-2.452h-7.342L165.46 192.767 1.506 295.13z"/><path fill="#DFDCD3" opacity=".6" mask="url(#b)" d="M228.15 445.585v39.16l214.2-99.46 54-224.55-44.1 3.15-221.4 272.25z"/></g><g transform="translate(0 .365)"><use fill="url(#c)" xlink:href="#d"/><path stroke="#DCD3C4" stroke-width="1.8" d="M178.12 203.353l232.332 154.916c.117-1.164.275-2.533.478-4.1.591-4.569 1.444-9.884 2.607-15.89 3.318-17.147 8.447-36.397 15.768-57.31a278.145 278.145 0 0 1 3.683-9.888c3.871-9.845 8.387-19.963 14.56-32.934 1.508-3.167 10.278-21.331 12.596-26.256 4.45-9.455 7.557-16.598 9.855-22.85 3.565-9.694.02-20.568-8.57-26.295L239.083 14.488c-5.114-3.41-12.06-.873-13.778 5.032-10.489 36.06-22.485 71.603-34.472 98.161-7.107 15.747-11.274 32.217-13.03 48.809-1.264 11.954-1.18 22.828-.28 32.021.145 1.475.3 2.772.455 3.881.05.367.098.688.141.96z"/></g><path d="M391.95 324.9c4.8-34.8 21.75-81.15 50.85-139.05M377.55 315.9c4.8-34.8 21.75-81.15 50.85-139.05M363.6 305.55c4.8-34.8 21.75-81.15 50.85-139.05" stroke="#979797" stroke-width=".9" opacity=".2"/><g transform="translate(0 .365)"><use fill="#FFF" xlink:href="#e"/><path stroke="#DCD3C4" stroke-width="1.8" d="M176.948 204.735c-.593-.073-1.672.006-3.341.372-2.592.568-6.032 1.72-10.432 3.59-12.067 5.134-29.35 14.79-52.757 30.054l-93.382 62.078c-3.906 2.606-3.906 8.353 0 10.958l216.597 144.424a13.483 13.483 0 0 0 14.962 0l100.493-66.819c21.964-13.383 38.12-21.941 49.364-26.626 4.052-1.688 7.212-2.763 9.592-3.342.234-.057.456-.108.666-.153L176.948 204.735zm234.171 156.017l-.015-.002.018.002h-.003z"/></g><path d="M40.953 306.673l79.264-52.664c30.968-20.19 46.493-27.347 53.18-29.85l198.176 132.14c-8.586 4.542-19.024 10.473-31.747 18.226l-.326.198-98.386 65.415-200.16-133.465z" fill="#EAE8E2"/><path d="M331.2 382.05c5.4 6.9 10.65 11.4 15.75 13.5 5.1 2.1 2.55 3.75-7.65 4.95-4.455-3.154-7.455-5.404-9-6.75-5.117-4.457-7.2-7.48-7.2-8.1 0-.9 2.7-2.1 8.1-3.6z" fill="#EAE8E2"/><text transform="rotate(-65 236.137 138.687)" font-family="Merriweather-Italic, Merriweather" font-size="19.8" font-style="italic" fill="#E1DDD2"><tspan x="231.637" y="145.687">1</tspan></text><path d="M259.549 186.22c-.09.45-.224.927-.405 1.433-.18.506-.42.933-.717 1.28-.299.348-.636.621-1.012.82a3.543 3.543 0 0 1-1.218.381c-.436.055-.884.06-1.344.014a8.134 8.134 0 0 1-2.731-.826c-.88-.442-1.621-.899-2.225-1.37a10.516 10.516 0 0 1-1.625-1.572 9.798 9.798 0 0 1-1.2-1.806 8.478 8.478 0 0 1-.708-1.91c-.306-1.327-.253-2.569.16-3.727.39-1.1.89-2.066 1.495-2.9l.212-.285 2.93 2.15-.364 1.021-2.292-.914c-.277.156-.497.402-.66.738-.164.336-.32.711-.466 1.124-.148.413-.194.89-.138 1.433.055.542.201 1.065.438 1.568.237.503.543.982.917 1.438 1.028 1.243 2.307 2.25 3.838 3.018 1.315.661 2.497.98 3.545.958 1.185-.03 1.952-.532 2.3-1.51.275-.774.342-1.498.2-2.173a1.396 1.396 0 0 0-.258-.603l-1.471-1.439.384-1.051 2.703 1.769c-.009.174-.016.407-.023.698-.006.292-.03.627-.07 1.004-.04.377-.106.79-.195 1.24zm4.335-11.763c-.269.757-.77.927-1.5.512-.48-.275-.99-.612-1.533-1.012-.542-.399-.928-.682-1.158-.848-.229-.167-.48-.353-.752-.558a25.148 25.148 0 0 0-.845-.61c-.653-.465-1.176-.797-1.57-.994-.392-.197-.686-.314-.881-.35-.195-.037-.355-.031-.48.016-.18.074-.32.25-.418.526a2.254 2.254 0 0 0-.12.89c.017.318.076.656.176 1.016.215.773.556 1.53 1.023 2.273l6.094 4.09-.603 1.692-12.056-8.04-.734.845-.656-.505.468-2.501.392-.338 5.785 3.883c-.734-1.274-1.09-2.469-1.07-3.583.01-.386.073-.74.188-1.063.115-.323.26-.583.434-.78.174-.197.394-.329.659-.395.55-.149 1.283.007 2.2.467a11.01 11.01 0 0 1 1.656 1.059l1.225.913 1.277.91c.912.642 1.47.99 1.673 1.04.204.05.32.035.349-.046.072-.204.024-.595-.146-1.174l.54-.048c.156.223.278.52.367.894.175.753.18 1.36.016 1.82zm1.985-9.98c.618 1.202.746 2.312.384 3.33-.336.943-.941 1.493-1.816 1.65-.817.145-1.783-.062-2.9-.623-.916-.46-1.781-1.159-2.595-2.096-1.363-1.562-2.062-3.217-2.098-4.963a4.842 4.842 0 0 1 .28-1.774c.202-.57.512-1.11.929-1.621l.08-1.185 7.919 5.326c.223.146.396.21.52.194.123-.017.207-.088.251-.213.045-.125-.005-.42-.148-.882l.549-.044c.14.188.254.454.34.799.168.695.177 1.255.025 1.68-.263.738-.739.935-1.428.589l-.12-.06-.172-.108zm-7.093-4.736c-.285.18-.508.496-.67.95a3.06 3.06 0 0 0-.185 1.31c.038.421.143.832.315 1.235.173.402.4.788.68 1.159.28.37.589.716.925 1.035.656.625 1.28 1.085 1.869 1.381.589.296 1.061.496 1.417.6.356.103.67.15.941.142.567-.01.93-.236 1.087-.678.265-.745.188-1.6-.234-2.566a5.817 5.817 0 0 0-.367-.72l-5.778-3.848zm11.482-4.14c.013.603-.063 1.137-.229 1.603a6.454 6.454 0 0 1-.618 1.284l4.186 2.833-.59 1.658-12.188-8.21-.774.732-.62-.496.371-2.51.351-.306.995.684c-.584-1.13-.702-2.184-.354-3.161.348-.978.964-1.55 1.849-1.715.827-.154 1.795.047 2.905.605 1.458.732 2.679 1.921 3.663 3.568.678 1.13 1.03 2.273 1.053 3.43zm-1.989 2.107c.313-.2.554-.536.722-1.01.17-.475.232-.918.187-1.331a3.86 3.86 0 0 0-.342-1.216 5.817 5.817 0 0 0-.708-1.149 8.667 8.667 0 0 0-.948-1.026 9.496 9.496 0 0 0-2.22-1.557c-.794-.399-1.46-.58-2-.542-.541.037-.892.282-1.054.736-.238.67-.157 1.488.243 2.457.106.267.222.507.347.72l5.773 3.918zm4.987-9.563c-.38 1.064-1.079 1.34-2.098.829l-.094-.047c-.176-.089-.511-.298-1.004-.628l-5.9-3.9-.373 1.047-.681-.547-.019-1.275c-.27-.526-.888-1.294-1.858-2.302l.295-.83 2.123 1.417.815-2.286 1.124.77-.805 2.26 5.088 3.41c.654.445 1.102.728 1.344.85.242.121.418.198.527.229.11.03.203.035.278.01.142-.038.25-.16.323-.367.073-.207.114-.4.121-.582.008-.181.003-.37-.015-.564a6.062 6.062 0 0 0-.176-1.034l.722.177c.332.633.472 1.475.42 2.526-.018.313-.07.592-.157.837zm1.647-8.556c.38-1.065.316-2.262-.19-3.593l.852-.046c.306.497.517 1.13.632 1.902.15.933.103 1.744-.142 2.434-.246.69-.556 1.2-.93 1.534-.731.661-1.634.887-2.707.677-.463-.095-.817-.204-1.061-.327a31.61 31.61 0 0 1-.794-.414c-.285-.153-.664-.422-1.137-.808a9.771 9.771 0 0 1-1.288-1.259 9.25 9.25 0 0 1-1.004-1.435 7.124 7.124 0 0 1-.651-1.536c-.318-1.106-.31-2.125.02-3.056.432-1.21 1.137-1.768 2.117-1.673.3.027.634.133 1.004.319s.699.474.985.865c.287.391.513.827.678 1.307.164.48.275.985.331 1.515.057.529.077 1.043.06 1.542-.024 1.01-.143 1.832-.355 2.466.115.072.224.133.327.185.102.051.226.11.37.175.145.066.334.127.57.183.234.057.47.089.705.097a1.87 1.87 0 0 0 .66-.09c.459-.154.774-.475.948-.964zm-4.504-.102c.263-.869.305-1.836.127-2.899-.121-.754-.376-1.375-.765-1.866-.197-.257-.481-.478-.851-.664-.37-.186-.692-.228-.967-.125-.275.102-.467.308-.578.62-.111.31-.144.625-.1.943.045.317.143.632.293.944.15.312.34.62.568.923a8.9 8.9 0 0 0 .732.856 9.744 9.744 0 0 0 1.541 1.268zm-.214-10.478l-.824.615-.704-.538.309-2.336.354-.316 1.873 1.157a5.348 5.348 0 0 1-1.181-2.96c-.035-.428-.007-.77.084-1.027.158-.442.287-.682.388-.72l1.64 1.275c-.138.123-.265.346-.38.67a3.23 3.23 0 0 0-.196.888c-.015.27.012.56.083.87.17.71.556 1.398 1.158 2.063l5.838 3.848-.606 1.702-7.836-5.191z" fill="#E1DDD2"/><g><g transform="translate(59.739 248.932)"><mask id="g" fill="#fff"><use xlink:href="#f"/></mask><path d="M291.291 118.887L113.658.444c-6.687 2.503-22.212 9.66-53.18 29.85L.126 70.35l181.25 120.857 109.916-72.32z" fill="#F9E6D7" mask="url(#g)"/></g><g transform="translate(59.739 248.932)"><mask id="i" fill="#fff"><use xlink:href="#h"/></mask><path d="M291.291 118.887L113.658.444c-6.687 2.503-22.212 9.66-53.18 29.85L.126 70.35l181.25 120.857 109.916-72.32z" stroke="#42210B" stroke-width=".72" stroke-linecap="round" stroke-linejoin="round" mask="url(#i)"/></g><g transform="translate(41.025 193.12)"><mask id="k" fill="#fff"><use xlink:href="#j"/></mask><g mask="url(#k)"><g transform="translate(0 37.8)"><mask id="n" fill="#fff"><use xlink:href="#l"/></mask><use fill="#B3CC7B" xlink:href="#l"/><use fill="url(#m)" xlink:href="#l"/><path d="M49.975 59.08c5.888 2.89 10.838 4.39 14.85 4.5 9.837.273 15.75-1.8 18 2.7 2.487 4.976-16.705 5.796-12.15 10.35 3.6 3.6 10.315.982 13.95 3.6 2.753 1.984 4.707 5.402 8.55 7.2 2.684 1.257 6.75-2.25 12.15 0 11.063 4.61-17.1 17.55-14.85 30.15 2.25 12.6 17.55 13.05 39.6 18 22.05 4.95 32.85 15.75 45 18 12.15 2.25 29.25-1.35 22.95-18-6.3-16.65-17.55-22.5-11.25-26.55 6.3-4.05 14.85 1.8 18.9 6.3 4.05 4.5 11.7 10.35 13.95 4.5s-8.55-6.594-6.75-12.972c1.8-6.377 8.55-.077 16.2 8.473 7.65 8.55 7.65 13.5 15.3 10.8 7.65-2.7 5.4-17.1 13.05-17.1s14.4 12.6 5.85 20.7-16.2 1.35-26.1 8.1c-9.9 6.75-22.5 22.95-9.9 23.4 12.6.45 7.65-5.4 17.1-7.65 9.45-2.25-7.2 12.6 0 14.4 7.2 1.8 13.95-12.15 21.15-12.15 4.8 0 8.85.75 12.15 2.25" stroke="#FFF" stroke-width="1.8" mask="url(#n)"/><g mask="url(#n)"><path d="M175.747 186.646l8.566 1.939a.585.585 0 0 0 .451-1.06l-5.799-3.821-3.218 2.942z" fill="#8FA955" opacity=".6"/><g transform="translate(173.7 178.2)"><mask id="p" fill="#fff"><use xlink:href="#o"/></mask><use fill="#768A38" xlink:href="#o"/><path d="M3.217-4.794C5.947 5.798 4.875 9.917 0 7.563c-4.875-2.353-5.557-.294-2.047 6.18l16.38-2.355L7.896-2.44l-4.68-2.354z" fill="#63752B" mask="url(#p)"/></g></g><g mask="url(#n)"><path d="M200.947 175.846l8.566 1.939a.585.585 0 0 0 .451-1.06l-5.799-3.821-3.218 2.942z" fill="#8FA955" opacity=".6"/><g transform="translate(198.9 167.4)"><mask id="r" fill="#fff"><use xlink:href="#q"/></mask><use fill="#768A38" xlink:href="#q"/><path d="M3.217-4.794C5.947 5.798 4.875 9.917 0 7.563c-4.875-2.353-5.557-.294-2.047 6.18l16.38-2.355L7.896-2.44l-4.68-2.354z" fill="#63752B" mask="url(#r)"/></g></g><g mask="url(#n)"><path d="M230.647 183.046l8.566 1.939a.585.585 0 0 0 .451-1.06l-5.799-3.821-3.218 2.942z" fill="#8FA955" opacity=".6"/><g transform="translate(228.6 174.6)"><mask id="t" fill="#fff"><use xlink:href="#s"/></mask><use fill="#768A38" xlink:href="#s"/><path d="M3.217-4.794C5.947 5.798 4.875 9.917 0 7.563c-4.875-2.353-5.557-.294-2.047 6.18l16.38-2.355L7.896-2.44l-4.68-2.354z" fill="#63752B" mask="url(#t)"/></g></g><g mask="url(#n)"><path d="M158.647 175.846l8.566 1.939a.585.585 0 0 0 .451-1.06l-5.799-3.821-3.218 2.942z" fill="#8FA955" opacity=".6"/><g transform="translate(156.6 167.4)"><mask id="v" fill="#fff"><use xlink:href="#u"/></mask><use fill="#768A38" xlink:href="#u"/><path d="M3.217-4.794C5.947 5.798 4.875 9.917 0 7.563c-4.875-2.353-5.557-.294-2.047 6.18l16.38-2.355L7.896-2.44l-4.68-2.354z" fill="#63752B" mask="url(#v)"/></g></g><path d="M49.425 110.18c1.5 6.3 4.2 9.45 8.1 9.45 1.411 0 4.958 3.03 9.9 2.7 3.982-.265 10.701-1.177 11.49-1.35 2.291-.499-7.81-8.55-6.54-8.55 1.5 0 6.9-.75 16.2-2.25-3.9-5.4-6.45-8.25-7.65-8.55-1.2-.3-2.25-2.4-3.15-6.3l10.8-2.25-9.45-4.05-9-4.95c6-.3 9.15-1.2 9.45-2.7-3.15-3.6-8.55-4.05-17.1-6.75-1.52 0-5.877-1.094-9.45-4.05-.682-.563 30.551-19.07 41.85-28.35 23.844-19.583 39.075-40.057 38.25-40.5-2.678-1.434-33.728 18.516-93.15 59.85l-15.3 21.15 24.75 27.45z" fill="#141414" style="mix-blend-mode:multiply" opacity=".15" mask="url(#n)"/></g></g><g mask="url(#k)"><path d="M125.07 58.673l17.13 3.877a1.17 1.17 0 0 0 .903-2.118l-11.598-7.644-6.435 5.885z" fill="#8FA955" opacity=".6"/><g transform="translate(120.975 32.78)"><mask id="x" fill="#fff"><use xlink:href="#w"/></mask><use fill="#768A38" xlink:href="#w"/><path d="M6.435-.588C11.895 20.596 9.75 28.835 0 24.127c-9.75-4.708-11.115-.589-4.095 12.358l32.76-4.708-12.87-27.658-9.36-4.707z" fill="#63752B" mask="url(#x)"/></g></g><g mask="url(#k)"><path d="M121.425 68.78l13.156 2.96a.9.9 0 0 0 .691-1.63l-8.897-5.83-4.95 4.5z" fill="#8FA955" opacity=".6"/><g transform="translate(118.275 48.98)"><mask id="z" fill="#fff"><use xlink:href="#y"/></mask><use fill="#8FA54A" xlink:href="#y"/><path d="M4.95-.45c4.2 16.2 2.55 22.5-4.95 18.9-7.5-3.6-8.55-.45-3.15 9.45l25.2-3.6-9.9-21.15-7.2-3.6z" fill="#7A8F37" mask="url(#z)"/></g></g><g mask="url(#k)"><path d="M193.425 226.28l13.156 2.96a.9.9 0 0 0 .691-1.63l-8.897-5.83-4.95 4.5z" fill="#8FA955" opacity=".6"/><g transform="translate(190.275 206.48)"><mask id="B" fill="#fff"><use xlink:href="#A"/></mask><use fill="#8FA54A" xlink:href="#A"/><path d="M4.95-.45c4.2 16.2 2.55 22.5-4.95 18.9-7.5-3.6-8.55-.45-3.15 9.45l25.2-3.6-9.9-21.15-7.2-3.6z" fill="#7A8F37" mask="url(#B)"/></g></g><g mask="url(#k)"><path d="M179.925 232.58l13.156 2.96a.9.9 0 0 0 .691-1.63l-8.897-5.83-4.95 4.5z" fill="#8FA955" opacity=".6"/><g transform="translate(176.775 212.78)"><mask id="D" fill="#fff"><use xlink:href="#C"/></mask><use fill="#8FA54A" xlink:href="#C"/><path d="M4.95-.45c4.2 16.2 2.55 22.5-4.95 18.9-7.5-3.6-8.55-.45-3.15 9.45l25.2-3.6-9.9-21.15-7.2-3.6z" fill="#7A8F37" mask="url(#D)"/></g></g><g mask="url(#k)"><path d="M168.225 230.78l13.156 2.96a.9.9 0 0 0 .691-1.63l-8.897-5.83-4.95 4.5z" fill="#8FA955" opacity=".6"/><g transform="translate(165.075 210.98)"><mask id="F" fill="#fff"><use xlink:href="#E"/></mask><use fill="#8FA54A" xlink:href="#E"/><path d="M4.95-.45c4.2 16.2 2.55 22.5-4.95 18.9-7.5-3.6-8.55-.45-3.15 9.45l25.2-3.6-9.9-21.15-7.2-3.6z" fill="#7A8F37" mask="url(#F)"/></g></g><g mask="url(#k)"><path d="M189.825 232.58l13.156 2.96a.9.9 0 0 0 .691-1.63l-8.897-5.83-4.95 4.5z" fill="#8FA955" opacity=".6"/><g transform="translate(186.675 217.28)"><mask id="H" fill="#fff"><use xlink:href="#G"/></mask><use fill="#8FA54A" xlink:href="#G"/><path d="M4.95-4.95c4.2 16.2 2.55 22.5-4.95 18.9-7.5-3.6-8.55-.45-3.15 9.45l25.2-3.6-9.9-21.15-7.2-3.6z" fill="#7A8F37" mask="url(#H)"/></g></g><g mask="url(#k)"><path d="M135.825 69.68l13.156 2.96a.9.9 0 0 0 .691-1.63l-8.897-5.83-4.95 4.5z" fill="#8FA955" opacity=".6"/><g transform="translate(132.675 49.88)"><mask id="J" fill="#fff"><use xlink:href="#I"/></mask><use fill="#8FA54A" xlink:href="#I"/><path d="M4.95-.45c4.2 16.2 2.55 22.5-4.95 18.9-7.5-3.6-8.55-.45-3.15 9.45l25.2-3.6-9.9-21.15-7.2-3.6z" fill="#7A8F37" mask="url(#J)"/></g></g><g mask="url(#k)"><path d="M208.35 219.6l13.157 2.96a.9.9 0 0 0 .69-1.63l-8.897-5.83-4.95 4.5z" fill="#8FA955" opacity=".6"/><g transform="translate(205.2 199.8)"><mask id="L" fill="#fff"><use xlink:href="#K"/></mask><use fill="#8FA54A" xlink:href="#K"/><path d="M4.95-.45c4.2 16.2 2.55 22.5-4.95 18.9-7.5-3.6-8.55-.45-3.15 9.45l25.2-3.6-9.9-21.15-7.2-3.6z" fill="#7A8F37" mask="url(#L)"/></g></g><g mask="url(#k)"><path d="M199.725 228.08l13.156 2.96a.9.9 0 0 0 .691-1.63l-8.897-5.83-4.95 4.5z" fill="#8FA955" opacity=".6"/><g transform="translate(196.575 210.98)"><mask id="N" fill="#fff"><use xlink:href="#M"/></mask><use fill="#8FA54A" xlink:href="#M"/><path d="M4.95-3.15c4.2 16.2 2.55 22.5-4.95 18.9-7.5-3.6-8.55-.45-3.15 9.45l25.2-3.6L12.15.45l-7.2-3.6z" fill="#7A8F37" mask="url(#N)"/></g></g><g mask="url(#k)"><path d="M173.947 198.346l8.566 1.939a.585.585 0 0 0 .451-1.06l-5.799-3.821-3.218 2.942z" fill="#8FA955" opacity=".6"/><g transform="translate(171.9 189.9)"><mask id="P" fill="#fff"><use xlink:href="#O"/></mask><use fill="#768A38" xlink:href="#O"/><path d="M3.217-4.794C5.947 5.798 4.875 9.917 0 7.563c-4.875-2.353-5.557-.294-2.047 6.18l16.38-2.355L7.896-2.44l-4.68-2.354z" fill="#63752B" mask="url(#P)"/></g></g><g mask="url(#k)"><path d="M197.347 113.746l8.566 1.939a.585.585 0 0 0 .451-1.06l-5.799-3.821-3.218 2.942z" fill="#8FA955" opacity=".6"/><g transform="translate(195.3 105.3)"><mask id="R" fill="#fff"><use xlink:href="#Q"/></mask><use fill="#768A38" xlink:href="#Q"/><path d="M3.217-4.794C5.947 5.798 4.875 9.917 0 7.563c-4.875-2.353-5.557-.294-2.047 6.18l16.38-2.355L7.896-2.44l-4.68-2.354z" fill="#63752B" mask="url(#R)"/></g></g><g mask="url(#k)"><path d="M195.547 199.246l8.566 1.939a.585.585 0 0 0 .451-1.06l-5.799-3.821-3.218 2.942z" fill="#8FA955" opacity=".6"/><g transform="translate(193.5 190.8)"><mask id="T" fill="#fff"><use xlink:href="#S"/></mask><use fill="#768A38" xlink:href="#S"/><path d="M3.217-4.794C5.947 5.798 4.875 9.917 0 7.563c-4.875-2.353-5.557-.294-2.047 6.18l16.38-2.355L7.896-2.44l-4.68-2.354z" fill="#63752B" mask="url(#T)"/></g></g><g mask="url(#k)"><path d="M172.147 149.746l8.566 1.939a.585.585 0 0 0 .451-1.06l-5.799-3.821-3.218 2.942z" fill="#8FA955" opacity=".6"/><g transform="translate(170.1 141.3)"><mask id="V" fill="#fff"><use xlink:href="#U"/></mask><use fill="#768A38" xlink:href="#U"/><path d="M3.217-4.794C5.947 5.798 4.875 9.917 0 7.563c-4.875-2.353-5.557-.294-2.047 6.18l16.38-2.355L7.896-2.44l-4.68-2.354z" fill="#63752B" mask="url(#V)"/></g></g><g mask="url(#k)"><path d="M92.947 121.846l8.566 1.939a.585.585 0 0 0 .451-1.06l-5.799-3.821-3.218 2.942z" fill="#8FA955" opacity=".6"/><g transform="translate(90.9 113.4)"><mask id="X" fill="#fff"><use xlink:href="#W"/></mask><use fill="#768A38" xlink:href="#W"/><path d="M3.217-4.794C5.947 5.798 4.875 9.917 0 7.563c-4.875-2.353-5.557-.294-2.047 6.18l16.38-2.355L7.896-2.44l-4.68-2.354z" fill="#63752B" mask="url(#X)"/></g></g><g mask="url(#k)"><path d="M152.347 84.046l8.566 1.939a.585.585 0 0 0 .451-1.06l-5.799-3.821-3.218 2.942z" fill="#8FA955" opacity=".6"/><g transform="translate(150.3 75.6)"><mask id="Z" fill="#fff"><use xlink:href="#Y"/></mask><use fill="#768A38" xlink:href="#Y"/><path d="M3.217-4.794C5.947 5.798 4.875 9.917 0 7.563c-4.875-2.353-5.557-.294-2.047 6.18l16.38-2.355L7.896-2.44l-4.68-2.354z" fill="#63752B" mask="url(#Z)"/></g></g><g mask="url(#k)"><path d="M201.847 192.046l8.566 1.939a.585.585 0 0 0 .451-1.06l-5.799-3.821-3.218 2.942z" fill="#8FA955" opacity=".6"/><g transform="translate(199.8 182.7)"><mask id="ab" fill="#fff"><use xlink:href="#aa"/></mask><use fill="#8FA54A" xlink:href="#aa"/><path d="M3.217-3.894C5.947 6.698 4.875 10.817 0 8.463c-4.875-2.353-5.557-.294-2.047 6.18l16.38-2.355L7.896-1.54l-4.68-2.354z" fill="#7A8F37" mask="url(#ab)"/></g></g><g mask="url(#k)"><path d="M119.947 84.046l8.566 1.939a.585.585 0 0 0 .451-1.06l-5.799-3.821-3.218 2.942z" fill="#8FA955" opacity=".6"/><g transform="translate(117.9 74.7)"><mask id="ad" fill="#fff"><use xlink:href="#ac"/></mask><use fill="#8FA54A" xlink:href="#ac"/><path d="M3.217-3.894C5.947 6.698 4.875 10.817 0 8.463c-4.875-2.353-5.557-.294-2.047 6.18l16.38-2.355L7.896-1.54l-4.68-2.354z" fill="#7A8F37" mask="url(#ad)"/></g></g><g mask="url(#k)"><path d="M160.447 120.046l8.566 1.939a.585.585 0 0 0 .451-1.06l-5.799-3.821-3.218 2.942z" fill="#8FA955" opacity=".6"/><g transform="translate(158.4 110.7)"><mask id="af" fill="#fff"><use xlink:href="#ae"/></mask><use fill="#8FA54A" xlink:href="#ae"/><path d="M3.217-3.894C5.947 6.698 4.875 10.817 0 8.463c-4.875-2.353-5.557-.294-2.047 6.18l16.38-2.355L7.896-1.54l-4.68-2.354z" fill="#7A8F37" mask="url(#af)"/></g></g><g mask="url(#k)"><path d="M88.447 131.746l8.566 1.939a.585.585 0 0 0 .451-1.06l-5.799-3.821-3.218 2.942z" fill="#8FA955" opacity=".6"/><g transform="translate(86.4 122.4)"><mask id="ah" fill="#fff"><use xlink:href="#ag"/></mask><use fill="#8FA54A" xlink:href="#ag"/><path d="M3.217-3.894C5.947 6.698 4.875 10.817 0 8.463c-4.875-2.353-5.557-.294-2.047 6.18l16.38-2.355L7.896-1.54l-4.68-2.354z" fill="#7A8F37" mask="url(#ah)"/></g></g><g mask="url(#k)"><use fill="#C3EDFF" xlink:href="#ai"/><use fill="#000" filter="url(#aj)" xlink:href="#ai"/></g><g mask="url(#k)"><g transform="translate(0 85.5)"><mask id="al" fill="#fff"><use xlink:href="#ak"/></mask><use fill="#797979" xlink:href="#ak"/><path d="M17.318 9.116l3.504-7.494a2.7 2.7 0 0 1 4.705-.334l4.998 7.642c.133 2.833-.017 4.333-.45 4.5-1.507.583-4.33-5.214-6.13-4.314-4.361 2.18-3.157 7.006-3.77 7.014-.833.012-1.785-2.326-2.857-7.014z" fill="#DDD" mask="url(#al)"/><path d="M23.325.38c.6 5.1 1.05 8.25 1.35 9.45.3 1.2.45 4.05.45 8.55l3.15 13.05.9 15.3h24.3l13.95-13.5-28.35-24.75-12.6-8.1-3.15-1.8v1.8z" fill-opacity=".2" fill="#353535" mask="url(#al)"/></g></g><g mask="url(#k)"><g transform="translate(22.5 103.5)"><mask id="an" fill="#fff"><use xlink:href="#am"/></mask><use fill="#797979" xlink:href="#am"/><path d="M11.018 9.116l3.666-7.842a2.7 2.7 0 0 1 4.594-.491l5.397 7.09c1.522 2.04 2.272 3.293 2.25 3.757-.053 1.106-2.885 1.698-3.15 1.8-1.507.583-4.33-5.214-6.13-4.314-1.128.564-1.01 1.726-1.52 2.514-1.465 2.261-4.653 4.044-5.107 4.05-.833.012-.833-2.176 0-6.564z" fill="#DDD" mask="url(#an)"/><path d="M17.025.38c1.07 2.643 1.67 4.443 1.8 5.4.28 2.063-.627 3.343-.45 4.05.3 1.2.45 4.05.45 8.55.8 3.227 1.55 5.327 2.25 6.3 1.724 2.4 4.358 2.899 5.85 4.95 2.4 3.3 2.4 8.1 0 14.4l20.25 2.7 3.6-18.9-18-19.35-12.6-8.1-3.15-1.8v1.8z" fill-opacity=".2" fill="#353535" mask="url(#an)"/></g></g><g mask="url(#k)"><g transform="translate(22.5 103.5)"><mask id="ap" fill="#fff"><use xlink:href="#ao"/></mask><use fill="#797979" xlink:href="#ao"/><path d="M11.018 9.116l3.666-7.842a2.7 2.7 0 0 1 4.594-.491l5.397 7.09c1.522 2.04 2.272 3.293 2.25 3.757-.053 1.106-2.885 1.698-3.15 1.8-1.507.583-4.33-5.214-6.13-4.314-1.128.564-1.01 1.726-1.52 2.514-1.465 2.261-4.653 4.044-5.107 4.05-.833.012-.833-2.176 0-6.564z" fill="#DDD" mask="url(#ap)"/><path d="M17.025.38c1.07 2.643 1.67 4.443 1.8 5.4.28 2.063-.627 3.343-.45 4.05.3 1.2.45 4.05.45 8.55.8 3.227 1.55 5.327 2.25 6.3 1.724 2.4 4.358 2.899 5.85 4.95 2.4 3.3 2.4 8.1 0 14.4l20.25 2.7 3.6-18.9-18-19.35-12.6-8.1-3.15-1.8v1.8z" fill-opacity=".2" fill="#353535" mask="url(#ap)"/></g></g><g mask="url(#k)"><g transform="translate(6.3 111.6)"><mask id="ar" fill="#fff"><use xlink:href="#aq"/></mask><use fill="#797979" xlink:href="#aq"/><path d="M11.018 9.116l3.504-7.494a2.7 2.7 0 0 1 4.705-.334l4.998 7.642c-.767 2.665-1.367 4.082-1.8 4.25-.733.282-1.824 1.36 0 4.3 1.927 3.108.925 4.488 0 4.95-4.361 2.18-6.3-3.15-6.75-7.65-.45-4.5-3.979-.526-4.657-2.7-.212-.677-.212-1.665 0-2.964z" fill="#DDD" mask="url(#ar)"/><path d="M17.025.38c.6 5.1 1.05 8.25 1.35 9.45.3 1.2.45 4.05.45 8.55l3.15 13.05.9 15.3h24.3l3.6-18.9-18-19.35-12.6-8.1-3.15-1.8v1.8z" fill-opacity=".2" fill="#353535" mask="url(#ar)"/></g></g><g mask="url(#k)"><path d="M209.625 230.78l13.156 2.96a.9.9 0 0 0 .691-1.63l-8.897-5.83-4.95 4.5z" fill="#8FA955" opacity=".6"/><g transform="translate(206.475 210.98)"><mask id="at" fill="#fff"><use xlink:href="#as"/></mask><use fill="#8FA54A" xlink:href="#as"/><path d="M4.95-.45c4.2 16.2 2.55 22.5-4.95 18.9-7.5-3.6-8.55-.45-3.15 9.45l25.2-3.6-9.9-21.15-7.2-3.6z" fill="#7A8F37" mask="url(#at)"/></g></g><g mask="url(#k)"><path d="M221.325 225.38l13.156 2.96a.9.9 0 0 0 .691-1.63l-8.897-5.83-4.95 4.5z" fill="#8FA955" opacity=".6"/><g transform="translate(217.275 208.28)"><mask id="av" fill="#fff"><use xlink:href="#au"/></mask><use fill="#8FA54A" xlink:href="#au"/><path d="M7.65-3.15c4.2 16.2 2.55 22.5-4.95 18.9-7.5-3.6-8.55-.45-3.15 9.45l25.2-3.6L14.85.45l-7.2-3.6z" fill="#7A8F37" mask="url(#av)"/></g></g><g mask="url(#k)"><path d="M197.07 239.573l17.13 3.877a1.17 1.17 0 0 0 .903-2.118l-11.598-7.644-6.435 5.885z" fill="#8FA955" opacity=".6"/><g transform="translate(192.975 217.28)"><mask id="ax" fill="#fff"><use xlink:href="#aw"/></mask><use fill="#768A38" xlink:href="#aw"/><path d="M6.435-4.188C11.895 16.996 9.75 25.235 0 20.527c-9.75-4.708-11.115-.589-4.095 12.358l32.76-4.708L15.795.519l-9.36-4.707z" fill="#63752B" mask="url(#ax)"/></g></g><g mask="url(#k)"><path d="M221.37 246.773l17.13 3.877a1.17 1.17 0 0 0 .903-2.118l-11.598-7.644-6.435 5.885z" fill="#8FA955" opacity=".6"/><g transform="translate(217.275 220.88)"><mask id="az" fill="#fff"><use xlink:href="#ay"/></mask><use fill="#60712B" xlink:href="#ay"/><path d="M6.435-.588C11.895 20.596 9.75 28.835 0 24.127c-9.75-4.708-11.115-.589-4.095 12.358l32.76-4.708-12.87-27.658-9.36-4.707z" fill="#455418" mask="url(#az)"/></g></g><g mask="url(#k)"><path d="M210.195 237.392l17.131 3.878a1.17 1.17 0 0 0 .902-2.118l-11.598-7.644-6.435 5.884z" fill="#8FA955" opacity=".6"/><g transform="translate(206.1 211.5)"><mask id="aB" fill="#fff"><use xlink:href="#aA"/></mask><use fill="#768A38" xlink:href="#aA"/><path d="M6.435-.588C11.895 20.596 9.75 28.835 0 24.127c-9.75-4.708-11.115-.589-4.095 12.358l32.76-4.708-12.87-27.658-9.36-4.707z" fill="#63752B" mask="url(#aB)"/></g></g><g mask="url(#k)"><path d="M180.87 244.073L198 247.95a1.17 1.17 0 0 0 .903-2.118l-11.598-7.644-6.435 5.885z" fill="#8FA955" opacity=".6"/><g transform="translate(176.775 222.68)"><mask id="aD" fill="#fff"><use xlink:href="#aC"/></mask><use fill="#768A38" xlink:href="#aC"/><path d="M6.435-5.088C11.895 16.096 9.75 24.335 0 19.627c-9.75-4.708-11.115-.589-4.095 12.358l32.76-4.708L15.795-.381l-9.36-4.707z" fill="#63752B" mask="url(#aD)"/></g></g><g mask="url(#k)"><path d="M189.87 247.673L207 251.55a1.17 1.17 0 0 0 .903-2.118l-11.598-7.644-6.435 5.885z" fill="#8FA955" opacity=".6"/><g transform="translate(185.775 221.78)"><mask id="aF" fill="#fff"><use xlink:href="#aE"/></mask><use fill="#60712B" xlink:href="#aE"/><path d="M6.435-.588C11.895 20.596 9.75 28.835 0 24.127c-9.75-4.708-11.115-.589-4.095 12.358l32.76-4.708-12.87-27.658-9.36-4.707z" fill="#455418" mask="url(#aF)"/></g></g><g mask="url(#k)"><path d="M202.47 249.473l17.13 3.877a1.17 1.17 0 0 0 .903-2.118l-11.598-7.644-6.435 5.885z" fill="#8FA955" opacity=".6"/><g transform="translate(198.375 223.58)"><mask id="aH" fill="#fff"><use xlink:href="#aG"/></mask><use fill="#60712B" xlink:href="#aG"/><path d="M6.435-.588C11.895 20.596 9.75 28.835 0 24.127c-9.75-4.708-11.115-.589-4.095 12.358l32.76-4.708-12.87-27.658-9.36-4.707z" fill="#455418" mask="url(#aH)"/></g></g><path d="M112.346 86.33c-3.452 14.4-1.935 26.4 11.667 36 20.232 14.4 59.513 15.75 84.532 20.7 4.568.907 11.623-1.374 16.43 0 2.974.85 17.538 2.294 20.5 3.35 9.758 3.482 5.374 11.046 13.153 17.257 6.87 5.485 12.416 12.18 15.665 20.343 9.625 24.75 18.697 24.75 21.07 28.8 2.364 4.05 3 8.1-1.882 11.7-3.247 2.4-7.183 2.85-11.812 1.35l-8.633 5.85c9.954.3 15.336-2.1 16.149-7.2.801-5.03-5.462-6.697-14.945-20.25-4.981-7.059-6.767-21.92-17.78-32.4-10.306-9.655-23.95-15.547-38.738-19.541a190.023 190.023 0 0 0-9.08-2.203c-29.824-6.501-62.357-7.117-80.88-16.056-20.058-9.6-28.331-24.45-24.702-44.55l4.523 4.5 4.763-7.65z" fill="#141414" style="mix-blend-mode:multiply" opacity=".15" mask="url(#k)"/></g><path fill="#9CB562" d="M179.148 278.95l4.597 1.061 2.121-1.768-1.06-2.475-4.95-1.06z"/><path fill="#F8D763" d="M176.32 276.83l2.828 2.12v-3.535l-1.425-3.536-1.425 1.392z"/><path fill="#B69E4C" d="M181.977 276.83l-2.829 2.12v-3.535l-1.414-3.536 2.475-1.06 1.79 2.452z"/><g><path fill="#9CB562" d="M179.148 287.05l4.597 1.061 2.121-1.768-1.06-2.475-4.95-1.06z"/><path fill="#F8D763" d="M176.32 284.93l2.828 2.12v-3.535l-1.425-3.536-1.425 1.392z"/><path fill="#B69E4C" d="M181.977 284.93l-2.829 2.12v-3.535l-1.414-3.536 2.475-1.06 1.79 2.452z"/></g></g><path d="M147.15 267.75c-2.1 14.4 4.2 26.4 18.9 36 22.05 14.4 61.2 13.5 87.3 18.45 26.1 4.95 59.85 16.65 73.8 41.4 13.95 24.75 20.7 25.2 23.85 29.25 3.15 4.05 2.406 8.765-.45 13.05-.419.628-4.05 4.95-9.9 6.3-3.93.907-8.26.749-9.9.45-.801-.146.79-.608 0-.45-1.25.177 10.439-1.326 14.4-3.6.838-.481.9-2.307.9-2.7 0-5.03-6.823-6.698-18.9-20.25-6.291-7.06-10.454-21.92-23.4-32.4-37.8-30.6-104.4-23.4-136.35-37.8-21.3-9.6-31.05-24.45-29.25-44.55l3.6 3.6 5.4-6.75z" fill="#FACC28"/><path d="M344.7 408.028c-1.37.165-3.47-.094-6.3-.778l-7.65 4.95c8.7.6 13.68-.79 14.943-4.172.144-.388.676-2.261.357-2.128-.45 1.8-.9 1.8-1.35 2.128z" fill="#DBB323"/><path d="M411.21 378.204s1.037-12.551 12.363-18.798" stroke="#FACC28" stroke-width="3.24" stroke-linecap="round" stroke-linejoin="round"/><g><path d="M206.868 320.942c3.595 1.335 6.731 2.138 9.41 2.408 3.178-.627 2.009-1.211 2.008-3.233-.401.028-2.627-.04-4.42-1.535-.915-1.557-6.422-.922-7.969-.004-1.03.613-.707 1.4.971 2.364zM231.545 325.368c5.626 1.62 8.974 1.89 10.045.813.604-2.111-.002-4.07-.403-4.043-.4.029-4.636 1.09-6.43-.407-1.607-1.213-4.479-.517-6.026.402-.803 1.347.135 2.426 2.814 3.235z" fill="#FFF"/><g transform="translate(205 244)"><mask id="aJ" fill="#fff"><use xlink:href="#aI"/></mask><use fill="#6B6B6B" transform="rotate(-4 18.417 40.922)" xlink:href="#aI"/><path d="M10.7 80.1c1-15.667 1-26.5 0-32.5-1.5-9 3-20.5 5-24s5-4.5 6.5-9.5c.577-1.923.82-3.79.732-5.601-.035-.724-5.208 1.209-13.732.601-1.278-.091-3.111-1.091-5.5-3l29-5.5 14.5 91-14.5-10.5c-.667-14-2.5-24.167-5.5-30.5-4.5-9.5-6.5-20-6-23.5.333-2.333-.833-4.167-3.5-5.5l-2 24.5 3.5 32-8.5 2z" fill="#4F4D4D" opacity=".5" mask="url(#aJ)"/></g><path d="M209.045 184.277c-.837 2.106-.97 3.589-.402 4.447.803 1.213 0 2.83.402 3.639.401.808 1.007.666 1.205 1.212 1.071 2.965 2.946 4.043 5.625 3.235l1.205-9.299-8.035-3.234z" fill="#E9BF94"/><path d="M211.857 200.448c1.34-4.043.268-9.568-3.214-16.575-3.214-6.873 12.053-9.299 17.277-3.234 5.223 6.064 3.214 11.32 1.205 14.554-1.34 2.156-6.429 3.908-15.268 5.255z" fill="#6B6B6B"/><g transform="translate(201 192)"><mask id="aL" fill="#fff"><use xlink:href="#aK"/></mask><use fill="#E08E58" transform="rotate(-4 19.52 30.582)" xlink:href="#aK"/><path d="M11.2 61.1c-2-6.333-1.667-10 1-11s3.833-11.5 3.5-31.5c-1.487-4.333-2.442-7-2.865-8C12.2 9.1 21.7 3.1 29.7 5.1c5.333 1.333 11.167 4 17.5 8l-7 51-29-3z" fill="#AC6630" mask="url(#aL)"/></g><path d="M204.7 206.6c-1.044 5.4 0 6 1.914 16.689.587 4.552 1.282 7.989 2.086 10.311l-4.5-5c-1.333 0-2.26.333-2.777 1-.518.667-.26 3 .777 7 5.217 6.367 8.503 9.638 9.857 9.813 2.033.263 5.414-3.215 4.872-5.204-.541-1.988-2.29-26.992-2.944-30.594-.655-3.601-2.785-6.515-3.314-7.063-.528-.548-4.927-2.352-5.971 3.048z" fill="#C87A47"/><path d="M214.197 207.762c-1.998-5.108-4.497-6.662-7.497-4.662.333-1.333 1.453-2.221 3.36-2.663 2.634-.725 4.913 1.142 6.835 5.6.437 2.402-.463 2.976-2.698 1.725z" fill="#6B6B6B"/><g transform="translate(212.66 198.022)"><mask id="aN" fill="#fff"><use xlink:href="#aM"/></mask><use fill="#F8D763" transform="rotate(-4 15.528 23.28)" xlink:href="#aM"/><path d="M3.54 15.078c4.333 1 7.666 1.5 10 1.5 3.5 0 8.5-1.5 9.5 1.5s1.5 20 .5 21.5-8.5 3-13 3c-3 0-6.167-.334-9.5-1l6 19 28-18-3-28.5-5.5-3c-6 1.666-10.834 2.666-14.5 3-3.667.333-6.5.5-8.5.5v.5z" fill="#DCB11C" mask="url(#aN)"/><path d="M2.812 14.15c.268 1.617 8.438.539 24.51-3.234 16.07-3.774 16.07-7.412 0-10.916L8.436-1.617-.803 2.02v6.873l3.615 5.256z" fill="#A1A1A1" mask="url(#aN)"/><path d="M2.812 14.15c.268 1.617 8.438.539 24.51-3.234 16.07-3.774 16.339-4.448.803-2.022-7.391 2.916-13.82 3.724-19.286 2.426C3.374 10.02.16 6.922-.804 2.02v6.873l3.616 5.256z" fill="#7C7C7C" mask="url(#aN)"/><path d="M6.027 2.83c4.018-.809 6.027 11.32 6.027 36.385 1.339 0 1.875-.27 1.607-.809 0-23.178-1.741-35.172-5.224-35.98l-2.41.404zM14.866 1.213c4.018-.809 6.027 11.32 6.027 36.385 1.34 0 1.875-.27 1.607-.809 0-23.178-1.741-35.172-5.223-35.98l-2.41.404z" fill="#6B6B6B" mask="url(#aN)"/><path d="M1.607 21.427c4.554.27 7.232 1.617 8.036 4.043.803 2.425 1.607 9.837 2.41 22.235L-3.213 50.13V33.15c0-.269 1.607-4.177 4.821-11.723z" fill="#DCB11C" mask="url(#aN)"/><path d="M32.143 18.597c-4.018.27-6.027 2.156-6.027 5.66 0 3.503-.536 13.071-1.607 28.703l11.652-3.234-4.018-31.13z" fill="#B79416" mask="url(#aN)"/></g></g><g><path d="M102.5 142c-.333-2-1.167-3.5-2.5-4.5-2-1.5-.5-2.5 1.5-2.5s6.5-.5 9 2c1.667 1.667 1.333 2.667-1 3l-7 2z" fill="#D6BDA6"/><g transform="translate(66 112)"><mask id="aP" fill="#fff"><use xlink:href="#aO"/></mask><use fill="#897157" xlink:href="#aO"/><path d="M2.5 48.5c0 2.667 1.333 4.667 4 6 4 2 6 2 9.5 1 2.333-.667 4.167.667 5.5 4l-24 1.5-2-8.5 7-4zM75 2c4.667 1.333 7.5 2.5 8.5 3.5s2.167 4.333 3.5 10c4.667-4.333 7.167-6.583 7.5-6.75.333-.167-2.333-3.417-8-9.75H76l-1 3zM46 39.5c2.333-.667 3.667-.667 4 0 .5 1 2 4.5 2.5 4.5s2 1.5 5-1 6.5-3.5 5.5-4.5-9-.5-8-3c.667-1.667 2.167-2.667 4.5-3 8.333 2 12.667 3 13 3 .5 0-5 17-5 17.5 0 .333-11.833 1-35.5 2l14-15.5z" fill="#D6BDA6" mask="url(#aP)"/></g></g></g></svg>