<svg width="503" height="532" xmlns="http://www.w3.org/2000/svg" xmlns:xlink="http://www.w3.org/1999/xlink"><defs><path d="M.606 294.63v28.192a8.56 8.56 0 0 0 3.81 7.122L220.533 474.05a14.382 14.382 0 0 0 15.96 0l162.118-107.91 1.036-4.356a21.942 21.942 0 0 1 11.326-14.442l57.485-167.499c4.063-11.381-.15-24.07-10.21-30.752L238.228 2.956a15.575 15.575 0 0 0-8.618-2.602h-8.014l-56.903 191.83L.606 294.63z" id="a"/><linearGradient x1="39.606%" y1="76.518%" x2="53.281%" y2="54.668%" id="c"><stop stop-color="#FAF8F0" offset="0%"/><stop stop-color="#FFF" offset="100%"/></linearGradient><path d="M177.294 204.25s-7.409-41.979 12.719-86.574c14.62-32.392 28.13-76.39 34.428-98.042 1.887-6.49 9.522-9.276 15.141-5.53L461.93 162.364c8.935 5.957 12.623 17.269 8.915 27.354-8.936 24.306-29.048 58.66-40.69 91.914-16.7 47.705-18.943 78.591-18.943 78.591L177.294 204.25z" id="d"/><path d="M177.294 204.25s-10.099-3.234-67.374 34.117l-93.383 62.079c-4.44 2.962-4.44 9.494 0 12.455l216.596 144.424a14.382 14.382 0 0 0 15.96 0l100.463-66.799c51.69-31.495 61.655-30.304 61.655-30.304L177.294 204.25z" id="e"/><path d="M40.953 306.673l79.264-52.664c30.968-20.19 46.493-27.347 53.18-29.85l198.176 132.14c-8.586 4.542-19.024 10.473-31.747 18.226l-.326.198-98.386 65.415-200.16-133.465z" id="f"/><path d="M.033.95h330.54V235.3c-8.586 4.541-19.024 10.472-31.747 18.225l-98.712 65.613L.033 185.727V.95z" id="g"/><path d="M133 3l197.573 132.3c-8.586 4.541-19.024 10.472-31.747 18.225l-98.712 65.613L.033 85.727C28.059 70.352 46.382 58.943 55 51.5 66 42 77 33.5 86 29c10.685-5.342 20.378-10.002 26-13.5C134.649 1.409 141.649-2.758 133 3z" id="i"/><linearGradient x1="48.531%" y1="57.317%" x2="52.925%" y2="48.46%" id="k"><stop stop-color="#BCEBFF" stop-opacity="0" offset="0%"/><stop stop-color="#87BED7" offset="100%"/></linearGradient><path d="M10.374 5.224C20.747 10.447 86.879 52.888 97.9 62.682c7.348 6.53 3.458 8.27-11.67 5.224-11.67-6.53-26.367-15.453-44.088-26.77-21-13.412-34.253-28.61-37.605-33.954C-1.945-3.265 0 0 10.374 5.224z" id="l"/><path d="M2.593 17.63C.433 11.1.864 7.181 3.89 5.875c3.026-1.305 4.97-.217 5.835 3.265-.432-4.788.865-7.4 3.89-7.835 3.026-.435 4.539 1.306 4.539 5.223v7.836c4.754 2.611 7.348 5.006 7.78 7.182.432 2.177-2.161 4.57-7.78 7.182-4.331-2.817-7.573-4.993-9.725-6.529a77.213 77.213 0 0 1-5.836-4.57z" id="n"/><path d="M2.593 17.63C.433 11.1.864 7.181 3.89 5.875c3.026-1.305 4.97-.217 5.835 3.265-.432-4.788.865-7.4 3.89-7.835 3.026-.435 4.539 1.306 4.539 5.223v7.836c4.754 2.611 7.348 5.006 7.78 7.182.432 2.177-2.161 4.57-7.78 7.182" id="o"/><path id="p" d="M228.577 131.56l-32.463 21.578L0 22l10-6v-2.5L28.828.7z"/><path d="M2.5 4.5h1V7c1 2 1.5 5 .5 7-1 1-1 1-2 0-1-3 0-5.5.5-7V4.5zm5 3.5h1v2.5c1 2 1.5 5 .5 7-1 1-1 1-2 0-1-3 0-5.5.5-7V8zm5 3.5h1V14c1 2 1.5 5 .5 7-1 1-1 1-2 0-1-3 0-5.5.5-7v-2.5zm5.398 3.5h1v2.5c1 2 1.5 5 .5 7-1 1-1 1-2 0-1-3 0-5.5.5-7V15zm5.602 3.5h1V21c1 2 1.5 5 .5 7-1 1-1 1-2 0-1-3 0-5.5.5-7v-2.5zm5.428 3.5h1v2.5c1 2 1.5 5 .5 7-1 1-1 1-2 0-1-3 0-5.5.5-7V22zm6 4h1v2.5c1 2 1.5 5 .5 7-1 1-1 1-2 0-1-3 0-5.5.5-7V26zm6 4h1v2.5c1 2 1.5 5 .5 7-1 1-1 1-2 0-1-3 0-5.5.5-7V30zm5.572 3.5h1V36c1 2 1.5 5 .5 7-1 1-1 1-2 0-1-3 0-5.5.5-7v-2.5zm5 3.5h1v2.5c1 2 1.5 5 .5 7-1 1-1 1-2 0-1-3 0-5.5.5-7V37zm5 3.5h1V43c1 2 1.5 5 .5 7-1 1-1 1-2 0-1-3 0-5.5.5-7v-2.5zm5.398 3.5h1v2.5c1 2 1.5 5 .5 7-1 1-1 1-2 0-1-3 0-5.5.5-7V44zm5.602 3.5h1V50c1 2 1.5 5 .5 7-1 1-1 1-2 0-1-3 0-5.5.5-7v-2.5zm5.428 3.5h1v2.5c1 2 1.5 5 .5 7-1 1-1 1-2 0-1-3 0-5.5.5-7V51z" id="r"/><filter x="-.7%" y="-.9%" width="101.4%" height="101.8%" filterUnits="objectBoundingBox" id="s"><feOffset dx="-1" in="SourceAlpha" result="shadowOffsetInner1"/><feComposite in="shadowOffsetInner1" in2="SourceAlpha" operator="arithmetic" k2="-1" k3="1" result="shadowInnerInner1"/><feColorMatrix values="0 0 0 0 0.807843137 0 0 0 0 0.725490196 0 0 0 0 0.647058824 0 0 0 1 0" in="shadowInnerInner1"/></filter><path d="M2.5 4.5h1V7c1 2 1.5 5 .5 7-1 1-1 1-2 0-1-3 0-5.5.5-7V4.5zm5 3.5h1v2.5c1 2 1.5 5 .5 7-1 1-1 1-2 0-1-3 0-5.5.5-7V8zm5 3.5h1V14c1 2 1.5 5 .5 7-1 1-1 1-2 0-1-3 0-5.5.5-7v-2.5zm5.398 3.5h1v2.5c1 2 1.5 5 .5 7-1 1-1 1-2 0-1-3 0-5.5.5-7V15zm5.602 3.5h1V21c1 2 1.5 5 .5 7-1 1-1 1-2 0-1-3 0-5.5.5-7v-2.5zm5.428 3.5h1v2.5c1 2 1.5 5 .5 7-1 1-1 1-2 0-1-3 0-5.5.5-7V22zm6 4h1v2.5c1 2 1.5 5 .5 7-1 1-1 1-2 0-1-3 0-5.5.5-7V26zm6 4h1v2.5c1 2 1.5 5 .5 7-1 1-1 1-2 0-1-3 0-5.5.5-7V30zm5.572 3.5h1V36c1 2 1.5 5 .5 7-1 1-1 1-2 0-1-3 0-5.5.5-7v-2.5zm5 3.5h1v2.5c1 2 1.5 5 .5 7-1 1-1 1-2 0-1-3 0-5.5.5-7V37zm5 3.5h1V43c1 2 1.5 5 .5 7-1 1-1 1-2 0-1-3 0-5.5.5-7v-2.5zm5.398 3.5h1v2.5c1 2 1.5 5 .5 7-1 1-1 1-2 0-1-3 0-5.5.5-7V44zm5.602 3.5h1V50c1 2 1.5 5 .5 7-1 1-1 1-2 0-1-3 0-5.5.5-7v-2.5zm5.428 3.5h1v2.5c1 2 1.5 5 .5 7-1 1-1 1-2 0-1-3 0-5.5.5-7V51z" id="t"/><filter x="-.7%" y="-.9%" width="101.4%" height="101.8%" filterUnits="objectBoundingBox" id="u"><feOffset dx="-1" in="SourceAlpha" result="shadowOffsetInner1"/><feComposite in="shadowOffsetInner1" in2="SourceAlpha" operator="arithmetic" k2="-1" k3="1" result="shadowInnerInner1"/><feColorMatrix values="0 0 0 0 0.807843137 0 0 0 0 0.725490196 0 0 0 0 0.647058824 0 0 0 1 0" in="shadowInnerInner1"/></filter><path d="M22.08 5.238c1.401.991 2.964 2.579 5.42 4.762 4.5 4 8 8 10 8S51.5 5.5 53 5.5s5 6.5 4.5 7-13.452 11-14.976 12.5C41 26.5 39.5 29 35.5 27c-2.436-1.218-7.283-4.105-11.039-6.967C24.033 25.752 23.124 33.965 23 40c-.185 8.98 1.1 15.634-3 17-6 2-21-1-19.5-5.5.611-1.833 1.88-11.657 2-19 .174-10.684-.889-23.444 0-27 1-4 4.5-5.667 10.5-5 4.42 1.239 7.254 2.572 8.5 4 .206.236.4.482.58.738z" id="v"/><path d="M9 10.5c-4.667 9-7.333 14.833-8 17.5-.667 2.667-.167 3.167 1.5 1.5l6-8.5c3.475-.33 5.975-.83 7.5-1.5 1.525-.67 3.191-2.004 5-4 .667-1.667.333-2.833-1-3.5-2-1-1.5-4-1.5-5.5 0-1 .167-3 .5-6L13.5 3l-1 3c.333 1.667.333 2.833 0 3.5-.333.667-1.5 1-3.5 1z" id="x"/><path d="M12.5 21.5c0 1 .5 4 0 4.5-.333.333-4.333 11.333-12 33 11 7.667 24 7.667 39 0L25 26v-3.5c0-1.5 1.5-2 2-6.5s2-9 1-10.5c-.667-1-2-2-4-3 1 1.667-.333 4-4 7-5.5 2-5.5 2-6-.5s-1.5-6.5-.5-7c.667-.333 1.5-.667 2.5-1-1.667-.333-2.833.167-3.5 1.5-1 2-4 9.5-2.5 13s2.5 5 2.5 6z" id="z"/><path d="M6 8C4 9.5.5 13.5.5 15.5s1 3.5 4 1.5c2-1.333 3.5-4 4.5-8 1.333-.333 2.167-.833 2.5-1.5 0 1 .5 1.833 1.5 2.5 1.5 1 5.5 10 11.5 10S26 2.5 25 1.5s-3-2-4 1 1.5 10 1.5 11-7-4.5-7-4.5.47-4.5-.5-6-.5-3-2-3-3 1.5-3.5 2.5S8 6.5 6 8z" id="B"/><path d="M2.5 4.5h1V7c1 2 1.5 5 .5 7-1 1-1 1-2 0-1-3 0-5.5.5-7V4.5zm5 3.5h1v2.5c1 2 1.5 5 .5 7-1 1-1 1-2 0-1-3 0-5.5.5-7V8zm5 3.5h1V14c1 2 1.5 5 .5 7-1 1-1 1-2 0-1-3 0-5.5.5-7v-2.5zm5.398 3.5h1v2.5c1 2 1.5 5 .5 7-1 1-1 1-2 0-1-3 0-5.5.5-7V15zm5.602 3.5h1V21c1 2 1.5 5 .5 7-1 1-1 1-2 0-1-3 0-5.5.5-7v-2.5zm5.428 3.5h1v2.5c1 2 1.5 5 .5 7-1 1-1 1-2 0-1-3 0-5.5.5-7V22zm6 4h1v2.5c1 2 1.5 5 .5 7-1 1-1 1-2 0-1-3 0-5.5.5-7V26zm6 4h1v2.5c1 2 1.5 5 .5 7-1 1-1 1-2 0-1-3 0-5.5.5-7V30zm5.572 3.5h1V36c1 2 1.5 5 .5 7-1 1-1 1-2 0-1-3 0-5.5.5-7v-2.5zm5 3.5h1v2.5c1 2 1.5 5 .5 7-1 1-1 1-2 0-1-3 0-5.5.5-7V37zm5 3.5h1V43c1 2 1.5 5 .5 7-1 1-1 1-2 0-1-3 0-5.5.5-7v-2.5zm5.398 3.5h1v2.5c1 2 1.5 5 .5 7-1 1-1 1-2 0-1-3 0-5.5.5-7V44zm5.602 3.5h1V50c1 2 1.5 5 .5 7-1 1-1 1-2 0-1-3 0-5.5.5-7v-2.5zm5.428 3.5h1v2.5c1 2 1.5 5 .5 7-1 1-1 1-2 0-1-3 0-5.5.5-7V51zm6 4h1v2.5c1 2 1.5 5 .5 7-1 1-1 1-2 0-1-3 0-5.5.5-7V55z" id="D"/><filter x="-.6%" y="-.8%" width="101.3%" height="101.6%" filterUnits="objectBoundingBox" id="E"><feOffset dx="-1" in="SourceAlpha" result="shadowOffsetInner1"/><feComposite in="shadowOffsetInner1" in2="SourceAlpha" operator="arithmetic" k2="-1" k3="1" result="shadowInnerInner1"/><feColorMatrix values="0 0 0 0 0.807843137 0 0 0 0 0.725490196 0 0 0 0 0.647058824 0 0 0 1 0" in="shadowInnerInner1"/></filter><path d="M2.5 4.5h1V7c1 2 1.5 5 .5 7-1 1-1 1-2 0-1-3 0-5.5.5-7V4.5zm5 3.5h1v2.5c1 2 1.5 5 .5 7-1 1-1 1-2 0-1-3 0-5.5.5-7V8zm5 3.5h1V14c1 2 1.5 5 .5 7-1 1-1 1-2 0-1-3 0-5.5.5-7v-2.5zm5.398 3.5h1v2.5c1 2 1.5 5 .5 7-1 1-1 1-2 0-1-3 0-5.5.5-7V15zm5.602 3.5h1V21c1 2 1.5 5 .5 7-1 1-1 1-2 0-1-3 0-5.5.5-7v-2.5zm5.428 3.5h1v2.5c1 2 1.5 5 .5 7-1 1-1 1-2 0-1-3 0-5.5.5-7V22zm6 4h1v2.5c1 2 1.5 5 .5 7-1 1-1 1-2 0-1-3 0-5.5.5-7V26zm6 4h1v2.5c1 2 1.5 5 .5 7-1 1-1 1-2 0-1-3 0-5.5.5-7V30zm5.572 3.5h1V36c1 2 1.5 5 .5 7-1 1-1 1-2 0-1-3 0-5.5.5-7v-2.5zm5 3.5h1v2.5c1 2 1.5 5 .5 7-1 1-1 1-2 0-1-3 0-5.5.5-7V37zm5 3.5h1V43c1 2 1.5 5 .5 7-1 1-1 1-2 0-1-3 0-5.5.5-7v-2.5zm5.398 3.5h1v2.5c1 2 1.5 5 .5 7-1 1-1 1-2 0-1-3 0-5.5.5-7V44zm5.602 3.5h1V50c1 2 1.5 5 .5 7-1 1-1 1-2 0-1-3 0-5.5.5-7v-2.5zm5.428 3.5h1v2.5c1 2 1.5 5 .5 7-1 1-1 1-2 0-1-3 0-5.5.5-7V51zm6 4h1v2.5c1 2 1.5 5 .5 7-1 1-1 1-2 0-1-3 0-5.5.5-7V55z" id="F"/><filter x="-.6%" y="-.8%" width="101.3%" height="101.6%" filterUnits="objectBoundingBox" id="G"><feOffset dx="-1" in="SourceAlpha" result="shadowOffsetInner1"/><feComposite in="shadowOffsetInner1" in2="SourceAlpha" operator="arithmetic" k2="-1" k3="1" result="shadowInnerInner1"/><feColorMatrix values="0 0 0 0 0.807843137 0 0 0 0 0.725490196 0 0 0 0 0.647058824 0 0 0 1 0" in="shadowInnerInner1"/></filter><path d="M4 2.5C1.5 4-1 7 1 12s1.5 6.5 4 8 6-1.5 7-2.5 4.5-5.588 4-6.044C15.5 11 16 5.5 15 5S11.5.5 8.5 1 6.5 1 4 2.5z" id="H"/></defs><g fill="none" fill-rule="evenodd"><path d="M24.567 392.258l202.14 134.785a25.806 25.806 0 0 0 28.703-.045l164.292-110.715c7.393-4.962 7.376-15.853-.032-20.793L210.619 256.097a12.483 12.483 0 0 0-13.851 0L24.567 371.443c-7.423 4.95-7.423 15.866 0 20.815" fill="#F3D4CE"/><path d="M0 347.7v-5.001L173.936 227.92a7.218 7.218 0 0 1 8.01 0L246.454 2.38s8.205-3.317 12.943-.575l228.165 149.18c12.622 8.253 18.027 24.037 13.116 38.305L437.75 373.093c-2.136 6.625-6.801 12.754-11.967 17.415v.002l-9.026 6.018-157.554 104.867a30.942 30.942 0 0 1-34.335 0L2.9 353.128A6.53 6.53 0 0 1 0 347.7" fill="#D2B59A"/><path d="M3.207 348.694c-4.276-2.851-4.276-9.141 0-11.993l170.097-113.23a7.193 7.193 0 0 1 7.98 0L239.853 9.646c1.94-7.085 10.213-10.224 16.358-6.206l227.296 148.61c12.574 8.222 17.958 23.947 13.065 38.16l-61.022 177.28-.252.783a39.407 39.407 0 0 1-11.104 17.165l-8.992 5.996-158.356 105.403a28.349 28.349 0 0 1-31.462 0L3.207 348.694" fill="#867054"/><path d="M496.571 190.211l-61.022 177.28c-2.38 7.383-6.21 13.304-11.356 17.948l-8.992 5.996L278.55 482.4c-9.527 6.353-30.523 11.753-40.05 5.4 127.882-189.738 205.282-292.788 232.2-309.15 22.95-13.95 26.726 9.078 25.871 11.561z" fill="#513B20" opacity=".5"/><path d="M186.588 228.63L246.1 11.362c.607-2.216 2.554-3.207 4.214-3.207.837 0 1.63.24 2.355.715L479.964 157.48a26.31 26.31 0 0 1 10.483 30.618L429.384 365.5l-.252.783a32.974 32.974 0 0 1-8.943 14.035l-8.58 5.721-158.351 105.4a21.817 21.817 0 0 1-12.144 3.68 21.81 21.81 0 0 1-12.14-3.678L10.582 345.766c-2.183-1.457-2.182-4.667.002-6.122L176.89 228.87a.707.707 0 0 1 .403-.124c.145 0 .28.04.4.121l4.47 2.98" stroke="#BE9365" stroke-width="1.08" stroke-linecap="round" stroke-linejoin="round" stroke-dasharray="3.603599643611915,3.603599643611915"/><path stroke="#F7931E" stroke-width=".72" stroke-linecap="round" stroke-linejoin="round" d="M183.662 232.847l1.498.998.476-1.737"/><path d="M393.26 354.18l-144.166 95.94a14.382 14.382 0 0 1-15.96 0L16.537 305.697" fill="#FFF"/><path d="M393.26 354.18l-144.166 95.94a14.382 14.382 0 0 1-15.96 0L16.537 305.697" stroke="#000" stroke-width=".72" stroke-linecap="round" stroke-linejoin="round"/><g transform="translate(12.6 12.065)"><mask id="b" fill="#fff"><use xlink:href="#a"/></mask><use fill="#F4F1EC" xlink:href="#a"/><path stroke="#DCD3C4" stroke-width="1.8" d="M1.506 295.13v27.692a7.66 7.66 0 0 0 3.409 6.374L221.033 473.3a13.482 13.482 0 0 0 14.962 0l161.822-107.714.955-4.011a22.843 22.843 0 0 1 11.466-14.865l57.372-167.17c3.925-10.993-.144-23.247-9.86-29.7L237.73 3.705a14.675 14.675 0 0 0-8.12-2.452h-7.342L165.46 192.767 1.506 295.13z"/><path fill="#DFDCD3" opacity=".6" mask="url(#b)" d="M228.15 445.585v39.16l214.2-99.46 54-224.55-44.1 3.15-221.4 272.25z"/></g><g><use fill="url(#c)" xlink:href="#d"/><path stroke="#DCD3C4" stroke-width="1.8" d="M178.12 203.718l232.332 154.916c.117-1.164.275-2.532.478-4.099.591-4.57 1.444-9.885 2.607-15.89 3.318-17.148 8.447-36.398 15.768-57.311a278.146 278.146 0 0 1 3.683-9.888c3.871-9.845 8.387-19.963 14.56-32.933 1.508-3.167 10.278-21.332 12.596-26.257 4.45-9.455 7.557-16.598 9.855-22.85 3.565-9.693.02-20.567-8.57-26.295L239.083 14.854c-5.114-3.41-12.06-.874-13.778 5.031-10.489 36.06-22.485 71.603-34.472 98.161-7.107 15.747-11.274 32.217-13.03 48.81-1.264 11.953-1.18 22.828-.28 32.02.145 1.475.3 2.773.455 3.881.05.368.098.688.141.961z"/></g><path d="M392.396 324.961c4.792-34.741 21.726-81.05 50.806-138.909l-.804-.404c-29.12 57.94-46.086 104.332-50.894 139.19l.892.123zM377.996 315.961c4.792-34.741 21.726-81.05 50.806-138.909l-.804-.404c-29.12 57.94-46.086 104.332-50.894 139.19l.892.123zM364.046 305.611c4.792-34.741 21.726-81.05 50.806-138.909l-.804-.404c-29.12 57.94-46.086 104.332-50.894 139.19l.892.123z" fill="#DBD3C3" fill-rule="nonzero"/><g><use fill="#FFF" xlink:href="#e"/><path stroke="#DCD3C4" stroke-width="1.8" d="M176.948 205.1c-.593-.073-1.672.006-3.341.372-2.592.568-6.032 1.72-10.432 3.591-12.067 5.133-29.35 14.79-52.757 30.053l-93.382 62.078c-3.906 2.606-3.906 8.354 0 10.959l216.597 144.423a13.483 13.483 0 0 0 14.962 0l100.493-66.818c21.964-13.384 38.12-21.942 49.364-26.627 4.052-1.688 7.212-2.763 9.592-3.341.234-.057.456-.108.666-.154L176.948 205.1z"/></g><g><use fill="#EAE8E2" xlink:href="#f"/><path stroke="#DCD3C4" d="M40.677 306.257l79.267-52.667c25.679-16.741 42.885-26.01 53.278-29.9l.24-.09L372.547 356.35l-.741.392c-9.108 4.818-19.637 10.848-31.721 18.211l-.31.187-98.663 65.6L40.051 306.673l.626-.416z"/></g><path d="M232.817 138.635a33.556 33.556 0 0 1-.57 2.412l-.898-.27c.207-.963.23-2.11.07-3.444l-.14-1.026.518-.654 8.428 5.466 1.098-1.76.721.443-2.504 5.371-.722-.443.59-1.837-6.591-4.258zM259.549 186.22c-.09.45-.224.927-.405 1.433-.18.506-.42.933-.717 1.28-.299.348-.636.621-1.012.82a3.543 3.543 0 0 1-1.218.381c-.436.055-.884.06-1.344.014a8.134 8.134 0 0 1-2.731-.826c-.88-.442-1.621-.899-2.225-1.37a10.516 10.516 0 0 1-1.625-1.572 9.798 9.798 0 0 1-1.2-1.806 8.478 8.478 0 0 1-.708-1.91c-.306-1.327-.253-2.569.16-3.727.39-1.1.89-2.066 1.495-2.9l.212-.285 2.93 2.15-.364 1.021-2.292-.914c-.277.156-.497.402-.66.738-.164.336-.32.711-.466 1.124-.148.413-.194.89-.138 1.433.055.542.201 1.065.438 1.568.237.503.543.982.917 1.438 1.028 1.243 2.307 2.25 3.838 3.018 1.315.661 2.497.98 3.545.958 1.185-.03 1.952-.532 2.3-1.51.275-.774.342-1.498.2-2.173a1.396 1.396 0 0 0-.258-.603l-1.471-1.439.384-1.051 2.703 1.769c-.009.174-.016.407-.023.698-.006.292-.03.627-.07 1.004-.04.377-.106.79-.195 1.24zm4.335-11.763c-.269.757-.77.927-1.5.512-.48-.275-.99-.612-1.533-1.012-.542-.399-.928-.682-1.158-.848-.229-.167-.48-.353-.752-.558a25.148 25.148 0 0 0-.845-.61c-.653-.465-1.176-.797-1.57-.994-.392-.197-.686-.314-.881-.35-.195-.037-.355-.031-.48.016-.18.074-.32.25-.418.526a2.254 2.254 0 0 0-.12.89c.017.318.076.656.176 1.016.215.773.556 1.53 1.023 2.273l6.094 4.09-.603 1.692-12.056-8.04-.734.845-.656-.505.468-2.501.392-.338 5.785 3.883c-.734-1.274-1.09-2.469-1.07-3.583.01-.386.073-.74.188-1.063.115-.323.26-.583.434-.78.174-.197.394-.329.659-.395.55-.149 1.283.007 2.2.467a11.01 11.01 0 0 1 1.656 1.059l1.225.913 1.277.91c.912.642 1.47.99 1.673 1.04.204.05.32.035.349-.046.072-.204.024-.595-.146-1.174l.54-.048c.156.223.278.52.367.894.175.753.18 1.36.016 1.82zm1.985-9.98c.618 1.202.746 2.312.384 3.33-.336.943-.941 1.493-1.816 1.65-.817.145-1.783-.062-2.9-.623-.916-.46-1.781-1.159-2.595-2.096-1.363-1.562-2.062-3.217-2.098-4.963a4.842 4.842 0 0 1 .28-1.774c.202-.57.512-1.11.929-1.621l.08-1.185 7.919 5.326c.223.146.396.21.52.194.123-.017.207-.088.251-.213.045-.125-.005-.42-.148-.882l.549-.044c.14.188.254.454.34.799.168.695.177 1.255.025 1.68-.263.738-.739.935-1.428.589l-.12-.06-.172-.108zm-7.093-4.736c-.285.18-.508.496-.67.95a3.06 3.06 0 0 0-.185 1.31c.038.421.143.832.315 1.235.173.402.4.788.68 1.159.28.37.589.716.925 1.035.656.625 1.28 1.085 1.869 1.381.589.296 1.061.496 1.417.6.356.103.67.15.941.142.567-.01.93-.236 1.087-.678.265-.745.188-1.6-.234-2.566a5.817 5.817 0 0 0-.367-.72l-5.778-3.848zm11.482-4.14c.013.603-.063 1.137-.229 1.603a6.454 6.454 0 0 1-.618 1.284l4.186 2.833-.59 1.658-12.188-8.21-.774.732-.62-.496.371-2.51.351-.306.995.684c-.584-1.13-.702-2.184-.354-3.161.348-.978.964-1.55 1.849-1.715.827-.154 1.795.047 2.905.605 1.458.732 2.679 1.921 3.663 3.568.678 1.13 1.03 2.273 1.053 3.43zm-1.989 2.107c.313-.2.554-.536.722-1.01.17-.475.232-.918.187-1.331a3.86 3.86 0 0 0-.342-1.216 5.817 5.817 0 0 0-.708-1.149 8.667 8.667 0 0 0-.948-1.026 9.496 9.496 0 0 0-2.22-1.557c-.794-.399-1.46-.58-2-.542-.541.037-.892.282-1.054.736-.238.67-.157 1.488.243 2.457.106.267.222.507.347.72l5.773 3.918zm4.987-9.563c-.38 1.064-1.079 1.34-2.098.829l-.094-.047c-.176-.089-.511-.298-1.004-.628l-5.9-3.9-.373 1.047-.681-.547-.019-1.275c-.27-.526-.888-1.294-1.858-2.302l.295-.83 2.123 1.417.815-2.286 1.124.77-.805 2.26 5.088 3.41c.654.445 1.102.728 1.344.85.242.121.418.198.527.229.11.03.203.035.278.01.142-.038.25-.16.323-.367.073-.207.114-.4.121-.582.008-.181.003-.37-.015-.564a6.062 6.062 0 0 0-.176-1.034l.722.177c.332.633.472 1.475.42 2.526-.018.313-.07.592-.157.837zm1.647-8.556c.38-1.065.316-2.262-.19-3.593l.852-.046c.306.497.517 1.13.632 1.902.15.933.103 1.744-.142 2.434-.246.69-.556 1.2-.93 1.534-.731.661-1.634.887-2.707.677-.463-.095-.817-.204-1.061-.327a31.61 31.61 0 0 1-.794-.414c-.285-.153-.664-.422-1.137-.808a9.771 9.771 0 0 1-1.288-1.259 9.25 9.25 0 0 1-1.004-1.435 7.124 7.124 0 0 1-.651-1.536c-.318-1.106-.31-2.125.02-3.056.432-1.21 1.137-1.768 2.117-1.673.3.027.634.133 1.004.319s.699.474.985.865c.287.391.513.827.678 1.307.164.48.275.985.331 1.515.057.529.077 1.043.06 1.542-.024 1.01-.143 1.832-.355 2.466.115.072.224.133.327.185.102.051.226.11.37.175.145.066.334.127.57.183.234.057.47.089.705.097a1.87 1.87 0 0 0 .66-.09c.459-.154.774-.475.948-.964zm-4.504-.102c.263-.869.305-1.836.127-2.899-.121-.754-.376-1.375-.765-1.866-.197-.257-.481-.478-.851-.664-.37-.186-.692-.228-.967-.125-.275.102-.467.308-.578.62-.111.31-.144.625-.1.943.045.317.143.632.293.944.15.312.34.62.568.923a8.9 8.9 0 0 0 .732.856 9.744 9.744 0 0 0 1.541 1.268zm-.214-10.478l-.824.615-.704-.538.309-2.336.354-.316 1.873 1.157a5.348 5.348 0 0 1-1.181-2.96c-.035-.428-.007-.77.084-1.027.158-.442.287-.682.388-.72l1.64 1.275c-.138.123-.265.346-.38.67a3.23 3.23 0 0 0-.196.888c-.015.27.012.56.083.87.17.71.556 1.398 1.158 2.063l5.838 3.848-.606 1.702-7.836-5.191z" fill="#E1DDD2"/><path d="M411.21 378.204s1.037-12.551 12.363-18.798" stroke="#F25153" stroke-width="3.24" stroke-linecap="round" stroke-linejoin="round"/><g transform="translate(41 121)"><path d="M210 46c-.667-3.667.667-5.5 4-5.5 3.286 0 3.985 14.418 6 22.5 1.05 4.215 3.5 6.286 3.5 8 0 3.333-1.833 4.667-5.5 4-3-1.667-4.167-3.167-3.5-4.5 1-2 1-4.5 1-8 0-2.333-.333-4.667-1-7L210 46z" fill="#8F663B"/><mask id="h" fill="#fff"><use xlink:href="#g"/></mask><g mask="url(#h)"><g transform="translate(0 110)"><mask id="j" fill="#fff"><use xlink:href="#i"/></mask><use fill="#BCEBFF" xlink:href="#i"/><path stroke="#7EAFC4" d="M133.9 3l197.647 132.35-.74.392c-9.105 4.816-19.635 10.845-31.704 18.199l-98.99 65.798L-.93 85.685l.723-.397C27.79 69.93 46.09 58.535 54.673 51.122 67.22 40.286 77.53 32.676 85.776 28.552c-.716.36 11.867-5.899 14.896-7.44 5.004-2.545 8.501-4.442 11.064-6.037 11.327-7.047 18.741-11.612 22.245-13.698.88-.524 1.515-.892 1.908-1.107a4.58 4.58 0 0 1 .452-.226c.048-.018.048-.018.122-.037.104-.042.104-.042.497.16.137.52.137.52.031.63-.053.068-.053.068-.091.105-.217.21-1.185.885-3 2.099zM85.776 28.554z"/><path d="M41.5 75.5c8.794-3.904 15.627-7.57 20.5-11 12.535-8.822 18-19 33.5-25.5 8.3-3.48 15.8-7.314 22.5-11.5L187.5 74 104 132l55 22.5c23-4.667 41.333-11.833 55-21.5 13.667-9.667 21.667-17.833 24-24.5l63.5 42.5 17-19L119 1.5 24.5 66l17 9.5z" fill="#9AD2EB" mask="url(#j)"/><path fill="url(#k)" mask="url(#j)" d="M314.081 149v20.438L114 36.026V15z"/><g mask="url(#j)"><path d="M196 126.218c4.83 7.47 8.893 13.04 12.186 16.705 2.778 3.091 5.834 6.16 9.167 9.208 14.079 12.87 33.111 25.344 57.098 37.422 39.765 20.023 40.63 11.1 2.593-26.77-44.52-21.765-67.212-33.3-68.077-34.607-.864-1.305-5.187-1.958-12.967-1.958z" fill="#9AD2EB"/><path d="M196.081 98.245c1.297 9.072 3.647 17.743 7.05 26.014 5.107 12.406 38.254 41.135 74.561 58.765 24.205 11.752 35.876 9.576 35.011-6.53-35.875-24.812-60.945-41.57-75.208-50.276-21.396-13.06-31.121-15.67-36.227-24.708-1.497-2.65-2.267-8.742-3.242-9.795-.576-.621-1.224 1.555-1.945 6.53z" fill="#3A3A3A"/><g transform="translate(205.077 111.2)"><mask id="m" fill="#fff"><use xlink:href="#l"/></mask><use fill="#BD3E40" xlink:href="#l"/><path d="M14.323 11.753c3.887 2.426 15.968 11.404 36.242 26.932 1.083.83-10.459 6.607-9.07 7.674.616.474 4.88 2.766 9.07 1.959 3.332-.642 6.743-4.454 7.32-4.01 3.95 3.04 11.885 9.165 23.807 18.374 13.4-11.317 19.883-17.411 19.45-18.282-.431-.87-51.435-25.247-153.01-73.13 19.45 16.977 29.176 26.118 29.176 27.424 0 1.306 8.644 7.4 25.934 18.282l9.725 1.306c-4.676-7.835-4.224-10.011 1.356-6.53z" fill="#8F2A2B" mask="url(#m)"/><path d="M18.802 24.159s8.837 9.515 12.319 7.182c1.597-1.07 1.945-11.1-1.297-15.017C35.66 17.629 3.242-3.265 1.945-3.265c-1.297 0-3.89-1.959-4.538 1.306-.649 3.265-1.297 3.556.648 7.835 1.945 4.28 3.89 11.1 8.429 13.712 4.538 2.612 12.318 4.57 12.318 4.57z" fill="#3A3A3A" mask="url(#m)"/><path d="M18.802 24.159s2.594-7.183 11.022-7.835C35.66 17.629 3.242-3.265 1.945-3.265c-1.297 0-3.89-1.959-4.538 1.306-.649 3.265-1.297 3.556.648 7.835 1.945 4.28 3.89 11.1 8.429 13.712 4.538 2.612 12.318 4.57 12.318 4.57z" fill="#CEB9A5" mask="url(#m)"/><path d="M7.802 17.159s2.594-7.183 11.022-7.835C24.66 10.629-7.758-10.265-9.055-10.265c-1.297 0-3.89-1.959-4.538 1.306-.649 3.265-1.297 3.556.648 7.835 1.945 4.28 3.89 11.1 8.429 13.712 4.538 2.612 12.318 4.57 12.318 4.57z" fill="#AC9986" mask="url(#m)"/></g><g transform="translate(233.604 126.87)"><use fill="#F25153" xlink:href="#n"/><use fill="#F25153" xlink:href="#o"/><path stroke="#FFF" stroke-width="1.3" d="M3.144 17.224L18.222 27.98c5.118-2.425 7.415-4.59 7.075-6.305-.384-1.93-2.858-4.214-7.456-6.74l-.337-.185V6.53c0-3.558-1.21-4.952-3.796-4.58-2.612.376-3.74 2.648-3.335 7.134l-1.279.215C8.324 6.19 6.79 5.333 4.148 6.473 1.565 7.588 1.15 11.101 3.144 17.224z"/></g><path d="M219.34 89.653l7.78 30.688" stroke="#6A5539" stroke-width="2.6" stroke-linecap="round" stroke-linejoin="round"/><path d="M221.934 117.73c2.593 0 3.89-1.306 3.89-3.918s.649-2.394 1.945.653c-.864 2.176-1.296 3.917-1.296 5.223s-1.513.653-4.539-1.959z" fill="#CEB9A5"/></g></g></g><g mask="url(#h)"><g transform="translate(0 170)"><mask id="q" fill="#fff"><use xlink:href="#p"/></mask><use fill="#A39786" xlink:href="#p"/><path fill="#F6EAD9" mask="url(#q)" d="M228.577 131.56l-18.758 13.15L10 13.5l19-13z"/><path fill="#6A5539" mask="url(#q)" d="M209.819 148.5v-3.79L10 13.5V16z"/><path d="M9 25l8-5v-2.5l14.989-9.368L235 141c1.026-1.388-.474-3.554-4.5-6.5S161.974 88.388 37 5l-9-7.5L5.5 11.25-1.5 25H9z" fill="#86745A" opacity=".2" mask="url(#q)"/></g></g><path fill="#F6EAD9" mask="url(#h)" d="M331.544 237.86l-17.463 10.578L114 115.026 130.796 105z"/><path d="M132.562 113.479l2.054.556c-1.044.1-2.348.223-3.913.371-1.076.854-4.744 1.577-9.928 1.318-3.619-.408-3.619-.408-4.107-1.113 2.64-1.002 8.607-.817 11.981-.761l3.913-.371zm4.791 3.302l2.054.556c-1.043.1-2.348.223-3.913.371-1.076.854-4.744 1.577-9.928 1.318-3.618-.408-3.618-.408-4.107-1.113 2.641-1.002 8.607-.817 11.982-.761l3.912-.371zm4.791 3.302l2.054.556-3.912.371c-1.076.853-4.745 1.577-9.928 1.317-3.619-.408-3.619-.408-4.108-1.112 2.641-1.002 8.608-.817 11.982-.761l3.912-.371zm5.609 3.523l2.054.556c-1.044.1-2.348.223-3.913.371-1.076.854-4.744 1.577-9.928 1.318-3.619-.408-3.619-.408-4.107-1.113 2.64-1.002 8.607-.817 11.981-.761l3.913-.371zm6.028 3.637l2.054.556c-1.044.1-2.348.223-3.913.371-1.076.854-4.744 1.577-9.928 1.318-3.619-.408-3.619-.408-4.107-1.113 2.64-1.002 8.607-.817 11.981-.761l3.913-.371zm5.67 3.54l2.054.556c-1.044.1-2.348.223-3.913.371-1.076.854-4.744 1.577-9.928 1.318-3.618-.408-3.618-.408-4.107-1.113 2.64-1.002 8.607-.817 11.981-.761l3.913-.371zm6.063 3.932l2.053.557-3.912.37c-1.076.854-4.744 1.578-9.928 1.318-3.619-.408-3.619-.408-4.108-1.113 2.642-1.002 8.608-.816 11.982-.76l3.913-.372zm6.062 3.933l2.054.556c-1.043.1-2.348.223-3.913.371-1.076.854-4.744 1.577-9.928 1.318-3.618-.408-3.618-.408-4.107-1.113 2.641-1.002 8.607-.817 11.982-.761l3.912-.371zm5.966 3.62l2.054.557-3.912.37c-1.076.854-4.745 1.578-9.928 1.318-3.619-.408-3.619-.408-4.108-1.113 2.641-1.002 8.608-.816 11.982-.76 1.565-.15 2.87-.273 3.912-.372zm4.792 3.302l2.054.556-3.913.372c-1.076.853-4.744 1.576-9.928 1.317-3.619-.408-3.619-.408-4.107-1.113 2.64-1.002 8.607-.816 11.981-.76 1.565-.15 2.87-.273 3.913-.372zm4.791 3.302l2.054.556c-1.043.1-2.348.223-3.913.371-1.076.854-4.744 1.577-9.928 1.318-3.618-.408-3.618-.408-4.107-1.113 2.641-1.002 8.607-.817 11.982-.761l3.912-.371zm5.608 3.523l2.054.557-3.912.37c-1.076.854-4.744 1.578-9.928 1.318-3.619-.408-3.619-.408-4.108-1.113 2.641-1.002 8.608-.816 11.982-.76 1.565-.15 2.87-.273 3.912-.372zm6.028 3.637l2.054.557-3.912.37c-1.076.854-4.744 1.578-9.928 1.318-3.619-.408-3.619-.408-4.108-1.113 2.641-1.002 8.608-.816 11.982-.76 1.565-.15 2.87-.273 3.912-.372zm5.67 3.54l2.054.557-3.912.37c-1.076.854-4.744 1.578-9.928 1.318-3.619-.408-3.619-.408-4.108-1.113 2.642-1.002 8.608-.816 11.982-.76 1.565-.15 2.87-.273 3.913-.372zM255.562 195.479l2.054.556c-1.044.1-2.348.223-3.913.371-1.076.854-4.744 1.577-9.928 1.318-3.619-.408-3.619-.408-4.107-1.113 2.64-1.002 8.607-.817 11.981-.761l3.913-.371zm4.791 3.302l2.054.556c-1.043.1-2.348.223-3.913.371-1.076.854-4.744 1.577-9.928 1.318-3.618-.408-3.618-.408-4.107-1.113 2.641-1.002 8.607-.817 11.982-.761l3.912-.371zm4.791 3.302l2.054.556-3.912.371c-1.076.853-4.745 1.577-9.928 1.317-3.619-.408-3.619-.408-4.108-1.112 2.641-1.002 8.608-.817 11.982-.761l3.912-.371zm5.609 3.523l2.054.556c-1.044.1-2.348.223-3.913.371-1.076.854-4.744 1.577-9.928 1.318-3.619-.408-3.619-.408-4.107-1.113 2.64-1.002 8.607-.817 11.981-.761l3.913-.371zm6.028 3.637l2.054.556c-1.044.1-2.348.223-3.913.371-1.076.854-4.744 1.577-9.928 1.318-3.619-.408-3.619-.408-4.107-1.113 2.64-1.002 8.607-.817 11.981-.761l3.913-.371zm5.67 3.54l2.054.556c-1.044.1-2.348.223-3.913.371-1.076.854-4.744 1.577-9.928 1.318-3.618-.408-3.618-.408-4.107-1.113 2.64-1.002 8.607-.817 11.981-.761l3.913-.371zm6.063 3.932l2.053.557-3.912.37c-1.076.854-4.744 1.578-9.928 1.318-3.619-.408-3.619-.408-4.108-1.113 2.642-1.002 8.608-.816 11.982-.76l3.913-.372zm6.062 3.933l2.054.556c-1.043.1-2.348.223-3.913.371-1.076.854-4.744 1.577-9.928 1.318-3.618-.408-3.618-.408-4.107-1.113 2.641-1.002 8.607-.817 11.982-.761l3.912-.371zm5.966 3.62l2.054.557-3.912.37c-1.076.854-4.745 1.578-9.928 1.318-3.619-.408-3.619-.408-4.108-1.113 2.641-1.002 8.608-.816 11.982-.76 1.565-.15 2.87-.273 3.912-.372zm4.792 3.302l2.054.556-3.913.372c-1.076.853-4.744 1.576-9.928 1.317-3.619-.408-3.619-.408-4.107-1.113 2.64-1.002 8.607-.816 11.981-.76 1.565-.15 2.87-.273 3.913-.372zm4.791 3.302l2.054.556c-1.043.1-2.348.223-3.913.371-1.076.854-4.744 1.577-9.928 1.318-3.618-.408-3.618-.408-4.107-1.113 2.641-1.002 8.607-.817 11.982-.761l3.912-.371zm5.608 3.523l2.054.557-3.912.37c-1.076.854-4.744 1.578-9.928 1.318-3.619-.408-3.619-.408-4.108-1.113 2.641-1.002 8.608-.816 11.982-.76 1.565-.15 2.87-.273 3.912-.372zm6.028 3.637l2.054.557-3.912.37c-1.076.854-4.744 1.578-9.928 1.318-3.619-.408-3.619-.408-4.108-1.113 2.641-1.002 8.608-.816 11.982-.76 1.565-.15 2.87-.273 3.912-.372zm5.67 3.54l2.054.557-3.912.37c-1.076.854-4.744 1.578-9.928 1.318-3.619-.408-3.619-.408-4.108-1.113 2.642-1.002 8.608-.816 11.982-.76 1.565-.15 2.87-.273 3.913-.372z" fill="#DDCFBC" mask="url(#h)"/><path fill="#917B5D" mask="url(#h)" d="M314.081 259v-10.562L114 115.026V125z"/><path fill="#6E5E48" mask="url(#h)" d="M314.081 259v-3.562L114 122.026V125z"/><path fill="#6A5A44" opacity=".4" mask="url(#h)" d="M243.804 201.578l-28.5-19.003-1.805 9.062 28.006 18.757z"/><g mask="url(#h)"><path fill="#FFF" d="M111.577 209.06L108 210l-79-51.5 2.828-1.8z"/><path fill="#CEB9A5" d="M108 211.5V210l-79-51.5v1z"/><path fill="#FFF" d="M111.577 221.06L108 222l-79-51.5 2.828-1.8z"/><path fill="#CEB9A5" d="M108 223.5V222l-79-51.5v1z"/><g transform="translate(29 156)"><use fill="#FFF" xlink:href="#r"/><use fill="#000" filter="url(#s)" xlink:href="#r"/></g></g><g mask="url(#h)"><g transform="translate(127 76)"><path d="M58 84.528V38" stroke="#FFF" stroke-width="2" stroke-linecap="round" stroke-linejoin="round"/><circle fill="#FFD3D3" cx="6.5" cy="9.5" r="1.5"/><circle fill="#F25153" cx="12.5" cy="17.5" r="1.5"/><circle fill="#FFD3D3" cx="20.5" cy="25.5" r="1.5"/><circle fill="#F25153" cx="30.5" cy="32.5" r="1.5"/><circle fill="#FFD3D3" cx="39.5" cy="37.5" r="1.5"/><circle fill="#F25153" cx="49.5" cy="39.5" r="1.5"/><path d="M1.5 47V.472" stroke="#FFF" stroke-width="2" stroke-linecap="round" stroke-linejoin="round"/></g></g><g mask="url(#h)"><path fill="#FFF" d="M196.577 153.06L193 154l-79-51.5 2.828-1.8z"/><path fill="#CEB9A5" d="M193 155.5V154l-79-51.5v1z"/><path fill="#FFF" d="M196.577 165.06L193 166l-79-51.5 2.828-1.8z"/><path fill="#CEB9A5" d="M193 167.5V166l-79-51.5v1z"/><g transform="translate(114 100)"><use fill="#FFF" xlink:href="#t"/><use fill="#000" filter="url(#u)" xlink:href="#t"/></g></g><g mask="url(#h)"><g transform="translate(28 130)"><path d="M58 84.528V38" stroke="#FFF" stroke-width="2" stroke-linecap="round" stroke-linejoin="round"/><circle fill="#FFD3D3" cx="6.5" cy="9.5" r="1.5"/><circle fill="#F25153" cx="12.5" cy="17.5" r="1.5"/><circle fill="#FFD3D3" cx="20.5" cy="25.5" r="1.5"/><circle fill="#F25153" cx="30.5" cy="32.5" r="1.5"/><circle fill="#FFD3D3" cx="39.5" cy="37.5" r="1.5"/><circle fill="#F25153" cx="49.5" cy="39.5" r="1.5"/><path d="M1.5 47V.472" stroke="#FFF" stroke-width="2" stroke-linecap="round" stroke-linejoin="round"/></g></g><g mask="url(#h)"><path d="M139.5 257.5l10.113-6.48c14.666-24.334 29.833-41 45.5-50 15.666-9 30.5-11.167 44.5-6.5 4.666-2.667 7-4.167 7-4.5-6.232-4.075-66.194-24.88-100 0-6.778 4.988-16.786 17.23-15.5 41 .256 4.742 3.052 13.569 8.387 26.48z" fill="#6A5539"/><path fill="#6A5539" opacity=".071" d="M140 257l20.5 1.5-11.5-7z"/><path d="M139.5 257.121c32-55.747 67.667-78.121 107-67.121-8.667-5.667-26.167-17.46-52.5-35.379-23.634 1.71-40.8 6.503-51.5 14.379-10.7 7.876-25.533 27.71-44.5 59.5l41.5 28.621z" fill="#F6EAD9"/><path d="M201.5 171l4.5 1.5c2 .667 3.333 1.833 4 3.5l9.5.5c16.432 7.437 25.266 12.103 26.5 14-1 .5-6.427 3.319-6 4 .954 1.522-2.48 2.828-6 1.5-2.971-1.121-6.125-4.85-5.5-4.5.307.172 11.715 2.861 12 3 4.836 2.36 13.522-.355 16 .5 5.823 2.008 3.157-.825-8-8.5-13.172-8.759-20.505-13.592-22-14.5-1.495-.908-6.162-2.408-14-4.5l-11 3.5z" fill="#86745A" opacity=".306"/><path d="M98 212.121c26-44.08 61.667-66.454 107-67.121l3 2-3 14.5c-17.667-5.667-35.5-3.5-53.5 6.5s-35.833 29.833-53.5 59.5v-15.379z" fill="#D2B48B"/><path d="M101 230.5l-5.5 8.5c12.333-4.667 20.667-7.5 25-8.5 6.5-1.5 24.442-.49 32.25-2.5 6.779-1.744 8.25-7.5 3.25-7.5-10.892 0-18-5.5-22-5.5-8.629 0-12.024 3.9-12-1.5.017-3.809 8.064-9.306 9.5-11 18.743-22.117 38.54-33.914 58.653-36.878a70.639 70.639 0 0 1 11.882-.736c2.652.059 5.308.264 7.965.614-3.333-2.667-5.5-4.667-6.5-6-22.667-2-36.333-1.5-41 1.5-7 4.5-27.5 19-28.5 19.5-.667.333-7.833 8.167-21.5 23.5L102 223.5l-1 7z" fill="#86745A" opacity=".306"/><path d="M101 214.121c26-44.08 61.667-66.454 107-67.121v16.5c-17.667-4.333-35.5-1.5-53.5 8.5s-35.833 29.5-53.5 58.5v-16.379z" fill="#6A5539"/><path fill="#EFDBC8" d="M101 230.5V214l-3-2v16.5z"/><path d="M119.5 142c-5 12.667-7.667 19.833-8 21.5-.5 2.5-1 5 2.5 6.5 2.333 1 6.167 2.333 11.5 4l-2.5-22.5-3.5-9.5z" fill="#454545"/><path d="M137.5 116c.17.512.592 2.458 1 4.5.5 2.5 1.656 2.885 2 4.5.446 2.093-.186 3.57 0 4.5.5 2.5.5 4.5-2 5.5-1.667.667-2.833 1-3.5 1l-1.5 3.5-6.5-2 .5-4c-4-6.667-5.333-11-4-13 2-3 2-5 5.5-5.5s6-1 7.5 0 .5-.5 1 1z" fill="#E9BF94"/><path d="M126 137l-1.5 3.5 11.5 2-2-3.5c-1-.667-2.25-1.167-3.75-1.5-1.5-.333-2.917-.5-4.25-.5z" fill="#FFF"/><path d="M149 217.5c-.667 2.333-.333 4 1 5s2.667 1.167 4 .5l2.5-1.5.5-1.5c6.333-1.333 10.667-3.333 13-6 2-3.5-4-3-6.5-2.5-1.667.333-4 .333-7 0l-7.5 6z" fill="#212121"/><path d="M102.5 219.5c-2.667 1.333-3.833 2.833-3.5 4.5.5 2.5 1 6.5 2.5 7s3.5 0 4.5-1 6-7 6-7-4.5-3.5-5-3.5h-4" fill="#1B1B1B"/><path d="M138.5 180c9-2.667 14.667-4.167 17-4.5 3.5-.5 8.5 1 8 7s-6.5 25.5-6 27c.333 1 .667 1.5 1 1.5-.333 5-3.667 7.333-10 7-2-5 1.535-17.5 2.517-21 .983-3.5 3.483-7.5 1.983-8.5s-17.5 7-19 6.5c-1-.333-4.333-2.333-10-6 6-4.333 9.167-6.5 9.5-6.5.333 0 2-.833 5-2.5z" fill="#414141"/><path d="M118 192.5c.333 9.667.333 15 0 16-.5 1.5-.875 2-.5 2.5s.25 1.5-.375 1.5c-.417 0-5.292 2.333-14.625 7 4 0 5.167 3.667 3.5 11 9-5.5 9.5-5.5 14-7.5s7.5-2.5 8-9c.333-4.333 1-10.833 2-19.5l-12-2z" fill="#414141"/><path fill="#7F1E1F" d="M179 146h1l8-4-6-3-7.5 3-.5 2z"/><path fill="#F25153" d="M181.5 138l6.5 2.5-7 3-5.5-3z"/><path fill="#F25153" d="M173 141l-1-7.5 7.5 3.75.5 7.25z"/><path fill="#D13537" d="M181 143.5v-7l-1.5.75.5 7.25z"/><path fill="#D13537" d="M173 132.5l8 4-1.5.75-7.5-3.75z"/><path fill="#4C1011" d="M188 142v-1.5l-7 3v2z"/><path d="M170.5 144.5c.333-1.333.833-2.333 1.5-3 .667-.667 2.5-1.667 5.5-3 .667.333.167 1.333-1.5 3-2.5 2.5 1.5 3.5 4.5 3.5s4-1.5 4.5-.5-1 2-2 2.5-4.5.5-7.5.5c-2 0-3.5.5-4.5 1.5l-.5-4.5z" fill="#E9BF94"/><path d="M169 145.5l1.5-1.5c2 2 3.167 4 3.5 6-1 .667-1.667 1.167-2 1.5l-3-6z" fill="#FFF"/><g transform="translate(116 139)"><mask id="w" fill="#fff"><use xlink:href="#v"/></mask><use fill="#606060" xlink:href="#v"/><path d="M25.5 18c-2.667-1.667-4.833-2.5-6.5-2.5-2.5 0 .5 7.5.5 15.5s-11 23-18 21S-5 56.5-5 57.5s27 18 27.5 16.5 14-22 14-24S60.5 6.5 60 6.5c-.207 0-18.238 21.08-23.092 18.24A2770.17 2770.17 0 0 1 25.5 18z" fill="#3B3B3B" mask="url(#w)"/></g><path d="M101.5 219c.16.097.275.172.348.225 1.96 1.43 1.678 4.354-.848 8.775.333.333.5.667.5 1-2 3.667-4.833 7-8.5 10 6.91.5 8.5-3 11-8s2-9 1-10c-.667-.667-1.833-1.333-3.5-2z" fill="#464646"/><path d="M102 219.5c-1.5-.5-3-.5-5 6.5.333.333.5.833.5 1.5-1.645 1.574-2.811 2.74-3.5 3.5-1.313 1.448-2.627 2.635-3 4.5-1 5 4.5 3.5 6 1.5s5-6.5 4.5-9c.277-.831 1.723-2.137 2-5.5.056-.684 0-2.5-1.5-3z" fill="#959595"/><path d="M134.5 124.5c-1 0-2 .5-2 2.5s.5 7.5-5 8.5c-2.5-2-8.5-10.5-6-16s7.5-6 10-6 5.5.5 6.5 1.5-.5 1.5-1 2.5 0 9-.5 9.5-1 0-1-1 0-1.5-1-1.5z" fill="#6A5539"/><path d="M136.5 239.121c26-44.08 61.667-66.454 107-67.121l3 2-3 14.5c-17.667-5.667-35.5-3.5-53.5 6.5s-35.833 29.833-53.5 59.5v-15.379z" fill="#D2B48B"/><path d="M139.5 241.121c26-44.08 61.667-66.454 107-67.121v16.5c-17.667-5.667-35.5-3.5-53.5 6.5s-35.833 30.167-53.5 60.5v-16.379z" fill="#6A5539"/><path fill="#EFDBC8" d="M139.6 257.5V241l-3-2v16.5z"/><path d="M181 139.5c1.333-.333 2 0 2 1s-.667 1.667-2 2" stroke="#F8D763"/><path fill="#D8F3FE" d="M181.49 139.757l.607-2.98 1.76-.396 2.154 1.362-.07 1.58-2.997 1.528z"/><g transform="translate(192 58)"><mask id="y" fill="#fff"><use xlink:href="#x"/></mask><use fill="#F6D5B4" xlink:href="#x"/><path d="M20 6c-3.667.667-5.667 1.667-6 3-.5 2-2.5 3-3 3.5S9.5 15 10.5 16s4 3 6.5 1.5c1.667-1 3.5-2.667 5.5-5l-1-5 3.5 4-1 2c-4.667 5.667-7.167 8.5-7.5 8.5C16 22 8 24.5 7 21s-1.5-5.635-1-6.567C6.5 13.5 7.5 10 9 9.5c1-.333 2-2.333 3-6 1.536-1.333 2.67-2 3.402-2 .732 0 2.931 1 6.598 3L20 6z" fill="#E9BF94" mask="url(#y)"/></g><path d="M203 169.5l-2 1.5c3.667.667 6.5.167 8.5-1.5s2.667-3.5 2-5.5l-4 3-3.5 2.5h-1z" fill="#F25153"/><path d="M213 131c1 10 1.167 16.5.5 19.5s-1.833 8.333-3.5 16c-1.013 1.387-1.846 2.22-2.5 2.5-.654.28-2.32.447-5 .5 3-1.667 4.5-3 4.5-4 0-1.5.5-17 0-20-.333-2-.333-5.333 0-10l1.5-2.5 2-2.5 2.5.5z" fill="#E7BE93"/><path d="M208 173.5l-1 1.5c2.667 0 5-1.5 7-4.5.333 2 .167 3.167-.5 3.5l2-1.25c.667-4.167.5-6.75-.5-7.75s-1.667-.833-2 .5l-5 8z" fill="#F25153"/><path d="M202.5 131c-1 2.667-1 5.333 0 8 1.5 4 8 23.5 7.5 27s-1.5 6.5-2 7.5 5-1 6-8-1-19-2-21.5-4-5.5-2.5-8.5c1-2 1.833-4.667 2.5-8l-9.5 3.5z" fill="#F6D5B4"/><g transform="translate(188 67)"><mask id="A" fill="#fff"><use xlink:href="#z"/></mask><use fill="#F25153" xlink:href="#z"/><path d="M27 3c-3.333 2.667-5 4.667-5 6 0 2 4 3.5 2.5 7S22 18 20 22s-5.5 6 0 13c3.667 4.667 6.5 17.167 8.5 37.5 19.333 0 29.167-.167 29.5-.5.5-.5-5.5-35.5-7.5-41s-2-13.5-8-18c-4-3-9.167-6.333-15.5-10z" fill="#CD3A3C" mask="url(#A)"/></g><g transform="translate(192 72)"><mask id="C" fill="#fff"><use xlink:href="#B"/></mask><use fill="#E9BF94" xlink:href="#B"/><path d="M-1 17c5-3.667 8-6.833 9-9.5s2-4 3-4c1.333 1 2.5 1.667 3.5 2 1.5.5 4.5-2 2.5-4s-.5-4-2.5-4-.5-1.5-3 .5S8-2.5 5 3C3 6.667 1.167 10.833-.5 15.5L-1 17z" fill="#F6D5B4" mask="url(#C)"/></g></g><g mask="url(#h)"><path fill="#CEB9A5" d="M238 297.5l-.5-1.5-88.5-57.5v1z"/><path fill="#FFF" d="M240 293.5l-2.5 2.5-88.5-57.5 2.828-1.8zM231.577 301.06L228 302l-79-51.5 2.828-1.8z"/><path fill="#CEB9A5" d="M228 303.5V302l-79-51.5v1z"/><g transform="translate(149 236)"><use fill="#FFF" xlink:href="#D"/><use fill="#000" filter="url(#E)" xlink:href="#D"/></g></g><g mask="url(#h)"><g transform="translate(251 156)"><path d="M58 84.528V38" stroke="#FFF" stroke-width="2" stroke-linecap="round" stroke-linejoin="round"/><circle fill="#FFD3D3" cx="6.5" cy="9.5" r="1.5"/><circle fill="#F25153" cx="12.5" cy="17.5" r="1.5"/><circle fill="#FFD3D3" cx="20.5" cy="25.5" r="1.5"/><circle fill="#F25153" cx="30.5" cy="32.5" r="1.5"/><circle fill="#FFD3D3" cx="39.5" cy="37.5" r="1.5"/><circle fill="#F25153" cx="49.5" cy="39.5" r="1.5"/><path d="M1.5 47V.472" stroke="#FFF" stroke-width="2" stroke-linecap="round" stroke-linejoin="round"/></g></g><g mask="url(#h)"><path fill="#FFF" d="M325 237.5l-2.5 2.5-88.5-57.5 2.828-1.8z"/><path fill="#CEB9A5" d="M323 241.5l-.5-1.5-88.5-57.5v1z"/><path fill="#FFF" d="M316.577 245.06L313 246l-79-51.5 2.828-1.8z"/><path fill="#CEB9A5" d="M313 247.5V246l-79-51.5v1z"/><g transform="translate(234 180)"><use fill="#FFF" xlink:href="#F"/><use fill="#000" filter="url(#G)" xlink:href="#F"/></g></g><g mask="url(#h)"><g transform="translate(158 216)"><path d="M58 84.528V38" stroke="#FFF" stroke-width="2" stroke-linecap="round" stroke-linejoin="round"/><circle fill="#FFD3D3" cx="6.5" cy="9.5" r="1.5"/><circle fill="#F25153" cx="12.5" cy="17.5" r="1.5"/><circle fill="#FFD3D3" cx="20.5" cy="25.5" r="1.5"/><circle fill="#F25153" cx="30.5" cy="32.5" r="1.5"/><circle fill="#FFD3D3" cx="39.5" cy="37.5" r="1.5"/><circle fill="#F25153" cx="49.5" cy="39.5" r="1.5"/><path d="M1.5 47V.472" stroke="#FFF" stroke-width="2" stroke-linecap="round" stroke-linejoin="round"/></g></g><g mask="url(#h)"><g transform="translate(198 45)"><mask id="I" fill="#fff"><use xlink:href="#H"/></mask><use fill="#F6D5B4" xlink:href="#H"/><path d="M0 9.5C.333 7.667 1.167 7.167 2.5 8c2 1.25 3.5 4 7.5 4-2.333-1.667-3.5-3.333-3.5-5 1 0 1.833.5 2.5 1.5 1 1.5 1.5 3.5 2 3s1.5-2 3-1l3 2L6 0C1.667-.667-.667-.5-1 .5c-.5 1.5-2 5-1.5 6 .333.667 1.167 1.667 2.5 3z" fill="#E9BF94" mask="url(#I)"/></g></g><path d="M198.5 52.5c.318-.652.652-1.152 1-1.5.07-.07.14-.128.199-.187.801-.313.801 0 1.301.687.5.687.17 1.274 2 3 2.066 1.95 5.258 2.5 5.5 2.5.332 0-2.444-1.064-4-3-1.293-1.608-1.286-3.644-1-3.5.645.324 2.593.088 3.639 1.332.593.706 1.213 2.261 1.861 4.668 1-2 2-2.5 3-1.5 1.052 1.052.5 3-1 3-.459 0 0 .85 0 1 0 .234.5.438.5 1 0 .16-.333.826-1 2 .14.434.307.6.5.5.714-.37 1.695-1.68 2-2 3.332-3.488 4.118-7.809 3-12-2-7.5-9.5-6-12-5s-5.5 3-6 5.5c-.333 1.667-.167 2.833.5 3.5z" fill="#AB7A48" mask="url(#h)"/></g><g><path d="M99.212 221.548c-17.543-12.463-24.694-21.934-21.454-28.413 5-10 17.153-5 19.653-2 .733-1.232 8.347-12 17.347-4.5 5.843 4.87 1.57 16.378-12.82 34.525a2 2 0 0 1-2.726.388z" fill="#F25153"/><path d="M86 190c-5.333 2-6.833 6-4.5 12 2-3-.283-4.5 1.717-8 1.334-2.333 2.261-3.667 2.783-4z" fill="#FFF"/></g><g><path d="M127.057 159.218c-8.46-12.1-10.869-19.846-7.225-23.237 5.691-5.296 12.585.897 13.537 3.453.779-.624 8.389-5.787 12.595 1.27 2.7 4.529-2.71 10.889-16.232 19.078a2 2 0 0 1-2.675-.564z" fill="#F25153"/><path d="M126.053 135.935c-4.018.011-5.963 2.25-5.832 6.718 2.04-1.467.877-2.995 3.035-4.788 1.44-1.196 2.371-1.839 2.797-1.93z" fill="#FFF"/></g><g><path d="M73.792 139.657c-10.616-5.13-15.354-9.628-14.214-13.492 1.783-6.042 8.987-4.449 10.662-3.026.284-.755 3.435-7.479 9.142-4.19 3.66 2.111 2.5 8.784-3.481 20.02a1.6 1.6 0 0 1-2.109.688z" fill="#F25153"/><path d="M63.824 123.62c-2.75 1.631-3.187 4-1.31 7.105.81-1.861-.597-2.472.165-4.611.508-1.426.89-2.257 1.145-2.493z" fill="#FFF"/></g></g></svg>