<svg width="130" height="130" xmlns="http://www.w3.org/2000/svg"><g fill="none" fill-rule="evenodd"><path d="M34 28.004C34 23.584 37.58 20 42.008 20H83.5L99 36.5v63.506c0 4.415-3.587 7.994-8.003 7.994H42.003A8.005 8.005 0 0 1 34 99.996V28.004z" fill="#F4F1EC"/><path d="M54 41c0-.552.455-1 .995-1h23.01c.55 0 .995.444.995 1 0 .552-.455 1-.995 1h-23.01A.995.995 0 0 1 54 41zM44 51a1 1 0 0 1 1.003-1h42.994a.999.999 0 1 1 0 2H45.003A.999.999 0 0 1 44 51zm0 5a1 1 0 0 1 1.003-1h42.994a.999.999 0 1 1 0 2H45.003A.999.999 0 0 1 44 56zm0 5a1 1 0 0 1 1.003-1h42.994a.999.999 0 1 1 0 2H45.003A.999.999 0 0 1 44 61zm0 5a1 1 0 0 1 1.003-1h42.994a.999.999 0 1 1 0 2H45.003A.999.999 0 0 1 44 66zm0 10a1 1 0 0 1 1.003-1h42.994a.999.999 0 1 1 0 2H45.003A.999.999 0 0 1 44 76zm0 10a1 1 0 0 1 1.003-1h42.994a.999.999 0 1 1 0 2H45.003A.999.999 0 0 1 44 86zm0-15a1 1 0 0 1 1.003-1h42.994a.999.999 0 1 1 0 2H45.003A.999.999 0 0 1 44 71zm0 10a1 1 0 0 1 1.003-1h42.994a.999.999 0 1 1 0 2H45.003A.999.999 0 0 1 44 81zm0 10c0-.552.455-1 .995-1h23.01c.55 0 .995.444.995 1 0 .552-.455 1-.995 1h-23.01A.995.995 0 0 1 44 91z" fill="#C3C3C3"/><path d="M84 20v11.991A5.006 5.006 0 0 0 88.997 37H100L84 20z" fill="#F8D763"/></g></svg>
