<svg width="130" height="130" xmlns="http://www.w3.org/2000/svg" xmlns:xlink="http://www.w3.org/1999/xlink"><defs><path d="M12 6.676A6.675 6.675 0 0 1 18.678 0h84.644A6.675 6.675 0 0 1 110 6.676V66H12V6.676z" id="a"/></defs><g fill="none" fill-rule="evenodd"><text font-family="Lato-Bold, Lato" font-size="40" font-weight="bold" fill="#2A2A2A" transform="translate(-176 -1061)"><tspan x="205.2" y="1223">624</tspan></text><g transform="translate(4 27)"><use fill="#FFF" xlink:href="#a"/><path stroke="#50432C" stroke-width="3.24" d="M13.62 64.38h94.76V6.676a5.055 5.055 0 0 0-5.058-5.056H18.678a5.055 5.055 0 0 0-5.058 5.056V64.38z"/></g><path d="M11 101h108a7 7 0 0 0 7-7v-1H4v1a7 7 0 0 0 7 7z" fill="#F8D763"/><path d="M26 39.81c0-1.117.903-2.023 2.026-2.023h73.948a2.022 2.022 0 1 1 0 4.045H28.026A2.02 2.02 0 0 1 26 39.81zm0 8.09c0-1.117.903-2.022 2.026-2.022h73.948a2.022 2.022 0 1 1 0 4.045H28.026A2.02 2.02 0 0 1 26 47.9zm0 8.09c0-1.117.903-2.022 2.026-2.022h73.948a2.022 2.022 0 1 1 0 4.045H28.026A2.02 2.02 0 0 1 26 55.991zm0 8.09c0-1.116.903-2.022 2.026-2.022h73.948a2.022 2.022 0 1 1 0 4.045H28.026A2.02 2.02 0 0 1 26 64.081zm0 8.091c0-1.117.903-2.022 2.026-2.022h73.948a2.022 2.022 0 1 1 0 4.045H28.026A2.02 2.02 0 0 1 26 72.17zm0 8.09c0-1.116.903-2.022 2.026-2.022h73.948a2.022 2.022 0 1 1 0 4.045H28.026A2.02 2.02 0 0 1 26 80.262z" fill="#ECECEC"/><path d="M32.413 37.787h21.391v4.045H32.413v-4.045zm26.74 8.09h6.684v4.046h-6.685v-4.045zM57.814 70.15H64.5v4.045h-6.685v-4.045zM39.098 45.878h2.674v4.045h-2.674v-4.045zm53.478 24.27h2.674v4.046h-2.674v-4.045zM73.86 78.24h2.674v4.045h-2.674V78.24zm5.348-40.452h2.673v4.045h-2.673v-4.045zm0 24.271h2.673v4.045h-2.673v-4.045zm-38.772 0h29.413v4.045H40.435v-4.045zM37.76 78.24h16.043v4.045H37.761V78.24z" fill="#D6894F"/></g></svg>
