<svg width="130" height="130" xmlns="http://www.w3.org/2000/svg" xmlns:xlink="http://www.w3.org/1999/xlink"><defs><rect id="a" x="15.841" y="5.584" width="50.318" height="1.861" rx=".931"/><rect id="b" x="15.841" y="10.237" width="50.318" height="1.861" rx=".931"/><rect id="c" x="15.841" y="15.201" width="50.318" height="1.861" rx=".931"/><rect id="d" x="15.841" y="19.854" width="14.909" height="1.861" rx=".931"/></defs><g fill="none" fill-rule="evenodd"><text font-family="Lato-Bold, Lato" font-size="40" font-weight="bold" fill="#2A2A2A" transform="translate(-814 -1061)"><tspan x="855.3" y="1223">64</tspan></text><g transform="translate(24 21)"><path fill="#52442E" d="M1.864 21.715h78.273v8.376H1.864z"/><rect fill="#EAE8E2" x="12.114" width="57.773" height="36.296" rx="4.65"/><use fill="#D8D8D8" xlink:href="#a"/><rect stroke="#9B9B9B" stroke-width="1.8" x="16.741" y="6.484" width="48.518" height="1" rx=".5"/><use fill="#D8D8D8" xlink:href="#b"/><rect stroke="#9B9B9B" stroke-width="1.8" x="16.741" y="11.137" width="48.518" height="1" rx=".5"/><use fill="#D8D8D8" xlink:href="#c"/><rect stroke="#9B9B9B" stroke-width="1.8" x="16.741" y="16.101" width="48.518" height="1" rx=".5"/><use fill="#D8D8D8" xlink:href="#d"/><rect stroke="#9B9B9B" stroke-width="1.8" x="16.741" y="20.754" width="13.109" height="1" rx=".5"/><rect fill="#897157" y="19.854" width="2.795" height="11.168" rx="1.398"/><rect fill="#897157" x="79.205" y="19.854" width="2.795" height="11.168" rx="1.398"/><path fill="#52442E" d="M16.773 27.299h48.455v25.128H16.773z"/><path d="M19.648 25.438h-6.62a9.3 9.3 0 0 0-9.3 9.3v27.926h74.545V34.738a9.3 9.3 0 0 0-9.3-9.3h-6.621c.053.613.08 1.234.08 1.861 0 11.822-9.596 21.405-21.432 21.405-11.836 0-21.432-9.583-21.432-21.405 0-.627.027-1.248.08-1.861z" fill="#F8D763"/><path d="M3.727 62.664h74.546L72.54 78.812A9.3 9.3 0 0 1 63.776 85H18.224a9.3 9.3 0 0 1-8.764-6.188L3.727 62.664z" fill="#DCB11C"/><path d="M12.114 66.387h56.84l-1.977 7.86a9.3 9.3 0 0 1-9.02 7.03H23.62a9.3 9.3 0 0 1-8.873-6.512l-2.632-8.378z" fill="#B79416"/><rect fill="#FFF" x="24.227" y="53.358" width="33.545" height="4.653" rx="2.327"/><path d="M20.964 70.11h.935a1.396 1.396 0 0 1 0 2.792h-.935a1.396 1.396 0 1 1 0-2.792zm6.523 0h.935a1.396 1.396 0 0 1 0 2.792h-.935a1.396 1.396 0 1 1 0-2.792zm6.523 0h.935a1.396 1.396 0 0 1 0 2.792h-.935a1.396 1.396 0 1 1 0-2.792zm6.522 0h.936a1.396 1.396 0 0 1 0 2.792h-.936a1.396 1.396 0 1 1 0-2.792zm6.523 0h.935a1.396 1.396 0 0 1 0 2.792h-.935a1.396 1.396 0 1 1 0-2.792zm6.523 0h.935a1.396 1.396 0 0 1 0 2.792h-.935a1.396 1.396 0 1 1 0-2.792zm6.523 0h.935a1.396 1.396 0 0 1 0 2.792H60.1a1.396 1.396 0 1 1 0-2.792zM23.76 74.762h.935a1.396 1.396 0 0 1 0 2.792h-.935a1.396 1.396 0 1 1 0-2.792zm6.522 0h.936a1.396 1.396 0 0 1 0 2.792h-.936a1.396 1.396 0 1 1 0-2.792zm6.523 0h.935a1.396 1.396 0 1 1 0 2.792h-.935a1.396 1.396 0 1 1 0-2.792zm6.523 0h.935a1.396 1.396 0 1 1 0 2.792h-.935a1.396 1.396 0 1 1 0-2.792zm6.523 0h.935a1.396 1.396 0 0 1 0 2.792h-.935a1.396 1.396 0 1 1 0-2.792zm6.522 0h.936a1.396 1.396 0 0 1 0 2.792h-.936a1.396 1.396 0 1 1 0-2.792z" fill="#FFF"/><ellipse stroke="#655138" stroke-width="1.8" fill="#FFF" cx="18.636" cy="26.369" rx="5.591" ry="5.584"/><ellipse stroke="#655138" stroke-width="1.8" fill="#FFF" cx="63.364" cy="26.369" rx="5.591" ry="5.584"/><ellipse fill="#897157" cx="63.364" cy="26.369" rx="1.864" ry="1.861"/><ellipse fill="#897157" cx="18.636" cy="26.369" rx="1.864" ry="1.861"/><ellipse stroke="#FFF" stroke-width="2.79" cx="41" cy="27.299" rx="5.591" ry="5.584"/><path d="M41 46.843V35.21m-3.976 11.225l2.419-11.379m-6.136 10.212l4.546-10.708m-8.041 8.77l6.673-9.529m-9.63 6.996l8.367-8.08m-10.819 4.926l9.866-6.165m-11.624 2.578l10.932-3.979m25.778 3.98l-10.932-3.98m9.174 7.566l-9.866-6.165m7.415 9.32l-8.368-8.082m5.41 10.615l-6.673-9.53m3.178 11.467L44.147 34.56m.83 11.875l-2.42-11.379" stroke="#FFF" stroke-width=".93"/></g></g></svg>
