<svg width="503" height="532" xmlns="http://www.w3.org/2000/svg" xmlns:xlink="http://www.w3.org/1999/xlink"><defs><path d="M.606 294.63v28.192a8.56 8.56 0 0 0 3.81 7.122L220.533 474.05a14.382 14.382 0 0 0 15.96 0l162.118-107.91 1.036-4.356a21.942 21.942 0 0 1 11.326-14.442l57.485-167.499c4.063-11.381-.15-24.07-10.21-30.752L238.228 2.956a15.575 15.575 0 0 0-8.618-2.602h-8.014l-56.903 191.83L.606 294.63z" id="a"/><linearGradient x1="39.606%" y1="76.518%" x2="53.281%" y2="54.668%" id="c"><stop stop-color="#FAF8F0" offset="0%"/><stop stop-color="#FFF" offset="100%"/></linearGradient><path d="M177.294 203.885s-7.409-41.98 12.719-86.574c14.62-32.392 28.13-76.39 34.428-98.043 1.887-6.489 9.522-9.275 15.141-5.529L461.93 161.997c8.935 5.958 12.623 17.27 8.915 27.355-8.936 24.306-29.048 58.66-40.69 91.914-16.7 47.704-18.943 78.59-18.943 78.59L177.294 203.886z" id="d"/><path d="M177.294 203.885s-10.099-3.234-67.374 34.117L16.537 300.08c-4.44 2.962-4.44 9.495 0 12.456L233.133 456.96a14.382 14.382 0 0 0 15.96 0l100.463-66.8c51.69-31.494 61.655-30.303 61.655-30.303L177.294 203.885z" id="e"/><path d="M.125 45.178l60.354-40.1A764.762 764.762 0 0 1 67.67.444h83.805l139.815 93.227v25.214a803.51 803.51 0 0 0-11.203 6.708l-.327.198-98.386 65.416L.125 70.35V45.178z" id="f"/><path d="M81.479 24.078a764.762 764.762 0 0 1 7.192-4.634C109.76 6.86 125.089.568 134.658.568c9.054 0 21.66 6.292 37.818 18.876l139.815 93.227 12.47 17.397-12.47 7.817a803.51 803.51 0 0 0-11.203 6.708l-98.713 65.614L21.125 89.35.26 74.568l20.864-10.39 60.354-40.1z" id="h"/><path d="M.007.83h330.54v162.35c-8.585 4.542-19.024 10.473-31.746 18.225l-98.713 65.614L.008 113.607V.83z" id="j"/><path d="M299.291 118.887L121.658.444c-6.687 2.503-22.212 9.66-53.18 29.85L29.959 55.86 8.124 70.35.26 75.568l190 129.5 119.5-79.5-10.47-6.68z" id="l"/><path d="M78.5 48.2c6 1.5 6 5 4 7.5s-8 2.5-8 2c0-.333.167-1.333.5-3l-4 2c-1.333-.666-2-1.928-2-3.785 0-4 6.37-5.497 9.5-4.715z" id="o"/><filter x="-37.4%" y="-55.2%" width="174.8%" height="330.9%" filterUnits="objectBoundingBox" id="n"><feOffset dy="11" in="SourceAlpha" result="shadowOffsetOuter1"/><feComposite in="shadowOffsetOuter1" in2="SourceAlpha" operator="out" result="shadowOffsetOuter1"/><feColorMatrix values="0 0 0 0 0.596078431 0 0 0 0 0.850980392 0 0 0 0 0.796078431 0 0 0 1 0" in="shadowOffsetOuter1" result="shadowMatrixOuter1"/><feOffset dy="1" in="SourceAlpha" result="shadowOffsetOuter2"/><feComposite in="shadowOffsetOuter2" in2="SourceAlpha" operator="out" result="shadowOffsetOuter2"/><feColorMatrix values="0 0 0 0 0.184233679 0 0 0 0 0.625690901 0 0 0 0 0.52822632 0 0 0 0.394559556 0" in="shadowOffsetOuter2" result="shadowMatrixOuter2"/><feMerge><feMergeNode in="shadowMatrixOuter1"/><feMergeNode in="shadowMatrixOuter2"/></feMerge></filter><path d="M23.187 23.493c-1.602-1.631-1.91-2.94-.926-3.925 1.5-1.5 5-.5 5 0s.5 5.5 2 7c.158.158.287.312.386.46 5.925 3.822 9.75 8.298 10.114 13.04.5 6.5-11 6-17.5 2-6 .5-7 4-11 2s-2-6 1-6 5.5 1 3.5 0c-4.5-2-7.5-4.5-9.5-7-2-1-5 1.5-5.5-1.5s3.628-1.627 3.211-2.329C1.498 23.073.067 17.151 1.762 12.07c2.666-8 7.5-12 14.5-12-2.334 2-3.167 4.333-2.5 7 1 4-4 0-8 3.5s6.5 8 16.5 12.5c.31.14.62.281.925.424z" id="p"/><filter x="-18.2%" y="-15.8%" width="138.9%" height="160.5%" filterUnits="objectBoundingBox" id="q"><feMorphology radius=".6" operator="dilate" in="SourceAlpha" result="shadowSpreadOuter1"/><feOffset dx="1" dy="13" in="shadowSpreadOuter1" result="shadowOffsetOuter1"/><feComposite in="shadowOffsetOuter1" in2="SourceAlpha" operator="out" result="shadowOffsetOuter1"/><feColorMatrix values="0 0 0 0 0.596078431 0 0 0 0 0.850980392 0 0 0 0 0.796078431 0 0 0 1 0" in="shadowOffsetOuter1"/></filter><path d="M5.261 12.568c1 0 1.5.334 1.5 1 0 1 0 1.5 1 2s2.5 0 3 1 1 2 3 2 3.5-1 4 .5c.25.747 1.752 2.01 2 3.5.057.338-.277.838-1 1.5-3.333-2-6.5-3.666-9.5-5-3-1.333-4.333-3.5-4-6.5z" id="s"/><path d="M153.5 135.2c6 1.5 6 5 4 7.5s-8 2.5-8 2c0-.333.167-1.333.5-3l-4 2c-1.333-.666-2-1.928-2-3.785 0-4 6.37-5.497 9.5-4.715z" id="u"/><filter x="-37.4%" y="-55.2%" width="174.8%" height="330.9%" filterUnits="objectBoundingBox" id="t"><feOffset dy="11" in="SourceAlpha" result="shadowOffsetOuter1"/><feComposite in="shadowOffsetOuter1" in2="SourceAlpha" operator="out" result="shadowOffsetOuter1"/><feColorMatrix values="0 0 0 0 0.596078431 0 0 0 0 0.850980392 0 0 0 0 0.796078431 0 0 0 1 0" in="shadowOffsetOuter1" result="shadowMatrixOuter1"/><feOffset dy="1" in="SourceAlpha" result="shadowOffsetOuter2"/><feComposite in="shadowOffsetOuter2" in2="SourceAlpha" operator="out" result="shadowOffsetOuter2"/><feColorMatrix values="0 0 0 0 0.184233679 0 0 0 0 0.625690901 0 0 0 0 0.52822632 0 0 0 0.394559556 0" in="shadowOffsetOuter2" result="shadowMatrixOuter2"/><feMerge><feMergeNode in="shadowMatrixOuter1"/><feMergeNode in="shadowMatrixOuter2"/></feMerge></filter><path d="M139.202 306.987L184.564 278c3.644-2.328 8.926-2.674 11.797-.772l96.186 63.706c2.872 1.902 2.245 5.331-1.399 7.66l-45.362 28.987c-3.644 2.328-8.926 2.674-11.797.772l-96.186-63.706c-2.872-1.902-2.246-5.331 1.399-7.66z" id="w"/><filter x="-.9%" y="-1.4%" width="101.9%" height="105.8%" filterUnits="objectBoundingBox" id="v"><feOffset dy="3" in="SourceAlpha" result="shadowOffsetOuter1"/><feComposite in="shadowOffsetOuter1" in2="SourceAlpha" operator="out" result="shadowOffsetOuter1"/><feColorMatrix values="0 0 0 0 0.813084609 0 0 0 0 0.490612664 0 0 0 0 0.182161238 0 0 0 1 0" in="shadowOffsetOuter1"/></filter><path d="M7.48 14.4c-2.462-.242-6.3-1.806-5.714-9.338 11.088.844 11.941 4.22 11.088 7.594-.098.39-.22.71-.356.976.316-.179.73-.375 1.243-.588-1.769-4.758 1.612-7.419 10.141-7.982 0 3.962-.55 6.642-2.24 8.218 2.662.308 4.83 1.788 6.505 4.439-2.837 1.203-5.482 1.834-7.66 1.894.79 1.65 1.119 3.946-.87 7.387-4.617-1.246-7.53-3.411-8.739-6.497C8.97 21.88 5.517 22.93 0 21.937c.898-4.441 3.392-6.954 7.48-7.538zm3.924.272c.464.509.813 1.018 1.044 1.527.664-.173 1.064-.229 1.2-.168.322.145.653.244.985.31-.175-.524-.177-.963-.008-1.316-1.71-.045-2.663-.223-2.859-.532-.119.078-.24.137-.362.179z" id="y"/><filter x="-19.5%" y="-25.1%" width="139.1%" height="204.8%" filterUnits="objectBoundingBox" id="x"><feOffset dy="11" in="SourceAlpha" result="shadowOffsetOuter1"/><feComposite in="shadowOffsetOuter1" in2="SourceAlpha" operator="out" result="shadowOffsetOuter1"/><feColorMatrix values="0 0 0 0 0.596078431 0 0 0 0 0.850980392 0 0 0 0 0.796078431 0 0 0 1 0" in="shadowOffsetOuter1" result="shadowMatrixOuter1"/><feOffset dy="1" in="SourceAlpha" result="shadowOffsetOuter2"/><feComposite in="shadowOffsetOuter2" in2="SourceAlpha" operator="out" result="shadowOffsetOuter2"/><feColorMatrix values="0 0 0 0 0.184233679 0 0 0 0 0.625690901 0 0 0 0 0.52822632 0 0 0 0.394559556 0" in="shadowOffsetOuter2" result="shadowMatrixOuter2"/><feMerge><feMergeNode in="shadowMatrixOuter1"/><feMergeNode in="shadowMatrixOuter2"/></feMerge></filter><path d="M7.48 14.4c-2.462-.242-6.3-1.806-5.714-9.338 11.088.844 11.941 4.22 11.088 7.594-.098.39-.22.71-.356.976.316-.179.73-.375 1.243-.588-1.769-4.758 1.612-7.419 10.141-7.982 0 3.962-.55 6.642-2.24 8.218 2.662.308 4.83 1.788 6.505 4.439-2.837 1.203-5.482 1.834-7.66 1.894.79 1.65 1.119 3.946-.87 7.387-4.617-1.246-7.53-3.411-8.739-6.497C8.97 21.88 5.517 22.93 0 21.937c.898-4.441 3.392-6.954 7.48-7.538zm3.924.272c.464.509.813 1.018 1.044 1.527.664-.173 1.064-.229 1.2-.168.322.145.653.244.985.31-.175-.524-.177-.963-.008-1.316-1.71-.045-2.663-.223-2.859-.532-.119.078-.24.137-.362.179z" id="A"/><filter x="-19.5%" y="-25.1%" width="139.1%" height="204.8%" filterUnits="objectBoundingBox" id="z"><feOffset dy="11" in="SourceAlpha" result="shadowOffsetOuter1"/><feComposite in="shadowOffsetOuter1" in2="SourceAlpha" operator="out" result="shadowOffsetOuter1"/><feColorMatrix values="0 0 0 0 0.596078431 0 0 0 0 0.850980392 0 0 0 0 0.796078431 0 0 0 1 0" in="shadowOffsetOuter1" result="shadowMatrixOuter1"/><feOffset dy="1" in="SourceAlpha" result="shadowOffsetOuter2"/><feComposite in="shadowOffsetOuter2" in2="SourceAlpha" operator="out" result="shadowOffsetOuter2"/><feColorMatrix values="0 0 0 0 0.184233679 0 0 0 0 0.625690901 0 0 0 0 0.52822632 0 0 0 0.394559556 0" in="shadowOffsetOuter2" result="shadowMatrixOuter2"/><feMerge><feMergeNode in="shadowMatrixOuter1"/><feMergeNode in="shadowMatrixOuter2"/></feMerge></filter><path d="M71.605 5.5c4.334 7.333 5.834 13.5 4.5 18.5-3.4 12.753-12.998 20.294-17 21-3.909.69-13.27 1.007-24-1-3.216-.602-8.216-2.102-15-4.5-1.666-3.333-1.333-6.333 1-9 1.93-.333 12.097-1.167 30.5-2.5l3-4.5c-8.666 4.333-20.333 2.5-35-5.5 7 6 6.895 8.4 7.395 11.9-2.5.1-5.813.518-5.895.6-.052.052-.157.104-.308.154-1.3.434-5.951.742-8.192-.154-2.5-1-15.105-14-11-23.5S21 1 26 1s18.605 2.5 19.605 1c.667-1 1.167-1.667 1.5-2l24.5 5.5z" id="B"/><path d="M29 0c-2.333 1.667-4.167 6-5.5 13C18 17.5 3 26.5 1 32.5c-1.333 4 3.167 15.333 13.5 34 3.667-2.333 5.667-4.333 6-6 .333-1.667.5-4.667.5-9-8-9.333-11.667-15-11-17 1-3 13-15.5 17-17.5 2.667-1.333 4.167-2.833 4.5-4.5L29 0z" id="D"/><path d="M10 0C5.786 1.333 3.512 3.833 3.179 7.5c-.5 5.5-4 9.5-3 14.5s2.745 5.5 3 7c.5 2 2 5.5 0 18-.5 1.5 12 9 25.5 4.5 0-6 2.5-17.5 5.5-21s1-20.5-.5-21.5c-1-.667-3.167-2-6.5-4L10 0z" id="F"/><path d="M19.5.5C7.833.167 1.667 5.667 1 17 .333 28.333 5.5 33.667 16.5 33L15 46c.667.667 1.5.833 2.5.5 2.604-.868 3.205-2.457 5-4.5 1.326-1.51 4.003-3.317 5-5 3.942-6.654 5.288-14.713 4.5-22C30.333 7 26.167 2.167 19.5.5z" id="H"/><path d="M3.5 1C6-.5 12.5-.5 17 8.5c1.5-1.5 3.3-.607 3.5 1 .094.753.156 2.516-.5 3.5-1 1.5-1.5.159-1.5.5 0 2 1 10.5-4.5 21.5-3.5 2-7 1-5.5-3s.5-8.5 0-9c0 0-2.5 1-5-1-.631-1.579-.952-2.585-1.5-4.5C1.68 16.383 0 15 .5 13c.398-1.59.5-3.5.5-6s1-5 2.5-6z" id="J"/><path d="M2.5 0C-1.167 9.333 0 17.667 6 25c9 11 20 22 19.5 25.5S16.5 68 16 70s-1.5 19 3.5 16.5c5-8 16-27 14.5-35.5s-6-12-9.5-16S10 22.5 9 20s1-11.5.5-12S8 7.5 7 10C6.333 6.333 4.833 3 2.5 0z" id="L"/><path d="M256.253 405.22c0-5.5-5.5-12.5-19-9.5s-6 20 5 20.5c3.298.15 7.5-.5 9.5-2 .371-.278-2.205-2.265-4.5-4.5-.94-.916-1.691-1.75-2.253-2.5.317-.639 1.069-.639 2.253 0 3.092 1.667 7.376 4.2 7.583 3.84 1.024-1.791 1.417-3.848 1.417-5.84z" id="O"/><filter x="-20.9%" y="-25.9%" width="141.9%" height="208.3%" filterUnits="objectBoundingBox" id="N"><feOffset dy="11" in="SourceAlpha" result="shadowOffsetOuter1"/><feComposite in="shadowOffsetOuter1" in2="SourceAlpha" operator="out" result="shadowOffsetOuter1"/><feColorMatrix values="0 0 0 0 0.596078431 0 0 0 0 0.850980392 0 0 0 0 0.796078431 0 0 0 1 0" in="shadowOffsetOuter1" result="shadowMatrixOuter1"/><feOffset dy="1" in="SourceAlpha" result="shadowOffsetOuter2"/><feComposite in="shadowOffsetOuter2" in2="SourceAlpha" operator="out" result="shadowOffsetOuter2"/><feColorMatrix values="0 0 0 0 0.184233679 0 0 0 0 0.625690901 0 0 0 0 0.52822632 0 0 0 0.394559556 0" in="shadowOffsetOuter2" result="shadowMatrixOuter2"/><feMerge><feMergeNode in="shadowMatrixOuter1"/><feMergeNode in="shadowMatrixOuter2"/></feMerge></filter><path d="M260 395.575c.074-3.05 1.908-4.742 5.5-5.075 5.388-.5 8 2.651 8.5 5.075.5 2.425-3 6.5-8.5 5.5a9.69 9.69 0 0 1-1.479-.384c-.897-.315 2.576-3.554 1.979-4.116-.49-.46-3.298 3.324-4 2.973-1.333-.667-2-1.99-2-3.973z" id="Q"/><filter x="-39.2%" y="-51%" width="178.3%" height="313.3%" filterUnits="objectBoundingBox" id="P"><feOffset dy="11" in="SourceAlpha" result="shadowOffsetOuter1"/><feComposite in="shadowOffsetOuter1" in2="SourceAlpha" operator="out" result="shadowOffsetOuter1"/><feColorMatrix values="0 0 0 0 0.596078431 0 0 0 0 0.850980392 0 0 0 0 0.796078431 0 0 0 1 0" in="shadowOffsetOuter1" result="shadowMatrixOuter1"/><feOffset dy="1" in="SourceAlpha" result="shadowOffsetOuter2"/><feComposite in="shadowOffsetOuter2" in2="SourceAlpha" operator="out" result="shadowOffsetOuter2"/><feColorMatrix values="0 0 0 0 0.184233679 0 0 0 0 0.625690901 0 0 0 0 0.52822632 0 0 0 0.394559556 0" in="shadowOffsetOuter2" result="shadowMatrixOuter2"/><feMerge><feMergeNode in="shadowMatrixOuter1"/><feMergeNode in="shadowMatrixOuter2"/></feMerge></filter></defs><g fill="none" fill-rule="evenodd"><path d="M24.287 391.906l202.14 134.785a25.806 25.806 0 0 0 28.703-.045l164.293-110.715c7.393-4.963 7.376-15.853-.033-20.793L210.34 255.745a12.483 12.483 0 0 0-13.851 0L24.287 371.091c-7.422 4.95-7.422 15.866 0 20.815" fill="#6DBAB3" opacity=".181"/><path d="M0 347.7v-5.001L173.936 227.92a7.218 7.218 0 0 1 8.01 0L246.454 2.38s8.205-3.317 12.943-.575l228.165 149.18c12.622 8.253 18.027 24.037 13.116 38.305L437.75 373.093c-2.136 6.625-6.801 12.754-11.967 17.415v.002l-9.026 6.018-157.554 104.867a30.942 30.942 0 0 1-34.335 0L2.9 353.128A6.53 6.53 0 0 1 0 347.7" fill="#D1B49A"/><path d="M3.207 348.694c-4.276-2.851-4.276-9.141 0-11.993l170.097-113.23a7.193 7.193 0 0 1 7.98 0L239.853 9.646c1.94-7.085 10.213-10.224 16.358-6.206l227.296 148.61c12.574 8.222 17.958 23.947 13.065 38.16l-61.022 177.28-.252.783a39.407 39.407 0 0 1-11.104 17.165l-8.992 5.996-158.356 105.403a28.349 28.349 0 0 1-31.462 0L3.207 348.694" fill="#867054"/><path d="M496.571 190.211l-61.022 177.28c-2.38 7.383-6.21 13.304-11.356 17.948l-8.992 5.996L278.55 482.4c-9.527 6.353-30.523 11.753-40.05 5.4 127.882-189.738 205.282-292.788 232.2-309.15 22.95-13.95 26.726 9.078 25.871 11.561z" fill="#513B20" opacity=".5"/><path d="M186.588 228.63L246.1 11.362c.607-2.216 2.554-3.207 4.214-3.207.837 0 1.63.24 2.355.715L479.964 157.48a26.31 26.31 0 0 1 10.483 30.618L429.384 365.5l-.252.783a32.974 32.974 0 0 1-8.943 14.035l-8.58 5.721-158.351 105.4a21.817 21.817 0 0 1-12.144 3.68 21.81 21.81 0 0 1-12.14-3.678L10.582 345.766c-2.183-1.457-2.182-4.667.002-6.122L176.89 228.87a.707.707 0 0 1 .403-.124c.145 0 .28.04.4.121l4.47 2.98" stroke="#BE9365" stroke-width="1.08" stroke-linecap="round" stroke-linejoin="round" stroke-dasharray="3.603599643611915,3.603599643611915"/><path stroke="#F7931E" stroke-width=".72" stroke-linecap="round" stroke-linejoin="round" d="M183.662 232.847l1.498.998.476-1.737"/><path d="M393.26 354.18l-144.166 95.94a14.382 14.382 0 0 1-15.96 0L16.537 305.697" fill="#FFF"/><path d="M393.26 354.18l-144.166 95.94a14.382 14.382 0 0 1-15.96 0L16.537 305.697" stroke="#000" stroke-width=".72" stroke-linecap="round" stroke-linejoin="round"/><g transform="translate(12.6 12.065)"><mask id="b" fill="#fff"><use xlink:href="#a"/></mask><use fill="#F4F1EC" xlink:href="#a"/><path stroke="#DCD3C4" stroke-width="1.8" d="M1.506 295.13v27.692a7.66 7.66 0 0 0 3.409 6.374L221.033 473.3a13.482 13.482 0 0 0 14.962 0l161.822-107.714.955-4.011a22.843 22.843 0 0 1 11.466-14.865l57.372-167.17c3.925-10.993-.144-23.247-9.86-29.7L237.73 3.705a14.675 14.675 0 0 0-8.12-2.452h-7.342L165.46 192.767 1.506 295.13z"/><path fill="#DFDCD3" opacity=".6" mask="url(#b)" d="M228.15 445.585v39.16l214.2-99.46 54-224.55-44.1 3.15-221.4 272.25z"/></g><g transform="translate(0 .365)"><use fill="url(#c)" xlink:href="#d"/><path stroke="#DCD3C4" stroke-width="1.8" d="M178.12 203.353l232.332 154.916c.117-1.164.275-2.533.478-4.1.591-4.569 1.444-9.884 2.607-15.89 3.318-17.147 8.447-36.397 15.768-57.31a278.145 278.145 0 0 1 3.683-9.888c3.871-9.845 8.387-19.963 14.56-32.934 1.508-3.167 10.278-21.331 12.596-26.256 4.45-9.455 7.557-16.598 9.855-22.85 3.565-9.694.02-20.568-8.57-26.295L239.083 14.488c-5.114-3.41-12.06-.873-13.778 5.032-10.489 36.06-22.485 71.603-34.472 98.161-7.107 15.747-11.274 32.217-13.03 48.809-1.264 11.954-1.18 22.828-.28 32.021.145 1.475.3 2.772.455 3.881.05.367.098.688.141.96z"/></g><path d="M391.95 324.9c4.8-34.8 21.75-81.15 50.85-139.05M377.55 315.9c4.8-34.8 21.75-81.15 50.85-139.05M363.6 305.55c4.8-34.8 21.75-81.15 50.85-139.05" stroke="#979797" stroke-width=".9" opacity=".2"/><g transform="translate(0 .365)"><use fill="#FFF" xlink:href="#e"/><path stroke="#DCD3C4" stroke-width="1.8" d="M176.948 204.735c-.593-.073-1.672.006-3.341.372-2.592.568-6.032 1.72-10.432 3.59-12.067 5.134-29.35 14.79-52.757 30.054l-93.382 62.078c-3.906 2.606-3.906 8.353 0 10.958l216.597 144.424a13.483 13.483 0 0 0 14.962 0l100.493-66.819c21.964-13.383 38.12-21.941 49.364-26.626 4.052-1.688 7.212-2.763 9.592-3.342.234-.057.456-.108.666-.153L176.948 204.735zm234.171 156.017l-.015-.002.018.002h-.003z"/></g><path d="M40.953 306.673l79.264-52.664c30.968-20.19 46.493-27.347 53.18-29.85l198.176 132.14c-8.586 4.542-19.024 10.473-31.747 18.226l-98.712 65.613-200.16-133.465z" fill="#EAE8E2"/><text transform="rotate(-65 236.137 138.687)" font-family="Merriweather-Italic, Merriweather" font-size="19.8" font-style="italic" fill="#E1DDD2"><tspan x="231.637" y="145.687">1</tspan></text><path d="M259.549 186.22c-.09.45-.224.927-.405 1.433-.18.506-.42.933-.717 1.28-.299.348-.636.621-1.012.82a3.543 3.543 0 0 1-1.218.381c-.436.055-.884.06-1.344.014a8.134 8.134 0 0 1-2.731-.826c-.88-.442-1.621-.899-2.225-1.37a10.516 10.516 0 0 1-1.625-1.572 9.798 9.798 0 0 1-1.2-1.806 8.478 8.478 0 0 1-.708-1.91c-.306-1.327-.253-2.569.16-3.727.39-1.1.89-2.066 1.495-2.9l.212-.285 2.93 2.15-.364 1.021-2.292-.914c-.277.156-.497.402-.66.738-.164.336-.32.711-.466 1.124-.148.413-.194.89-.138 1.433.055.542.201 1.065.438 1.568.237.503.543.982.917 1.438 1.028 1.243 2.307 2.25 3.838 3.018 1.315.661 2.497.98 3.545.958 1.185-.03 1.952-.532 2.3-1.51.275-.774.342-1.498.2-2.173a1.396 1.396 0 0 0-.258-.603l-1.471-1.439.384-1.051 2.703 1.769c-.009.174-.016.407-.023.698-.006.292-.03.627-.07 1.004-.04.377-.106.79-.195 1.24zm4.335-11.763c-.269.757-.77.927-1.5.512-.48-.275-.99-.612-1.533-1.012-.542-.399-.928-.682-1.158-.848-.229-.167-.48-.353-.752-.558a25.148 25.148 0 0 0-.845-.61c-.653-.465-1.176-.797-1.57-.994-.392-.197-.686-.314-.881-.35-.195-.037-.355-.031-.48.016-.18.074-.32.25-.418.526a2.254 2.254 0 0 0-.12.89c.017.318.076.656.176 1.016.215.773.556 1.53 1.023 2.273l6.094 4.09-.603 1.692-12.056-8.04-.734.845-.656-.505.468-2.501.392-.338 5.785 3.883c-.734-1.274-1.09-2.469-1.07-3.583.01-.386.073-.74.188-1.063.115-.323.26-.583.434-.78.174-.197.394-.329.659-.395.55-.149 1.283.007 2.2.467a11.01 11.01 0 0 1 1.656 1.059l1.225.913 1.277.91c.912.642 1.47.99 1.673 1.04.204.05.32.035.349-.046.072-.204.024-.595-.146-1.174l.54-.048c.156.223.278.52.367.894.175.753.18 1.36.016 1.82zm1.985-9.98c.618 1.202.746 2.312.384 3.33-.336.943-.941 1.493-1.816 1.65-.817.145-1.783-.062-2.9-.623-.916-.46-1.781-1.159-2.595-2.096-1.363-1.562-2.062-3.217-2.098-4.963a4.842 4.842 0 0 1 .28-1.774c.202-.57.512-1.11.929-1.621l.08-1.185 7.919 5.326c.223.146.396.21.52.194.123-.017.207-.088.251-.213.045-.125-.005-.42-.148-.882l.549-.044c.14.188.254.454.34.799.168.695.177 1.255.025 1.68-.263.738-.739.935-1.428.589l-.12-.06-.172-.108zm-7.093-4.736c-.285.18-.508.496-.67.95a3.06 3.06 0 0 0-.185 1.31c.038.421.143.832.315 1.235.173.402.4.788.68 1.159.28.37.589.716.925 1.035.656.625 1.28 1.085 1.869 1.381.589.296 1.061.496 1.417.6.356.103.67.15.941.142.567-.01.93-.236 1.087-.678.265-.745.188-1.6-.234-2.566a5.817 5.817 0 0 0-.367-.72l-5.778-3.848zm11.482-4.14c.013.603-.063 1.137-.229 1.603a6.454 6.454 0 0 1-.618 1.284l4.186 2.833-.59 1.658-12.188-8.21-.774.732-.62-.496.371-2.51.351-.306.995.684c-.584-1.13-.702-2.184-.354-3.161.348-.978.964-1.55 1.849-1.715.827-.154 1.795.047 2.905.605 1.458.732 2.679 1.921 3.663 3.568.678 1.13 1.03 2.273 1.053 3.43zm-1.989 2.107c.313-.2.554-.536.722-1.01.17-.475.232-.918.187-1.331a3.86 3.86 0 0 0-.342-1.216 5.817 5.817 0 0 0-.708-1.149 8.667 8.667 0 0 0-.948-1.026 9.496 9.496 0 0 0-2.22-1.557c-.794-.399-1.46-.58-2-.542-.541.037-.892.282-1.054.736-.238.67-.157 1.488.243 2.457.106.267.222.507.347.72l5.773 3.918zm4.987-9.563c-.38 1.064-1.079 1.34-2.098.829l-.094-.047c-.176-.089-.511-.298-1.004-.628l-5.9-3.9-.373 1.047-.681-.547-.019-1.275c-.27-.526-.888-1.294-1.858-2.302l.295-.83 2.123 1.417.815-2.286 1.124.77-.805 2.26 5.088 3.41c.654.445 1.102.728 1.344.85.242.121.418.198.527.229.11.03.203.035.278.01.142-.038.25-.16.323-.367.073-.207.114-.4.121-.582.008-.181.003-.37-.015-.564a6.062 6.062 0 0 0-.176-1.034l.722.177c.332.633.472 1.475.42 2.526-.018.313-.07.592-.157.837zm1.647-8.556c.38-1.065.316-2.262-.19-3.593l.852-.046c.306.497.517 1.13.632 1.902.15.933.103 1.744-.142 2.434-.246.69-.556 1.2-.93 1.534-.731.661-1.634.887-2.707.677-.463-.095-.817-.204-1.061-.327a31.61 31.61 0 0 1-.794-.414c-.285-.153-.664-.422-1.137-.808a9.771 9.771 0 0 1-1.288-1.259 9.25 9.25 0 0 1-1.004-1.435 7.124 7.124 0 0 1-.651-1.536c-.318-1.106-.31-2.125.02-3.056.432-1.21 1.137-1.768 2.117-1.673.3.027.634.133 1.004.319s.699.474.985.865c.287.391.513.827.678 1.307.164.48.275.985.331 1.515.057.529.077 1.043.06 1.542-.024 1.01-.143 1.832-.355 2.466.115.072.224.133.327.185.102.051.226.11.37.175.145.066.334.127.57.183.234.057.47.089.705.097a1.87 1.87 0 0 0 .66-.09c.459-.154.774-.475.948-.964zm-4.504-.102c.263-.869.305-1.836.127-2.899-.121-.754-.376-1.375-.765-1.866-.197-.257-.481-.478-.851-.664-.37-.186-.692-.228-.967-.125-.275.102-.467.308-.578.62-.111.31-.144.625-.1.943.045.317.143.632.293.944.15.312.34.62.568.923a8.9 8.9 0 0 0 .732.856 9.744 9.744 0 0 0 1.541 1.268zm-.214-10.478l-.824.615-.704-.538.309-2.336.354-.316 1.873 1.157a5.348 5.348 0 0 1-1.181-2.96c-.035-.428-.007-.77.084-1.027.158-.442.287-.682.388-.72l1.64 1.275c-.138.123-.265.346-.38.67a3.23 3.23 0 0 0-.196.888c-.015.27.012.56.083.87.17.71.556 1.398 1.158 2.063l5.838 3.848-.606 1.702-7.836-5.191z" fill="#E1DDD2"/><g transform="translate(59.739 248.932)"><mask id="g" fill="#fff"><use xlink:href="#f"/></mask><path d="M291.291 118.887L113.658.444c-6.687 2.503-22.212 9.66-53.18 29.85L.126 70.35l181.25 120.857 109.916-72.32z" fill="#F9E6D7" mask="url(#g)"/></g><g transform="translate(38.739 229.932)"><mask id="i" fill="#fff"><use xlink:href="#h"/></mask><path d="M312.291 137.887L134.658 19.444c-6.687 2.503-22.212 9.66-53.18 29.85L21.126 89.35l181.25 120.857 109.916-72.32z" stroke="#42210B" stroke-width=".72" fill="#FFF" stroke-linecap="round" stroke-linejoin="round" mask="url(#i)"/></g><g transform="translate(41.025 193.12)"><mask id="k" fill="#fff"><use xlink:href="#j"/></mask><g mask="url(#k)"><g transform="translate(10.713 47.812)"><mask id="m" fill="#fff"><use xlink:href="#l"/></mask><use stroke="#66BDA9" fill="#ACDFD4" stroke-linecap="round" stroke-linejoin="round" xlink:href="#l"/><path d="M299.291 134.887L121.658 16.444c-6.687 2.503-22.212 9.66-53.18 29.85L29.959 71.86 8.124 86.35.26 91.568l190 129.5 119.5-79.5-10.47-6.68z" stroke="#66BDA9" fill="#C8F5EB" stroke-linecap="round" stroke-linejoin="round" mask="url(#m)"/><path d="M84.355 93.984L128.185 66c3.52-2.248 8.624-2.582 11.398-.746l92.937 61.504c2.774 1.836 2.169 5.147-1.352 7.395l-43.83 27.984c-3.52 2.248-8.624 2.582-11.398.746l-60.284-39.895c-2.58-1.707-4.398-5.606-7.895-7.92-2.306-1.526-5.813-3.579-10.519-6.158-1.248-.684-.256-2.664-2.48-3.842-.66-.348-.08-1.528-1.5-2-.687-.228-2.307.28-4 0-.886-.146-1.981-1.093-4-1.689-.391-.115-1.144-.115-2.259 0-2.774-1.836-2.17-5.147 1.352-7.395z" fill="#44AF99" opacity=".2" mask="url(#m)"/><path d="M.261 105.568c-2 1-29-17-30-18.5s4.5-45.5 8.5-52 132-51 135-52.5 14.5 8.5 30.5 11 174 115 175.5 116c1 .667 10 19.667 27 57l-46.5-12.5-180.5-121.5c-11.06 5.77-21.56 11.937-31.5 18.5-7.473 4.935-31.699 20.58-50.5 33.5-18.705 12.857-36.502 20.502-37.5 21z" fill="#44AF99" opacity=".3" mask="url(#m)"/><g mask="url(#m)"><use fill="#000" filter="url(#n)" xlink:href="#o"/><use fill="#28D6AF" xlink:href="#o"/><path stroke="#24C3A0" stroke-width="1.1" d="M71.012 56.08l4.748-2.374-.22 1.102c-.244 1.218-.398 2.082-.46 2.554.115.017.257.03.418.04.604.03 1.387-.009 2.174-.121 1.983-.283 3.619-.95 4.399-1.924 2.182-2.729 1.213-5.394-3.704-6.623-3.61-.903-8.817 1.135-8.817 4.181 0 1.543.486 2.572 1.462 3.164zm4.038 1.608a.79.79 0 0 0 0-.022z"/></g><g mask="url(#m)"><g transform="translate(68 79)"><mask id="r" fill="#fff"><use xlink:href="#p"/></mask><use fill="#000" filter="url(#q)" xlink:href="#p"/><use fill="#F4FFFD" xlink:href="#p"/><path stroke="#388E7B" stroke-width=".6" d="M22.094 22.664c-.905-1.291-.941-2.411-.045-3.308 1.397-1.396 5.512-.912 5.512.212 0 .415.182 1.864.432 3.064.369 1.773.873 3.116 1.48 3.724.153.153.282.304.388.453 6.234 4.034 9.841 8.578 10.2 13.236.247 3.22-2.27 5.046-6.41 5.26-3.696.192-8.204-.952-11.462-2.93-1.744.156-3.106.554-4.64 1.244-.308.138-1.284.6-1.312.613-.496.23-.863.382-1.227.5-1.284.415-2.435.329-3.883-.395-1.958-.98-2.744-2.552-2.278-4.105.427-1.423 1.828-2.464 3.412-2.464.835 0 1.668.073 2.57.202-3.77-1.795-6.657-4.049-8.76-6.66-.433-.199-.947-.235-1.653-.153-.193.022-.37.048-.69.1-1.094.175-1.498.205-1.99.066C1.05 31.13.627 30.58.466 29.618c-.249-1.496.488-2.206 1.858-2.377a8.3 8.3 0 0 1 .939-.054c.142-.003.246-.006.326-.01C.88 22.49-.09 16.67 1.477 11.973 4.182 3.858 9.123-.232 16.26-.232h.811l-.615.528c-2.25 1.929-3.043 4.147-2.405 6.7.275 1.1.143 1.771-.45 2.1-.424.235-.82.255-2.136.204-1.757-.069-2.722.01-3.837.46-.596.241-1.151.58-1.67 1.034-1.58 1.382-.686 3.028 2.634 5.186 2.597 1.688 5.434 3.06 12.79 6.365l.71.32z"/><path d="M5.261 21.568c-.5-1-1-2-.5-2s4 1.5 3.5 2.5-1 .5-1 1 2.5 1.5 2 2.5-1.68 2.5-2 1.5c-.32-1 0-1.5-1-2s-3-1.5-2.5-2.5 2 0 1.5-1zm12 6.5c.5-.5 1 0 1 .5s1 .5 2 1 .5 0 .5 1-.5 1-.5 1.5 1 .5 1 1-.5 1-1 1.5.5 1 1.5 1 1 1 1 2-.5 1-1.5 1-1 0-1.5-.5-.5-.5-1-.5-1 .5-1.5 0-.927-.5-.927-.5.427-1.5 0-3c-.428-1.5-1.073-1.5-1.073-2.5s1.5-.5 2-1.5-.5-1.5 0-2zm9.5 2c.5 0 1-1 1.5-1.5s0-.5-.5-1-.5 0-1.5-.5-.5-1 0-2 1 0 2 .5 1.5 1 3 1.5 1 .5 1.5 1 0 1 0 1.5.5 1 .5 1.5 0 1-.5 2-.5 0-2.5-.5-.5 0-2 0-1.5 0-2.5-.5 0-.5 0-1.5.5-.5 1-.5zm7 5h1.5c.5 0 1 .5 1.5 1s0 .5 0 .5l1 1c.5.5 0 1-1 2s0 1 0 1.5-.5.5-1 .5-.5 0-.5-.5 0-1-.5-1 0 .5-1 .5-1 0-1-.5c0-.337-.208-.447-.663-1.556-.152-.372-2.337 0-.542-1.498.224-.188-.19-.597-.295-.946-1.043-3.5 0-1 1-1h1.5z" fill="#3AAC92" mask="url(#r)"/><path d="M5.261 27.568c.5 0 1.5 0 1.5-.5s-.5-1 0-1.5 1 0 1.5 0 2.5-.888 3 0c.5.89-1.5 2.5 0 2s2-1 3-1.5 1-.35 1.5 0 1 2 2 1.5.5-1.5 1.5-.5l1.5 1.5c1 1 1 2 1.5 1.5s2-.619.5-1.5c-1.5-.88-1-.5-1.5-1.5s-1-1.5-.5-2 0-1.5 1-1.5 1-1 2.5.5 2 0 2 2-.5 2 .5 2 1-.5 1.5.5-1 2-1.5 2-1-.5-.5.5-.5.5 1 1 .5 0 2 .5 2-1 2 1 1 2-1 2.5-2-.5-2.5.5-.5 1-1.5 1-1-.5-1.5-1l-1-1c-.5-.5-1-.5-1-1.5v-1.5c.334-.666 0-.833-1-.5-1.5.5-2.75 0-3.375 0s-1.125-2-1.625 0 0 1-.5 2.5-.5 3-1 2.5-2 0-1.5-1.5.5-1 1-2.5 1-2 .5-2.5 0-1-1-.5-1 1-2 1-1.5-.5-2-.5-1-.5-1 0 2 4 .5 3.5-4.5-1.5-4.5-2-.5-4.5 0-4.5z" fill="#FFA34B" mask="url(#r)"/><path d="M29.761 41.568c1 .5 1.5-.333 1.5-.5 0-.11-.666-.444-2-1 0 0-.5 1 .5 1.5z" fill="#3AAC92" mask="url(#r)"/><path d="M15.761 1.068c-7 2.667-10.833 5.5-11.5 8.5-.38 1.71-1.518 4.656-1.5 7 .03 3.825 1.64 7.14 3.5 9 3 3 15 9.5 17 11 .698.523 1.334 1.29 1.995 2.108.314.39-1.495 2.392 1.005 4.892 1.066 1.066 1.544-1.485 3-1 3 1 12 2.5 10.5-6-1-5.666 0-4.833 3 2.5 2 6.334.834 9.834-3.5 10.5-6.5 1-24 2.5-28 .5s-19-14-19-17.5 0-9 2-14.5 1-9.5 5-12.5 8.5-6.5 12.5-7c1.837-.23 4.27.123 5 1 .22.265.054.765-.5 1.5" fill="#23AD8F" opacity=".127" mask="url(#r)"/></g><g transform="translate(68 79)"><use fill="#F4FFFD" xlink:href="#s"/><path stroke="#388E7B" stroke-width=".6" d="M5.261 12.268c1.146 0 1.8.436 1.8 1.3 0 1.149.083 1.357.835 1.732.246.124.536.184 1.005.23l.23.02c1.123.096 1.582.251 1.899.884.704 1.41 1.2 1.834 2.731 1.834.464 0 .884-.048 1.53-.159 1.863-.318 2.385-.245 2.755.865.044.132.152.311.34.57.088.121.506.667.617.818.595.809.937 1.456 1.054 2.157.08.476-.297 1.04-1.093 1.77l-.165.152-.192-.115c-3.323-1.994-6.48-3.655-9.467-4.983-3.117-1.385-4.525-3.674-4.177-6.808l.03-.267h.268z"/></g><g stroke-linecap="round" stroke-linejoin="round" stroke="#388E7B" stroke-width=".6"><path d="M93.263 117.568c-.667 2.334-.334 4.167 1 5.5M72.763 108.068l2 3M96.763 120.068c-.334-.666-.167-1.166.5-1.5.666-.333 1.333.167 2 1.5M78.263 119.068c-.334 1.667.666 2.834 3 3.5M88.763 101.068c4 1.667 7.166 3.334 9.5 5"/></g></g><path d="M121.761.068v17" stroke="#5CB8A3" mask="url(#m)"/><path d="M299.291 118.887c-100.353 50.454-160.363 53.848-180.03 10.181-29.5-65.5-76.463-81.73-89.304-73.208L8.125 70.35.26 75.568l190 129.5 119.5-79.5-10.47-6.68z" fill="#249A81" opacity=".06" mask="url(#m)"/><g mask="url(#m)"><use fill="#000" filter="url(#t)" xlink:href="#u"/><use fill="#28D6AF" xlink:href="#u"/><path stroke="#24C3A0" stroke-width="1.1" d="M146.012 143.08l4.748-2.374-.22 1.102c-.244 1.218-.398 2.082-.46 2.554.115.017.257.03.418.04.604.03 1.387-.009 2.174-.121 1.983-.283 3.619-.95 4.399-1.924 2.182-2.729 1.213-5.394-3.704-6.623-3.61-.903-8.817 1.135-8.817 4.181 0 1.543.486 2.572 1.462 3.164zm4.038 1.608a.797.797 0 0 0 0-.022z"/></g></g></g></g><path d="M411.21 378.204s1.037-12.551 12.363-18.798" stroke="#FFA34B" stroke-width="3.24" stroke-linecap="round" stroke-linejoin="round"/><path d="M144.073 316.617l43.543-27.705c3.498-2.226 8.568-2.556 11.325-.739l92.329 60.89c2.756 1.817 2.155 5.095-1.343 7.32l-43.543 27.705c-3.498 2.226-8.568 2.556-11.325.739l-92.329-60.89c-2.756-1.817-2.155-5.095 1.343-7.32z" fill="#44AF99" opacity=".5"/><g transform="translate(143 260)" stroke="#FFF" stroke-linecap="round" stroke-linejoin="round"><ellipse cx="13" cy="9.5" rx="13" ry="9.5"/><ellipse cx="13" cy="9.5" rx="8" ry="5.5"/><ellipse cx="13" cy="9.5" rx="2" ry="1.5"/></g><g transform="translate(56 319)" stroke="#FFF" stroke-linecap="round" stroke-linejoin="round"><ellipse cx="13" cy="9.5" rx="13" ry="9.5"/><ellipse cx="13" cy="9.5" rx="8" ry="5.5"/><ellipse cx="13" cy="9.5" rx="2" ry="1.5"/></g><g transform="translate(254 319)" stroke="#FFF" stroke-linecap="round" stroke-linejoin="round"><ellipse cx="13" cy="9.5" rx="13" ry="9.5"/><ellipse cx="13" cy="9.5" rx="8" ry="5.5"/><ellipse cx="13" cy="9.5" rx="2" ry="1.5"/></g><g transform="translate(262 375)" stroke="#FFF" stroke-linecap="round" stroke-linejoin="round"><ellipse cx="13" cy="9.5" rx="13" ry="9.5"/><ellipse cx="13" cy="9.5" rx="8" ry="5.5"/><ellipse cx="13" cy="9.5" rx="2" ry="1.5"/></g><g><use fill="#000" filter="url(#v)" xlink:href="#w"/><use fill="#FFA34B" xlink:href="#w"/><path stroke="#CF7D2E" stroke-width="1.5" d="M139.605 307.619c-3.235 2.068-3.742 4.843-1.388 6.403l96.186 63.706c2.604 1.725 7.57 1.4 10.98-.78l45.361-28.986c3.236-2.068 3.743-4.843 1.39-6.403l-96.187-63.706c-2.604-1.725-7.57-1.4-10.98.78l-45.362 28.986z"/></g><g transform="translate(89 303)"><use fill="#000" filter="url(#x)" xlink:href="#y"/><use fill="#28D6AF" xlink:href="#y"/><path stroke="#24C3A0" stroke-width="1.1" d="M11.49 14.383l-3.932.561c-3.679.525-5.956 2.677-6.896 6.548 4.456.706 7.792.082 9.894-1.435l.575-.415.26.66c1.1 2.813 3.736 4.834 7.958 6.052 1.447-2.664 1.516-4.677.642-6.504l-.365-.764.847-.023c1.98-.055 4.34-.6 6.844-1.598-1.531-2.17-3.437-3.372-5.738-3.639l-1.183-.137.87-.812c1.388-1.293 2.005-3.497 2.062-7.223-7.774.617-10.632 2.999-9.072 7.199l.184.496-.488.203a11.34 11.34 0 0 0-1.184.559l-1.607.907.329-.635zm.07-.137l.45-.867c.12-.234.225-.52.31-.858 1-3.952-1.25-6.117-10.042-6.865-.288 5.537 1.848 7.863 5.256 8.196l4.026.394zm.15.898c.123-.052.243-.116.359-.192l-.303-.46-.348.221.11.316c.054.041.114.08.181.115zm-.486-.992c.083-.029.163-.068.24-.118l.467-.308.3.473c-.011-.018.164.056.497.118.444.083 1.083.136 1.912.158l.848.022-.367.765c-.1.211-.1.506.034.905l.299.898-.929-.185a5.12 5.12 0 0 1-1.103-.347c.057.026.001.025-.1.04a6.975 6.975 0 0 0-.735.158l-.448.117-.191-.421c-.207-.454-.523-.916-.95-1.384l-.563-.617.789-.274z"/><path d="M12.5 3c-1.333 2.333-1.833 4.333-1.5 6 .333 1.667 1.167 2.167 2.5 1.5 1-2.667 1.167-4.5.5-5.5s-1.167-1.667-1.5-2z" fill="#FFC58D"/><path d="M7.676 7.594c.57-3.375 1.138-5.625 1.706-6.75C12.225 5.906 13.932 9 14.5 10.125c.569 1.125-1.706 1.406-6.824.844V7.594z" fill="#E4872E"/><ellipse fill="#FFF" cx="12.794" cy="14.344" rx="1.706" ry="1"/><path d="M11.941 16.031c-1.137 2.813-2.843 3.375-5.117 1.688C3.412 15.187 3.647 7.187 4.5 5.5c2.347 1.313 4.013 2.813 5 4.5.673 1.15 1.487 3.161 2.441 6.031z" fill="#FFA34B"/><path d="M11.941 7.594c1.706-2.813 3.128-4.782 4.265-5.907 1.137 2.25 1.706 5.063 1.706 8.438 0 5.063-3.412 2.531-3.412 2.531l-2.559-4.219v-.843z" fill="#E4872E"/><path d="M14.026 16.031c1.137 2.813 2.843 3.375 5.118 1.688C22.556 15.187 22.353 7.687 21.5 6c-2.68 1.313-4.513 2.813-5.5 4.5-.673 1.15-1.33 2.994-1.974 5.531z" fill="#FFA34B"/><path d="M12.643 7.5c-4.107 3.438-5.023 6.563-2.749 9.375 1.706 2.813 3.696 3.094 5.97.844 2.275-2.25 1.201-5.657-3.22-10.219z" fill="#FFC58D"/></g><g transform="matrix(-1 0 0 1 320 353)"><use fill="#000" filter="url(#z)" xlink:href="#A"/><use fill="#28D6AF" xlink:href="#A"/><path stroke="#24C3A0" stroke-width="1.1" d="M11.49 14.383l-3.932.561c-3.679.525-5.956 2.677-6.896 6.548 4.456.706 7.792.082 9.894-1.435l.575-.415.26.66c1.1 2.813 3.736 4.834 7.958 6.052 1.447-2.664 1.516-4.677.642-6.504l-.365-.764.847-.023c1.98-.055 4.34-.6 6.844-1.598-1.531-2.17-3.437-3.372-5.738-3.639l-1.183-.137.87-.812c1.388-1.293 2.005-3.497 2.062-7.223-7.774.617-10.632 2.999-9.072 7.199l.184.496-.488.203a11.34 11.34 0 0 0-1.184.559l-1.607.907.329-.635zm.07-.137l.45-.867c.12-.234.225-.52.31-.858 1-3.952-1.25-6.117-10.042-6.865-.288 5.537 1.848 7.863 5.256 8.196l4.026.394zm.15.898c.123-.052.243-.116.359-.192l-.303-.46-.348.221.11.316c.054.041.114.08.181.115zm-.486-.992c.083-.029.163-.068.24-.118l.467-.308.3.473c-.011-.018.164.056.497.118.444.083 1.083.136 1.912.158l.848.022-.367.765c-.1.211-.1.506.034.905l.299.898-.929-.185a5.12 5.12 0 0 1-1.103-.347c.057.026.001.025-.1.04a6.975 6.975 0 0 0-.735.158l-.448.117-.191-.421c-.207-.454-.523-.916-.95-1.384l-.563-.617.789-.274z"/><path d="M12.5 3c-1.333 2.333-1.833 4.333-1.5 6 .333 1.667 1.167 2.167 2.5 1.5 1-2.667 1.167-4.5.5-5.5s-1.167-1.667-1.5-2z" fill="#FFC58D"/><path d="M7.676 7.594c.57-3.375 1.138-5.625 1.706-6.75C12.225 5.906 13.932 9 14.5 10.125c.569 1.125-1.706 1.406-6.824.844V7.594z" fill="#E4872E"/><ellipse fill="#FFF" cx="12.794" cy="14.344" rx="1.706" ry="1"/><path d="M11.941 16.031c-1.137 2.813-2.843 3.375-5.117 1.688C3.412 15.187 3.647 7.187 4.5 5.5c2.347 1.313 4.013 2.813 5 4.5.673 1.15 1.487 3.161 2.441 6.031z" fill="#FFA34B"/><path d="M11.941 7.594c1.706-2.813 3.128-4.782 4.265-5.907 1.137 2.25 1.706 5.063 1.706 8.438 0 5.063-3.412 2.531-3.412 2.531l-2.559-4.219v-.843z" fill="#E4872E"/><path d="M14.026 16.031c1.137 2.813 2.843 3.375 5.118 1.688C22.556 15.187 22.353 7.687 21.5 6c-2.68 1.313-4.513 2.813-5.5 4.5-.673 1.15-1.33 2.994-1.974 5.531z" fill="#FFA34B"/><path d="M12.643 7.5c-4.107 3.438-5.023 6.563-2.749 9.375 1.706 2.813 3.696 3.094 5.97.844 2.275-2.25 1.201-5.657-3.22-10.219z" fill="#FFC58D"/></g><g><path d="M176 331.5c11 4.667 18.333 8.167 22 10.5 5.5 3.5 8.724 12.207 11.5 13 3.5 1 6.964-.929 7.5-2 1.5-3-1.173-4.12 0-5 .953-.715 5.341.372 10 .5 5.12.14 10.62-.691 13.5-2 5.5-2.5 15-15 12-24-2-6-4.167-9.5-6.5-10.5l-50-1-9 1.5c-3.11 7.111-5.11 10.611-6 10.5-4-.5-8.5-2.5-9.5-1-.667 1 .833 4.167 4.5 9.5z" fill="#CF7D2E"/><path d="M198.5 328.5c-7.333.667-12 .5-14-.5-3-1.5-10.5-6.5-13-5.5s-2 4-1 5.5c.495.743 3.006 3.446 6 4.5 3.05 1.073 7.855 1.495 9.5 2 2.173.667 6.507 2 13 4l-.5-10z" fill="#E9BF94"/><path d="M189.5 329c7.28 6.477 11.947 10.977 14 13.5 2.355 2.894 3.211 6.922 3.5 7.5.5.999 1.15 2.977 2 3.5 1.687 1.039 4.64.923 6 0 .7-.475.373-1.363.5-2 .334-1.671-1.255-3.24-3-6-.433-.685-1-3 .5-3.882 1.5-.882-2.751-.074-3-1.257-1-4.76-7.833-8.546-20.5-11.361z" fill="#E9BF94"/><g transform="translate(175 298)"><mask id="C" fill="#fff"><use xlink:href="#B"/></mask><use fill="#40F5CF" xlink:href="#B"/><path d="M46 1c-.667 5.333 4.833 8.667 16.5 10 17.5 2 5.5 17 4 19.5s-3 7.5-10 9-31.5 0-41-3.5c-6.333-2.333-5.5 0 2.5 7l42 6 13.5-11.5 5-20.5L76 4c-5.333-.667-8.167-1-8.5-1-.333 0-7.5-.667-21.5-2z" fill="#28D6AF" mask="url(#C)"/><path d="M55 15.5c.667 4 .5 6.667-.5 8C51.5 26 44 28 40 27c-2.667-.667-6.833.167-12.5 2.5l-3 .5c-6-7.333-10.167-11.833-12.5-13.5-1-4.5 7.5-2.5 8.5-2s18.5 7 26 4.5c5-1.667 7.833-2.833 8.5-3.5z" fill="#28D6AF" mask="url(#C)"/></g><g transform="translate(206 196)"><mask id="E" fill="#fff"><use xlink:href="#D"/></mask><use fill="#E9BF94" xlink:href="#D"/><path d="M34-.5c-2.597-.293-4.264.04-5 1-2.04 2.66-2.284 8.62-2.5 11C26 17 22 18 19.5 20S6 30 6.5 35c.233 2.333 2.533 8.281 7.5 16 .279.433 1.44 4.09 1.5 8 .103 6.758-.933 15.283 0 16.5.854 1.113 3.02-3.554 6.5-14C30 47.833 33.833 40.667 33.5 40c-.333-.667-.833-10.5-1.5-29.5l2-11z" fill="#BF9870" mask="url(#E)"/></g><g transform="translate(218 252)"><mask id="G" fill="#fff"><use xlink:href="#F"/></mask><use fill="#FFF" xlink:href="#F"/><path d="M.5 16C1.833 21.667 5 25.167 10 26.5c7.5 2 13.5 3.5 13.5-5.25 0-5.833 2.667-11.083 8-15.75l12 4.5C36.167 23 32.333 29.833 32 30.5c-.333.667-2.667 3-7 7-8-3.333-12.333-5-13-5-1 0-9.5-3-10-2.5s-7.5-4.5-7-5c.333-.333.833-3 1.5-8l4-1z" fill="#F4F1EC" mask="url(#G)"/><path d="M31 14.5c-3 6.667-4.667 12.333-5 17-.5 7-6.5.5-16-1.5-2.119-.446-3.717-1.514-5.5-2-2.364-.644-3.864-2.311-4.5-5l1.5 8c7.344 1.993 12.178 3.493 14.5 4.5 2.479 1.074 5.807 2.753 6.5 4 1.667 3 1.667 9 0 18 5-.333 7.667-.667 8-1 .333-.333 3.333-9 9-26L35 21l-4-6.5z" fill="#EAE8E2" mask="url(#G)"/></g><g transform="translate(221 220)"><mask id="I" fill="#fff"><use xlink:href="#H"/></mask><use fill="#574336" xlink:href="#H"/><path d="M15.5.5c.667 4.667 1.833 7.667 3.5 9 2.5 2 5.5 9 5.5 11.5 0 .255-1.052 1.107-2 .5-.806-.516-1.418-2.548-2.5-2-.842.427.812 5.036-1 5.5-6.877 1.76 1.72 2.61 2.5 3 2 1 1.988 3.061 1.5 5.5-1 5-9 12-9.5 13s-2 3.5-1 4S42.5 38 44 30s-.5-42.5-4.5-42.5c-2.667 0-10.667 4.333-24 13z" fill="#372920" mask="url(#I)"/></g><g transform="translate(222 231)"><mask id="K" fill="#fff"><use xlink:href="#J"/></mask><use fill="#E9BF94" xlink:href="#J"/><path d="M1 6.5s1.5-4.5 4-5 7.5 0 11 7c.26.519.477 1.098.655 1.719.136.475 1.254-5.235 1.345-4.719.238 1.354 3.183 1.261 3 3.5-.203 2.491-1 5-3 4.5-.5 4.5-1.5 6-3.5 7.5s-6 2-6.5 2-.804.852.5 1c1.848.21 5.914-.466 6.5 1 .482 1.205-.684 5.039-3.5 11.5L20 35l4.5-29c-6-4.667-9.167-7.167-9.5-7.5C14.5-2 2.5-3 2.5-2.5s0 1.5-1 3-.5 6-.5 6z" fill="#BF9870" mask="url(#K)"/></g><g transform="translate(233 196)"><mask id="M" fill="#fff"><use xlink:href="#L"/></mask><use fill="#E9BF94" xlink:href="#L"/><path d="M9.5 7.5c-1.333 3.333-2 6.667-2 10 0 5 1 4.5 5.5 9s17.5 14.5 18 23c.333 5.667-5.667 17.167-18 34.5 2.333 5 3.833 7.5 4.5 7.5 1 0 3.5 3.5 10.5-2s17-12.5 17-24 4-17.5-8.5-31c-8.333-9-17.333-18-27-27z" fill="#BF9870" mask="url(#M)"/></g></g><g><use fill="#000" filter="url(#N)" xlink:href="#O"/><use fill="#28D6AF" xlink:href="#O"/><path stroke="#24C3A0" stroke-width="1.1" d="M251.067 414.021a12.081 12.081 0 0 0-.716-.708c-.22-.206-2.218-2.001-2.87-2.615-.213-.2-.416-.394-.611-.584-.96-.935-1.73-1.789-2.31-2.564l-.203-.272.15-.303c.5-1.006 1.586-1.006 3.007-.24a199.187 199.187 0 0 1 2.268 1.248c2.038 1.132 2.748 1.52 3.554 1.932a13.818 13.818 0 0 0 1.194.557c.791-1.522 1.173-3.315 1.173-5.252 0-6.772-6.994-11.482-18.33-8.963-5.84 1.298-7.953 5.474-6.285 10.476 1.608 4.825 6.24 8.713 11.19 8.937 3.3.15 6.92-.5 8.79-1.649z"/></g><g><use fill="#000" filter="url(#P)" xlink:href="#Q"/><use fill="#28D6AF" xlink:href="#Q"/><path stroke="#24C3A0" stroke-width="1.1" d="M260.55 395.582c.001 1.725.532 2.834 1.584 3.415.08-.04.192-.115.326-.22.275-.217.59-.512 1.11-1.026l.088-.088c.748-.741.94-.926 1.243-1.18.628-.523 1.039-.72 1.476-.308.607.57.386.96-.947 2.757l-.017.023c-.523.705-.72.984-.874 1.266-.01.018-.02.035-.028.052.34.104.702.191 1.087.261 4.493.817 8.39-2.292 7.863-4.847-.591-2.869-3.531-5.046-7.91-4.64-3.328.31-4.931 1.787-5.001 4.535zm1.558 3.43l-.002-.001a.594.594 0 0 0 .012-.006zm2.315 1.468l-.001.006v-.015z"/></g><path d="M126 301c4 .667 7.333-.333 10-3M108 322c1.333 1.333 1.333 3.333 0 6M235.5 417c4.225 3.169 11.025 2.737 15.5.5M307.5 361.5c-2.667 2.333-3.833 4.833-3.5 7.5" stroke="#FFF" stroke-linecap="round" stroke-linejoin="round"/><g transform="translate(167 362)" stroke="#FFF" stroke-linecap="round" stroke-linejoin="round"><ellipse cx="13" cy="9.5" rx="13" ry="9.5"/><ellipse cx="13" cy="9.5" rx="8" ry="5.5"/><ellipse cx="13" cy="9.5" rx="2" ry="1.5"/></g><g transform="translate(189 401)" stroke="#FFF" stroke-linecap="round" stroke-linejoin="round"><ellipse cx="13" cy="9.5" rx="13" ry="9.5"/><ellipse cx="13" cy="9.5" rx="8" ry="5.5"/><ellipse cx="13" cy="9.5" rx="2" ry="1.5"/></g><path d="M99 319c-1.333-2-.5-4.5 2.5-7.5M99.5 326c.333 2.333 3 4.5 8 6.5M246.5 405l7.5 4M307.5 373c-.333 2.667-2.5 4.667-6.5 6" stroke="#FFF" stroke-linecap="round" stroke-linejoin="round"/></g></svg>