<svg width="130" height="130" xmlns="http://www.w3.org/2000/svg"><g fill="none" fill-rule="evenodd"><text font-family="Lato-Bold, Lato" font-size="40" font-weight="bold" fill="#2A2A2A" transform="translate(-501 -1061)"><tspan x="540.3" y="1223">32</tspan></text><g transform="translate(29 27)"><rect fill="#50432C" x="4.5" width="1.8" height="58.882" rx=".9"/><rect fill="#50432C" y="51.333" width="72" height="1.812" rx=".906"/><path d="M9 43.767c0-.824.666-1.492 1.5-1.492H15c.829 0 1.5.669 1.5 1.492v3.054c0 .824-.666 1.493-1.5 1.493h-4.5c-.829 0-1.5-.67-1.5-1.493v-3.054zm10.5-3.016c0-.826.666-1.496 1.5-1.496h4.5c.829 0 1.5.68 1.5 1.496v6.067c0 .826-.666 1.496-1.5 1.496H21c-.829 0-1.5-.681-1.5-1.496V40.75zM30 34.719c0-.83.666-1.503 1.5-1.503H36c.829 0 1.5.668 1.5 1.503V46.81c0 .83-.666 1.503-1.5 1.503h-4.5c-.829 0-1.5-.668-1.5-1.503V34.719zm10.5-7.549c0-.83.666-1.503 1.5-1.503h4.5c.829 0 1.5.677 1.5 1.503v19.64c0 .83-.666 1.504-1.5 1.504H42c-.829 0-1.5-.678-1.5-1.504V27.17zM51 16.59c0-.824.666-1.492 1.5-1.492H57c.829 0 1.5.664 1.5 1.492v30.232c0 .824-.666 1.492-1.5 1.492h-4.5c-.829 0-1.5-.664-1.5-1.492V16.59zM61.5 4.527A1.5 1.5 0 0 1 63 3.02h4.5c.829 0 1.5.675 1.5 1.507v42.28a1.5 1.5 0 0 1-1.5 1.507H63c-.829 0-1.5-.676-1.5-1.507V4.527z" fill="#EAE8E2"/><path d="M19.027 65.407a.5.5 0 0 1-.172.21.433.433 0 0 1-.233.06.592.592 0 0 1-.303-.105c-.113-.07-.246-.147-.399-.233a3.252 3.252 0 0 0-.536-.232 2.255 2.255 0 0 0-.726-.105c-.252 0-.471.03-.658.091-.187.06-.344.145-.473.253a1.012 1.012 0 0 0-.286.388c-.063.151-.095.316-.095.496 0 .23.064.421.192.574.129.153.299.284.51.392.212.108.452.204.722.29.27.085.546.177.827.273.282.097.557.21.827.338.27.128.51.29.722.486.212.196.382.435.51.719.128.283.192.627.192 1.032 0 .441-.075.854-.226 1.239-.15.385-.371.72-.661 1.006-.29.286-.645.51-1.063.675-.419.164-.898.246-1.438.246-.31 0-.617-.03-.918-.091a4.832 4.832 0 0 1-.867-.26 4.529 4.529 0 0 1-.777-.405 3.82 3.82 0 0 1-.644-.526l.526-.871a.672.672 0 0 1 .179-.159.437.437 0 0 1 .233-.064c.112 0 .234.046.364.139.13.092.285.194.463.307.178.112.387.215.627.307.241.092.53.138.868.138.517 0 .918-.122 1.201-.368.284-.245.426-.597.426-1.056 0-.257-.064-.466-.193-.628a1.553 1.553 0 0 0-.51-.408 3.805 3.805 0 0 0-.722-.28c-.27-.077-.544-.16-.823-.25a7.101 7.101 0 0 1-.824-.324c-.27-.126-.51-.29-.722-.493a2.242 2.242 0 0 1-.51-.76c-.128-.303-.192-.678-.192-1.123 0-.356.071-.702.213-1.04.142-.337.348-.636.62-.897.273-.261.607-.47 1.003-.628a3.649 3.649 0 0 1 1.357-.236c.576 0 1.107.09 1.593.27.486.18.9.432 1.242.756l-.446.857zm12.491 7.985h-1.404a.614.614 0 0 1-.607-.412l-.73-1.99h-4.043l-.729 1.99a.639.639 0 0 1-.6.412h-1.411l3.834-9.76h1.856l3.834 9.76zM25.2 69.707h3.112l-1.188-3.247a12.421 12.421 0 0 1-.371-1.147c-.063.229-.125.443-.186.64-.06.199-.12.372-.179.52L25.2 69.707zm11.04 2.187h3.908v1.498h-5.724v-9.76h1.816v8.262zm13.22-8.262v1.444h-4.327v2.707h3.408v1.397h-3.408v2.76h4.326v1.452h-6.156v-9.76h6.156zm8.703 1.775a.5.5 0 0 1-.172.21.433.433 0 0 1-.233.06.592.592 0 0 1-.303-.105c-.113-.07-.246-.147-.399-.233a3.252 3.252 0 0 0-.536-.232 2.255 2.255 0 0 0-.726-.105c-.252 0-.471.03-.658.091-.187.06-.344.145-.473.253a1.012 1.012 0 0 0-.286.388c-.063.151-.095.316-.095.496 0 .23.064.421.193.574.128.153.298.284.51.392.21.108.451.204.721.29.27.085.546.177.827.273.282.097.557.21.827.338.27.128.51.29.722.486.212.196.382.435.51.719.128.283.192.627.192 1.032 0 .441-.075.854-.226 1.239-.15.385-.371.72-.661 1.006-.29.286-.645.51-1.063.675-.419.164-.898.246-1.438.246-.31 0-.617-.03-.918-.091a4.832 4.832 0 0 1-.867-.26 4.529 4.529 0 0 1-.777-.405 3.82 3.82 0 0 1-.644-.526l.526-.871a.672.672 0 0 1 .179-.159.437.437 0 0 1 .233-.064c.112 0 .234.046.364.139.13.092.285.194.463.307.178.112.387.215.628.307.24.092.53.138.867.138.517 0 .918-.122 1.201-.368.284-.245.426-.597.426-1.056 0-.257-.064-.466-.193-.628a1.553 1.553 0 0 0-.51-.408 3.805 3.805 0 0 0-.722-.28c-.27-.077-.544-.16-.823-.25a7.101 7.101 0 0 1-.824-.324c-.27-.126-.51-.29-.722-.493a2.242 2.242 0 0 1-.51-.76c-.128-.303-.192-.678-.192-1.123 0-.356.071-.702.213-1.04.142-.337.348-.636.62-.897.273-.261.607-.47 1.003-.628a3.649 3.649 0 0 1 1.357-.236c.576 0 1.107.09 1.593.27.486.18.9.432 1.242.756l-.446.857z" fill="#979797"/><path d="M12.75 43.03S27 42.5 41.5 31 66 3.02 66 3.02" stroke="#CD8545" stroke-width="2" stroke-linecap="round" stroke-linejoin="round"/></g></g></svg>
