<svg width="130" height="130" xmlns="http://www.w3.org/2000/svg" xmlns:xlink="http://www.w3.org/1999/xlink"><defs><path d="M24 46.219c-13.255 0-24-10.346-24-23.11C0 10.346 10.745 0 24 0s24 10.346 24 23.11c0 6.24-2.569 11.903-6.744 16.06l.499 5.68c.33 3.75-2.12 5.237-5.471 3.3L31.14 45.18A24.846 24.846 0 0 1 24 46.219z" id="a"/></defs><g fill="none" fill-rule="evenodd"><g transform="translate(24 56)"><mask id="b" fill="#fff"><use xlink:href="#a"/></mask><use fill="#EAE8E2" transform="matrix(-1 0 0 1 48 0)" xlink:href="#a"/><ellipse fill="#D9D5CE" opacity=".3" mask="url(#b)" cx="49" cy="2" rx="34" ry="30"/></g><path d="M73 80.538c-16.569 0-30-12.88-30-28.769C43 35.88 56.431 23 73 23c16.569 0 30 12.88 30 28.769 0 7.769-3.211 14.818-8.43 19.995l.624 7.07c.411 4.667-2.65 6.519-6.84 4.108l-6.428-3.699A31.175 31.175 0 0 1 73 80.538zM50.5 51.596c0-3.158 2.497-5.719 5.625-5.719 3.107 0 5.625 2.539 5.625 5.72 0 3.158-2.497 5.719-5.625 5.719-3.107 0-5.625-2.539-5.625-5.72zm16.875 0c0-3.158 2.497-5.719 5.625-5.719 3.107 0 5.625 2.539 5.625 5.72 0 3.158-2.497 5.719-5.625 5.719-3.107 0-5.625-2.539-5.625-5.72zm16.875 0c0-3.158 2.497-5.719 5.625-5.719 3.107 0 5.625 2.539 5.625 5.72 0 3.158-2.497 5.719-5.625 5.719-3.107 0-5.625-2.539-5.625-5.72z" fill="#ABD733"/></g></svg>
