<svg width="170" height="160" xmlns="http://www.w3.org/2000/svg" xmlns:xlink="http://www.w3.org/1999/xlink"><defs><linearGradient x1="100%" y1="100%" x2="0%" y2="0%" id="b"><stop stop-color="#EEE0D7" offset="0%"/><stop stop-color="#F5EFE2" offset="100%"/></linearGradient><ellipse id="a" cx="55" cy="55.085" rx="55" ry="55.085"/><path d="M24.94 0L.27 54.62C1.838 60.86 4.2 64.695 7.355 66.125c3.156 1.43 9.017 3.258 17.585 5.487L65 26 24.94 0z" id="d"/><path d="M21.234 1.938L6.404 20.667C3.084 35.395 1.186 47.51.712 57.01a196.157 196.157 0 0 1 30.596-21.379L41.57 12.506a2.2 2.2 0 0 0-1.577-3.049c-4.223-.85-7.118-1.627-8.685-2.33-1.585-.712-3.856-2.511-6.812-5.397a2.2 2.2 0 0 0-3.262.208z" id="f"/></defs><g transform="translate(29 25)" fill="none" fill-rule="evenodd"><mask id="c" fill="#fff"><use xlink:href="#a"/></mask><use fill="url(#b)" opacity=".5" xlink:href="#a"/><g mask="url(#c)"><g transform="translate(38 -9)"><mask id="e" fill="#fff"><use xlink:href="#d"/></mask><use fill="#5D5D5D" xlink:href="#d"/><path fill="#353535" opacity=".5" mask="url(#e)" d="M-.5 85l65-105 27 24.5-63 90.5z"/></g></g><path d="M30.442 64.862l7.827-19.241c1.186 2.85 4.15 5.7 8.894 8.551s10.792 4.766 18.145 5.746l-14.04 15.36a3.3 3.3 0 0 1-2.38 1.073c-4.252.072-8.502-1.382-12.753-4.362-4.744-3.326-6.641-5.702-5.693-7.127z" fill="#F8D763" mask="url(#c)"/><g transform="translate(8.538 64.138)"><mask id="g" fill="#fff"><use xlink:href="#f"/></mask><use fill="#F8D763" xlink:href="#f"/><path d="M17.077 1.425c4.27 8.077 13.045 13.065 26.327 14.966 13.282 1.9 17.788-5.701 13.52-22.805L4.98-9.264l12.096 10.69z" fill="#DCB11C" mask="url(#g)"/><path stroke="#FFF" stroke-width="1.43" stroke-linecap="round" stroke-linejoin="round" mask="url(#g)" d="M6.962 36.862l3-14.77L20.009 9.91"/></g><ellipse fill="#5D5D5D" cx="27.75" cy="86.23" rx="3.558" ry="3.563"/><path d="M11.207 120.718c5.939-13.979 11.608-24.726 16.993-32.23a1.43 1.43 0 1 0-2.323-1.667c-5.526 7.7-11.288 18.622-17.302 32.78a1.43 1.43 0 1 0 2.632 1.117z" fill="#5D5D5D" fill-rule="nonzero"/><path d="M9.25 123.292h29.173a1.43 1.43 0 0 0 0-2.86H9.25a1.43 1.43 0 0 0 0 2.86zM46.25 123.292h10.673a1.43 1.43 0 0 0 0-2.86H46.25a1.43 1.43 0 0 0 0 2.86z" fill="#5D5D5D" fill-rule="nonzero"/><path d="M34.73 65.468l4.753-11.901" stroke="#FFF" stroke-width="1.43" stroke-linecap="round" stroke-linejoin="round"/></g></svg>
