<?xml version="1.0" encoding="UTF-8"?>
<svg width="878px" height="38px" viewBox="0 0 878 38" version="1.1" xmlns="http://www.w3.org/2000/svg" xmlns:xlink="http://www.w3.org/1999/xlink">
    <!-- Generator: Sketch 45.2 (43514) - http://www.bohemiancoding.com/sketch -->
    <title>articles</title>
    <desc>Created with Sketch.</desc>
    <defs></defs>
    <g id="Landing-v2" stroke="none" stroke-width="1" fill="none" fill-rule="evenodd">
        <g id="About-us" transform="translate(-313.000000, -887.000000)" fill-rule="nonzero">
            <g id="articles" transform="translate(313.000000, 887.000000)">
                <path d="M628.515894,2.37678117 C640.308931,2.37440628 652.101967,2.37440628 663.895003,2.37678117 C663.899721,6.33453484 663.896183,10.2922885 663.897362,14.2500422 C659.96635,14.2512296 656.035338,14.2476673 652.105505,14.2512296 C652.099608,22.166737 652.106685,30.0822443 652.100787,37.9977517 C648.154443,38.0001266 644.206919,38.001314 640.259395,37.9977517 C640.240524,30.100056 640.252318,22.2023603 640.253498,14.3046647 C636.341356,14.2987274 632.428036,14.2583543 628.515894,14.2476673 C628.513535,10.2911011 628.512356,6.3333474 628.515894,2.37678117 Z M675.694705,2.37678113 C683.555413,2.37440629 691.4173,2.37440629 699.279188,2.37678113 C699.282726,6.33327327 699.281546,10.2909528 699.279188,14.247445 C691.4173,14.2521947 683.554234,14.2486324 675.692347,14.2498198 C675.693526,10.2921403 675.689988,6.3344607 675.694705,2.37678113 Z M663.89772,14.25 C667.828732,14.25 671.760924,14.25 675.691936,14.25 C675.693115,18.2078386 675.689577,22.1656771 675.693115,26.1235157 C683.555139,26.1282655 691.417163,26.1211407 699.279188,26.1270781 C699.281547,30.0837292 699.282726,34.0403802 699.279188,37.9982188 C687.486151,38.0005937 675.693115,38.0005937 663.900079,37.9982188 C663.895361,30.0825417 663.898899,22.1656771 663.89772,14.25 Z" id="Combined-Shape" fill="#2A2A2A"></path>
                <path d="M55.4656624,5.9375 L55.4656624,29.6875 L29.6933517,29.6875 L29.6933517,5.9375 L55.4656624,5.9375 Z M49.3423181,13.9416614 C49.3434121,12.8520841 48.8970436,11.6692981 47.8566111,10.7682809 C46.8172727,9.86297817 45.202469,9.25230061 42.902796,9.25230061 L42.8995139,9.25230061 L36.4556157,9.25230061 L36.4556157,26.3577003 L41.9487927,26.3577003 C43.9377583,26.3587717 45.3950201,25.8091619 46.3555876,24.9606415 C47.3150611,24.1110497 47.7625237,22.9764751 47.7592415,21.8643991 C47.7625237,20.9580251 47.527305,20.1812861 47.0371748,19.5470385 C46.6695773,19.0745669 46.1685067,18.6867331 45.5339633,18.3696093 C47.8828681,17.7396472 49.3499763,16.0993888 49.3423181,13.9416614 Z M46.1356855,14.2844979 C46.1313094,14.9626714 45.8654575,15.505853 45.2779578,15.9193996 C44.68827,16.329732 43.7484893,16.5932876 42.4236063,16.5932876 L39.5834773,16.5932876 L39.5834773,11.9253541 L42.5559852,11.9253541 C44.0329398,11.9253541 44.9245827,12.2628338 45.4398758,12.7063786 C45.9562629,13.1488519 46.1334974,13.7188177 46.1356855,14.2844979 Z M43.7277025,19.8738046 C44.281287,20.2637811 44.5482328,20.816605 44.551515,21.6447695 C44.5493269,22.2136638 44.3830327,22.7011345 43.9651093,23.064327 C43.5460918,23.4285908 42.8349655,23.6867895 41.686223,23.6867895 L39.5834773,23.6867895 L39.5834773,19.263127 L41.0265166,19.263127 C42.2759108,19.263127 43.1708359,19.4806139 43.7277025,19.8738046 Z M25.7712167,5.9375 L25.7712167,29.6875 L0,29.6875 L0,5.9375 L25.7712167,5.9375 Z M19.6478723,13.9416614 C19.6500604,12.8520841 19.2004098,11.6692981 18.1610714,10.7682809 C17.1217329,9.86297817 15.5080233,9.25230061 13.2072562,9.25230061 L13.2028801,9.25230061 L6.7600759,9.25230061 L6.7600759,26.3577003 L12.254347,26.3577003 C14.2433125,26.3587717 15.7005744,25.8091619 16.6600479,24.9606415 C17.6195213,24.1110497 18.0658898,22.9764751 18.0647958,21.8643991 C18.0658898,20.9580251 17.8328592,20.1812861 17.340541,19.5470385 C16.9740375,19.0745669 16.472967,18.6867331 15.8406116,18.3696093 C18.1862343,17.7396472 19.6555306,16.0993888 19.6478723,13.9416614 Z M14.0321627,19.8738046 C14.5846532,20.2637811 14.8526931,20.816605 14.8570692,21.6447695 C14.8559752,22.2136638 14.688587,22.7011345 14.2706635,23.064327 C13.850552,23.4285908 13.1394257,23.6867895 11.9895892,23.6867895 L9.88903157,23.6867895 L9.88903157,19.263127 L11.3320709,19.263127 C12.5803711,19.263127 13.4752961,19.4806139 14.0321627,19.8738046 Z M15.582418,15.9193996 C14.9938243,16.329732 14.0529495,16.5932876 12.7291606,16.5932876 L9.88903157,16.5932876 L9.88903157,11.9253541 L12.8615395,11.9253541 C14.3384941,11.9253541 15.2279489,12.2628338 15.744336,12.7063786 C16.2607231,13.1488519 16.4390517,13.7188177 16.4401457,14.2844979 C16.4357696,14.9626714 16.1699178,15.505853 15.582418,15.9193996 Z M85.1612022,5.9375 L85.1612022,29.6875 L59.3899855,29.6875 L59.3899855,5.9375 L85.1612022,5.9375 Z M80.043281,13.8313109 L80.043281,10.5904344 L79.8912094,10.5175816 C78.1013592,9.6529908 76.121146,9.03052824 73.2657004,9.03052824 L73.253666,9.03052824 C69.8107207,9.02945687 67.2998979,10.2572402 65.6708717,11.9424959 C64.0363753,13.6277517 63.2738291,15.7501241 63.272735,17.5618008 C63.2705469,20.1620015 64.3438006,22.4257939 66.1489674,24.029626 C67.9552281,25.6323868 70.4901198,26.5773299 73.4123019,26.5762586 C75.3017097,26.5773299 77.2151864,26.1519984 79.6855298,25.1974129 L79.8583882,25.1309884 L79.8583882,21.9479655 L79.4557813,22.1643811 C77.2644183,23.3407389 75.4209601,23.856065 73.3849508,23.8571364 C69.3884211,23.8485655 66.4859318,21.2676493 66.4815556,17.7803591 C66.4924961,14.217002 69.2713588,11.7678636 73.4921668,11.7517931 C75.4636277,11.7507218 77.6342039,12.3903261 79.6297337,13.5838258 L80.043281,13.8313109 Z" id="Combined-Shape" fill="#2A2A2A" transform="translate(42.580601, 17.812500) scale(1, -1) translate(-42.580601, -17.812500) "></path>
                <path d="M355.471724,29.6126323 C353.589887,29.3476119 351.943967,28.5772801 350.687067,27.3732929 C349.638653,26.3690161 348.958901,25.2645644 348.45782,23.7512401 C347.675509,21.3885647 347.675234,18.3509012 348.457122,16.0364129 C349.214865,13.7933965 350.920983,11.8409528 353.009077,10.8272552 C355.900782,9.42343241 359.970757,9.5116152 362.648947,11.0361193 C365.059234,12.4081246 366.519274,14.8459894 366.925456,18.1767144 C367.049477,19.1937024 366.96901,21.3417015 366.773672,22.2283922 C365.974187,25.8574768 363.645741,28.3926 360.234393,29.3481095 C359.866794,29.4510727 359.296754,29.5715363 358.967639,29.6158049 C358.271203,29.7094824 356.145732,29.7075535 355.471723,29.6126301 L355.471724,29.6126323 Z M356.599943,28.2658145 L356.599943,28.2658145 C357.113646,28.4911846 358.053829,28.4786272 358.585332,28.2392956 C360.051479,27.5791022 360.837497,25.6794015 361.09374,22.1768006 C361.450832,17.2957128 360.623183,13.2217815 358.983403,11.7890955 C358.245063,11.1440031 357.096772,10.9328356 356.268191,11.2897751 C355.05937,11.810516 354.283011,13.3520735 353.915487,15.9613586 C353.653773,17.819432 353.680898,21.6114624 353.9681,23.3166795 C354.421153,26.0066172 355.325132,27.7065324 356.599943,28.2658145 Z M388.803018,29.6116709 C388.033103,29.5361843 385.680316,29.1575256 384.858457,28.9768309 L384.289868,28.8518212 L384.334206,25.9153782 C384.440957,18.8455961 384.454384,14.9862119 384.385288,11.232938 C384.317602,7.55618887 384.297863,7.16743914 384.151252,6.62356645 C383.965482,5.93443292 383.697353,5.45372892 383.374865,5.23165452 C383.249585,5.14538336 382.909212,5.02312141 382.618482,4.95996247 C381.652121,4.7500281 381.704614,4.78369146 381.678814,4.35734928 C381.663953,4.11176262 381.691468,3.94952151 381.756423,3.89973874 C381.843502,3.83300046 389.769502,2.37090219 390.021953,2.37500863 C390.094494,2.37618849 390.104769,3.3562841 390.067605,6.72968046 C390.041228,9.12391248 390.03784,11.0828294 390.060077,11.0828294 C390.082312,11.0828294 390.37193,10.9615499 390.703673,10.8133199 C391.703648,10.3665089 392.625322,10.1726347 393.963985,10.1275128 C394.855258,10.0974708 395.268104,10.1162839 395.725378,10.2077796 C398.71508,10.8059848 400.92753,13.1725436 401.700706,16.5993201 C401.902403,17.4932543 401.977441,19.7149027 401.843525,20.8277049 C401.729386,21.7761631 401.403747,23.0540893 401.064879,23.883401 C399.786193,27.0127275 397.042713,29.0542959 393.403248,29.5848262 C392.56491,29.7070319 389.932327,29.722394 388.803019,29.6116709 L388.803018,29.6116709 Z M390.419301,28.2909832 L390.419301,28.2909832 C391.11982,28.3624792 391.906449,28.3374876 392.273497,28.2320739 C392.842401,28.0686874 393.569993,27.5687267 394.008116,27.0401396 C394.91188,25.9497666 395.561084,24.2619561 395.917869,22.0751373 C396.088737,21.027844 396.111793,18.0846671 395.955768,17.2372816 C395.476773,14.6358307 394.554448,13.0463923 393.150483,12.4029474 C392.451371,12.0825406 391.465222,12.0428428 390.549209,12.2982324 L389.928341,12.4713338 L389.858002,14.8355441 C389.769322,17.8162294 389.913412,28.0046331 390.046439,28.159645 C390.094694,28.2158756 390.262482,28.2749779 390.419301,28.2909832 Z M411.115467,29.5745228 C407.265262,28.9029069 404.511742,26.2624172 403.612018,22.3790705 C403.496296,21.8795976 403.445121,21.3207321 403.416104,20.2394534 C403.37019,18.5288099 403.514061,17.4670671 403.970531,16.1478242 C404.847011,13.614711 406.417847,11.8197244 408.699631,10.7438984 C411.108056,9.60836394 414.400845,9.53399039 416.532278,10.5669834 C418.93205,11.7300293 420.344137,14.052285 420.702362,17.4249173 C420.750588,17.8789958 420.778542,18.4193867 420.764488,18.625786 L420.738923,19.0010575 L414.995893,19.0202857 L409.252863,19.0395131 L409.274756,19.6957743 C409.325466,21.2159173 409.663404,22.5604842 410.288572,23.7294781 C410.572728,24.260819 410.798871,24.5505023 411.348293,25.0869581 C412.589455,26.2988261 413.824175,26.768043 415.771978,26.768043 C417.184259,26.768043 418.199875,26.4954856 419.262018,25.8314337 C419.559514,25.6454349 419.860954,25.4932541 419.93188,25.4932541 C420.094012,25.4932541 420.467293,25.957988 420.467293,26.1598383 C420.467293,26.4905748 419.353805,27.5571008 418.267744,28.2666221 C417.37825,28.8477255 415.967598,29.3738914 414.744379,29.5808176 C413.88769,29.7257399 411.963224,29.7224015 411.115467,29.5745205 L411.115467,29.5745228 Z M409.108992,17.5552574 L409.108992,17.5552574 C409.151297,17.6214552 412.630735,17.5772685 414.250875,17.4899586 L415.058034,17.4464609 L415.01105,16.2723475 C414.915879,13.8938559 414.435583,12.2869787 413.596169,11.5386956 C413.283422,11.2599065 412.863219,11.0841788 412.507104,11.0832482 C412.418809,11.0830177 412.158549,11.1368279 411.92875,11.2028262 C411.59484,11.2987223 411.40802,11.4230858 410.998589,11.8220241 C410.237428,12.5636829 409.684273,13.7681002 409.338799,15.4359785 C409.195464,16.1279468 409.0506,17.4638878 409.108992,17.5552574 Z M426.63717,29.6473052 C425.254474,29.5039755 423.053962,29.0380639 422.321283,28.7335071 L421.963423,28.5847555 L421.914622,26.8701326 C421.887785,25.9270897 421.856827,24.6661948 421.84583,24.0681434 L421.825831,22.9807778 L422.040309,22.8813653 C422.158267,22.8266883 422.396346,22.7756123 422.569359,22.7678622 L422.883937,22.7537723 L423.151951,23.391709 C424.197562,25.8805267 425.423854,27.2224555 427.025562,27.630594 C427.636574,27.7862889 428.782177,27.7876579 429.23451,27.6332359 C430.501578,27.2006695 431.196391,26.272861 431.202437,25.0054041 C431.209577,23.5043445 430.356427,22.783114 427.133283,21.5655232 C425.136416,20.8111772 424.439841,20.4229041 423.610438,19.6018822 C422.715729,18.71621 422.286297,17.7080514 422.205678,16.3039619 C422.108256,14.607256 422.657375,13.1769102 423.874113,11.9580217 C425.098574,10.7313996 426.688175,10.0665935 428.853584,9.87549343 C430.760464,9.70720894 433.687485,10.0983309 435.22106,10.7263447 L435.500847,10.8409181 L435.550741,12.3691436 C435.578184,13.2096669 435.606565,14.3364098 435.613814,14.8730165 L435.626992,15.8486638 L435.251258,15.9835791 C434.657196,16.1968917 434.618182,16.1701581 434.287717,15.3234 C433.361421,12.9498995 432.2852,11.8268291 430.608266,11.4837702 C429.586271,11.2746959 428.732577,11.4994648 428.112081,12.1409936 C427.627998,12.6414849 427.43913,13.0859407 427.393365,13.8322896 C427.343788,14.6409464 427.493223,15.0780401 428.00412,15.6186381 C428.633812,16.2849514 429.665462,16.8601195 431.720528,17.6906245 C434.237621,18.7078474 435.438651,19.5714379 436.091564,20.8335944 C436.515601,21.6532947 436.635654,22.3080061 436.593,23.5682075 C436.560987,24.5138368 436.529695,24.7082184 436.307238,25.3431485 C435.581955,27.413197 433.944633,28.7760096 431.415263,29.4149348 C430.558519,29.6313509 430.436224,29.642549 428.7326,29.6605875 C427.750853,29.6709825 426.807909,29.6650082 426.63717,29.6473082 L426.63717,29.6473052 Z M328.753429,29.1962619 C328.688903,29.1710819 328.656418,28.9840323 328.656418,28.637671 C328.656418,28.0157967 328.615433,28.0436403 329.85935,27.8204453 C330.813403,27.6492607 331.154733,27.4742056 331.576033,26.9400224 C332.392885,25.9043054 332.569441,23.9100798 332.571271,15.6986685 C332.57299,7.9871799 332.419376,6.36495786 331.574566,5.17311367 C331.199749,4.64432839 330.568099,4.35719993 329.510112,4.23467754 L328.695223,4.14030727 L328.672748,3.5250677 L328.650273,2.90982813 L328.905573,2.86583205 C329.045988,2.84163454 333.979396,2.8314099 339.868702,2.84311011 L350.576531,2.86438425 L350.626737,3.16460143 C350.65435,3.32972088 350.699671,5.02339086 350.72745,6.9283124 L350.777958,10.3918052 L350.225865,10.5539795 C349.394813,10.7980966 349.399841,10.8010703 349.025992,9.84443372 C348.107704,7.4946451 347.05472,6.14065885 345.613879,5.4569465 C344.620137,4.98539312 344.160662,4.92837737 341.354266,4.92837737 L338.911911,4.92837737 L338.869809,5.32241242 C338.790856,6.06132496 338.666192,10.814556 338.667055,13.0530046 L338.667917,15.2858699 L339.385796,15.281892 C339.780629,15.2797004 340.559191,15.2516039 341.115935,15.2194476 C341.95287,15.1711074 342.201544,15.1281418 342.551692,14.9713804 C343.412003,14.5862175 343.997291,13.73851 344.355863,12.3582923 L344.54098,11.6457366 L345.17444,11.6239378 L345.8079,11.602139 L345.8079,16.1114671 L345.8079,20.6207953 L345.174197,20.5989965 L344.540494,20.5771977 L344.360619,19.8641819 C344.022652,18.524495 343.372238,17.5654024 342.568524,17.2215825 C342.197351,17.0627991 341.278919,16.9725538 339.502208,16.9202883 L338.667917,16.8957455 L338.667917,18.5898215 C338.667917,20.4359073 338.772857,22.9333262 338.907382,24.2887159 C339.094917,26.1782063 339.594194,27.2223181 340.490846,27.6001332 C340.662064,27.6722784 341.203775,27.7894637 341.694649,27.8605446 C342.185523,27.9316263 342.648263,28.0203052 342.722962,28.0576094 C342.9124,28.1522153 342.92358,29.1308055 342.736016,29.2004116 C342.58923,29.2548853 328.89324,29.2508203 328.753429,29.1962611 L328.753429,29.1962619 Z M367.010597,29.1820864 C366.93981,29.1384686 366.916681,28.9653723 366.932988,28.6012885 L366.956221,28.0826272 L367.22785,28.0266885 C367.377247,27.9959223 367.698138,27.9348551 367.940942,27.8909836 C368.692384,27.7552074 369.124233,27.3607438 369.367228,26.5881746 C369.565195,25.9587663 369.652463,23.9451864 369.657019,19.9017091 C369.662591,14.9563905 369.556063,13.7885382 369.039011,13.126515 C368.758782,12.7677142 368.556776,12.6656772 367.876811,12.5394659 C367.541225,12.4771761 367.188076,12.4103897 367.092035,12.391052 C366.93651,12.3597371 366.917416,12.3107341 366.917416,11.9429148 C366.917416,11.5852533 366.940806,11.5206353 367.092035,11.4604943 C367.324314,11.368122 375.012605,9.88196064 375.258193,9.88196064 L375.449788,9.88196064 L375.412217,10.9890115 C375.391552,11.5978895 375.358516,12.4844683 375.338802,12.9591867 L375.30296,13.8223111 L375.581487,13.3365582 C376.473119,11.7815473 377.473051,10.8162628 378.802699,10.2269575 C379.532609,9.90345919 380.019613,9.80690657 380.921399,9.80690657 C381.990862,9.80690657 383.059988,10.1443752 383.059988,10.4819507 C383.059988,10.7089366 381.175758,15.5237695 381.071837,15.5623346 C381.021142,15.5811485 380.653219,15.4450526 380.254232,15.2599011 C379.422144,14.8737663 378.641496,14.6849522 377.883701,14.6865448 C376.940024,14.6885263 375.885878,15.0246832 375.469675,15.4563512 C375.291646,15.6409938 375.290808,15.6520958 375.246576,18.4096612 C375.202773,21.1405065 375.296879,24.4715602 375.455679,25.8112906 C375.590963,26.9526233 375.90454,27.5145353 376.552187,27.7761678 C376.768249,27.8634514 378.135254,28.0445822 378.58136,28.0450371 C378.615169,28.0450716 378.632631,28.306852 378.620164,28.6267709 L378.597498,29.2084417 L372.854468,29.2263324 C369.695801,29.236172 367.066059,29.2162616 367.010597,29.1820864 L367.010597,29.1820864 Z" id="forbes" fill="#33629A"></path>
                <path d="M113.050397,22.7071591 L113.050397,13.0085227 L110.349727,13.0085227 L110.349727,10.3571591 L113.050397,9.99659091 L113.050397,6.68886364 L118.877245,5.87488636 L118.877245,9.99875 L122.741547,9.99875 L122.741547,13.0214773 L118.877245,13.0214773 L118.877245,22.2192045 C118.877245,23.9464773 119.361368,24.8317045 121.069911,24.8317045 C121.677779,24.8317045 122.507084,24.7669318 122.930421,24.6805682 L122.930421,26.9238636 C121.996909,27.4722727 119.999629,27.9386364 118.154316,27.9386364 C114.680785,27.9386364 113.052568,26.4164773 113.052568,22.7071591 L113.050397,22.7071591 Z M151.899666,11.5360227 C153.362891,11.5360227 154.153119,11.7951136 154.153119,16.9380682 L149.268467,17.2230682 C149.333595,12.5594318 150.041327,11.5360227 151.899666,11.5360227 L151.899666,11.5360227 Z M149.316228,19.3152273 L159.819316,19.3152273 C159.819316,11.9613636 157.279297,9.61659091 151.997359,9.61659091 C146.750157,9.61659091 143.30702,12.9761364 143.30702,18.7452273 C143.30702,24.7043182 146.428855,28.00125 152.481483,28.00125 C155.733576,28.00125 158.360433,26.5546591 159.176713,25.4535227 L159.176713,23.7478409 C157.954464,24.1148864 156.69748,24.3523864 154.444027,24.3523864 C151.263576,24.3523864 149.624504,22.7114773 149.316228,19.3001136 L149.316228,19.3152273 Z M123.434083,25.9738636 L125.301105,25.1188636 L125.301105,6.05409091 L123.336389,5.14727273 L123.336389,3.55602273 L130.60041,2.39011364 L131.093218,2.39011364 L131.093218,11.9289773 L131.288604,11.9289773 C132.873402,10.5039773 135.00094,9.61443182 137.367282,9.61443182 C140.341493,9.61443182 141.817743,11.0869318 141.817743,14.2996591 L141.817743,25.1167045 L143.706476,25.9738636 L143.706476,27.5867045 L134.089138,27.5867045 L134.089138,25.9738636 L135.97787,25.1167045 L135.97787,15.6102273 C135.97787,13.8311364 135.196326,13.1661364 133.611527,13.1661364 C132.743145,13.1661364 131.918181,13.32375 131.201765,13.6109091 L131.201765,25.1188636 L133.090498,25.9781818 L133.090498,27.5910227 L123.449279,27.5910227 L123.449279,25.9717045 L123.434083,25.9738636 Z" id="path10468" fill="#A2C0D8"></path>
                <path d="M250.906144,10.75875 L250.906144,12.3521591 L252.868689,13.2589773 L252.868689,25.1339773 L250.997325,25.9976136 L250.997325,27.6169318 L260.599466,27.6169318 L260.599466,26.0192045 L258.728101,25.1555682 L258.728101,9.61011364 L258.235294,9.61011364 L250.906144,10.7738636 L250.906144,10.75875 Z M270.813817,24.1990909 L270.813817,19.4642045 L269.450456,19.59375 C268.093608,19.7232955 266.982078,20.6193182 266.982078,22.2969318 C266.982078,24.2293182 268.050189,24.86625 269.174745,24.86625 C269.826032,24.86625 270.488173,24.5467045 270.811646,24.1969318 L270.813817,24.1990909 Z M266.680316,11.97 L265.44287,15.5454545 L262.412215,15.5454545 L262.412215,10.9465909 C264.049116,10.4413636 266.044225,9.61659091 269.133497,9.61659091 C273.833618,9.61659091 276.658032,10.9984091 276.658032,14.9279545 L276.658032,25.1188636 L278.525055,25.9825 L278.525055,27.3038636 C277.951922,27.6104545 276.65369,28.00125 275.236056,28.00125 C273.401597,28.00125 271.756012,27.4182955 271.484643,25.5182955 L271.310966,25.5182955 C270.529422,27.0728409 268.445303,28.0228409 266.252637,28.0228409 C263.126459,28.0228409 261.150889,26.0148864 261.150889,23.1001136 C261.150889,19.5160227 263.517232,18.9330682 267.381535,18.1342045 L270.746517,17.55125 L270.746517,15.2647727 C270.746517,13.015 270.051811,11.8965909 267.815726,11.8965909 C267.511792,11.8965909 266.969053,11.9354545 266.6217,11.97 L266.680316,11.97 Z M279.002665,25.9760227 L280.869688,25.1339773 L280.869688,13.2589773 L278.904972,12.3521591 L278.904972,10.7760227 L286.171164,9.63170455 L286.663972,9.63170455 L286.663972,11.9635227 L286.859358,11.9635227 C288.444156,10.5385227 290.571693,9.65329545 292.938036,9.65329545 C295.912247,9.65329545 297.388497,11.1214773 297.388497,14.3385227 L297.388497,25.1555682 L299.27723,26.0192045 L299.27723,27.6385227 L289.659892,27.6385227 L289.659892,26.0407955 L291.548624,25.1944318 L291.548624,15.6102273 C291.548624,13.8311364 290.76708,13.1661364 289.182281,13.1661364 C288.313899,13.1661364 287.488935,13.32375 286.772519,13.6109091 L286.772519,25.1188636 L288.639542,25.9781818 L288.639542,27.5910227 L279.043914,27.5910227 L279.043914,25.9717045 L279.002665,25.9760227 Z M242.747689,6.06920454 L240.789486,5.18397727 L240.789486,3.58625 L248.114294,2.42034091 L248.607101,2.42034091 L248.607101,24.5942045 L250.474124,25.6089773 L250.474124,27.1203409 L243.527063,27.9192045 L243.049452,27.9192045 L243.049452,26.1055682 L242.854066,26.1055682 C242.115941,27.0339773 240.617981,28.0055682 238.425315,28.0055682 C235.212299,28.0055682 231.369706,25.9760227 231.369706,19.26125 C231.369706,12.2010227 235.299137,9.65329545 239.966694,9.65329545 C240.943624,9.65329545 242.094231,9.86920454 242.810647,10.3873864 L242.810647,6.06920454 L242.747689,6.06920454 Z M242.747689,24.5078409 L242.747689,12.6522727 C242.291788,12.3068182 241.814178,12.0196591 240.750409,12.0196591 C238.918122,12.0196591 237.515684,13.6605682 237.515684,18.6048864 C237.515684,22.9360227 238.622872,24.8230682 240.941453,24.8230682 C241.8424,24.8230682 242.348233,24.6417045 242.743347,24.4819318 L242.747689,24.5078409 Z M170.077086,33.4248864 C166.877096,33.4248864 165.778592,32.3021591 165.778592,31.0930682 C165.778592,30.2510227 166.004372,29.6680682 166.455931,29.1282955 L172.64967,29.1282955 C174.097698,29.1282955 174.755498,29.5601136 174.755498,30.4669318 C174.75984,32.2805682 173.746003,33.4248864 170.077086,33.4248864 L170.077086,33.4248864 Z M170.127018,11.66125 C171.407883,11.66125 172.232846,12.2226136 172.232846,15.7203409 C172.232846,19.2180682 171.405712,19.5829545 170.146557,19.5829545 C168.887402,19.5829545 168.075464,19.2914773 168.075464,15.7246591 C168.075464,12.1621591 168.878718,11.6655682 170.155241,11.6655682 L170.127018,11.66125 Z M174.013031,23.8169318 L167.717256,23.8169318 C167.04426,23.8169318 166.479811,23.29875 166.479811,22.6942045 C166.479811,22.2192045 166.827164,21.7226136 167.261355,21.39875 C168.216576,21.6794318 168.998121,21.7657955 170.170437,21.7657955 C174.707737,21.7657955 177.812205,19.7146591 177.812205,15.8930682 C177.812205,14.1873864 177.095789,13.2157955 175.966892,12.2226136 L175.966892,12.0930682 L178.875974,13.1078409 L179.266746,13.1294318 L179.266746,9.60795455 L178.941102,9.60795455 L174.462419,10.4931818 L174.212759,10.4931818 C173.096887,10.0829545 171.542482,9.65113636 170.13136,9.65113636 C165.594061,9.65113636 162.454857,11.8901136 162.454857,15.6922727 C162.454857,18.0089773 163.627174,19.7340909 165.379136,20.6884091 L165.379136,20.8719318 C164.36747,21.5801136 162.426635,23.0353409 162.426635,24.8986364 C162.426635,26.2588636 163.329753,27.6039773 165.218485,28.0077273 L165.218485,28.1955682 C163.23206,28.6057955 161.006829,29.2535227 161.006829,31.5205682 C161.006829,33.8523864 164.404377,35.5796591 169.942487,35.5796591 C176.82442,35.5796591 179.802972,32.9455682 179.802972,28.7785227 C179.802972,25.3455682 177.89253,23.7478409 174.006518,23.7478409 L174.013031,23.8169318 Z M218.10516,10.7760227 L218.10516,12.37375 L220.080731,13.2805682 L220.080731,25.1555682 L218.213708,26.0192045 L218.213708,27.6385227 L228.328195,27.6385227 L228.328195,26.0407955 L225.918433,25.1771591 L225.918433,15.3943182 C226.917073,14.9193182 228.230502,14.7595455 229.804446,14.7595455 C230.321133,14.7595455 230.933343,14.8243182 231.287209,14.9171591 L231.287209,9.80227273 C231.091823,9.7375 230.707564,9.70727273 230.418826,9.70727273 C228.486675,9.70727273 226.90839,10.9444318 225.877185,13.2913636 L225.703509,13.2913636 L225.703509,9.595 L225.204189,9.595 L218.10516,10.7565909 L218.10516,10.7760227 Z M210.029202,24.2271591 L210.029202,19.4771591 L208.683208,19.6067045 C207.337215,19.73625 206.230027,20.6430682 206.230027,22.3271591 C206.230027,24.2703409 207.293796,24.8964773 208.422694,24.8964773 C209.073981,24.8964773 209.738293,24.5726136 210.059595,24.2271591 L210.029202,24.2271591 Z M205.882674,11.9851136 L204.645229,15.5692045 L201.60589,15.5692045 L201.60589,10.9465909 C203.255817,10.4413636 205.253097,9.61659091 208.335855,9.61659091 C213.046831,9.61659091 215.869075,10.9984091 215.869075,14.9279545 L215.869075,25.1188636 L217.736098,25.9825 L217.736098,27.3038636 C217.171649,27.6104545 215.869075,28.00125 214.457953,28.00125 C212.63435,28.00125 210.984423,27.4182955 210.723908,25.5182955 L210.550231,25.5182955 C209.768687,27.0728409 207.684568,28.0228409 205.504928,28.0228409 C202.385263,28.0228409 200.424889,26.0148864 200.424889,23.1001136 C200.424889,19.5160227 202.806429,18.9330682 206.668561,18.1342045 L210.050911,17.55125 L210.050911,15.2647727 C210.050911,13.015 209.369231,11.8965909 207.12012,11.8965909 C206.827041,11.8965909 206.273447,11.9354545 205.921752,11.97 L205.882674,11.9851136 Z M181.698217,13.2589773 L179.744356,12.3521591 L179.744356,10.7760227 L187.08219,9.63170455 L187.58151,9.63170455 L187.58151,21.9579545 C187.58151,23.9551136 188.564953,24.3113636 190.045546,24.3113636 C191.131024,24.3113636 191.565215,24.1170455 192.151374,23.8946591 L192.151374,13.2568182 L190.175803,12.35 L190.175803,10.75875 L197.491927,9.59715909 L197.969537,9.59715909 L197.969537,24.58125 L199.923398,25.5960227 L199.923398,27.1160227 L192.802661,27.8932955 L192.290315,27.8932955 L192.283802,25.5614773 L192.088416,25.5614773 C190.96386,26.9432955 189.107692,27.9580682 186.726153,27.9580682 C183.187494,27.9580682 181.674337,25.4535227 181.674337,22.4092045 L181.674337,13.2568182 L181.698217,13.2589773 Z M255.682249,2.375 C257.419014,2.375 258.819281,3.77193182 258.819281,5.49704545 C258.819281,7.22 257.414673,8.61909091 255.680078,8.61909091 C253.943313,8.61909091 252.532191,7.23727273 252.532191,5.51 C252.532191,3.78272727 253.943313,2.40090909 255.680078,2.40090909 L255.682249,2.375 Z M298.341547,26.6345455 L302.084277,26.6434121 L298.341547,26.6345455 Z" id="path10470" fill="#0A5787"></path>
                <path d="M583.603481,17.5708173 L587.937107,17.5708173 C588.104071,18.1063571 588.675731,18.6421314 589.747322,18.6421314 C591.199141,18.6421314 591.699793,17.7572245 591.699793,16.4535462 L591.699793,15.5229168 L591.604077,15.5229168 C590.890162,16.3377158 589.937076,16.9428945 588.532516,16.9428945 C585.770414,16.9428945 583.36551,14.940951 583.36551,11.0313229 C583.36551,7.4471453 585.34173,4.65455374 588.318293,4.65455374 C590.032792,4.65455374 591.080635,5.32937142 591.77104,6.39998209 L591.842048,6.39998209 L591.842048,5.02713376 L596.128175,5.02713376 L596.128175,15.8720494 C596.128175,17.8735239 595.414261,19.4327795 594.342669,20.3641123 C593.223819,21.3411676 591.627826,21.7369606 589.81857,21.7369606 C586.413321,21.7369606 584.032166,20.3641123 583.603481,17.5708173 L583.603481,17.5708173 Z M591.889546,10.8219371 C591.889546,9.26244705 591.128133,8.00613256 589.81857,8.00613256 C588.556265,8.00613256 587.746634,9.12293471 587.746634,10.8219371 C587.746634,12.4977265 588.556265,13.707615 589.81857,13.707615 C591.128133,13.707615 591.889546,12.4745135 591.889546,10.8219371 L591.889546,10.8219371 Z M578.57969,7.1683551 L578.650938,7.1683551 C579.579315,5.42269228 580.793881,4.77108758 582.341416,4.77108758 C582.698134,4.77108758 582.937065,4.81774801 583.07932,4.88738694 L583.07932,8.72737619 L582.984323,8.72737619 C580.341687,8.26217874 578.793913,9.4957492 578.793913,12.3115537 L578.793913,17.5478388 L574.293563,17.5478388 L574.293563,5.02736823 L578.57969,5.02736823 L578.57969,7.1683551 L578.57969,7.1683551 Z M476.18306,0 L484.993286,0 C486.659567,0 487.945381,0.395792994 488.850969,1.11703662 C489.874103,1.93160111 490.422253,3.1419586 490.422253,4.58468033 C490.422253,6.26046975 489.731848,7.30786744 488.302819,7.95923766 L488.302819,8.02934554 C490.160532,8.63405533 491.231164,10.2629498 491.231164,12.2414459 C491.231164,14.126621 490.493261,15.5925557 489.278694,16.4772281 C488.25532,17.1987062 486.922248,17.5478388 485.16025,17.5478388 L476.18306,17.5478388 L476.18306,0 Z M484.564842,13.6609546 C485.636193,13.6609546 486.421356,13.0325629 486.421356,11.8693348 C486.421356,10.6587428 485.564226,10.077246 484.541092,10.077246 L481.064596,10.077246 L481.064596,13.6609546 L484.564842,13.6609546 Z M484.112408,6.86517954 C485.064534,6.86517954 485.754939,6.35355613 485.754939,5.32937142 C485.754939,4.32886863 485.040785,3.83998925 484.088658,3.83998925 L481.064596,3.83998925 L481.064596,6.86517954 L484.112408,6.86517954 L484.112408,6.86517954 Z" id="Shape" fill="#2A343F"></path>
                <path d="M492.042715,0 L496.66181,0 L496.66181,17.5478388 L492.042715,17.5478388 L492.042715,0 Z M497.543649,11.3103475 C497.543649,7.35405892 500.162775,4.67776672 504.209972,4.67776672 C508.258127,4.67776672 510.829756,7.35405892 510.829756,11.3103475 C510.829756,15.2903181 508.258127,17.9429283 504.209972,17.9429283 C500.162775,17.9429283 497.543649,15.2903181 497.543649,11.3103475 L497.543649,11.3103475 Z M506.258158,11.3103475 C506.258158,9.12293471 505.543284,7.74985191 504.162473,7.74985191 C502.781902,7.74985191 502.115246,9.12293471 502.115246,11.3103475 C502.115246,13.5214423 502.781902,14.8945251 504.162473,14.8945251 C505.543284,14.8945251 506.258158,13.5214423 506.258158,11.3103475 L506.258158,11.3103475 Z M511.355356,11.3103475 C511.355356,7.35405892 513.974483,4.67776672 518.021679,4.67776672 C522.069835,4.67776672 524.641463,7.35405892 524.641463,11.3103475 C524.641463,15.2903181 522.069835,17.9429283 518.021679,17.9429283 C513.974483,17.9429283 511.355356,15.2903181 511.355356,11.3103475 L511.355356,11.3103475 Z M520.069866,11.3103475 C520.069866,9.12293471 519.354992,7.74985191 517.974181,7.74985191 C516.59361,7.74985191 515.926954,9.12293471 515.926954,11.3103475 C515.926954,13.5214423 516.59361,14.8945251 517.974181,14.8945251 C519.354992,14.8945251 520.069866,13.5214423 520.069866,11.3103475 L520.069866,11.3103475 Z M525.523302,5.02713376 L529.809429,5.02713376 L529.809429,6.91183997 L529.880677,6.91183997 C530.737806,5.44567078 531.904155,4.65455374 533.738119,4.65455374 C535.356902,4.65455374 536.571708,5.44567078 537.190866,6.81875358 L537.261874,6.81875358 C538.309716,5.16617715 539.666778,4.65455374 541.238062,4.65455374 C544.214626,4.65455374 545.50044,6.79554061 545.50044,9.68145303 L545.50044,17.5476043 L541.000091,17.5476043 L541.000091,10.4725701 C541.000091,9.19233917 540.595155,8.3545617 539.452556,8.3545617 C538.333466,8.3545617 537.761566,9.37874642 537.761566,10.7288507 L537.761566,17.5476043 L533.262176,17.5476043 L533.262176,10.4725701 C533.262176,9.19233917 532.85724,8.3545617 531.714641,8.3545617 C530.594591,8.3545617 530.023891,9.37874642 530.023891,10.7288507 L530.023891,17.5476043 L525.523302,17.5476043 L525.523302,5.02713376 L525.523302,5.02713376 Z M551.004013,15.9187098 L550.956755,15.9187098 L550.956755,17.5478388 L546.670627,17.5478388 L546.670627,0 L551.170977,0 L551.170977,6.33034315 L551.242225,6.33034315 C552.099354,5.23675398 553.241954,4.65455374 554.885445,4.65455374 C558.09998,4.65455374 559.956734,7.49357126 559.956734,11.2641561 C559.956734,15.5229168 557.933016,17.9666103 554.599975,17.9666103 C553.218204,17.9666103 551.790135,17.3150056 551.004013,15.9187098 L551.004013,15.9187098 Z M555.385137,11.2177301 C555.385137,9.19257365 554.623724,7.88936425 553.265703,7.88936425 C551.885132,7.88936425 551.004013,9.19257365 551.004013,11.2177301 C551.004013,13.2187357 551.885132,14.545627 553.265703,14.545627 C554.647473,14.545627 555.385137,13.2419486 555.385137,11.2177301 L555.385137,11.2177301 Z M560.529354,11.2641561 C560.529354,7.35405892 563.17223,4.63157524 567.006163,4.63157524 C568.911135,4.63157524 570.387662,5.21307205 571.506513,6.26046975 C572.98304,7.65676553 573.649696,9.84417834 573.601238,12.4278531 L565.006194,12.4278531 C565.196907,13.9873432 565.95832,14.7782257 567.315142,14.7782257 C568.101264,14.7782257 568.791669,14.4293276 569.078099,13.5915502 L573.410765,13.5915502 C572.649352,16.4535462 570.387662,17.8967369 567.173127,17.8967369 C563.196938,17.8967369 560.529354,15.2673396 560.529354,11.2641561 L560.529354,11.2641561 Z M565.006194,9.96094666 L569.101848,9.96094666 C569.029641,8.44835151 568.172511,7.65676553 567.10092,7.65676553 C565.863563,7.65676553 565.173158,8.51775597 565.006194,9.96094666 L565.006194,9.96094666 Z" id="Shape" fill="#2A343F"></path>
                <path d="M476.18306,18.8025119 L484.993286,18.8025119 C486.659567,18.8025119 487.945381,19.1983049 488.850969,19.920252 C489.874103,20.7341131 490.422253,21.9444705 490.422253,23.3876612 C490.422253,25.0634506 489.731848,26.1106139 488.302819,26.762453 L488.302819,26.8318575 C490.160532,27.4370362 491.231164,29.0663997 491.231164,31.0444268 C491.231164,32.9296019 490.493261,34.3960056 489.278694,35.280209 C488.25532,36.0012182 486.922248,36.3505852 485.16025,36.3505852 L476.18306,36.3505852 L476.18306,18.8025119 Z M484.564842,32.4644045 C485.636193,32.4644045 486.421356,31.8360127 486.421356,30.6718467 C486.421356,29.4612548 485.564226,28.8802269 484.541092,28.8802269 L481.064596,28.8802269 L481.064596,32.4644045 L484.564842,32.4644045 L484.564842,32.4644045 Z M484.112408,25.6686294 C485.064534,25.6686294 485.754939,25.1560681 485.754939,24.1318834 C485.754939,23.1318495 485.040785,22.6425012 484.088658,22.6425012 L481.064596,22.6425012 L481.064596,25.6686294 L484.112408,25.6686294 L484.112408,25.6686294 Z M500.138067,36.3508197 L500.138067,34.7214562 L500.066819,34.7214562 C499.137722,36.0246656 497.947625,36.7466127 496.280624,36.7466127 C493.376027,36.7466127 491.946998,34.7917986 491.946998,31.9056517 L491.946998,23.8298802 L496.447348,23.8298802 L496.447348,30.9276584 C496.447348,32.3476361 496.995498,32.9066234 498.06709,32.9066234 C499.233439,32.9066234 499.923844,32.1382504 499.923844,30.6950597 L499.923844,23.8298802 L504.424194,23.8298802 L504.424194,36.3508197 L500.138067,36.3508197 Z M505.139308,32.3940621 L509.30693,32.3940621 C509.378177,33.4182468 509.997335,34.0234256 511.139934,34.0234256 C512.020813,34.0234256 512.687469,33.7676139 512.687469,32.9066234 C512.687469,31.8824387 511.283149,31.8130342 509.710905,31.5562846 C507.663678,31.254047 505.306272,30.6024423 505.306272,27.4604837 C505.306272,24.9004908 507.854151,23.4573002 510.830715,23.4573002 C514.521434,23.4573002 516.449436,24.8772779 516.61616,27.3205024 L512.37849,27.3205024 C512.259025,26.389873 511.592368,26.1340613 510.854464,26.1340613 C510.187808,26.1340613 509.56865,26.389873 509.56865,27.1108822 C509.56865,27.8098507 510.687501,27.9960235 512.068311,28.1814928 C514.282503,28.5076469 517.092343,29.0192703 517.092343,32.4876174 C517.092343,35.4898292 514.449467,36.7698256 511.116185,36.7698256 C507.520463,36.7698256 505.164017,35.2572305 505.139308,32.3940621 L505.139308,32.3940621 Z M517.831926,23.8298802 L522.332515,23.8298802 L522.332515,36.3508197 L517.831926,36.3508197 L517.831926,23.8298802 Z M517.831926,19.3150732 L522.332515,19.3150732 L522.332515,22.8289084 L517.831926,22.8289084 L517.831926,19.3150732 Z" id="Shape" fill="#2B00F7"></path>
                <path d="M527.881667,25.5518611 L527.952675,25.5518611 C528.92951,24.1792472 530.167826,23.4570657 531.857856,23.4570657 C534.667456,23.4570657 536.120234,25.3886668 536.120234,28.2518352 L536.120234,36.3508197 L531.619644,36.3508197 L531.619644,29.2760199 C531.619644,27.8792552 531.096203,27.1108822 529.928895,27.1108822 C528.786295,27.1108822 528.09589,28.0424494 528.09589,29.4854057 L528.09589,36.3508197 L523.59554,36.3508197 L523.59554,23.8296457 L527.881667,23.8296457 L527.881667,25.5518611 Z M536.907075,30.066668 C536.907075,26.1570398 539.549951,23.4340872 543.383645,23.4340872 C545.287897,23.4340872 546.764425,24.0160529 547.883275,25.0634506 C549.359802,26.4592775 550.026458,28.6476282 549.97896,31.230834 L541.382956,31.230834 C541.573669,32.7898551 542.336042,33.5812066 543.692864,33.5812066 C544.478986,33.5812066 545.169391,33.2318396 545.454861,32.3940621 L549.788487,32.3940621 C549.026114,35.256996 546.764425,36.7001867 543.549649,36.7001867 C539.573701,36.7001867 536.907075,34.0698515 536.907075,30.066668 L536.907075,30.066668 Z M541.382956,28.7634586 L545.47861,28.7634586 C545.407363,27.2508635 544.550233,26.4592775 543.478642,26.4592775 C542.240086,26.4592775 541.54992,27.3202679 541.382956,28.7634586 L541.382956,28.7634586 Z M550.429475,32.3940621 L554.596137,32.3940621 C554.668104,33.4182468 555.287502,34.0234256 556.430101,34.0234256 C557.31098,34.0234256 557.977636,33.7676139 557.977636,32.9066234 C557.977636,31.8824387 556.572356,31.8130342 555.001072,31.5562846 C552.953845,31.254047 550.596439,30.6024423 550.596439,27.4604837 C550.596439,24.9004908 553.144318,23.4573002 556.120162,23.4573002 C559.810641,23.4573002 561.739362,24.8772779 561.906326,27.3205024 L557.667697,27.3205024 C557.548951,26.389873 556.882535,26.1340613 556.143672,26.1340613 C555.477015,26.1340613 554.858817,26.389873 554.858817,27.1108822 C554.858817,27.8098507 555.977667,27.9960235 557.358478,28.1814928 C559.572669,28.5076469 562.382509,29.0192703 562.382509,32.4876174 C562.382509,35.4898292 559.739633,36.7698256 556.406352,36.7698256 C552.81063,36.7698256 550.453224,35.2572305 550.429475,32.3940621 L550.429475,32.3940621 Z M562.861331,32.3940621 L567.027993,32.3940621 C567.09996,33.4182468 567.719358,34.0234256 568.861957,34.0234256 C569.742836,34.0234256 570.409492,33.7676139 570.409492,32.9066234 C570.409492,31.8824387 569.004213,31.8130342 567.432928,31.5562846 C565.385701,31.254047 563.028295,30.6024423 563.028295,27.4604837 C563.028295,24.9004908 565.576174,23.4573002 568.552019,23.4573002 C572.242497,23.4573002 574.171219,24.8772779 574.338183,27.3205024 L570.099554,27.3205024 C569.980808,26.389873 569.314391,26.1340613 568.575528,26.1340613 C567.908872,26.1340613 567.290673,26.389873 567.290673,27.1108822 C567.290673,27.8098507 568.409523,27.9960235 569.790334,28.1814928 C572.004526,28.5076469 574.814366,29.0192703 574.814366,32.4876174 C574.814366,35.4898292 572.17149,36.7698256 568.838208,36.7698256 C565.242486,36.7698256 562.88508,35.2572305 562.861331,32.3940621 L562.861331,32.3940621 Z" id="Shape" fill="#2B00F7"></path>
                <path d="M740.733761,36.4138443 L735.265027,36.4138443 L735.265027,1.71787836 L740.733761,2.06995121 L740.733761,36.4138443 Z M749.686376,36.4138443 L744.217618,36.4138443 L744.217618,11.6687701 L749.686376,11.9769233 L749.686376,36.4138443 Z M746.951985,4.13942352 C748.672025,4.13942352 750.083284,5.54843103 750.083284,7.26559179 C750.083284,8.98299124 748.672025,10.3919987 746.951985,10.3919987 C745.231969,10.3919987 743.82071,8.98299124 743.82071,7.26559179 C743.82071,5.54843103 745.231969,4.13942352 746.951985,4.13942352 Z M762.740672,16.6440488 L762.740672,22.1038037 L758.639062,22.1038037 L758.639062,36.389975 L753.170304,36.389975 L753.170304,9.24698621 C753.170304,5.10828028 756.610265,1.36556681 760.667787,1.36556681 C762.034887,1.36556681 763.137557,1.76203665 763.402226,1.93795373 L763.181549,7.1775139 L760.667787,7.1775139 C759.565118,7.1775139 758.639062,8.10221237 758.639062,9.24698621 L758.639062,16.6440488 L762.740672,16.6440488 Z M764.952705,18.8457335 C764.952705,14.7066218 768.304467,11.3164585 772.494228,11.3164585 C776.639998,11.3164585 779.991759,14.7066218 779.991759,18.8457335 L779.991759,24.129428 C779.991759,25.6703137 778.756874,26.859031 777.25756,26.859031 L770.421583,26.859031 L770.421583,29.2368237 C770.421583,30.3813349 771.347567,31.3062721 772.494228,31.3062721 L777.742667,31.3062721 L777.919113,35.9295592 L772.979575,36.6778999 C768.216244,37.4705307 764.952705,33.3755296 764.952705,29.2368237 L764.952705,18.8457335 Z M770.421583,21.3992761 L774.523121,21.3992761 L774.523121,18.8457335 C774.523121,17.7007448 773.596898,16.7761895 772.494228,16.7761895 C771.347567,16.7761895 770.421583,17.7007448 770.421583,18.8457335 L770.421583,21.3992761 Z M784.668302,36.4138443 L784.668302,1.93795373 L788.196749,1.93795373 L788.196749,12.4170741 C789.166964,12.1089208 790.71051,11.9769233 791.768948,11.9769233 C795.517833,11.9769233 798.428479,15.3672298 798.428479,19.1979973 L798.428479,36.4138443 L794.988494,36.4138443 L794.988494,19.1979973 C794.988494,17.3045614 793.444948,15.8075237 791.54851,15.8075237 L788.196749,15.8075237 L788.196749,36.4138443 L784.668302,36.4138443 Z M811.336311,18.625491 C811.336311,16.6440488 810.410087,15.0588856 807.896326,15.3233102 L807.940318,15.3233102 C806.528987,15.3672298 804.721011,15.5433617 803.221457,15.6313918 C803.177465,14.3544773 803.133234,13.8701683 803.089242,12.9016218 C804.279895,12.4612324 805.999888,12.0208429 807.45545,11.9769233 C811.865649,11.8888454 814.776534,15.4553554 814.776534,19.2858126 L814.776534,29.765291 C814.776534,33.5516615 811.733434,36.6778999 807.940318,36.6778999 C804.14768,36.6778999 801.016357,33.5516615 801.016357,29.765291 L801.016357,27.6077408 C801.016357,23.8210838 803.618341,20.959197 807.940318,20.959197 C809.572326,20.959197 810.410087,21.1353289 811.336311,21.3992761 L811.336311,18.625491 Z M811.336311,29.765291 L811.336311,23.8210838 L807.940318,23.8210838 C806.044119,23.8210838 804.544565,25.3182408 804.544565,27.2112709 L804.544565,29.765291 C804.544565,31.6583449 806.044119,33.1993977 807.940318,33.1993977 C809.836996,33.1993977 811.336311,31.6583449 811.336311,29.765291 Z M824.657046,11.9769233 C828.450162,11.9769233 831.581246,15.0588856 831.581246,18.8896531 L831.581246,19.3300186 C830.214146,19.3741053 829.111476,19.3741053 828.097269,19.4180249 L828.097269,18.8896531 C828.097269,17.0404232 826.553484,15.4994421 824.657046,15.4994421 C822.804838,15.4994421 821.305045,17.0404232 821.305045,18.8896531 L821.305045,29.8973362 C821.305045,31.8345723 822.804838,33.2877143 824.657046,33.2877143 C826.509492,33.2877143 828.053038,31.878659 828.097269,30.0292621 C829.817022,30.1615699 831.44903,30.2495761 831.581246,30.2495761 C831.404799,33.9040208 828.317707,36.8101137 824.657046,36.8101137 C820.864408,36.8101137 817.776837,33.7278889 817.776837,29.8973362 L817.776837,18.8896531 C817.776837,15.0588856 820.864408,11.9769233 824.657046,11.9769233 Z M845.482006,36.4138443 L838.778483,24.7455675 C838.11669,23.6010323 838.11669,23.46882 838.910698,22.1038037 L844.820452,12.3292349 L848.834006,12.3292349 L842.174236,23.6010323 L849.363106,36.4138443 L845.482006,36.4138443 Z M837.896252,2.02603162 L837.896252,36.4138443 L834.368044,36.4138443 L834.368044,2.02603162 L837.896252,2.02603162 Z M850.106188,18.9335488 C850.106188,15.1030916 853.19352,11.9769233 857.030388,11.9769233 C860.823026,11.9769233 863.910597,15.1030916 863.910597,18.9335488 L863.910597,24.3494796 C863.910597,25.3623275 863.116588,26.1106793 862.146373,26.1106793 L853.634396,26.1106793 L853.634396,29.8531302 C853.634396,31.7464467 855.13395,33.2877143 857.030388,33.2877143 L861.484819,33.2877143 C861.528811,34.4322231 861.573042,35.2252273 861.661266,36.0173912 L857.427273,36.6778999 C853.105296,37.4264273 850.106188,33.6839693 850.106188,29.8531302 L850.106188,18.9335488 L850.106188,18.9335488 Z M853.634396,22.6321994 L860.426381,22.6321994 L860.426381,18.9335488 C860.426381,17.0404232 858.882596,15.4994421 857.030388,15.4994421 C855.13395,15.4994421 853.634396,17.0404232 853.634396,18.9335488 L853.634396,22.6321994 Z M870.533547,36.4138443 L867.0051,36.4138443 L867.0051,19.241893 C867.0051,15.4111494 870.004208,11.8449258 874.414408,11.932765 C875.913962,11.9769233 876.840185,12.3292349 877.854632,12.8135439 C877.8104,13.8701683 877.766408,14.7508278 877.722416,15.5433617 L873.885308,15.4553554 C872.032862,15.4553554 870.533547,17.4367737 870.533547,19.241893 L870.533547,36.4138443 Z" id="Combined-Shape" fill="#87B827"></path>
            </g>
        </g>
    </g>
</svg>