<?xml version="1.0" encoding="UTF-8"?>
<svg width="457px" height="299px" viewBox="0 0 457 299" version="1.1" xmlns="http://www.w3.org/2000/svg" xmlns:xlink="http://www.w3.org/1999/xlink">
    <!-- Generator: Sketch 45.2 (43514) - http://www.bohemiancoding.com/sketch -->
    <title>Group 22</title>
    <desc>Created with Sketch.</desc>
    <defs>
        <path d="M22.0000006,57.989553 C25.5474213,56.3043569 28,52.6885937 28,48.5 L28,10.5 C28,4.70101013 23.2989899,-1.06525716e-15 17.5,0 L17.5,0 L17.5,0 C11.7010101,1.06525716e-15 7,4.70101013 7,10.5 L7,10.5 L7,48.5 C7,52.6885937 9.45257873,56.3043569 12.9999994,57.989553 L13,121.5 C13,123.985281 15.0147186,126 17.5,126 C19.9852814,126 22,123.985281 22,121.5 L22,57.989556 Z" id="path-1"></path>
        <rect id="path-2" x="0.637511398" y="19.1432637" width="34" height="26"></rect>
        <path d="M10.8757515,0.210653277 C15.7094188,1.10007823 23.1109719,1.10007823 33.0804108,0.210653277 C43.0498497,-0.678771672 51.6598196,1.24831572 58.9103206,5.99191545 L50.753507,9.54961524 C63.4655979,16.557091 68.6013694,21.3006907 66.1608216,23.7804144 C63.7202739,26.2601381 60.8333333,27.1495631 57.5,26.4486893 C57.1666667,31.1495631 54,32.6666667 48,31 C47.0936874,39.449537 37.5,36.4447125 37.5,36 C37.5,35.5552875 38.5,42.5 29,40.5 C19.5,38.5 10.4225952,27.7828267 8.60996994,26.4486893 C7.40155311,25.5592643 4.53156313,24.2251269 0,22.446277 L0,3.76835307 L10.8757515,0.210653277 Z" id="path-3"></path>
        <path d="M3.43784348,15.6515178 L69.9970883,31.8646892 C66.0257038,37.5285377 63.5636159,41.9719236 62.6108246,45.1948471 C61.6580333,48.4177705 61.4173508,53.1168088 61.8887771,59.2919619 L0.841587328,47.989722 L3.43784348,15.6515178 Z" id="path-5"></path>
        <path d="M139.5,145.5 C144.5,141.5 147.5,139.833333 148.5,140.5 C150,141.5 154,145.5 150.5,147 C148.166667,148 143.666667,150.333333 137,154 L127,151.5 L139.5,145.5 Z" id="path-6"></path>
        <path d="M133.5,157.5 C138.5,153.5 141.5,151.833333 142.5,152.5 C144,153.5 148,157.5 144.5,159 C142.166667,160 137.666667,162.333333 131,166 L121,163.5 L133.5,157.5 Z" id="path-7"></path>
        <path d="M129.5,165.5 C134.5,161.5 137.5,159.833333 138.5,160.5 C140,161.5 144,165.5 140.5,167 C138.166667,168 133.666667,170.333333 127,174 L117,171.5 L129.5,165.5 Z" id="path-8"></path>
        <rect id="path-9" x="0.736161147" y="0.517540966" width="44" height="63" rx="6"></rect>
        <rect id="path-10" x="40.7361611" y="4.51754097" width="4" height="55" rx="2"></rect>
        <path d="M21.7361611,27.0180902 C20.4826704,27.9596237 18.92457,28.517541 17.2361611,28.517541 C15.5477523,28.517541 13.9896519,27.9596237 12.7361611,27.0180902 L12.7361611,15.0169917 C13.9896519,14.0754582 15.5477523,13.517541 17.2361611,13.517541 C18.92457,13.517541 20.4826704,14.0754582 21.7361611,15.0169917 L21.7361611,27.0180902 Z M17.2361611,48.517541 C14.7508798,48.517541 12.7361611,46.5028223 12.7361611,44.017541 C12.7361611,41.5322596 14.7508798,39.517541 17.2361611,39.517541 C19.7214425,39.517541 21.7361611,41.5322596 21.7361611,44.017541 C21.7361611,46.5028223 19.7214425,48.517541 17.2361611,48.517541 Z" id="path-11"></path>
        <circle id="path-12" cx="17.2361611" cy="21.017541" r="3.5"></circle>
        <circle id="path-13" cx="17.2361611" cy="44.017541" r="3.5"></circle>
        <rect id="path-14" x="41.7361611" y="7.51754097" width="6" height="7" rx="2"></rect>
        <rect id="path-15" x="41.7361611" y="15.517541" width="6" height="7" rx="2"></rect>
        <rect id="path-16" x="41.7361611" y="23.517541" width="6" height="7" rx="2"></rect>
        <rect id="path-17" x="41.7361611" y="31.517541" width="6" height="7" rx="2"></rect>
        <rect id="path-18" x="41.7361611" y="39.517541" width="6" height="7" rx="2"></rect>
        <polygon id="path-19" points="34 262.5 79 186 101 194.5 70 293.5"></polygon>
        <path d="M0,64.3410687 C2.66666667,59.3410687 3.83333333,55.5077354 3.5,52.8410687 C3,48.8410687 6,20.8410687 12,13.3410687 C18,5.84106871 17.5,3.84106871 20.5,0.841068711 C23.5,-2.15893129 27,3.34106871 22.5,9.84106871 C18,16.3410687 14.5,29.5 16,35.5 C17.5,41.5 17.5,52.3410687 16,56.8410687 C14.5,61.3410687 15.5,60.8410687 17.5,61.3410687 C18.8333333,61.674402 24.8333333,63.8940458 35.5,68 C28.1666667,66.8940458 23.1666667,68.174402 20.5,71.8410687 C11.5,75.6136896 4.66666667,73.1136896 0,64.3410687 Z" id="path-20"></path>
        <path d="M134.5,18 C147.790292,16.3825304 177.123625,14.3825304 222.5,12 C267.876375,9.61746958 308.376375,7.95080291 344,7 C341.033367,9.08464914 339.700034,10.7513158 340,12 C340.44995,13.8730263 346.373652,12.831221 346,14.5 C345.745769,15.6354284 340.241708,16.8846478 340,18 C339.772394,19.0502795 346.207444,19.4685812 346,20.5 C345.801119,21.4888423 340.193017,23.5281103 340,24.5 C339.758945,25.7137701 344.216489,26.317095 344,27.5 C343.790572,28.6443246 340.201683,31.3839622 340,32.5 C339.757259,33.8432376 346.216589,34.7071208 346,36 C345.813629,37.1125004 340.19361,38.9240902 340,40 C339.816008,41.02246 344.169515,43.0142121 344,44 C343.881886,44.6868744 340.120565,46.5088728 340,47.1756844 C339.811186,48.2199616 343.175374,49.5111223 343,50.5 C342.866441,51.2530944 340.138172,53.2798282 340,54 C339.803677,55.0232578 343.185633,56.5520276 343,57.5 C342.794723,58.5482868 338.72863,61.0468697 338.5,62 C338.291118,62.8708019 342.187908,64.7204405 342,65.5 C341.758242,66.5029668 337.784916,67.6575415 337.5,68.5 C337.083409,69.7318028 338.816452,72.5846368 338.5,73.5 C338.183548,74.4153632 334.284809,77.2663983 333,77.5 C327.5,78.5 135.5,91.5 130,86 C126.333333,82.3333333 124.5,74.3333333 124.5,62 L134.5,30 L134.5,18 Z" id="path-22"></path>
        <filter x="-1.6%" y="-3.1%" width="104.1%" height="112.4%" filterUnits="objectBoundingBox" id="filter-23">
            <feOffset dx="1" dy="3" in="SourceAlpha" result="shadowOffsetOuter1"></feOffset>
            <feGaussianBlur stdDeviation="1" in="shadowOffsetOuter1" result="shadowBlurOuter1"></feGaussianBlur>
            <feColorMatrix values="0 0 0 0 0.703046701   0 0 0 0 0.812462687   0 0 0 0 0.862962372  0 0 0 1 0" type="matrix" in="shadowBlurOuter1"></feColorMatrix>
        </filter>
        <rect id="path-24" x="0" y="36" width="67" height="46" rx="9"></rect>
        <rect id="path-25" x="8" y="29" width="12" height="9" rx="4.5"></rect>
        <rect id="path-26" x="47" y="31" width="12" height="6" rx="3"></rect>
        <rect id="path-27" x="36" y="20" width="5" height="15"></rect>
        <rect id="path-28" x="26" y="0" width="25" height="23" rx="4"></rect>
        <rect id="path-29" x="29" y="3" width="19" height="12" rx="2"></rect>
        <path d="M9,36 L58,36 L58,36 C62.9705627,36 67,40.0294373 67,45 L67,46 L0,46 L0,45 L0,45 C-6.08718376e-16,40.0294373 4.02943725,36 9,36 Z" id="path-30"></path>
        <circle id="path-31" cx="34" cy="65" r="20"></circle>
        <circle id="path-32" cx="34" cy="65" r="13"></circle>
        <circle id="path-33" cx="34" cy="65" r="9"></circle>
        <path d="M24,32 C16,35 10.8333333,38 8.5,41 C5,45.5 -0.413756656,69.3436034 1,74.5 C1.49843351,76.3179372 2.83176684,80.9846039 5,88.5 C9.33333333,91.5 14,91.5 19,88.5 C20.9066532,85.4257404 17.5173745,78.0789474 16.3127413,74.5 C15.5096525,72.1140351 17.4054054,70.6140351 22,70 C23.7953668,72 25.2953668,73 26.5,73 C28.3069498,73 27.8455598,71.3769598 26.5,68.8769598 C25.1544402,66.3769598 24,65 21,65.5 C18.4473491,65.9254418 14.444257,67.0893478 14,66.2280702 C13.7371498,65.7184844 14.1065191,64.642461 15.1081081,63 C18.7027027,62.3333333 21.1666667,62 22.5,62 C24.5,62 26.4227799,63 27.96139,65.5 C29.5,68 31,65.1030702 29.5,61.375 C28.689098,59.3596002 28,58 24,57 C23.1053133,56.7763283 19.77198,57.1096617 14,58 C13.3896744,56.9378729 13.7590438,56.1045395 15.1081081,55.5 C17.1317046,54.5931907 21.5,54.5 24,54.5 C26.5,54.5 28.5,57 29.5,58 C30.0226583,58.5226583 32.1495591,57.5386373 31,55.5 C29.9501123,53.6381209 25.725065,50.7386708 24,50.5 C21.5907336,50.1666667 17.2574003,50.8333333 11,52.5 C9,47.5 9.66666667,43.6666667 13,41 C18,37 21.7335907,36.1578947 25.3474903,34.9649123 C27.7567568,34.1695906 27.3075933,33.1812865 24,32 Z" id="path-34"></path>
        <path d="M0.8,93.5 L0.8,88.5 C9.13333333,90.5 15.8,90.5 20.8,88.5 C22.4666667,91.5 23.0916667,93.8333333 22.675,95.5 L6.425,97 L0.8,93.5 Z" id="path-35"></path>
        <path d="M1,94 L1,166 C22.3333333,162.333333 33,160.166667 33,159.5 C33,158.833333 29.6666667,137 23,94 C19.3333333,95 15.6666667,95.6666667 12,96 C8.33333333,96.3333333 4.66666667,95.6666667 1,94 Z" id="path-36"></path>
    </defs>
    <g id="Landing-v2" stroke="none" stroke-width="1" fill="none" fill-rule="evenodd">
        <g id="About-us" transform="translate(-164.000000, -102.000000)">
            <g id="Oval-4" transform="translate(0.000000, -62.000000)">
                <g id="Group-22" transform="translate(164.000000, 166.000000)">
                    <g id="Group-9-Copy" transform="translate(393.410001, 162.560915) scale(-1, 1) rotate(-70.000000) translate(-393.410001, -162.560915) translate(300.410001, 115.560915)">
                        <g id="Group-3" transform="translate(121.694864, 47.057368) rotate(60.000000) translate(-121.694864, -47.057368) translate(104.194864, -15.942632)">
                            <g id="Combined-Shape">
                                <use fill="#3F4C52" fill-rule="evenodd" xlink:href="#path-1"></use>
                                <path stroke="#2A2A2A" stroke-width="2" d="M23.0000006,58.6019412 L23,121.5 C23,124.537566 20.5375661,127 17.5,127 C14.4624339,127 12,124.537566 12,121.5 L11.9999994,58.6019412 C8.34509133,56.6101772 6,52.7666344 6,48.5 L6,10.5 C6,4.14872538 11.1487254,-1 17.5,-1 C23.8512746,-1 29,4.14872538 29,10.5 L29,48.5 C29,52.7666344 26.6549087,56.6101772 23.0000006,58.6019412 Z"></path>
                            </g>
                            <g id="Rectangle">
                                <use fill="#F8D763" fill-rule="evenodd" xlink:href="#path-2"></use>
                                <rect stroke="#2A2A2A" stroke-width="2" x="-0.362488602" y="18.1432637" width="36" height="28"></rect>
                            </g>
                            <path d="M5.87426938,25.119611 C5.91562852,25.119611 5.9481245,25.1305481 5.9717583,25.1524225 C5.99539209,25.174297 6.02050263,25.2227325 6.04709065,25.2977306 L10.1061748,36.7911353 C10.0973122,36.60364 10.0928809,36.4223972 10.0928809,36.2474016 L10.0928809,25.119611 L10.4916992,25.119611 L10.4916992,38.3848374 L10.2745648,38.3848374 C10.2066176,38.3848374 10.1519653,38.3223399 10.1106062,38.197343 L6.0337967,26.685189 C6.04265938,26.8726843 6.04709065,27.0508021 6.04709065,27.2195479 L6.04709065,38.3848374 L5.65270364,38.3848374 L5.65270364,25.119611 L5.87426938,25.119611 Z M16.1106062,25.119611 L16.1106062,25.9164621 L12.8092768,25.9164621 L12.8092768,31.2788009 L15.5566918,31.2788009 L15.5566918,32.0569025 L12.8092768,32.0569025 L12.8092768,37.5879863 L16.1106062,37.5879863 L16.1106062,38.3848374 L12.3528514,38.3848374 L12.3528514,25.119611 L16.1106062,25.119611 Z M16.7354215,25.119611 L17.1120833,25.119611 C17.1977558,25.119611 17.2524081,25.2039826 17.2760419,25.3727284 L18.8580212,36.2755258 C18.8757466,36.4005227 18.891256,36.5348923 18.90455,36.6786387 C18.917844,36.8223851 18.9318764,36.9723791 18.9466475,37.1286252 C18.9614186,36.9723791 18.9761895,36.8223851 18.9909607,36.6786387 C19.0057318,36.5348923 19.0234569,36.4005227 19.0441364,36.2755258 L20.8166623,25.3727284 C20.8284792,25.3039801 20.8491584,25.2446075 20.8787007,25.1946087 C20.9082429,25.14461 20.9436931,25.119611 20.9850522,25.119611 L21.1091291,25.119611 C21.1504882,25.119611 21.1844613,25.1430476 21.2110493,25.1899214 C21.2376373,25.2367952 21.2583166,25.2977303 21.2730877,25.3727284 L23.0456135,36.2755258 C23.0662931,36.4005227 23.0847567,36.5317674 23.101005,36.669264 C23.1172532,36.8067605 23.1327627,36.9536296 23.1475338,37.1098757 C23.1623049,36.9598795 23.1755987,36.8145728 23.1874156,36.6739513 C23.1992325,36.5333298 23.2140034,36.4005227 23.2317288,36.2755258 L24.8137081,25.3727284 C24.8225707,25.3039801 24.8425115,25.2446075 24.8735308,25.1946087 C24.9045502,25.14461 24.9407389,25.119611 24.982098,25.119611 L25.3277406,25.119611 L23.3558056,38.3848374 L22.9481246,38.3848374 L21.0958351,26.8726833 C21.0722013,26.7226871 21.051522,26.5633185 21.0337967,26.3945727 C21.0160714,26.5633185 20.9953921,26.7226871 20.9717583,26.8726833 L19.1150375,38.3848374 L18.7117878,38.3848374 L16.7354215,25.119611 Z M29.3690995,26.7320625 C29.3425115,26.8383099 29.3041071,26.8914328 29.2538853,26.8914328 C29.2154804,26.8914328 29.1659979,26.8336226 29.1054363,26.7180005 C29.0448747,26.6023784 28.9628962,26.4742585 28.8594983,26.333637 C28.7561005,26.1930155 28.6268551,26.0633332 28.4717583,25.9445862 C28.3166615,25.8258392 28.1253783,25.7664666 27.8979031,25.7664666 C27.6704278,25.7664666 27.4702821,25.8352138 27.2974599,25.9727104 C27.1246378,26.1102069 26.979883,26.2976994 26.8631911,26.5351935 C26.7464992,26.7726875 26.6578738,27.0476765 26.5973122,27.3601687 C26.5367506,27.6726608 26.5064703,28.0007727 26.5064703,28.3445141 C26.5064703,28.7945028 26.5515215,29.1663629 26.6416254,29.4601056 C26.7317292,29.7538482 26.850635,30.0038382 26.9983462,30.210083 C27.1460574,30.4163279 27.3137071,30.5897584 27.5013004,30.7303799 C27.6888937,30.8710014 27.8816539,31.0100583 28.079587,31.1475549 C28.27752,31.2850514 28.4702803,31.4366079 28.6578735,31.6022287 C28.8454668,31.7678496 29.0131165,31.9756537 29.1608277,32.2256475 C29.3085389,32.4756412 29.4274447,32.7834414 29.5175485,33.1490572 C29.6076524,33.5146731 29.6527036,33.9693424 29.6527036,34.5130787 C29.6527036,35.0693148 29.6076524,35.5927313 29.5175485,36.0833441 C29.4274447,36.5739568 29.2967222,37.0005022 29.1253772,37.3629931 C28.9540322,37.725484 28.7442854,38.0114101 28.4961305,38.2207798 C28.2479757,38.4301496 27.9643744,38.5348329 27.6453181,38.5348329 C27.2317267,38.5348329 26.875748,38.3801516 26.5773713,38.0707843 C26.2789946,37.7614171 26.0175497,37.3379965 25.7930286,36.80051 L25.9171054,36.3880224 C25.9525561,36.2942748 25.9939146,36.2474016 26.0411822,36.2474016 C26.0677702,36.2474016 26.1017433,36.2849001 26.1431025,36.3598982 C26.1844616,36.4348964 26.2346827,36.5270802 26.2937672,36.6364524 C26.3528517,36.7458247 26.423752,36.8645699 26.5064703,36.9926917 C26.5891885,37.1208135 26.6851994,37.2395588 26.7945057,37.348931 C26.903812,37.4583033 27.0293647,37.5504871 27.1711675,37.6254852 C27.3129702,37.7004833 27.4739731,37.7379818 27.6541807,37.7379818 C27.9023356,37.7379818 28.1238991,37.6582975 28.3188779,37.4989265 C28.5138568,37.3395555 28.6785523,37.1223767 28.8129695,36.8473836 C28.9473867,36.5723905 29.0500445,36.2458411 29.1209459,35.8677255 C29.1918473,35.48961 29.2272974,35.0849387 29.2272974,34.6536995 C29.2272974,34.1849613 29.1822462,33.7990392 29.0921423,33.4959218 C29.0020385,33.1928044 28.8831327,32.9396895 28.7354215,32.7365696 C28.5877103,32.5334497 28.4200606,32.363144 28.2324673,32.2256475 C28.0448741,32.0881509 27.8521138,31.9537813 27.6541807,31.8225346 C27.4562477,31.6912879 27.2634874,31.5444188 27.0758942,31.3819228 C26.8883009,31.2194269 26.7206512,31.0116227 26.57294,30.7585041 C26.4252288,30.5053854 26.306323,30.189773 26.2162192,29.8116575 C26.1261153,29.433542 26.0810641,28.9601234 26.0810641,28.3913877 C26.0810641,27.9476488 26.1209455,27.5195409 26.2007096,27.1070513 C26.2804736,26.6945616 26.3971637,26.3305137 26.5507834,26.0148966 C26.7044031,25.6992795 26.8942092,25.4461646 27.1202073,25.2555444 C27.3462055,25.0649242 27.6039577,24.9696155 27.8934717,24.9696155 C28.2184364,24.9696155 28.5101617,25.0789861 28.7686564,25.2977306 C29.027151,25.5164752 29.2627469,25.8508368 29.4754511,26.3008255 L29.3690995,26.7320625 Z" id="NEWS" fill="#FFFFFF" transform="translate(17.652704, 31.752224) scale(-1, 1) translate(-17.652704, -31.752224) "></path>
                        </g>
                        <g id="Path-14" transform="translate(61.000000, 34.000000)">
                            <mask id="mask-4" fill="white">
                                <use xlink:href="#path-3"></use>
                            </mask>
                            <g id="Mask">
                                <use fill="#F4D9BD" fill-rule="evenodd" xlink:href="#path-3"></use>
                                <path stroke="#2A2A2A" stroke-width="2" d="M38.4171135,37.4776072 C37.2957337,37.1495493 36.5,36.6372616 36.5,36 C36.5000778,35.9518743 36.5000778,35.9518743 36.5091093,35.8550027 C36.5183087,35.7840879 36.5183087,35.7840879 36.5660858,35.6271442 C36.6494687,35.3285427 36.6494687,35.3285427 37.5254962,34.9797211 C38.2846795,35.2731247 38.2846795,35.2731247 38.375408,35.4903703 C38.4370117,35.6156765 38.4370117,35.6156765 38.4570581,35.6773075 C38.4818256,35.7639568 38.4818256,35.7639568 38.4908123,35.8098296 C38.5060404,35.8887785 38.5161214,35.9817719 38.5225418,36.0865456 C38.536801,36.3192399 38.5321436,36.597771 38.503032,36.8944258 C38.4839085,37.0892987 38.4554927,37.2840215 38.4171135,37.4776072 Z M53.0017398,9.65999976 C58.4928844,12.7698076 62.426446,15.4194774 64.8179069,17.6283243 C67.7468032,20.3335677 68.6290894,22.6981351 66.8735359,24.4818689 C64.4595721,26.934582 61.5951135,27.9855768 58.3665743,27.603966 C57.6123561,31.905079 54.2636533,33.4644682 48.8147914,32.2364886 C48.0700223,35.7022537 45.7380898,37.5098161 42.5089405,37.8304501 C41.1512264,37.9652625 39.6022927,37.8243295 38.4171135,37.4776072 C38.286082,38.1385331 38.0389142,38.7862056 37.6489028,39.3813481 C36.209565,41.5777224 33.3009584,42.4273853 28.7939895,41.4785498 C24.5656863,40.5883807 20.2229266,38.0759997 15.6958514,34.3376396 C13.1038499,32.1972212 8.04926526,27.2776619 8.01719751,27.2540593 C6.90401323,26.4347279 4.08264631,25.1231933 -0.365401975,23.3771268 L-1,23.1280175 L-1,3.04333036 L10.8065777,-0.818863359 L11.0567196,-0.772835688 C15.7821177,0.0966670421 23.1046883,0.0966670421 32.9915486,-0.785390652 C43.1768819,-1.69407665 52.0112572,0.283237249 59.4578034,5.15509851 L61.006771,6.16850185 L53.0017398,9.65999976 Z"></path>
                            </g>
                            <path d="M0,23.5 L-2,6.5 C8,-6.5 13.5,-13.6666667 14.5,-15 C15.5,-16.3333333 19.8333333,-17 27.5,-17 L72.5,-5 L64,17.5 C49.6666667,17.1666667 40.5,14.5 36.5,9.5 C30.5,2 14.5,6.5 14.5,6.5 C14.5,6.5 12.3333333,12.8333333 8,25.5 L0,23.5 Z" fill="#E8C7A5" mask="url(#mask-4)"></path>
                        </g>
                        <g id="Path-5">
                            <use fill="#F8D763" fill-rule="evenodd" xlink:href="#path-5"></use>
                            <path stroke="#2A2A2A" stroke-width="2" d="M2.53491601,14.4023331 L71.6566512,31.2397017 L70.8158656,32.4388005 C66.901463,38.0213834 64.4850892,42.3822681 63.5697967,45.4783475 C62.6578962,48.5629534 62.4228875,53.1512172 62.8858756,59.215841 L62.9848181,60.5118762 L-0.22739004,48.8088061 L2.53491601,14.4023331 Z"></path>
                        </g>
                    </g>
                    <path d="M273.795327,193.706107 L313.302795,168.599237 L311.359805,163.449109 L302.94018,162.161578 L311.359805,158.298982 L315.245785,154.436387 C353.673814,152.719678 373.535492,153.363444 374.830819,156.367684 C376.773809,160.874046 378.069136,168.599237 324.313073,168.599237 C320.427093,171.603478 318.484102,172.032655 318.484102,169.886768 L272.5,199.5 L273.795327,193.706107 Z" id="Path-10-Copy" fill="#D8F3FE" transform="translate(324.000000, 176.500000) scale(1, -1) rotate(120.000000) translate(-324.000000, -176.500000) "></path>
                    <g id="Path-16" stroke-linecap="round" stroke-linejoin="round">
                        <use fill="#F4D9BD" fill-rule="evenodd" xlink:href="#path-6"></use>
                        <path stroke="#2A2A2A" stroke-width="2" d="M138.964612,144.647752 C144.408071,140.301151 147.469273,138.610998 149.0547,139.66795 C150.135773,140.388665 151.509885,141.782985 152.243243,143.066361 C153.391443,145.075711 153.095345,146.975677 150.893919,147.919145 C148.600617,148.901989 144.119983,151.22528 137.481919,154.876216 L137.138119,155.065306 L124.068479,151.797896 L138.964612,144.647752 Z"></path>
                    </g>
                    <g id="Path-16-Copy" stroke-linecap="round" stroke-linejoin="round">
                        <use fill="#F4D9BD" fill-rule="evenodd" xlink:href="#path-7"></use>
                        <path stroke="#2A2A2A" stroke-width="2" d="M132.964612,156.647752 C138.408071,152.301151 141.469273,150.610998 143.0547,151.66795 C144.135773,152.388665 145.509885,153.782985 146.243243,155.066361 C147.391443,157.075711 147.095345,158.975677 144.893919,159.919145 C142.600617,160.901989 138.119983,163.22528 131.481919,166.876216 L131.138119,167.065306 L118.068479,163.797896 L132.964612,156.647752 Z"></path>
                    </g>
                    <g id="Path-16-Copy-2" stroke-linecap="round" stroke-linejoin="round">
                        <use fill="#F4D9BD" fill-rule="evenodd" xlink:href="#path-8"></use>
                        <path stroke="#2A2A2A" stroke-width="2" d="M128.964612,164.647752 C134.408071,160.301151 137.469273,158.610998 139.0547,159.66795 C140.135773,160.388665 141.509885,161.782985 142.243243,163.066361 C143.391443,165.075711 143.095345,166.975677 140.893919,167.919145 C138.600617,168.901989 134.119983,171.22528 127.481919,174.876216 L127.138119,175.065306 L114.068479,171.797896 L128.964612,164.647752 Z"></path>
                    </g>
                    <g id="Group-4" transform="translate(119.640492, 154.540536) rotate(20.000000) translate(-119.640492, -154.540536) translate(95.640492, 122.540536)">
                        <g id="Rectangle-9">
                            <use fill="#3F4C52" fill-rule="evenodd" xlink:href="#path-9"></use>
                            <rect stroke="#2A2A2A" stroke-width="2" x="-0.263838853" y="-0.482459034" width="46" height="65" rx="6"></rect>
                        </g>
                        <g id="Rectangle-9-Copy-2">
                            <use fill="#9EACB1" fill-rule="evenodd" xlink:href="#path-10"></use>
                            <rect stroke="#2A2A2A" stroke-width="2" x="39.7361611" y="3.51754097" width="6" height="57" rx="3"></rect>
                        </g>
                        <rect id="Rectangle-9-Copy" fill="#F8D763" x="5.73616115" y="5.51754097" width="23" height="53" rx="3"></rect>
                        <g id="Combined-Shape">
                            <use fill="#3F4C52" fill-rule="evenodd" xlink:href="#path-11"></use>
                            <path stroke="#2A2A2A" stroke-width="2" d="M22.3367388,27.8176567 C20.8765402,28.9144544 19.100699,29.517541 17.2361611,29.517541 C15.3716233,29.517541 13.5957821,28.9144544 12.1355835,27.8176567 L11.7361611,27.5176389 L11.7361611,14.517443 L12.1355835,14.2174253 C13.5957821,13.1206275 15.3716233,12.517541 17.2361611,12.517541 C19.100699,12.517541 20.8765402,13.1206275 22.3367388,14.2174253 L22.7361611,14.517443 L22.7361611,27.5176389 L22.3367388,27.8176567 Z M17.2361611,49.517541 C14.198595,49.517541 11.7361611,47.0551071 11.7361611,44.017541 C11.7361611,40.9799748 14.198595,38.517541 17.2361611,38.517541 C20.2737273,38.517541 22.7361611,40.9799748 22.7361611,44.017541 C22.7361611,47.0551071 20.2737273,49.517541 17.2361611,49.517541 Z"></path>
                        </g>
                        <g id="Oval-2">
                            <use fill="#FFFFFF" fill-rule="evenodd" xlink:href="#path-12"></use>
                            <circle stroke="#2A2A2A" stroke-width="2" cx="17.2361611" cy="21.017541" r="4.5"></circle>
                        </g>
                        <g id="Oval-2-Copy">
                            <use fill="#FFFFFF" fill-rule="evenodd" xlink:href="#path-13"></use>
                            <circle stroke="#2A2A2A" stroke-width="2" cx="17.2361611" cy="44.017541" r="4.5"></circle>
                        </g>
                        <g id="Rectangle-5">
                            <use fill="#439FC6" fill-rule="evenodd" xlink:href="#path-14"></use>
                            <rect stroke="#2A2A2A" stroke-width="2" x="42.7361611" y="8.51754097" width="4" height="5" rx="2"></rect>
                        </g>
                        <g id="Rectangle-5-Copy">
                            <use fill="#3F4C52" fill-rule="evenodd" xlink:href="#path-15"></use>
                            <rect stroke="#2A2A2A" stroke-width="2" x="42.7361611" y="16.517541" width="4" height="5" rx="2"></rect>
                        </g>
                        <g id="Rectangle-5-Copy-2">
                            <use fill="#3F4C52" fill-rule="evenodd" xlink:href="#path-16"></use>
                            <rect stroke="#2A2A2A" stroke-width="2" x="42.7361611" y="24.517541" width="4" height="5" rx="2"></rect>
                        </g>
                        <g id="Rectangle-5-Copy-3">
                            <use fill="#3F4C52" fill-rule="evenodd" xlink:href="#path-17"></use>
                            <rect stroke="#2A2A2A" stroke-width="2" x="42.7361611" y="32.517541" width="4" height="5" rx="2"></rect>
                        </g>
                        <g id="Rectangle-5-Copy-4">
                            <use fill="#3F4C52" fill-rule="evenodd" xlink:href="#path-18"></use>
                            <rect stroke="#2A2A2A" stroke-width="2" x="42.7361611" y="40.517541" width="4" height="5" rx="2"></rect>
                        </g>
                    </g>
                    <g id="Path-6">
                        <use fill="#F8D763" fill-rule="evenodd" xlink:href="#path-19"></use>
                        <path stroke="#2A2A2A" stroke-width="2" d="M32.7146313,262.712818 L78.5685004,184.761241 L102.234247,193.904825 L70.4998668,295.250105 L32.7146313,262.712818 Z"></path>
                    </g>
                    <g id="Path-17" transform="translate(80.000000, 121.000000)">
                        <mask id="mask-21" fill="white">
                            <use xlink:href="#path-20"></use>
                        </mask>
                        <g id="Mask" stroke-linecap="round" stroke-linejoin="round">
                            <use fill="#F4D9BD" fill-rule="evenodd" xlink:href="#path-20"></use>
                            <path stroke="#2A2A2A" stroke-width="2" d="M-0.882352941,63.8704805 C1.69551627,59.0369757 2.80927113,55.3774955 2.50772212,52.9651034 C2.20932922,50.5779602 2.99586587,42.0470627 4.32670454,34.2356184 C6.05854372,24.0704754 8.3938694,16.2479509 11.2191312,12.7163737 C12.9468598,10.5567128 14.2275077,8.7416102 15.2813886,7.02504055 C15.6765878,6.38133695 16.0209122,5.7848723 16.4244511,5.0561367 C16.5386313,4.84994307 16.951595,4.09775983 16.8933221,4.20368041 C17.0754538,3.87262603 17.2082817,3.63458405 17.3399474,3.40491076 C17.7527505,2.68483108 18.1142616,2.12287906 18.5308833,1.5738516 C18.9037827,1.08244165 19.3150231,0.611832073 19.7928932,0.13396193 C21.7717645,-1.84490939 24.2811106,-1.12383294 25.2474975,1.42391448 C26.16467,3.84191462 25.5363357,7.21207144 23.3221922,10.4102787 C18.8862914,16.817691 15.574305,29.6741143 16.9701425,35.2574644 C18.513529,41.4310105 18.513529,52.4627593 16.9486833,57.1572965 C15.9850113,60.0483125 15.9734968,59.9992831 16.7912219,60.1670216 C16.847236,60.1785116 17.1360563,60.2360143 17.2231964,60.2539403 C17.4141064,60.2932132 17.5776408,60.3297025 17.7425356,60.3709262 C19.1379407,60.7197775 25.1146333,62.9307989 35.8592374,67.0667538 L44.3964014,70.3529917 L35.3508744,68.9888183 C28.3486924,67.9328056 23.7161319,69.1190712 21.3087361,72.4292404 L21.1443487,72.6552731 L20.8865896,72.7633206 C11.4067309,76.7370887 4.024817,74.0363885 -0.882856576,64.8107114 L-1.13300966,64.3404618 L-0.882352941,63.8704805 Z"></path>
                        </g>
                        <path d="M3,32.5 C5.5,48.5 6.33333333,57.6666667 5.5,60 C4.66666667,62.3333333 5.83333333,64.3333333 9,66 C17.3333333,69.3333333 21.6666667,70.6666667 22,70 C22.3333333,69.3333333 20.3333333,66.3333333 16,61 L40,69 L36,76 L-0.5,78.5 C-7.16666667,73.8333333 -10.6666667,70.1666667 -11,67.5 C-11.5,63.5 -13,52.5 -8.5,49.5 C-5.5,47.5 -1.66666667,41.8333333 3,32.5 Z" fill="#E8C7A5" mask="url(#mask-21)"></path>
                    </g>
                    <g id="Path-4">
                        <use fill="black" fill-opacity="1" filter="url(#filter-23)" xlink:href="#path-22"></use>
                        <use fill="#FCF2D0" fill-rule="evenodd" xlink:href="#path-22"></use>
                    </g>
                    <path d="M242,12.7063074 C221.501708,12.808315 203.168374,14.2395458 187,17 C146,24 113.286764,39.8864089 123.087208,64.4231112 C140.5,108.018326 310.107338,104.714599 344.145051,55.3489497 C359,33.8044879 327.121984,12.5161085 274.5,3.9929048 C249.833333,-0.00236506764 221.666667,-0.00236506764 190,3.9929048" id="Path-13" stroke="#BAE3F6" stroke-width="4.69999981" stroke-linecap="round" stroke-linejoin="round"></path>
                    <path d="M176.263989,37.6920074 L175.523989,43.7020074 L173.663989,43.7020074 L175.413989,29.3720074 L179.183989,29.3720074 C179.943993,29.3720074 180.60232,29.4520066 181.158989,29.6120074 C181.715659,29.7720082 182.175654,30.0003393 182.538989,30.2970074 C182.902324,30.5936756 183.172322,30.953672 183.348989,31.3770074 C183.525657,31.8003429 183.613989,32.2720048 183.613989,32.7920074 C183.613989,33.3720103 183.527323,33.9120049 183.353989,34.4120074 C183.180655,34.9120099 182.930657,35.3603388 182.603989,35.7570074 C182.277321,36.1536761 181.883991,36.4903394 181.423989,36.7670074 C180.963987,37.0436755 180.443992,37.2486734 179.863989,37.3820074 C180.077324,37.5286748 180.253988,37.7286728 180.393989,37.9820074 L183.483989,43.7020074 L181.823989,43.7020074 C181.497321,43.7020074 181.26399,43.5686754 181.123989,43.3020074 L178.423989,38.1420074 C178.337322,37.9753399 178.237323,37.8586744 178.123989,37.7920074 C178.010655,37.7253404 177.830657,37.6920074 177.583989,37.6920074 L176.263989,37.6920074 Z M177.113989,30.8420074 L176.433989,36.3320074 L178.263989,36.3320074 C178.830659,36.3320074 179.330654,36.2520082 179.763989,36.0920074 C180.197325,35.9320066 180.562321,35.7070089 180.858989,35.4170074 C181.155657,35.127006 181.378988,34.7836761 181.528989,34.3870074 C181.67899,33.9903388 181.753989,33.5553431 181.753989,33.0820074 C181.753989,32.3553371 181.525658,31.8003427 181.068989,31.4170074 C180.61232,31.0336722 179.927327,30.8420074 179.013989,30.8420074 L177.113989,30.8420074 Z M193.213989,35.7420074 C193.213989,36.1820096 193.12399,36.5870056 192.943989,36.9570074 C192.763988,37.3270093 192.433992,37.6603393 191.953989,37.9570074 C191.473987,38.2536756 190.813993,38.5120063 189.973989,38.7320074 C189.133985,38.9520085 188.053996,39.1286734 186.733989,39.2620074 C186.727322,39.3353411 186.723989,39.4070071 186.723989,39.4770074 L186.723989,39.6920074 C186.723989,40.5853452 186.918987,41.2670051 187.308989,41.7370074 C187.698991,42.2070098 188.287319,42.4420074 189.073989,42.4420074 C189.393991,42.4420074 189.678988,42.4086744 189.928989,42.3420074 C190.17899,42.2753404 190.402321,42.1936746 190.598989,42.0970074 C190.795657,42.0003403 190.968988,41.8936747 191.118989,41.7770074 C191.26899,41.6603402 191.407322,41.5536746 191.533989,41.4570074 C191.660656,41.3603403 191.777322,41.2786744 191.883989,41.2120074 C191.990656,41.1453404 192.097322,41.1120074 192.203989,41.1120074 C192.32399,41.1120074 192.433989,41.1686735 192.533989,41.2820074 L192.973989,41.8320074 C192.633987,42.1853425 192.302324,42.4870062 191.978989,42.7370074 C191.655654,42.9870087 191.323991,43.1953399 190.983989,43.3620074 C190.643987,43.5286749 190.288991,43.6503404 189.918989,43.7270074 C189.548987,43.8036745 189.150658,43.8420074 188.723989,43.8420074 C188.143986,43.8420074 187.623991,43.7453417 187.163989,43.5520074 C186.703987,43.3586731 186.313991,43.0836759 185.993989,42.7270074 C185.673988,42.370339 185.427323,41.9386766 185.253989,41.4320074 C185.080655,40.9253382 184.993989,40.3586772 184.993989,39.7320074 C184.993989,39.2120048 185.048989,38.6936767 185.158989,38.1770074 C185.26899,37.6603382 185.428988,37.1686764 185.638989,36.7020074 C185.84899,36.2353384 186.105654,35.8020094 186.408989,35.4020074 C186.712324,35.0020054 187.058987,34.6570089 187.448989,34.3670074 C187.838991,34.077006 188.268987,33.8486749 188.738989,33.6820074 C189.208991,33.5153399 189.713986,33.4320074 190.253989,33.4320074 C190.767325,33.4320074 191.210654,33.50534 191.583989,33.6520074 C191.957324,33.7986748 192.263988,33.9853396 192.503989,34.2120074 C192.74399,34.4386752 192.922322,34.6886727 193.038989,34.9620074 C193.155656,35.2353421 193.213989,35.4953395 193.213989,35.7420074 Z M190.153989,34.7120074 C189.733987,34.7120074 189.347324,34.7986732 188.993989,34.9720074 C188.640654,35.1453416 188.327324,35.3836726 188.053989,35.6870074 C187.780654,35.9903423 187.547323,36.3470054 187.353989,36.7570074 C187.160655,37.1670095 187.010656,37.6086717 186.903989,38.0820074 C187.930661,37.9553401 188.753986,37.8103416 189.373989,37.6470074 C189.993992,37.4836733 190.470654,37.3070084 190.803989,37.1170074 C191.137324,36.9270065 191.357322,36.7220085 191.463989,36.5020074 C191.570656,36.2820063 191.623989,36.0520086 191.623989,35.8120074 C191.623989,35.6920068 191.597323,35.5670081 191.543989,35.4370074 C191.490656,35.3070068 191.405656,35.1886746 191.288989,35.0820074 C191.172322,34.9753402 191.020657,34.8870078 190.833989,34.8170074 C190.647322,34.7470071 190.420657,34.7120074 190.153989,34.7120074 Z M201.783989,43.7020074 L200.863989,43.7020074 C200.630655,43.7020074 200.472323,43.642008 200.388989,43.5220074 C200.305655,43.4020068 200.263989,43.2553416 200.263989,43.0820074 L200.443989,41.0320074 C200.203988,41.4586762 199.945657,41.845339 199.668989,42.1920074 C199.392321,42.5386758 199.098991,42.8336729 198.788989,43.0770074 C198.478988,43.320342 198.153991,43.5086734 197.813989,43.6420074 C197.473987,43.7753414 197.120658,43.8420074 196.753989,43.8420074 C196.353987,43.8420074 195.990657,43.7636749 195.663989,43.6070074 C195.337321,43.45034 195.05899,43.2203423 194.828989,42.9170074 C194.598988,42.6136726 194.420656,42.240343 194.293989,41.7970074 C194.167322,41.3536719 194.103989,40.8453436 194.103989,40.2720074 C194.103989,39.6720044 194.178988,39.0870103 194.328989,38.5170074 C194.47899,37.9470046 194.692321,37.4086766 194.968989,36.9020074 C195.245657,36.3953382 195.577321,35.9303429 195.963989,35.5070074 C196.350658,35.083672 196.78232,34.717009 197.258989,34.4070074 C197.735658,34.0970059 198.24732,33.8570083 198.793989,33.6870074 C199.340659,33.5170066 199.913986,33.4320074 200.513989,33.4320074 C200.947325,33.4320074 201.368987,33.4670071 201.778989,33.5370074 C202.188991,33.6070078 202.593987,33.7286732 202.993989,33.9020074 L201.783989,43.7020074 Z M197.423989,42.3620074 C197.750657,42.3620074 198.070654,42.2603418 198.383989,42.0570074 C198.697324,41.8536731 198.993988,41.5720092 199.273989,41.2120074 C199.553991,40.8520056 199.815655,40.4236766 200.058989,39.9270074 C200.302324,39.4303383 200.517322,38.8853437 200.703989,38.2920074 L201.133989,34.8120074 C200.987322,34.7786739 200.842323,34.7570075 200.698989,34.7470074 C200.555655,34.7370074 200.41399,34.7320074 200.273989,34.7320074 C199.873987,34.7320074 199.487324,34.7970068 199.113989,34.9270074 C198.740654,35.0570081 198.390657,35.2386729 198.063989,35.4720074 C197.737321,35.7053419 197.440657,35.9836725 197.173989,36.3070074 C196.907321,36.6303424 196.67899,36.9853388 196.488989,37.3720074 C196.298988,37.758676 196.150656,38.1703386 196.043989,38.6070074 C195.937322,39.0436763 195.883989,39.4920051 195.883989,39.9520074 C195.883989,41.5586821 196.397317,42.3620074 197.423989,42.3620074 Z M211.283989,43.7020074 C211.050655,43.7020074 210.892323,43.642008 210.808989,43.5220074 C210.725655,43.4020068 210.683989,43.2553416 210.683989,43.0820074 L210.873989,40.9720074 C210.620655,41.4053429 210.343991,41.7986723 210.043989,42.1520074 C209.743988,42.5053425 209.428991,42.8070062 209.098989,43.0570074 C208.768987,43.3070087 208.425658,43.5003401 208.068989,43.6370074 C207.712321,43.7736748 207.350658,43.8420074 206.983989,43.8420074 C206.117318,43.8420074 205.445658,43.5270106 204.968989,42.8970074 C204.49232,42.2670043 204.253989,41.3520134 204.253989,40.1520074 C204.253989,39.605338 204.310655,39.0586768 204.423989,38.5120074 C204.537323,37.965338 204.698988,37.4420099 204.908989,36.9420074 C205.11899,36.4420049 205.372321,35.9770096 205.668989,35.5470074 C205.965657,35.1170053 206.295654,34.7453423 206.658989,34.4320074 C207.022324,34.1186725 207.41732,33.8720083 207.843989,33.6920074 C208.270658,33.5120065 208.71732,33.4220074 209.183989,33.4220074 C209.677325,33.4220074 210.128987,33.5186731 210.538989,33.7120074 C210.948991,33.9053417 211.297321,34.1820056 211.583989,34.5420074 L212.273989,28.9720074 L214.023989,28.9720074 L212.203989,43.7020074 L211.283989,43.7020074 Z M207.653989,42.4120074 C207.973991,42.4120074 208.295654,42.3136751 208.618989,42.1170074 C208.942324,41.9203398 209.255654,41.6470092 209.558989,41.2970074 C209.862324,40.9470057 210.145654,40.5303432 210.408989,40.0470074 C210.672324,39.5636717 210.900655,39.0353436 211.093989,38.4620074 L211.423989,35.7820074 C211.170655,35.4286723 210.867324,35.1786748 210.513989,35.0320074 C210.160654,34.88534 209.803991,34.8120074 209.443989,34.8120074 C208.91732,34.8120074 208.442325,34.9686725 208.018989,35.2820074 C207.595654,35.5953423 207.235657,36.0003383 206.938989,36.4970074 C206.642321,36.9936766 206.41399,37.548671 206.253989,38.1620074 C206.093988,38.7753438 206.013989,39.3786711 206.013989,39.9720074 C206.013989,40.7653447 206.157321,41.3703387 206.443989,41.7870074 C206.730657,42.2036762 207.133987,42.4120074 207.653989,42.4120074 Z M218.913989,33.5720074 L220.243989,33.5720074 C220.377323,33.5720074 220.485655,33.6053404 220.568989,33.6720074 C220.652323,33.7386744 220.700656,33.8286735 220.713989,33.9420074 L221.643989,40.4620074 C221.677323,40.6953419 221.695656,40.9203397 221.698989,41.1370074 C221.702322,41.3536752 221.707322,41.568673 221.713989,41.7820074 C221.79399,41.568673 221.875655,41.3536752 221.958989,41.1370074 C222.042323,40.9203397 222.130655,40.6953419 222.223989,40.4620074 L224.993989,33.9020074 C225.033989,33.8020069 225.098989,33.7186744 225.188989,33.6520074 C225.27899,33.5853404 225.380655,33.5520074 225.493989,33.5520074 L226.233989,33.5520074 C226.367323,33.5520074 226.470655,33.5853404 226.543989,33.6520074 C226.617323,33.7186744 226.660656,33.8020069 226.673989,33.9020074 L227.803989,40.4620074 C227.843989,40.6953419 227.875656,40.9220063 227.898989,41.1420074 C227.922323,41.3620085 227.943989,41.5820063 227.963989,41.8020074 C228.030656,41.588673 228.095655,41.3703419 228.158989,41.1470074 C228.222323,40.923673 228.300655,40.6953419 228.393989,40.4620074 L230.953989,33.9420074 C230.993989,33.8353402 231.060655,33.7470078 231.153989,33.6770074 C231.247323,33.6070071 231.353989,33.5720074 231.473989,33.5720074 L232.753989,33.5720074 L228.503989,43.7020074 L227.153989,43.7020074 C227.000655,43.7020074 226.903989,43.5886752 226.863989,43.3620074 L225.633989,36.4920074 C225.613989,36.3853402 225.597323,36.277008 225.583989,36.1670074 C225.570656,36.0570069 225.557323,35.9486746 225.543989,35.8420074 C225.510656,35.9553413 225.477323,36.0653402 225.443989,36.1720074 C225.410656,36.2786746 225.370656,36.3886735 225.323989,36.5020074 L222.393989,43.3620074 C222.300655,43.5886752 222.167323,43.7020074 221.993989,43.7020074 L220.693989,43.7020074 L218.913989,33.5720074 Z M233.083989,43.7020074 L234.863989,28.9720074 L236.643989,28.9720074 L235.813989,35.8120074 C236.340658,35.0253368 236.925653,34.4303428 237.568989,34.0270074 C238.212326,33.6236721 238.870652,33.4220074 239.543989,33.4220074 C240.31066,33.4220074 240.900654,33.6753382 241.313989,34.1820074 C241.727325,34.6886766 241.933989,35.4253359 241.933989,36.3920074 C241.933989,36.5253414 241.930656,36.6636734 241.923989,36.8070074 C241.917322,36.9503415 241.903989,37.0986733 241.883989,37.2520074 L241.123989,43.7020074 L239.343989,43.7020074 L240.103989,37.2520074 C240.117323,37.1186734 240.128989,36.9903414 240.138989,36.8670074 C240.148989,36.7436735 240.153989,36.6253413 240.153989,36.5120074 C240.153989,35.965338 240.052323,35.5586754 239.848989,35.2920074 C239.645655,35.0253394 239.323991,34.8920074 238.883989,34.8920074 C238.583988,34.8920074 238.275657,34.9736733 237.958989,35.1370074 C237.642321,35.3003416 237.333991,35.5320059 237.033989,35.8320074 C236.733988,36.1320089 236.45399,36.493672 236.193989,36.9170074 C235.933988,37.3403429 235.707323,37.8120048 235.513989,38.3320074 L234.863989,43.7020074 L233.083989,43.7020074 Z M251.053989,43.7020074 L250.133989,43.7020074 C249.900655,43.7020074 249.742323,43.642008 249.658989,43.5220074 C249.575655,43.4020068 249.533989,43.2553416 249.533989,43.0820074 L249.713989,41.0320074 C249.473988,41.4586762 249.215657,41.845339 248.938989,42.1920074 C248.662321,42.5386758 248.368991,42.8336729 248.058989,43.0770074 C247.748988,43.320342 247.423991,43.5086734 247.083989,43.6420074 C246.743987,43.7753414 246.390658,43.8420074 246.023989,43.8420074 C245.623987,43.8420074 245.260657,43.7636749 244.933989,43.6070074 C244.607321,43.45034 244.32899,43.2203423 244.098989,42.9170074 C243.868988,42.6136726 243.690656,42.240343 243.563989,41.7970074 C243.437322,41.3536719 243.373989,40.8453436 243.373989,40.2720074 C243.373989,39.6720044 243.448988,39.0870103 243.598989,38.5170074 C243.74899,37.9470046 243.962321,37.4086766 244.238989,36.9020074 C244.515657,36.3953382 244.847321,35.9303429 245.233989,35.5070074 C245.620658,35.083672 246.05232,34.717009 246.528989,34.4070074 C247.005658,34.0970059 247.51732,33.8570083 248.063989,33.6870074 C248.610659,33.5170066 249.183986,33.4320074 249.783989,33.4320074 C250.217325,33.4320074 250.638987,33.4670071 251.048989,33.5370074 C251.458991,33.6070078 251.863987,33.7286732 252.263989,33.9020074 L251.053989,43.7020074 Z M246.693989,42.3620074 C247.020657,42.3620074 247.340654,42.2603418 247.653989,42.0570074 C247.967324,41.8536731 248.263988,41.5720092 248.543989,41.2120074 C248.823991,40.8520056 249.085655,40.4236766 249.328989,39.9270074 C249.572324,39.4303383 249.787322,38.8853437 249.973989,38.2920074 L250.403989,34.8120074 C250.257322,34.7786739 250.112323,34.7570075 249.968989,34.7470074 C249.825655,34.7370074 249.68399,34.7320074 249.543989,34.7320074 C249.143987,34.7320074 248.757324,34.7970068 248.383989,34.9270074 C248.010654,35.0570081 247.660657,35.2386729 247.333989,35.4720074 C247.007321,35.7053419 246.710657,35.9836725 246.443989,36.3070074 C246.177321,36.6303424 245.94899,36.9853388 245.758989,37.3720074 C245.568988,37.758676 245.420656,38.1703386 245.313989,38.6070074 C245.207322,39.0436763 245.153989,39.4920051 245.153989,39.9520074 C245.153989,41.5586821 245.667317,42.3620074 246.693989,42.3620074 Z M254.583989,41.7920074 C254.583989,41.7520072 254.585656,41.7003411 254.588989,41.6370074 C254.592322,41.5736738 254.598989,41.482008 254.608989,41.3620074 C254.618989,41.2420068 254.633989,41.0853417 254.653989,40.8920074 C254.673989,40.6986731 254.703989,40.4453423 254.743989,40.1320074 L255.373989,35.0620074 L254.243989,35.0620074 C254.157322,35.0620074 254.085656,35.0370077 254.028989,34.9870074 C253.972322,34.9370072 253.943989,34.8586746 253.943989,34.7520074 C253.943989,34.7320073 253.947322,34.6920077 253.953989,34.6320074 C253.960656,34.5720071 253.968989,34.5036745 253.978989,34.4270074 C253.988989,34.3503404 253.998989,34.2720078 254.008989,34.1920074 C254.018989,34.112007 254.027322,34.0353411 254.033989,33.9620074 L255.593989,33.7520074 L256.343989,30.6220074 C256.370656,30.5220069 256.420655,30.4403411 256.493989,30.3770074 C256.567323,30.3136738 256.657322,30.2820074 256.763989,30.2820074 L257.703989,30.2820074 L257.263989,33.7720074 L259.923989,33.7720074 L259.773989,35.0620074 L257.103989,35.0620074 L256.493989,40.0420074 C256.460656,40.3153421 256.435656,40.5353399 256.418989,40.7020074 L256.378989,41.1020074 C256.368989,41.2020079 256.362322,41.2720072 256.358989,41.3120074 C256.355656,41.3520076 256.353989,41.3820073 256.353989,41.4020074 C256.353989,41.7420091 256.432322,41.9936733 256.588989,42.1570074 C256.745657,42.3203416 256.960654,42.4020074 257.233989,42.4020074 C257.407323,42.4020074 257.560655,42.3770077 257.693989,42.3270074 C257.827323,42.2770072 257.942322,42.2220077 258.038989,42.1620074 C258.135656,42.1020071 258.217322,42.0470077 258.283989,41.9970074 C258.350656,41.9470072 258.410656,41.9220074 258.463989,41.9220074 C258.517323,41.9220074 258.558989,41.9353406 258.588989,41.9620074 C258.618989,41.9886742 258.650656,42.0320071 258.683989,42.0920074 L259.053989,42.9420074 C258.733988,43.2286755 258.365658,43.4536733 257.948989,43.6170074 C257.53232,43.7803416 257.113991,43.8620074 256.693989,43.8620074 C256.047319,43.8620074 255.537324,43.6853425 255.163989,43.3320074 C254.790654,42.9786723 254.597323,42.4653441 254.583989,41.7920074 Z M265.293989,41.7920074 C265.293989,41.7520072 265.295656,41.7003411 265.298989,41.6370074 C265.302322,41.5736738 265.308989,41.482008 265.318989,41.3620074 C265.328989,41.2420068 265.343989,41.0853417 265.363989,40.8920074 C265.383989,40.6986731 265.413989,40.4453423 265.453989,40.1320074 L266.083989,35.0620074 L264.953989,35.0620074 C264.867322,35.0620074 264.795656,35.0370077 264.738989,34.9870074 C264.682322,34.9370072 264.653989,34.8586746 264.653989,34.7520074 C264.653989,34.7320073 264.657322,34.6920077 264.663989,34.6320074 C264.670656,34.5720071 264.678989,34.5036745 264.688989,34.4270074 C264.698989,34.3503404 264.708989,34.2720078 264.718989,34.1920074 C264.728989,34.112007 264.737322,34.0353411 264.743989,33.9620074 L266.303989,33.7520074 L267.053989,30.6220074 C267.080656,30.5220069 267.130655,30.4403411 267.203989,30.3770074 C267.277323,30.3136738 267.367322,30.2820074 267.473989,30.2820074 L268.413989,30.2820074 L267.973989,33.7720074 L270.633989,33.7720074 L270.483989,35.0620074 L267.813989,35.0620074 L267.203989,40.0420074 C267.170656,40.3153421 267.145656,40.5353399 267.128989,40.7020074 L267.088989,41.1020074 C267.078989,41.2020079 267.072322,41.2720072 267.068989,41.3120074 C267.065656,41.3520076 267.063989,41.3820073 267.063989,41.4020074 C267.063989,41.7420091 267.142322,41.9936733 267.298989,42.1570074 C267.455657,42.3203416 267.670654,42.4020074 267.943989,42.4020074 C268.117323,42.4020074 268.270655,42.3770077 268.403989,42.3270074 C268.537323,42.2770072 268.652322,42.2220077 268.748989,42.1620074 C268.845656,42.1020071 268.927322,42.0470077 268.993989,41.9970074 C269.060656,41.9470072 269.120656,41.9220074 269.173989,41.9220074 C269.227323,41.9220074 269.268989,41.9353406 269.298989,41.9620074 C269.328989,41.9886742 269.360656,42.0320071 269.393989,42.0920074 L269.763989,42.9420074 C269.443988,43.2286755 269.075658,43.4536733 268.658989,43.6170074 C268.24232,43.7803416 267.823991,43.8620074 267.403989,43.8620074 C266.757319,43.8620074 266.247324,43.6853425 265.873989,43.3320074 C265.500654,42.9786723 265.307323,42.4653441 265.293989,41.7920074 Z M271.343989,43.7020074 L273.123989,28.9720074 L274.903989,28.9720074 L274.073989,35.8120074 C274.600658,35.0253368 275.185653,34.4303428 275.828989,34.0270074 C276.472326,33.6236721 277.130652,33.4220074 277.803989,33.4220074 C278.57066,33.4220074 279.160654,33.6753382 279.573989,34.1820074 C279.987325,34.6886766 280.193989,35.4253359 280.193989,36.3920074 C280.193989,36.5253414 280.190656,36.6636734 280.183989,36.8070074 C280.177322,36.9503415 280.163989,37.0986733 280.143989,37.2520074 L279.383989,43.7020074 L277.603989,43.7020074 L278.363989,37.2520074 C278.377323,37.1186734 278.388989,36.9903414 278.398989,36.8670074 C278.408989,36.7436735 278.413989,36.6253413 278.413989,36.5120074 C278.413989,35.965338 278.312323,35.5586754 278.108989,35.2920074 C277.905655,35.0253394 277.583991,34.8920074 277.143989,34.8920074 C276.843988,34.8920074 276.535657,34.9736733 276.218989,35.1370074 C275.902321,35.3003416 275.593991,35.5320059 275.293989,35.8320074 C274.993988,36.1320089 274.71399,36.493672 274.453989,36.9170074 C274.193988,37.3403429 273.967323,37.8120048 273.773989,38.3320074 L273.123989,43.7020074 L271.343989,43.7020074 Z M289.963989,35.7420074 C289.963989,36.1820096 289.87399,36.5870056 289.693989,36.9570074 C289.513988,37.3270093 289.183992,37.6603393 288.703989,37.9570074 C288.223987,38.2536756 287.563993,38.5120063 286.723989,38.7320074 C285.883985,38.9520085 284.803996,39.1286734 283.483989,39.2620074 C283.477322,39.3353411 283.473989,39.4070071 283.473989,39.4770074 L283.473989,39.6920074 C283.473989,40.5853452 283.668987,41.2670051 284.058989,41.7370074 C284.448991,42.2070098 285.037319,42.4420074 285.823989,42.4420074 C286.143991,42.4420074 286.428988,42.4086744 286.678989,42.3420074 C286.92899,42.2753404 287.152321,42.1936746 287.348989,42.0970074 C287.545657,42.0003403 287.718988,41.8936747 287.868989,41.7770074 C288.01899,41.6603402 288.157322,41.5536746 288.283989,41.4570074 C288.410656,41.3603403 288.527322,41.2786744 288.633989,41.2120074 C288.740656,41.1453404 288.847322,41.1120074 288.953989,41.1120074 C289.07399,41.1120074 289.183989,41.1686735 289.283989,41.2820074 L289.723989,41.8320074 C289.383987,42.1853425 289.052324,42.4870062 288.728989,42.7370074 C288.405654,42.9870087 288.073991,43.1953399 287.733989,43.3620074 C287.393987,43.5286749 287.038991,43.6503404 286.668989,43.7270074 C286.298987,43.8036745 285.900658,43.8420074 285.473989,43.8420074 C284.893986,43.8420074 284.373991,43.7453417 283.913989,43.5520074 C283.453987,43.3586731 283.063991,43.0836759 282.743989,42.7270074 C282.423988,42.370339 282.177323,41.9386766 282.003989,41.4320074 C281.830655,40.9253382 281.743989,40.3586772 281.743989,39.7320074 C281.743989,39.2120048 281.798989,38.6936767 281.908989,38.1770074 C282.01899,37.6603382 282.178988,37.1686764 282.388989,36.7020074 C282.59899,36.2353384 282.855654,35.8020094 283.158989,35.4020074 C283.462324,35.0020054 283.808987,34.6570089 284.198989,34.3670074 C284.588991,34.077006 285.018987,33.8486749 285.488989,33.6820074 C285.958991,33.5153399 286.463986,33.4320074 287.003989,33.4320074 C287.517325,33.4320074 287.960654,33.50534 288.333989,33.6520074 C288.707324,33.7986748 289.013988,33.9853396 289.253989,34.2120074 C289.49399,34.4386752 289.672322,34.6886727 289.788989,34.9620074 C289.905656,35.2353421 289.963989,35.4953395 289.963989,35.7420074 Z M286.903989,34.7120074 C286.483987,34.7120074 286.097324,34.7986732 285.743989,34.9720074 C285.390654,35.1453416 285.077324,35.3836726 284.803989,35.6870074 C284.530654,35.9903423 284.297323,36.3470054 284.103989,36.7570074 C283.910655,37.1670095 283.760656,37.6086717 283.653989,38.0820074 C284.680661,37.9553401 285.503986,37.8103416 286.123989,37.6470074 C286.743992,37.4836733 287.220654,37.3070084 287.553989,37.1170074 C287.887324,36.9270065 288.107322,36.7220085 288.213989,36.5020074 C288.320656,36.2820063 288.373989,36.0520086 288.373989,35.8120074 C288.373989,35.6920068 288.347323,35.5670081 288.293989,35.4370074 C288.240656,35.3070068 288.155656,35.1886746 288.038989,35.0820074 C287.922322,34.9753402 287.770657,34.8870078 287.583989,34.8170074 C287.397322,34.7470071 287.170657,34.7120074 286.903989,34.7120074 Z M167.863989,70.0520074 L169.523989,56.4320074 L170.773989,56.4320074 C171.000657,56.4320074 171.193988,56.4803403 171.353989,56.5770074 C171.51399,56.6736746 171.593989,56.8320063 171.593989,57.0520074 L171.593989,57.0820074 C171.593989,57.1020075 171.590656,57.1636736 171.583989,57.2670074 C171.577322,57.3703413 171.570656,57.533673 171.563989,57.7570074 C171.557322,57.9803419 171.543989,58.2953387 171.523989,58.7020074 C172.017325,57.9620037 172.575653,57.3736763 173.198989,56.9370074 C173.822326,56.5003386 174.480652,56.2820074 175.173989,56.2820074 C175.600658,56.2820074 175.988987,56.36034 176.338989,56.5170074 C176.688991,56.6736749 176.987321,56.9086725 177.233989,57.2220074 C177.480657,57.5353423 177.670655,57.932005 177.803989,58.4120074 C177.937323,58.8920098 178.003989,59.4553375 178.003989,60.1020074 C178.003989,60.6820103 177.94399,61.2520046 177.823989,61.8120074 C177.703989,62.3720102 177.53399,62.9020049 177.313989,63.4020074 C177.093988,63.9020099 176.832324,64.3620053 176.528989,64.7820074 C176.225654,65.2020095 175.887324,65.5653392 175.513989,65.8720074 C175.140654,66.1786756 174.742325,66.4186732 174.318989,66.5920074 C173.895654,66.7653416 173.457325,66.8520074 173.003989,66.8520074 C172.543987,66.8520074 172.125658,66.7703416 171.748989,66.6070074 C171.372321,66.4436733 171.047324,66.2153422 170.773989,65.9220074 L170.263989,70.0520074 L167.863989,70.0520074 Z M174.213989,58.2220074 C173.940654,58.2220074 173.663991,58.3136732 173.383989,58.4970074 C173.103988,58.6803417 172.83399,58.9336725 172.573989,59.2570074 C172.313988,59.5803424 172.072324,59.9620052 171.848989,60.4020074 C171.625655,60.8420096 171.43399,61.3153382 171.273989,61.8220074 L170.973989,64.3120074 C171.200657,64.5520086 171.458988,64.7220069 171.748989,64.8220074 C172.038991,64.9220079 172.327321,64.9720074 172.613989,64.9720074 C173.053991,64.9720074 173.453987,64.8353421 173.813989,64.5620074 C174.173991,64.2886727 174.482321,63.9320096 174.738989,63.4920074 C174.995657,63.0520052 175.193988,62.5570102 175.333989,62.0070074 C175.47399,61.4570047 175.543989,60.9053435 175.543989,60.3520074 C175.543989,59.6320038 175.427324,59.0970092 175.193989,58.7470074 C174.960655,58.3970057 174.633991,58.2220074 174.213989,58.2220074 Z M178.873989,66.7020074 L180.123989,56.4320074 L181.373989,56.4320074 C181.61399,56.4320074 181.810655,56.4853402 181.963989,56.5920074 C182.117323,56.6986746 182.193989,56.8686729 182.193989,57.1020074 L182.193989,57.1370074 C182.193989,57.1603409 182.190656,57.2286735 182.183989,57.3420074 C182.177322,57.4553413 182.170656,57.6336729 182.163989,57.8770074 C182.157322,58.120342 182.143989,58.4620052 182.123989,58.9020074 C182.543991,58.0953367 183.003987,57.4720096 183.503989,57.0320074 C184.003992,56.5920052 184.523986,56.3720074 185.063989,56.3720074 C185.337324,56.3720074 185.613988,56.4320068 185.893989,56.5520074 L185.443989,58.9120074 C185.110654,58.7720067 184.793991,58.7020074 184.493989,58.7020074 C183.900653,58.7020074 183.380658,58.9853379 182.933989,59.5520074 C182.48732,60.1186769 182.120657,61.0053347 181.833989,62.2120074 L181.293989,66.7020074 L178.873989,66.7020074 Z M194.803989,58.8220074 C194.803989,59.2820097 194.712323,59.7020055 194.528989,60.0820074 C194.345655,60.4620093 194.017325,60.8020059 193.543989,61.1020074 C193.070653,61.4020089 192.428993,61.6603397 191.618989,61.8770074 C190.808985,62.0936752 189.777329,62.2653401 188.523989,62.3920074 L188.523989,62.5220074 C188.523989,64.1353488 189.207316,64.9420074 190.573989,64.9420074 C190.867324,64.9420074 191.127321,64.9136744 191.353989,64.8570074 C191.580657,64.8003405 191.778988,64.7320078 191.948989,64.6520074 C192.11899,64.572007 192.272322,64.4820079 192.408989,64.3820074 C192.545656,64.2820069 192.672322,64.1920078 192.788989,64.1120074 C192.905656,64.032007 193.020655,63.9636744 193.133989,63.9070074 C193.247323,63.8503405 193.370655,63.8220074 193.503989,63.8220074 C193.58399,63.8220074 193.663989,63.8403406 193.743989,63.8770074 C193.82399,63.9136743 193.890656,63.9686737 193.943989,64.0420074 L194.573989,64.8020074 C194.220654,65.1553425 193.873991,65.4620061 193.533989,65.7220074 C193.193987,65.9820087 192.847324,66.1953399 192.493989,66.3620074 C192.140654,66.5286749 191.767324,66.652007 191.373989,66.7320074 C190.980654,66.8120078 190.550658,66.8520074 190.083989,66.8520074 C189.483986,66.8520074 188.940658,66.7503418 188.453989,66.5470074 C187.96732,66.3436731 187.550658,66.0570093 187.203989,65.6870074 C186.857321,65.3170056 186.58899,64.8703434 186.398989,64.3470074 C186.208988,63.8236715 186.113989,63.2386773 186.113989,62.5920074 C186.113989,62.0520047 186.172322,61.52201 186.288989,61.0020074 C186.405656,60.4820048 186.573988,59.9886764 186.793989,59.5220074 C187.01399,59.0553384 187.283988,58.6253427 187.603989,58.2320074 C187.923991,57.8386721 188.285654,57.4986755 188.688989,57.2120074 C189.092324,56.9253393 189.535653,56.7020082 190.018989,56.5420074 C190.502325,56.3820066 191.020653,56.3020074 191.573989,56.3020074 C192.113992,56.3020074 192.585654,56.3786733 192.988989,56.5320074 C193.392324,56.6853415 193.728988,56.8836729 193.998989,57.1270074 C194.26899,57.370342 194.470655,57.6420059 194.603989,57.9420074 C194.737323,58.2420089 194.803989,58.5353393 194.803989,58.8220074 Z M191.433989,58.0220074 C191.100654,58.0220074 190.790657,58.0903401 190.503989,58.2270074 C190.217321,58.3636748 189.95899,58.5553395 189.728989,58.8020074 C189.498988,59.0486753 189.29899,59.3436724 189.128989,59.6870074 C188.958988,60.0303425 188.82399,60.4053387 188.723989,60.8120074 C189.55066,60.6986735 190.215653,60.5753414 190.718989,60.4420074 C191.222325,60.3086734 191.612321,60.1620082 191.888989,60.0020074 C192.165657,59.8420066 192.348989,59.6720083 192.438989,59.4920074 C192.52899,59.3120065 192.573989,59.1186751 192.573989,58.9120074 C192.573989,58.8120069 192.552323,58.7086746 192.508989,58.6020074 C192.465656,58.4953402 192.39899,58.4003412 192.308989,58.3170074 C192.218989,58.2336737 192.102323,58.1636744 191.958989,58.1070074 C191.815655,58.0503405 191.640657,58.0220074 191.433989,58.0220074 Z M202.413989,58.3720074 C202.340655,58.4786746 202.270656,58.5536739 202.203989,58.5970074 C202.137322,58.640341 202.050656,58.6620074 201.943989,58.6620074 C201.830655,58.6620074 201.71399,58.6286744 201.593989,58.5620074 C201.473989,58.4953404 201.335657,58.4203412 201.178989,58.3370074 C201.022322,58.2536737 200.842323,58.1786744 200.638989,58.1120074 C200.435655,58.0453404 200.190657,58.0120074 199.903989,58.0120074 C199.37732,58.0120074 198.973991,58.1303396 198.693989,58.3670074 C198.413988,58.6036753 198.273989,58.8986723 198.273989,59.2520074 C198.273989,59.4586751 198.332322,59.6336734 198.448989,59.7770074 C198.565656,59.9203415 198.717322,60.0453402 198.903989,60.1520074 C199.090657,60.2586746 199.303988,60.357007 199.543989,60.4470074 C199.78399,60.5370079 200.030655,60.6336736 200.283989,60.7370074 C200.537324,60.8403413 200.783988,60.9570068 201.023989,61.0870074 C201.26399,61.2170081 201.477322,61.3753398 201.663989,61.5620074 C201.850657,61.748675 202.002322,61.9736728 202.118989,62.2370074 C202.235656,62.5003421 202.293989,62.8153389 202.293989,63.1820074 C202.293989,63.6753432 202.195657,64.1453385 201.998989,64.5920074 C201.802321,65.0386763 201.520658,65.4303391 201.153989,65.7670074 C200.787321,66.1036758 200.343992,66.3703398 199.823989,66.5670074 C199.303987,66.7636751 198.723992,66.8620074 198.083989,66.8620074 C197.757321,66.8620074 197.442324,66.8303411 197.138989,66.7670074 C196.835654,66.7036738 196.550657,66.6153413 196.283989,66.5020074 C196.017321,66.3886735 195.775657,66.2553415 195.558989,66.1020074 C195.342321,65.9486733 195.157323,65.7820083 195.003989,65.6020074 L195.603989,64.6620074 C195.677323,64.5486735 195.765655,64.4620077 195.868989,64.4020074 C195.972323,64.3420071 196.093988,64.3120074 196.233989,64.3120074 C196.37399,64.3120074 196.500655,64.3553403 196.613989,64.4420074 C196.727323,64.5286745 196.860655,64.6236736 197.013989,64.7270074 C197.167323,64.8303413 197.352321,64.9253403 197.568989,65.0120074 C197.785657,65.0986745 198.063987,65.1420074 198.403989,65.1420074 C198.677324,65.1420074 198.918988,65.1053411 199.128989,65.0320074 C199.33899,64.9586737 199.515655,64.8586747 199.658989,64.7320074 C199.802323,64.6053401 199.910655,64.4586749 199.983989,64.2920074 C200.057323,64.1253399 200.093989,63.948675 200.093989,63.7620074 C200.093989,63.5353396 200.037323,63.3470082 199.923989,63.1970074 C199.810655,63.0470067 199.65899,62.917008 199.468989,62.8070074 C199.278988,62.6970069 199.06399,62.6003412 198.823989,62.5170074 C198.583988,62.4336737 198.33899,62.3453412 198.088989,62.2520074 C197.838988,62.1586736 197.595657,62.052008 197.358989,61.9320074 C197.122321,61.8120068 196.90899,61.6603417 196.718989,61.4770074 C196.528988,61.2936732 196.377323,61.0703421 196.263989,60.8070074 C196.150655,60.5436728 196.093989,60.2220093 196.093989,59.8420074 C196.093989,59.3886718 196.180655,58.9470096 196.353989,58.5170074 C196.527323,58.0870053 196.782321,57.7070091 197.118989,57.3770074 C197.455657,57.0470058 197.868987,56.7820084 198.358989,56.5820074 C198.848992,56.3820064 199.410653,56.2820074 200.043989,56.2820074 C200.697326,56.2820074 201.275653,56.393673 201.778989,56.6170074 C202.282325,56.8403419 202.707321,57.125339 203.053989,57.4720074 L202.413989,58.3720074 Z M210.263989,58.3720074 C210.190655,58.4786746 210.120656,58.5536739 210.053989,58.5970074 C209.987322,58.640341 209.900656,58.6620074 209.793989,58.6620074 C209.680655,58.6620074 209.56399,58.6286744 209.443989,58.5620074 C209.323989,58.4953404 209.185657,58.4203412 209.028989,58.3370074 C208.872322,58.2536737 208.692323,58.1786744 208.488989,58.1120074 C208.285655,58.0453404 208.040657,58.0120074 207.753989,58.0120074 C207.22732,58.0120074 206.823991,58.1303396 206.543989,58.3670074 C206.263988,58.6036753 206.123989,58.8986723 206.123989,59.2520074 C206.123989,59.4586751 206.182322,59.6336734 206.298989,59.7770074 C206.415656,59.9203415 206.567322,60.0453402 206.753989,60.1520074 C206.940657,60.2586746 207.153988,60.357007 207.393989,60.4470074 C207.63399,60.5370079 207.880655,60.6336736 208.133989,60.7370074 C208.387324,60.8403413 208.633988,60.9570068 208.873989,61.0870074 C209.11399,61.2170081 209.327322,61.3753398 209.513989,61.5620074 C209.700657,61.748675 209.852322,61.9736728 209.968989,62.2370074 C210.085656,62.5003421 210.143989,62.8153389 210.143989,63.1820074 C210.143989,63.6753432 210.045657,64.1453385 209.848989,64.5920074 C209.652321,65.0386763 209.370658,65.4303391 209.003989,65.7670074 C208.637321,66.1036758 208.193992,66.3703398 207.673989,66.5670074 C207.153987,66.7636751 206.573992,66.8620074 205.933989,66.8620074 C205.607321,66.8620074 205.292324,66.8303411 204.988989,66.7670074 C204.685654,66.7036738 204.400657,66.6153413 204.133989,66.5020074 C203.867321,66.3886735 203.625657,66.2553415 203.408989,66.1020074 C203.192321,65.9486733 203.007323,65.7820083 202.853989,65.6020074 L203.453989,64.6620074 C203.527323,64.5486735 203.615655,64.4620077 203.718989,64.4020074 C203.822323,64.3420071 203.943988,64.3120074 204.083989,64.3120074 C204.22399,64.3120074 204.350655,64.3553403 204.463989,64.4420074 C204.577323,64.5286745 204.710655,64.6236736 204.863989,64.7270074 C205.017323,64.8303413 205.202321,64.9253403 205.418989,65.0120074 C205.635657,65.0986745 205.913987,65.1420074 206.253989,65.1420074 C206.527324,65.1420074 206.768988,65.1053411 206.978989,65.0320074 C207.18899,64.9586737 207.365655,64.8586747 207.508989,64.7320074 C207.652323,64.6053401 207.760655,64.4586749 207.833989,64.2920074 C207.907323,64.1253399 207.943989,63.948675 207.943989,63.7620074 C207.943989,63.5353396 207.887323,63.3470082 207.773989,63.1970074 C207.660655,63.0470067 207.50899,62.917008 207.318989,62.8070074 C207.128988,62.6970069 206.91399,62.6003412 206.673989,62.5170074 C206.433988,62.4336737 206.18899,62.3453412 205.938989,62.2520074 C205.688988,62.1586736 205.445657,62.052008 205.208989,61.9320074 C204.972321,61.8120068 204.75899,61.6603417 204.568989,61.4770074 C204.378988,61.2936732 204.227323,61.0703421 204.113989,60.8070074 C204.000655,60.5436728 203.943989,60.2220093 203.943989,59.8420074 C203.943989,59.3886718 204.030655,58.9470096 204.203989,58.5170074 C204.377323,58.0870053 204.632321,57.7070091 204.968989,57.3770074 C205.305657,57.0470058 205.718987,56.7820084 206.208989,56.5820074 C206.698992,56.3820064 207.260653,56.2820074 207.893989,56.2820074 C208.547326,56.2820074 209.125653,56.393673 209.628989,56.6170074 C210.132325,56.8403419 210.557321,57.125339 210.903989,57.4720074 L210.263989,58.3720074 Z M215.433989,66.7020074 L217.213989,51.9720074 L218.993989,51.9720074 L218.163989,58.8120074 C218.690658,58.0253368 219.275653,57.4303428 219.918989,57.0270074 C220.562326,56.6236721 221.220652,56.4220074 221.893989,56.4220074 C222.66066,56.4220074 223.250654,56.6753382 223.663989,57.1820074 C224.077325,57.6886766 224.283989,58.4253359 224.283989,59.3920074 C224.283989,59.5253414 224.280656,59.6636734 224.273989,59.8070074 C224.267322,59.9503415 224.253989,60.0986733 224.233989,60.2520074 L223.473989,66.7020074 L221.693989,66.7020074 L222.453989,60.2520074 C222.467323,60.1186734 222.478989,59.9903414 222.488989,59.8670074 C222.498989,59.7436735 222.503989,59.6253413 222.503989,59.5120074 C222.503989,58.965338 222.402323,58.5586754 222.198989,58.2920074 C221.995655,58.0253394 221.673991,57.8920074 221.233989,57.8920074 C220.933988,57.8920074 220.625657,57.9736733 220.308989,58.1370074 C219.992321,58.3003416 219.683991,58.5320059 219.383989,58.8320074 C219.083988,59.1320089 218.80399,59.493672 218.543989,59.9170074 C218.283988,60.3403429 218.057323,60.8120048 217.863989,61.3320074 L217.213989,66.7020074 L215.433989,66.7020074 Z M233.403989,66.7020074 L232.483989,66.7020074 C232.250655,66.7020074 232.092323,66.642008 232.008989,66.5220074 C231.925655,66.4020068 231.883989,66.2553416 231.883989,66.0820074 L232.063989,64.0320074 C231.823988,64.4586762 231.565657,64.845339 231.288989,65.1920074 C231.012321,65.5386758 230.718991,65.8336729 230.408989,66.0770074 C230.098988,66.320342 229.773991,66.5086734 229.433989,66.6420074 C229.093987,66.7753414 228.740658,66.8420074 228.373989,66.8420074 C227.973987,66.8420074 227.610657,66.7636749 227.283989,66.6070074 C226.957321,66.45034 226.67899,66.2203423 226.448989,65.9170074 C226.218988,65.6136726 226.040656,65.240343 225.913989,64.7970074 C225.787322,64.3536719 225.723989,63.8453436 225.723989,63.2720074 C225.723989,62.6720044 225.798988,62.0870103 225.948989,61.5170074 C226.09899,60.9470046 226.312321,60.4086766 226.588989,59.9020074 C226.865657,59.3953382 227.197321,58.9303429 227.583989,58.5070074 C227.970658,58.083672 228.40232,57.717009 228.878989,57.4070074 C229.355658,57.0970059 229.86732,56.8570083 230.413989,56.6870074 C230.960659,56.5170066 231.533986,56.4320074 232.133989,56.4320074 C232.567325,56.4320074 232.988987,56.4670071 233.398989,56.5370074 C233.808991,56.6070078 234.213987,56.7286732 234.613989,56.9020074 L233.403989,66.7020074 Z M229.043989,65.3620074 C229.370657,65.3620074 229.690654,65.2603418 230.003989,65.0570074 C230.317324,64.8536731 230.613988,64.5720092 230.893989,64.2120074 C231.173991,63.8520056 231.435655,63.4236766 231.678989,62.9270074 C231.922324,62.4303383 232.137322,61.8853437 232.323989,61.2920074 L232.753989,57.8120074 C232.607322,57.7786739 232.462323,57.7570075 232.318989,57.7470074 C232.175655,57.7370074 232.03399,57.7320074 231.893989,57.7320074 C231.493987,57.7320074 231.107324,57.7970068 230.733989,57.9270074 C230.360654,58.0570081 230.010657,58.2386729 229.683989,58.4720074 C229.357321,58.7053419 229.060657,58.9836725 228.793989,59.3070074 C228.527321,59.6303424 228.29899,59.9853388 228.108989,60.3720074 C227.918988,60.758676 227.770656,61.1703386 227.663989,61.6070074 C227.557322,62.0436763 227.503989,62.4920051 227.503989,62.9520074 C227.503989,64.5586821 228.017317,65.3620074 229.043989,65.3620074 Z M242.573989,58.1920074 C242.520656,58.2720078 242.467323,58.3303406 242.413989,58.3670074 C242.360656,58.4036743 242.29399,58.4220074 242.213989,58.4220074 C242.120655,58.4220074 242.01899,58.3853411 241.908989,58.3120074 C241.798989,58.2386737 241.665657,58.1570079 241.508989,58.0670074 C241.352322,57.977007 241.160657,57.8936745 240.933989,57.8170074 C240.707321,57.7403404 240.433991,57.7020074 240.113989,57.7020074 C239.813988,57.7020074 239.540657,57.7436737 239.293989,57.8270074 C239.047321,57.9103412 238.83399,58.02534 238.653989,58.1720074 C238.473988,58.3186748 238.335656,58.4903398 238.238989,58.6870074 C238.142322,58.8836751 238.093989,59.0920063 238.093989,59.3120074 C238.093989,59.6253423 238.197321,59.8753398 238.403989,60.0620074 C238.610657,60.248675 238.870654,60.4103401 239.183989,60.5470074 C239.497324,60.6836748 239.835654,60.8153401 240.198989,60.9420074 C240.562324,61.0686747 240.900654,61.2286731 241.213989,61.4220074 C241.527324,61.6153417 241.787321,61.8620059 241.993989,62.1620074 C242.200657,62.4620089 242.303989,62.852005 242.303989,63.3320074 C242.303989,63.7986764 242.212323,64.2453386 242.028989,64.6720074 C241.845655,65.0986762 241.582324,65.4736725 241.238989,65.7970074 C240.895654,66.1203424 240.482325,66.3786731 239.998989,66.5720074 C239.515653,66.7653417 238.973992,66.8620074 238.373989,66.8620074 C237.727319,66.8620074 237.155658,66.7470086 236.658989,66.5170074 C236.16232,66.2870063 235.757324,65.9920092 235.443989,65.6320074 L235.883989,64.9520074 C235.937323,64.8653403 236.000655,64.7986743 236.073989,64.7520074 C236.147323,64.7053405 236.240655,64.6820074 236.353989,64.6820074 C236.460656,64.6820074 236.567322,64.7286736 236.673989,64.8220074 C236.780656,64.9153412 236.913988,65.0203402 237.073989,65.1370074 C237.23399,65.2536747 237.435655,65.3586736 237.678989,65.4520074 C237.922324,65.5453412 238.230654,65.5920074 238.603989,65.5920074 C238.930657,65.5920074 239.225654,65.5420079 239.488989,65.4420074 C239.752324,65.3420069 239.975655,65.2086749 240.158989,65.0420074 C240.342323,64.8753399 240.482322,64.6803419 240.578989,64.4570074 C240.675656,64.233673 240.723989,63.995342 240.723989,63.7420074 C240.723989,63.4020057 240.620657,63.1320084 240.413989,62.9320074 C240.207321,62.7320064 239.947324,62.5653414 239.633989,62.4320074 C239.320654,62.2986734 238.983991,62.1736747 238.623989,62.0570074 C238.263987,61.9403402 237.927324,61.7903417 237.613989,61.6070074 C237.300654,61.4236732 237.040657,61.1853422 236.833989,60.8920074 C236.627321,60.5986726 236.523989,60.2086765 236.523989,59.7220074 C236.523989,59.2953386 236.608988,58.8836761 236.778989,58.4870074 C236.94899,58.0903388 237.193988,57.7386756 237.513989,57.4320074 C237.833991,57.1253392 238.22232,56.8803417 238.678989,56.6970074 C239.135658,56.5136732 239.650653,56.4220074 240.223989,56.4220074 C240.830659,56.4220074 241.365653,56.5236731 241.828989,56.7270074 C242.292325,56.9303418 242.690654,57.205339 243.023989,57.5520074 L242.573989,58.1920074 Z M248.573989,64.7920074 C248.573989,64.7520072 248.575656,64.7003411 248.578989,64.6370074 C248.582322,64.5736738 248.588989,64.482008 248.598989,64.3620074 C248.608989,64.2420068 248.623989,64.0853417 248.643989,63.8920074 C248.663989,63.6986731 248.693989,63.4453423 248.733989,63.1320074 L249.363989,58.0620074 L248.233989,58.0620074 C248.147322,58.0620074 248.075656,58.0370077 248.018989,57.9870074 C247.962322,57.9370072 247.933989,57.8586746 247.933989,57.7520074 C247.933989,57.7320073 247.937322,57.6920077 247.943989,57.6320074 C247.950656,57.5720071 247.958989,57.5036745 247.968989,57.4270074 C247.978989,57.3503404 247.988989,57.2720078 247.998989,57.1920074 C248.008989,57.112007 248.017322,57.0353411 248.023989,56.9620074 L249.583989,56.7520074 L250.333989,53.6220074 C250.360656,53.5220069 250.410655,53.4403411 250.483989,53.3770074 C250.557323,53.3136738 250.647322,53.2820074 250.753989,53.2820074 L251.693989,53.2820074 L251.253989,56.7720074 L253.913989,56.7720074 L253.763989,58.0620074 L251.093989,58.0620074 L250.483989,63.0420074 C250.450656,63.3153421 250.425656,63.5353399 250.408989,63.7020074 L250.368989,64.1020074 C250.358989,64.2020079 250.352322,64.2720072 250.348989,64.3120074 C250.345656,64.3520076 250.343989,64.3820073 250.343989,64.4020074 C250.343989,64.7420091 250.422322,64.9936733 250.578989,65.1570074 C250.735657,65.3203416 250.950654,65.4020074 251.223989,65.4020074 C251.397323,65.4020074 251.550655,65.3770077 251.683989,65.3270074 C251.817323,65.2770072 251.932322,65.2220077 252.028989,65.1620074 C252.125656,65.1020071 252.207322,65.0470077 252.273989,64.9970074 C252.340656,64.9470072 252.400656,64.9220074 252.453989,64.9220074 C252.507323,64.9220074 252.548989,64.9353406 252.578989,64.9620074 C252.608989,64.9886742 252.640656,65.0320071 252.673989,65.0920074 L253.043989,65.9420074 C252.723988,66.2286755 252.355658,66.4536733 251.938989,66.6170074 C251.52232,66.7803416 251.103991,66.8620074 250.683989,66.8620074 C250.037319,66.8620074 249.527324,66.6853425 249.153989,66.3320074 C248.780654,65.9786723 248.587323,65.4653441 248.573989,64.7920074 Z M258.313989,65.4520074 C258.800658,65.4520074 259.243987,65.3186754 259.643989,65.0520074 C260.043991,64.7853394 260.383988,64.430343 260.663989,63.9870074 C260.943991,63.5436719 261.160655,63.0320103 261.313989,62.4520074 C261.467323,61.8720045 261.543989,61.2653439 261.543989,60.6320074 C261.543989,59.6986694 261.360658,58.9953431 260.993989,58.5220074 C260.627321,58.0486717 260.097326,57.8120074 259.403989,57.8120074 C258.910653,57.8120074 258.465658,57.9436728 258.068989,58.2070074 C257.67232,58.4703421 257.333991,58.8236719 257.053989,59.2670074 C256.773988,59.710343 256.557323,60.2220045 256.403989,60.8020074 C256.250655,61.3820103 256.173989,61.9886709 256.173989,62.6220074 C256.173989,63.5553454 256.355654,64.2603384 256.718989,64.7370074 C257.082324,65.2136765 257.613986,65.4520074 258.313989,65.4520074 Z M258.153989,66.8420074 C257.600653,66.8420074 257.093991,66.7470084 256.633989,66.5570074 C256.173987,66.3670065 255.777324,66.0920092 255.443989,65.7320074 C255.110654,65.3720056 254.850657,64.93201 254.663989,64.4120074 C254.477322,63.8920048 254.383989,63.2986774 254.383989,62.6320074 C254.383989,61.7786698 254.517321,60.9753445 254.783989,60.2220074 C255.050657,59.4686703 255.415653,58.8086769 255.878989,58.2420074 C256.342325,57.6753379 256.888986,57.2286757 257.518989,56.9020074 C258.148992,56.5753391 258.830652,56.4120074 259.563989,56.4120074 C260.117325,56.4120074 260.623987,56.5070065 261.083989,56.6970074 C261.543991,56.8870084 261.940654,57.1620056 262.273989,57.5220074 C262.607324,57.8820092 262.867322,58.3236715 263.053989,58.8470074 C263.240657,59.3703434 263.333989,59.9620041 263.333989,60.6220074 C263.333989,61.4686783 263.200657,62.2686703 262.933989,63.0220074 C262.667321,63.7753445 262.302325,64.4353379 261.838989,65.0020074 C261.375653,65.5686769 260.827326,66.0170058 260.193989,66.3470074 C259.560653,66.6770091 258.880659,66.8420074 258.153989,66.8420074 Z M274.973989,58.1920074 C274.920656,58.2720078 274.867323,58.3303406 274.813989,58.3670074 C274.760656,58.4036743 274.69399,58.4220074 274.613989,58.4220074 C274.520655,58.4220074 274.41899,58.3853411 274.308989,58.3120074 C274.198989,58.2386737 274.065657,58.1570079 273.908989,58.0670074 C273.752322,57.977007 273.560657,57.8936745 273.333989,57.8170074 C273.107321,57.7403404 272.833991,57.7020074 272.513989,57.7020074 C272.213988,57.7020074 271.940657,57.7436737 271.693989,57.8270074 C271.447321,57.9103412 271.23399,58.02534 271.053989,58.1720074 C270.873988,58.3186748 270.735656,58.4903398 270.638989,58.6870074 C270.542322,58.8836751 270.493989,59.0920063 270.493989,59.3120074 C270.493989,59.6253423 270.597321,59.8753398 270.803989,60.0620074 C271.010657,60.248675 271.270654,60.4103401 271.583989,60.5470074 C271.897324,60.6836748 272.235654,60.8153401 272.598989,60.9420074 C272.962324,61.0686747 273.300654,61.2286731 273.613989,61.4220074 C273.927324,61.6153417 274.187321,61.8620059 274.393989,62.1620074 C274.600657,62.4620089 274.703989,62.852005 274.703989,63.3320074 C274.703989,63.7986764 274.612323,64.2453386 274.428989,64.6720074 C274.245655,65.0986762 273.982324,65.4736725 273.638989,65.7970074 C273.295654,66.1203424 272.882325,66.3786731 272.398989,66.5720074 C271.915653,66.7653417 271.373992,66.8620074 270.773989,66.8620074 C270.127319,66.8620074 269.555658,66.7470086 269.058989,66.5170074 C268.56232,66.2870063 268.157324,65.9920092 267.843989,65.6320074 L268.283989,64.9520074 C268.337323,64.8653403 268.400655,64.7986743 268.473989,64.7520074 C268.547323,64.7053405 268.640655,64.6820074 268.753989,64.6820074 C268.860656,64.6820074 268.967322,64.7286736 269.073989,64.8220074 C269.180656,64.9153412 269.313988,65.0203402 269.473989,65.1370074 C269.63399,65.2536747 269.835655,65.3586736 270.078989,65.4520074 C270.322324,65.5453412 270.630654,65.5920074 271.003989,65.5920074 C271.330657,65.5920074 271.625654,65.5420079 271.888989,65.4420074 C272.152324,65.3420069 272.375655,65.2086749 272.558989,65.0420074 C272.742323,64.8753399 272.882322,64.6803419 272.978989,64.4570074 C273.075656,64.233673 273.123989,63.995342 273.123989,63.7420074 C273.123989,63.4020057 273.020657,63.1320084 272.813989,62.9320074 C272.607321,62.7320064 272.347324,62.5653414 272.033989,62.4320074 C271.720654,62.2986734 271.383991,62.1736747 271.023989,62.0570074 C270.663987,61.9403402 270.327324,61.7903417 270.013989,61.6070074 C269.700654,61.4236732 269.440657,61.1853422 269.233989,60.8920074 C269.027321,60.5986726 268.923989,60.2086765 268.923989,59.7220074 C268.923989,59.2953386 269.008988,58.8836761 269.178989,58.4870074 C269.34899,58.0903388 269.593988,57.7386756 269.913989,57.4320074 C270.233991,57.1253392 270.62232,56.8803417 271.078989,56.6970074 C271.535658,56.5136732 272.050653,56.4220074 272.623989,56.4220074 C273.230659,56.4220074 273.765653,56.5236731 274.228989,56.7270074 C274.692325,56.9303418 275.090654,57.205339 275.423989,57.5520074 L274.973989,58.1920074 Z M283.683989,66.7020074 L282.763989,66.7020074 C282.530655,66.7020074 282.372323,66.642008 282.288989,66.5220074 C282.205655,66.4020068 282.163989,66.2553416 282.163989,66.0820074 L282.343989,64.0320074 C282.103988,64.4586762 281.845657,64.845339 281.568989,65.1920074 C281.292321,65.5386758 280.998991,65.8336729 280.688989,66.0770074 C280.378988,66.320342 280.053991,66.5086734 279.713989,66.6420074 C279.373987,66.7753414 279.020658,66.8420074 278.653989,66.8420074 C278.253987,66.8420074 277.890657,66.7636749 277.563989,66.6070074 C277.237321,66.45034 276.95899,66.2203423 276.728989,65.9170074 C276.498988,65.6136726 276.320656,65.240343 276.193989,64.7970074 C276.067322,64.3536719 276.003989,63.8453436 276.003989,63.2720074 C276.003989,62.6720044 276.078988,62.0870103 276.228989,61.5170074 C276.37899,60.9470046 276.592321,60.4086766 276.868989,59.9020074 C277.145657,59.3953382 277.477321,58.9303429 277.863989,58.5070074 C278.250658,58.083672 278.68232,57.717009 279.158989,57.4070074 C279.635658,57.0970059 280.14732,56.8570083 280.693989,56.6870074 C281.240659,56.5170066 281.813986,56.4320074 282.413989,56.4320074 C282.847325,56.4320074 283.268987,56.4670071 283.678989,56.5370074 C284.088991,56.6070078 284.493987,56.7286732 284.893989,56.9020074 L283.683989,66.7020074 Z M279.323989,65.3620074 C279.650657,65.3620074 279.970654,65.2603418 280.283989,65.0570074 C280.597324,64.8536731 280.893988,64.5720092 281.173989,64.2120074 C281.453991,63.8520056 281.715655,63.4236766 281.958989,62.9270074 C282.202324,62.4303383 282.417322,61.8853437 282.603989,61.2920074 L283.033989,57.8120074 C282.887322,57.7786739 282.742323,57.7570075 282.598989,57.7470074 C282.455655,57.7370074 282.31399,57.7320074 282.173989,57.7320074 C281.773987,57.7320074 281.387324,57.7970068 281.013989,57.9270074 C280.640654,58.0570081 280.290657,58.2386729 279.963989,58.4720074 C279.637321,58.7053419 279.340657,58.9836725 279.073989,59.3070074 C278.807321,59.6303424 278.57899,59.9853388 278.388989,60.3720074 C278.198988,60.758676 278.050656,61.1703386 277.943989,61.6070074 C277.837322,62.0436763 277.783989,62.4920051 277.783989,62.9520074 C277.783989,64.5586821 278.297317,65.3620074 279.323989,65.3620074 Z M288.783989,69.7220074 C288.643988,69.9953421 288.437324,70.1320074 288.163989,70.1320074 L286.863989,70.1320074 L289.053989,66.1020074 L286.433989,56.5720074 L287.903989,56.5720074 C288.04399,56.5720074 288.148989,56.6070071 288.218989,56.6770074 C288.288989,56.7470078 288.337322,56.8353402 288.363989,56.9420074 L289.993989,63.3220074 C290.027323,63.4620081 290.053989,63.6020067 290.073989,63.7420074 C290.093989,63.8820081 290.110656,64.0220067 290.123989,64.1620074 C290.183989,64.0220067 290.242322,63.8803415 290.298989,63.7370074 C290.355656,63.5936734 290.420655,63.4520081 290.493989,63.3120074 L293.693989,56.9220074 C293.747323,56.8153402 293.822322,56.7303411 293.918989,56.6670074 C294.015656,56.6036738 294.113989,56.5720074 294.213989,56.5720074 L295.623989,56.5720074 L288.783989,69.7220074 Z" id="Read-what-the-press" fill="#2A2A2A" transform="translate(231.743989, 49.552007) rotate(-3.000000) translate(-231.743989, -49.552007) "></path>
                    <g id="Group-8" transform="translate(244.000000, 188.000000) rotate(2.000000) translate(-244.000000, -188.000000) translate(200.000000, 105.000000)">
                        <g id="Group-5" transform="translate(47.371107, 47.671543) rotate(-10.000000) translate(-47.371107, -47.671543) translate(13.871107, 5.171543)">
                            <g id="Rectangle-13">
                                <use fill="#3F4C52" fill-rule="evenodd" xlink:href="#path-24"></use>
                                <rect stroke="#2A2A2A" stroke-width="2" x="-1" y="35" width="69" height="48" rx="9"></rect>
                            </g>
                            <g id="Rectangle-7">
                                <use fill="#3F4C52" fill-rule="evenodd" xlink:href="#path-25"></use>
                                <rect stroke="#2A2A2A" stroke-width="2" x="9" y="30" width="10" height="7" rx="3.5"></rect>
                            </g>
                            <g id="Rectangle-7-Copy">
                                <use fill="#CB8D26" fill-rule="evenodd" xlink:href="#path-26"></use>
                                <rect stroke="#2A2A2A" stroke-width="2" x="48" y="32" width="10" height="4" rx="2"></rect>
                            </g>
                            <g id="Rectangle-10">
                                <use fill="#3F4C52" fill-rule="evenodd" xlink:href="#path-27"></use>
                                <rect stroke="#2A2A2A" stroke-width="2" x="35" y="19" width="7" height="17"></rect>
                            </g>
                            <g id="Rectangle-11">
                                <use fill="#3F4C52" fill-rule="evenodd" xlink:href="#path-28"></use>
                                <rect stroke="#2A2A2A" stroke-width="2" x="25" y="-1" width="27" height="25" rx="4"></rect>
                            </g>
                            <g id="Rectangle-11-Copy">
                                <use fill="#66777E" fill-rule="evenodd" xlink:href="#path-29"></use>
                                <rect stroke="#2A2A2A" stroke-width="2" x="28" y="2" width="21" height="14" rx="2"></rect>
                            </g>
                            <g id="Rectangle-13-Copy">
                                <use fill="#FFFFFF" fill-rule="evenodd" xlink:href="#path-30"></use>
                                <path stroke="#2A2A2A" stroke-width="2" d="M9,35 L58,35 C63.5228475,35 68,39.4771525 68,45 L68,47 L-1,47 L-1,45 C-1,39.4771525 3.4771525,35 9,35 Z"></path>
                            </g>
                            <g id="Oval-3">
                                <use fill="#FFFFFF" fill-rule="evenodd" xlink:href="#path-31"></use>
                                <circle stroke="#2A2A2A" stroke-width="2" cx="34" cy="65" r="21"></circle>
                            </g>
                            <g id="Oval-3-Copy-2">
                                <use fill="#3F4C52" fill-rule="evenodd" xlink:href="#path-32"></use>
                                <circle stroke="#2A2A2A" stroke-width="2" cx="34" cy="65" r="14"></circle>
                            </g>
                            <g id="Oval-3-Copy-3">
                                <use fill="#1F282C" fill-rule="evenodd" xlink:href="#path-33"></use>
                                <circle stroke="#2A2A2A" stroke-width="2" cx="34" cy="65" r="10"></circle>
                            </g>
                            <path d="M26.5,63 C27.5,59.6666667 29.8333333,57.6666667 33.5,57" id="Path-15" stroke="#FFFFFF"></path>
                        </g>
                        <g id="Path-18" stroke-linecap="round" stroke-linejoin="round">
                            <use fill="#F4D9BD" fill-rule="evenodd" xlink:href="#path-34"></use>
                            <path stroke="#2A2A2A" stroke-width="2.4000001" d="M29.8625619,59.3461763 C30.1307622,59.810101 30.3741915,60.3328815 30.6132665,60.9270739 C31.4138498,62.9168278 31.5376302,64.9412846 30.9714822,66.2495972 C30.1331154,68.1869807 28.1255528,68.0562292 26.939427,66.128961 C25.695466,64.1077194 24.2059652,63.2 22.5,63.2 C21.3264334,63.2 19.096762,63.493462 15.862565,64.0815001 C15.5801411,64.5757937 15.3761955,64.9933813 15.2511094,65.3276032 C15.3222519,65.3229791 15.3984329,65.3167511 15.4793656,65.3088401 C16.1292339,65.2453168 16.8975647,65.1054785 18.2938869,64.8135978 C18.3930525,64.7928533 18.3930525,64.7928533 18.4923779,64.772033 C19.7959927,64.4986964 20.2188596,64.4136375 20.8027212,64.3163272 C24.0899956,63.7684482 25.7524864,64.9561284 27.5566701,68.3082346 C28.3744183,69.8275803 28.8073006,70.8952036 28.8783413,71.7799333 C28.9962473,73.2483166 28.0515308,74.2 26.5,74.2 C24.9811504,74.2 23.3683037,73.1994782 21.5464426,71.2782375 C18.0755125,71.8238895 16.996333,72.7692224 17.4500457,74.1171962 C17.6668764,74.7613968 18.7582824,77.6844613 18.8692449,77.9912143 C19.2510406,79.046678 19.5603565,79.962308 19.8247396,80.8402847 C20.9504864,84.5787213 21.165469,87.285202 20.0197923,89.1324743 L19.8666107,89.3794621 L19.6173949,89.5289916 C14.2256091,92.764063 9.05101696,92.764063 4.316948,89.4866307 L3.96551106,89.2433282 L3.84702515,88.8326396 C1.67706083,81.311243 0.34314032,76.6425213 -0.157290184,74.8173004 C-1.66199369,69.3291933 3.79585116,45.0936048 7.5527773,40.2632712 C10.0576358,37.0427388 15.3869753,33.9482836 23.5786519,30.8764049 L23.9899395,30.7221721 L24.4036047,30.86991 C26.3722117,31.5729859 27.4974251,32.2228157 27.9100347,33.1306896 C28.5640854,34.5698115 27.534579,35.5066267 25.7236558,36.1044296 C25.40255,36.2104296 25.0835948,36.3129762 24.6215029,36.4595942 C19.5123329,38.0806922 17.3174936,39.082755 13.7496341,41.9370426 C11.0794723,44.073172 10.3942554,47.0317935 11.7488462,51.0634289 C17.5894447,49.5608995 21.6950651,48.9696706 24.1644591,49.3113229 C26.3330534,49.6113581 30.8492567,52.7895649 32.045271,54.9105862 C32.8218254,56.287734 32.6505787,57.6708195 31.7083924,58.5758888 C31.200956,59.0633351 30.5115531,59.3579344 29.8625619,59.3461763 Z"></path>
                        </g>
                        <path d="M25,67.5 C27,69.8333333 27.8333333,71.1666667 27.5,71.5 C27,72 25,71.5 24.5,70 C24.1666667,69 24,68.3333333 24,68 L25,67.5 Z" id="Path-22" fill="#FFFFFF"></path>
                        <path d="M29,62 C29.6666667,64 29.8333333,65.1666667 29.5,65.5 C29.1666667,65.8333333 28.1666667,64.8333333 26.5,62.5 L29,62 Z" id="Path-23" fill="#FFFFFF"></path>
                        <path d="M30,54.5 C31.3333333,56.5 31.6666667,57.5 31,57.5 C30.3333333,57.5 29.5,57.1666667 28.5,56.5 L28.5,55 L30,54.5 Z" id="Path-24" fill="#FFFFFF"></path>
                        <g id="Path-21">
                            <use fill="#FFFFFF" fill-rule="evenodd" xlink:href="#path-35"></use>
                            <path stroke="#2A2A2A" stroke-width="2" d="M1.8,89.7566504 L1.8,88.5 L0.566627048,89.4723873 C0.981668882,89.5719973 1.3927931,89.6667534 1.8,89.7566504 Z M20.3305737,89.7418262 C20.6154406,89.6431955 20.8957128,89.5387479 21.1713907,89.4284767 L19.9258427,88.9856429 C20.0691384,89.2435751 20.2040268,89.4956508 20.3305737,89.7418262 Z M21.7975176,94.5767471 C21.7881937,94.8210989 21.7572055,95.0480723 21.7048575,95.2574644 L22.5830831,94.5042333 L21.7975176,94.5767471 Z M6.66785402,95.9733314 L6.33308308,96.0042333 L6.95330189,96.1509434 L6.66785402,95.9733314 Z M1.8,92.9444444 L1.32830189,92.6509434 L1.8,93.5 L1.8,92.9444444 Z M1.8,92.9444444 L1.8,89.7566504 C9.30793031,91.4141387 15.4841815,91.4198128 20.3305737,89.7418262 C21.3663613,91.7567729 21.8433192,93.3764316 21.7975176,94.5767471 L6.66785402,95.9733314 L1.8,92.9444444 Z"></path>
                        </g>
                        <g id="Path-19">
                            <use fill="#439FC6" fill-rule="evenodd" xlink:href="#path-36"></use>
                            <path stroke="#2A2A2A" stroke-width="2" d="M1.41380294,93.0896335 C4.92616376,94.6861612 8.41973123,95.3213553 11.9094643,95.0041068 C15.5173301,94.676119 19.1262767,94.0199469 22.7368826,93.0352362 L23.8167126,92.7407371 L23.9881939,93.8467916 C30.7815608,137.664008 34,158.744785 34,159.5 C34,160.730863 32.6170687,161.098204 25.1990599,162.604987 C19.8538287,163.690737 11.8451453,165.150654 1.16939122,166.985549 L0,167.186538 L0,92.4469958 L1.41380294,93.0896335 Z"></path>
                        </g>
                    </g>
                    <path d="M1.29532682,119.206107 L40.802795,94.0992366 L38.8598047,88.9491094 L30.4401804,87.6615776 L38.8598047,83.7989822 L42.7457852,79.9363868 C81.1738144,78.2196777 101.035492,78.8634436 102.330819,81.8676845 C104.273809,86.3740458 105.569136,94.0992366 51.813073,94.0992366 C47.9270925,97.1034775 45.9841023,97.5326548 45.9841023,95.3867684 L0,125 L1.29532682,119.206107 Z" id="Path-10" fill="#D8F3FE"></path>
                </g>
            </g>
        </g>
    </g>
</svg>