<svg width="452" height="281" xmlns="http://www.w3.org/2000/svg" xmlns:xlink="http://www.w3.org/1999/xlink"><defs><path d="M44.804 32.414s-1.024 9.444 3.754 14.841c4.777 5.397 1.023 2.361 0-6.746-1.024-9.107-3.754-8.095-3.754-8.095z" id="a"/><path d="M5.643 156.796a5.735 5.735 0 0 1 5.728 5.453l.068 1.387a5.198 5.198 0 0 1-5.192 5.453 5.735 5.735 0 0 1-5.728-5.453l-.068-1.387a5.198 5.198 0 0 1 5.192-5.453z" id="b"/><path d="M71.106 155.297a5.408 5.408 0 0 1 5.408 5.46l-.024 2.49a5.512 5.512 0 0 1-5.511 5.459 5.408 5.408 0 0 1-5.408-5.46l.023-2.49a5.512 5.512 0 0 1 5.512-5.46z" id="c"/><path d="M10.237 15.262C7.393 18.635 4.36 34.87 2.275 54.613.763 68.93 0 99.024.569 103.521c4.55 6.184 7.962 1.125 7.962 1.125s1.706-26.422 2.275-43.287c2.843-19.113 4.311-32.84 5.118-32.043 1.138 1.124.12 4.275 0 10.119-.11 5.4 1.272 26.608 1.138 32.605-.37 16.54-2.96 25.708-3.981 34.292l-5.688 47.784s14.787-2.81 33.555 2.811c18.768 5.622 25.024 3.373 25.024 3.373s-6.345-39.347-7.962-56.779c-.484-5.216-3.105-18.225-3.412-31.48-.2-8.632 1.883-25.54 1.706-34.293-.123-6.048-1.907-4.464-.569-8.432.569-1.687 3.386 12.65 6.256 31.481 2.218 14.552 1.706 32.606 4.55 42.724 5.118 5.622 6.495-.903 6.824-1.686.558-1.326-1.137-28.67-2.843-47.222-1.733-18.837-5.119-37.103-10.237-41.6C55.166 8.516 42.833-.17 36 .083 29.168.338 13.08 11.89 10.237 15.262z" id="d"/><path d="M14.036 3.535l1.912 28.175s-1.969 8.77-8.231 8.77S.024 31.71.024 31.71L1.16 0l12.875 3.535z" id="f"/><path d="M1.853 29.853C.782 25.675.259 21.46.259 18.006.259 6.816 7.075.25 16.358.03c9.283-.22 15.541 3.402 17.993 11.778.995 3.4.375 10.063-1.504 16.782-2.752 9.837-11.496 16.055-15.307 16.196-3.81.142-13.288-5.574-15.687-14.932z" id="h"/><path d="M2.952 43.108l3.315-9.346c-2.086-.984-3.34-2.275-3.76-3.873-.627-2.38-1.52-5.473-1.853-9.257-.08-.905-.08-2.148 0-3.73 1.029-1.115 1.647-.497 1.853 1.855.206 2.351 1.25 4.227 3.133 5.627 1.71-2.759 2.545-4.843 2.507-6.253-.216-8.106.685-12.79.814-13.633.314-2.06 2.662-1.27 2.497.29-.121 1.157.025 3.58-.177 7.634-.065 1.287-.274 3.607-.627 6.96l1.253.31C14.67 9.53 16.274 3.902 16.723 2.804 17.397 1.16 18.956.071 19.58 1.54c.287.677-1.074 4.664-2.507 10.882-.422 1.835-1.034 4.258-1.834 7.27l1.516.375c3.482-8.599 5.538-13.349 6.167-14.249.943-1.35 3.39-.804 2.586 1.298l-5.632 14.71 1.114 1.426c3.144-4.383 4.916-6.738 5.313-7.065.597-.49 2.989.247 1.65 1.887-.894 1.094-3.35 5.032-7.37 11.815-2.264 4.26-4.035 6.616-5.314 7.066-.863 1.43-1.609 4.203-2.237 8.32L2.952 43.108z" id="j"/><path d="M1.253 1.25v18.132c-2.506 14.172 1.88 21.049 13.161 20.632 16.92-.625 9.4-18.756 9.4-20.632 0-1.25-.626-7.711-1.88-19.382L1.254 1.25z" id="l"/><path d="M2.676 35.491C1.4 30.435.777 25.333.777 21.153.777 7.611 4.5.912 15.56.646 26.617.38 32.818 3.513 35.739 13.651c1.184 4.114 1.34 8.91-1.28 21.84S23.623 54.394 17.54 54.394c-6.083 0-12.005-7.576-14.863-18.903z" id="n"/><path d="M36.348.625c-13.787 5.419-22.352 10.629-25.694 15.63C5.208 24.407 1.865 61.92.627 128.796c.835 2.085 2.924 3.752 6.267 5.002 3.342 1.25 7.102 1.25 11.28 0 6.267 4.169 16.085 6.044 29.455 5.627 3.503-.109 3.527-10.135 6.893-10.628 2.675-.393 4.342 10.628 6.894 10.628 25.695 0 28.201-3.751 28.828-5.627 2.083-6.235 0-26.884 0-47.516 0-2.785-.627-23.134-1.253-38.764-7.656-9.378-6.807-22.212-6.402-20.632 6.402 25.008 16.429 25.634 28.336 31.886 11.907 6.252 21.934-47.373 23.188-50.5.626-1.56-.331 3.68-6.267.482-1.327-.714-3.416-2.173-6.267-4.376-4.178 10.837-8.147 20.632-11.907 29.385-8.147-8.128-16.912-18.168-19.428-21.258-2.607-3.2-5.84-5.777-9.698-7.73-2.786-1.41-6.238-2.377-10.356-2.898-2.044 14.34-3.507 24.97-4.387 31.886-.88 6.917-4.64 21.297-11.28 43.14L36.347.625z" id="p"/><path d="M4.387 31.47c-.328-.98-.585-.798-1.983-3.126-1.277-2.125-.552-3.722-1.15-3.126-.48.479-.814-10.211 1.88-15.005C5.826 5.42 11.523.007 21.663.21c10.14.202 13.779 2.856 17.818 10.003 4.039 7.147 3.324 14.625 3.133 15.005-.626 1.25-2.507 1.25-3.133 3.126-.627 1.876 1.253-6.877 0-10.003-1.254-3.126-2.507-13.134-4.387-3.754-1.88 9.38-14.414.628-30.708 16.884z" id="r"/><path d="M60.193 66.673l1.14-5.192 5.127 5.192c-3.418 5.625-5.128 8.005-5.128 7.14 0-.866-.38-3.246-1.14-7.14z" id="s"/><path d="M37.632 66.433l1.14-4.952 5.127 4.952c-3.418 6.602-5.128 9.49-5.128 8.666 0-.826-.38-3.714-1.14-8.666z" id="t"/><path d="M35.125 33.956c2.051 9.94 4.512 13.874 7.384 11.803 3.076-2.485 12.921-3.106 18.459-.621 3.692 1.657 6.358-2.9 7.999-13.667-1.23 13.688-2.256 21.143-3.077 22.364-1.23 1.833-2.461 8.077-8.614 8.698-6.153.621-15.383 0-17.844-4.97-1.64-3.313-3.076-11.183-4.307-23.607zm8.614 13.046c-1.23 1.242 2.77 7.455 7.692 7.455 4.922 0 8.921-4.349 9.537-7.455-7.384-3.106-15.998-1.243-17.229 0z" id="u"/><path d="M30.373.041C45.431.843 56.99 13.7 56.187 28.758a27.304 27.304 0 0 1-.154 1.785c-1.745 14.62-2.618 23.883-2.618 27.789 0 6.052 2.095 11.256 6.284 15.613H0c2.793-5.786 4.19-10.99 4.19-15.613 0-3.137-.483-13.332-1.448-30.587C1.933 13.257 13.023.855 27.51.045c.953-.053 1.91-.055 2.863-.004z" id="v"/><path d="M30.373.041C45.431.843 56.99 13.7 56.187 28.758a27.304 27.304 0 0 1-.154 1.785c-1.745 14.62-2.618 23.883-2.618 27.789 0 6.052 2.095 11.256 6.284 15.613H0c2.793-5.786 4.19-10.99 4.19-15.613 0-3.137-.483-13.332-1.448-30.587C1.933 13.257 13.023.855 27.51.045c.953-.053 1.91-.055 2.863-.004z" id="x"/><path d="M107.462 1.567c10.522 1.082 18.635 7.746 24.283 19.854.054.115.086.24.095.366l4.713 67.66a1.044 1.044 0 0 1-1.045 1.112H12.975c-2.3 0-4.555-.627-6.52-1.812C.52 85.168-1.371 77.486 2.23 71.588c10.982-17.987 18.498-30.066 22.553-36.245 4.091-6.235 9.765-13.934 17.022-23.1A27.268 27.268 0 0 1 59.335 2.19L74.614.01C86.4 0 97.3.523 107.462 1.568zM49.749 43.4c-2.649 5.723-4.978 10.015-6.996 12.885-2.282 3.244-6.011 7.296-11.196 12.17l18.192 2.193V43.4z" id="y"/><rect id="A" width="16.758" height="29.145" rx="8.379"/><path d="M35.08 8.188c.346 1.377 0 23.04-3.136 29.285-3.135 6.245-5.76 10.409-14.139 10.409S5.237 42.677 2.618 35.912C0 29.144 0 16.654 0 15.092c2.095 0 6.284.52 13.616-4.163 4.189-3.123 7.331-7.807 8.902-10.41 2.095 3.123 7.332 6.766 12.562 7.668z" id="C"/><path id="E" d="M63.889 126.511l4.189 31.748h16.758l4.19-31.748z"/><filter x="-13.9%" y="-11%" width="127.8%" height="122%" filterUnits="objectBoundingBox" id="F"><feOffset dx="7" dy="1" in="SourceAlpha" result="shadowOffsetInner1"/><feComposite in="shadowOffsetInner1" in2="SourceAlpha" operator="arithmetic" k2="-1" k3="1" result="shadowInnerInner1"/><feColorMatrix values="0 0 0 0 0.767697704 0 0 0 0 0.767697704 0 0 0 0 0.767697704 0 0 0 0.5 0" in="shadowInnerInner1"/></filter><path id="G" d="M63.889 121.307l3.665 5.204h17.813l3.658-5.204z"/><filter x="-13.9%" y="-67.2%" width="127.8%" height="234.5%" filterUnits="objectBoundingBox" id="H"><feOffset dx="7" dy="1" in="SourceAlpha" result="shadowOffsetInner1"/><feComposite in="shadowOffsetInner1" in2="SourceAlpha" operator="arithmetic" k2="-1" k3="1" result="shadowInnerInner1"/><feColorMatrix values="0 0 0 0 0.767697704 0 0 0 0 0.767697704 0 0 0 0 0.767697704 0 0 0 0.5 0" in="shadowInnerInner1"/></filter><path d="M24.09.04c12.842.685 22.699 11.65 22.015 24.493a23.287 23.287 0 0 1-.758 4.78c-3 11.214-4.5 18.632-4.5 22.253 0 6.052-3.666 10.216-10.997 12.49H16.758c-9.427-2.428-13.79-6.592-13.092-12.49C4.1 47.887 3.11 39.619.694 26.763-1.609 14.506 6.46 2.7 18.717.398A22.583 22.583 0 0 1 24.09.04z" id="I"/><path d="M96.5 1.01c10.523 1.082 28.566 9.672 33.5 41.09 1.492 9.5 6.115 49.46 5.508 49.46H12.975c-2.3 0-4.555-.628-6.52-1.813C.52 86.168-1.371 78.486 2.23 72.588c10.982-17.987 18.498-30.066 22.553-36.245 4.091-6.235 9.765-13.934 17.022-23.1A27.268 27.268 0 0 1 59.335 3.19l15.278-2.18C86.4 1 86.339-.033 96.5 1.01zM49.75 44.4c-2.65 5.723-4.979 10.015-6.997 12.885-2.282 3.244-6.011 7.296-11.196 12.17l18.192 2.193V44.4z" id="J"/><rect id="L" width="16.758" height="29.145" rx="8.379"/><path d="M35.08 5.065c.346 1.377 0 23.04-3.136 29.285-3.135 6.245-5.76 10.41-14.139 10.41S5.237 39.554 2.618 32.788C1.288 29.35.633 24.434.311 20.224c-.311-4.074 1.26 7.1 8.592 2.416C13.092 19.517 24.089 3.123 25.66.52c3.666 3.504 6.284 4.545 9.42 4.545z" id="N"/><path d="M88.022.01c1.5 0 20.5 2.458 28 7.958s12.5 13 14 23c.945 6.296 2.991 20.993 2.5 43.5-.111 5.1-.944 13.587-2.5 25.46.042.601-11.839 0-12.5 0H12.975c-2.3 0-4.555-.628-6.52-1.813C.52 94.536-.663 87.061 2.23 80.957c8.767-18.502 18.498-39.435 22.553-45.614 4.091-6.235 9.765-13.934 17.022-23.1A27.268 27.268 0 0 1 59.335 2.19L74.614.01c11.787-.01 11.91 0 13.41 0zM49.75 43.4c-2.649 5.723-4.978 10.015-6.996 12.885-2.282 3.244-6.011 16.664-11.196 21.539l18.192 2.192V43.4z" id="P"/><rect id="R" width="16.758" height="29.145" rx="8.379"/><path d="M35.134 9.368c.346 1.378-.007 19.777-3.142 26.023-3.136 6.245-5.76 10.409-14.14 10.409-8.378 0-12.568-5.205-15.186-11.97C.047 27.064.047 14.573.047 13.01c0-3.727-.396-8.348 6.284-11.97 5.76-3.123 9.438 2.951 13.616 3.643 6.284 1.041 14.67-1.942 15.187 4.684z" id="T"/></defs><g fill="none" fill-rule="evenodd"><path fill="#7A6448" d="M250 219.52v36.913h47V202z"/><g transform="translate(38 29)"><g transform="translate(95.31 9.368)"><path d="M20.554 42.368s3.63 8.523 0 13.01c-3.63 4.485 9.076-2.692 8.169-9.421-.908-6.729-8.17-3.589-8.17-3.589z" fill="#AE905E"/><use fill="#F8D763" xlink:href="#a"/><path stroke="#2A2A2A" stroke-width="1.694" d="M44.51 31.62c.051-.02.116-.038.192-.053.957-.191 2.037.338 2.907 1.875.811 1.435 1.423 3.703 1.79 6.973.394 3.507 1.04 5.775 2.125 8.603.208.543.235.622.248.823.048.766-.763 1.172-1.355.784a1.662 1.662 0 0 1-.325-.295c-.07-.077-1.416-1.663-2.168-2.514-1.417-1.6-2.43-3.603-3.097-5.911-.876-3.03-1.082-6.195-.914-8.95.018-.299.036-.513.05-.632l.056-.52.49-.183z"/><g transform="rotate(3 5.945 162.942)"><use fill="#F4D9BD" xlink:href="#b"/><path stroke="#2A2A2A" stroke-width="1.694" d="M5.643 157.643a4.351 4.351 0 0 0-4.346 4.565l.068 1.386a4.888 4.888 0 0 0 5.096 4.643 4.35 4.35 0 0 0 4.132-4.56l-.068-1.386a4.888 4.888 0 0 0-4.882-4.648z"/></g><g transform="rotate(-4 71.042 162.001)"><use fill="#F4D9BD" xlink:href="#c"/><path stroke="#2A2A2A" stroke-width="1.694" d="M71.106 156.144a4.665 4.665 0 0 0-4.665 4.62l-.024 2.49v.044a4.561 4.561 0 0 0 4.562 4.561c2.559 0 4.64-2.062 4.664-4.62l.024-2.49v-.044a4.561 4.561 0 0 0-4.561-4.561z"/></g><g transform="translate(1.261 56.133)"><mask id="e" fill="#fff"><use xlink:href="#d"/></mask><use fill="#F8D763" xlink:href="#d"/><ellipse fill="#FFF" mask="url(#e)" cx="36.171" cy="36.961" rx="2.047" ry="2.024"/><path d="M25.316 4.693c2.732 20.06 6.2 29.963 11.082 29.963 4.91 0 7.996-9.916 9.95-29.995a.846.846 0 0 0-.768-.92.85.85 0 0 0-.931.759c-1.839 18.898-4.818 28.47-8.25 28.47-3.46 0-6.816-9.584-9.392-28.502a.851.851 0 0 0-.96-.723.845.845 0 0 0-.731.948z" fill="#FFF" fill-rule="nonzero" mask="url(#e)"/><path d="M17.63 27.067c-.379 10.869.57 18.177 2.844 21.925 3.412 5.621 15.924 5.06 14.787 15.74-1.138 10.681-21.043 42.725-7.962 64.087 13.08 21.362 22.749 26.422 32.986 28.67 6.824 1.5 12.322 2.249 16.493 2.249-19.337 11.618-29.953 17.24-31.849 16.865-2.843-.562-55.735-7.87-57.44-10.681-1.707-2.811-15.925 1.124-1.707-20.8C0 123.197 3.412 109.705 6.825 84.408c3.412-25.297 1.706-35.416 1.706-41.6 0-4.123 2.464-9.557 7.393-16.303l1.706.562z" fill="#DCB11C" opacity=".5" mask="url(#e)"/><path d="M15.84 89.744c19.14 1.882 33.055 1.882 41.784-.015.46-.1.752-.55.65-1.005a.853.853 0 0 0-1.016-.642c-8.512 1.85-22.275 1.85-41.25-.016a.85.85 0 0 0-.933.756.846.846 0 0 0 .765.922z" fill="#2A2A2A" fill-rule="nonzero" mask="url(#e)"/><path d="M15.84 93.117C34.98 95 48.895 95 57.624 93.102c.46-.1.752-.55.65-1.005a.853.853 0 0 0-1.016-.642c-8.512 1.85-22.275 1.85-41.25-.016a.85.85 0 0 0-.933.756.846.846 0 0 0 .765.922z" fill="#2A2A2A" fill-rule="nonzero" mask="url(#e)"/></g><path d="M48.512.95c2.836 1.825 3.332 5.816 1.675 8.939-.584 1.1 2.588 6.428 2.704 6.766.65 1.889 1.715 9.262 0 20.477-.91 5.951-.523 10.713-.523 13.352 0 19.243 13.833 12.779 12.568 13.532-.396.236-5.977 6.751-12.045 8.616-3.683 1.132-9.07-1.88-9.2-2.065-2.168-3.1-2.026-10.658-3.17-14.935-1.723-6.444.327-10.15 0-11.1-3.013-8.747 6.621-20.33 5.473-23.615-1.095-3.131-2.919-4.842-5.473-5.134V3.803C42.89 0 45.555-.95 48.51.951z" fill="#AE905E"/><g transform="translate(28.923 32.152)"><mask id="g" fill="#fff"><use xlink:href="#f"/></mask><use fill="#F4D9BD" xlink:href="#f"/><path d="M-3.73 20.194s2.303 9.718 12.131 9.718 12.13-12.148 12.13-12.148l-24.26 2.43z" fill="#E5C5A4" mask="url(#g)"/></g><g transform="translate(19.118 10.773)"><mask id="i" fill="#fff"><use xlink:href="#h"/></mask><use fill="#F4D9BD" xlink:href="#h"/><path d="M34.466 19.584c-.57-.562-7.963-8.433-7.963-8.995 0-.562-7.962 17.99-24.455 18.552-10.995.374-6.256-7.309 14.218-23.05l12.512-5.059 7.962 14.061c-1.137 3.369-1.895 4.866-2.274 4.49z" fill="#E5C5A4" mask="url(#i)"/><ellipse fill="#2A2A2A" mask="url(#i)" cx="12.285" cy="21.27" rx="1.706" ry="1.686"/><ellipse fill="#2A2A2A" mask="url(#i)" cx="22.522" cy="21.27" rx="1.706" ry="1.686"/><path d="M11.284 33.537l12.512-1.015c-1 4.06-3.17 5.921-6.506 5.583-3.336-.339-5.338-1.861-6.006-4.568z" fill="#FFF" mask="url(#i)"/></g><path d="M19.315 37.103s20.598-6.786 24.674-21.49c-.798 12.519 9.95 15.614 9.95 15.614s5.236-19.257-8.603-25.332C31.497-.18 23.39 7.095 19.315 12.797c-4.076 5.701-2.195 20.705 0 24.306z" fill="#C6A773"/><ellipse fill="#776345" cx="52.32" cy="40.537" rx="2.047" ry="2.024"/><ellipse fill="#776345" cx="19.852" cy="40.537" rx="2.047" ry="2.024"/></g><g transform="translate(190.571)"><g transform="translate(117.849 32.721)"><mask id="k" fill="#fff"><use xlink:href="#j"/></mask><use fill="#F4D9BD" xlink:href="#j"/><path d="M6.267 34.387c3.76 2.501 6.476 2.918 8.147 1.25 1.671-1.667 6.267-8.127 13.787-19.381 5.85-4.168 8.983-5.627 9.4-4.377.627 1.876-1.88 21.258-4.386 23.759-2.507 2.5-20.681 11.879-20.681 11.254 0-.417-3.134-3.335-9.4-8.753l-.627-2.501 3.76-1.25z" fill="#E5C5A4" mask="url(#k)"/></g><path d="M74.433 211.685c1.317 6.955 5.347 10.976 11.967 11.908a.813.813 0 0 0 .228-1.61c-5.913-.832-9.404-4.315-10.594-10.6a.815.815 0 0 0-1.6.302z" fill="#2A2A2A" fill-rule="nonzero"/><ellipse fill="#F4D9BD" cx="11.311" cy="200.28" rx="7.52" ry="7.503"/><g transform="translate(40.139 52.728)"><mask id="m" fill="#fff"><use xlink:href="#l"/></mask><use fill="#F4D9BD" xlink:href="#l"/><path stroke="#2A2A2A" stroke-width="1.882" d="M.312 19.3V.365L22.774-.993l.096.893c1.261 11.747 1.885 18.178 1.885 19.482 0 .154.73 3.034.809 3.372.58 2.51.891 4.735.854 6.89-.117 6.767-3.765 11.007-11.97 11.31C2.515 41.395-2.256 33.951.313 19.3z"/><path d="M.627 23.758c7.102-1.667 11.49-3.75 13.16-6.252 1.671-2.5 4.805-3.96 9.4-4.376l.627-3.752c-1.67-.833-2.924-1.25-3.76-1.25-.835 0-6.893-.209-18.174-.625l-4.387 1.25 1.88 15.005H.627z" fill="#E5C5A4" mask="url(#m)"/></g><g transform="translate(33.46 .21)"><mask id="o" fill="#fff"><use xlink:href="#n"/></mask><use fill="#F4D9BD" xlink:href="#n"/><path stroke="#2A2A2A" stroke-width="1.882" d="M1.763 35.722C.51 30.75-.164 25.563-.164 21.153c0-14.61 4.468-21.178 15.7-21.448C27.513-.582 33.709 3.208 36.642 13.39c1.393 4.835 1.161 10.34-1.26 22.288-2.43 11.987-10.18 19.657-17.843 19.657-6.621 0-12.818-7.894-15.776-19.613z"/><path d="M23.964 26.361c2.178-1.086 3.856-.79 5.278.904a.816.816 0 0 0 1.148.1.811.811 0 0 0 .101-1.145c-1.92-2.285-4.42-2.727-7.256-1.313a.812.812 0 0 0-.364 1.09.816.816 0 0 0 1.093.364z" fill="#6D4C33" fill-rule="nonzero" mask="url(#o)"/><path d="M38.014 36.888c-3.76-5.002-5.85-8.545-6.267-10.629-.627-3.126 2.507-3.751-3.134-5.001-5.64-1.25-7.52 3.473-13.16 4.723-5.64 1.25-13.16 9.031-13.788 10.907-.626 1.876 1.88-7.503-1.88-7.503s-.626.626-1.253 3.752c-.418 2.084-.836 2.917-1.253 2.5V13.756l18.174-1.876c11.28.417 17.13.834 17.547 1.25.627.626 8.147 8.129 8.147 8.754 0 .417-1.044 5.418-3.133 15.005z" fill="#E5C5A4" mask="url(#o)"/><path d="M7.315 28.017c1.427-1.78 3.098-2.113 5.267-1.03.402.2.891.037 1.093-.364a.812.812 0 0 0-.365-1.09c-2.844-1.42-5.352-.92-7.267 1.469a.811.811 0 0 0 .127 1.142.816.816 0 0 0 1.145-.127z" fill="#6D4C33" fill-rule="nonzero" mask="url(#o)"/></g><path fill="#FFF" d="M42.019 68.993l10.654 22.048 10.653-23.308 6.894 6.3-10.027 77.48-20.054-1.26-10.027-61.732 11.907-20.788z"/><path d="M63.39 71.485l-13.636 83.78c14.049-8.754 21.486-13.547 22.313-14.38.826-.834-.413-23.134-3.719-66.9l-4.958-2.5z" fill="#E1E1E1"/><path d="M33.832 29.04c-4.31-.389-5.82.846-4.526 3.704 1.293 2.859 3.233 4.073 5.82 3.644M70.844 29.043c3.87-.41 5.18.897 3.934 3.92-1.248 3.025-2.767 4.094-4.558 3.208" fill="#F4D9BD"/><ellipse fill="#2A2A2A" cx="45.779" cy="32.096" rx="1.88" ry="1.876"/><ellipse fill="#2A2A2A" cx="58.313" cy="32.096" rx="1.88" ry="1.876"/><path d="M43.899 44.08l16.294-1.355c-1.304 5.418-4.128 7.902-8.473 7.45-4.345-.451-6.952-2.483-7.821-6.096z" fill="#FFF"/><g transform="translate(.03 66.483)"><mask id="q" fill="#fff"><use xlink:href="#p"/></mask><use fill="#B69C80" xlink:href="#p"/><path d="M25.068 1.051l-1.254 5.627 1.88 7.503-.626 4.376 25.694 60.021 4.387 2.501 6.267-8.127c10.027-35.013 15.04-52.727 15.04-53.144 0-.417 1.045-4.168 3.134-11.254V-.2l-3.133-.626-51.39 1.876z" fill="#7A6448" opacity=".4" mask="url(#q)"/><path d="M21.934 28.76c4.596 14.589 6.476 29.177 5.64 43.766-1.253 21.882-5.013 51.893 0 56.27 2.397 2.091 9.401 5.001 21.935 10.003 12.534 5.002 48.733-4.853 52.016-8.128 4.387-4.376-7.751-30.168-10.027-53.144-1.46-14.733-14.078-32.511-8.774-50.642.645-2.206 13.787 24.383 29.454 24.383 12.534-7.503 21.026-55.661 23.815-48.767 4.377 10.822-14.048 123.735-14.414 126.295-.836 5.835-34.05 12.712-99.645 20.632l-9.4-8.128c1.671-22.091 3.342-42.307 5.013-60.646a3751.6 3751.6 0 0 0 4.387-51.894z" fill="#7A6448" opacity=".4" mask="url(#q)"/><path d="M101.525 54.394c3.76-11.67 11.28-14.171 22.56-7.502 11.281 6.669 14.415 14.171 9.401 22.508l-31.961-13.073v-1.933z" stroke="#979797" stroke-width="1.255" fill="#7F7F7F" mask="url(#q)"/><path d="M-.94 56.895c9.669 5.36 12.892 10.45 9.669 15.273-3.223 4.824-7.252 9.11-12.086 12.862L-.94 56.895z" fill="#7A6448" opacity=".4" mask="url(#q)"/></g><g stroke-linecap="round" stroke-linejoin="round" transform="translate(30.112)"><use fill="#976D51" xlink:href="#r"/><path stroke="#976D51" stroke-width="1.882" d="M.652 25.996c-.13-.1-.24-.229-.318-.375a1.87 1.87 0 0 1-.172-.534c-.06-.308-.105-.746-.135-1.285-.064-1.14-.055-2.633.037-4.166.243-4.035.971-7.61 2.25-9.884C5.95 3.28 12.538-.914 21.681-.73c10.026.2 14.2 2.663 18.619 10.481 1.848 3.27 2.886 6.838 3.27 10.403.262 2.44.174 4.911-.115 5.487-.316.63-.736.988-1.543 1.482l-.367.223c-.676.422-.986.743-1.172 1.298a2.69 2.69 0 0 1-.13.333.959.959 0 0 1-.25.333.95.95 0 0 1-1.482-.298c-.137-.281-.135-.314-.075-.908.023-.223.208-1.73.264-2.234.122-1.09.207-2.06.25-2.978.091-1.922-.017-3.388-.343-4.2-.289-.72-.431-1.226-1.032-3.512-.372-1.412-.666-2.397-.897-2.997-.207.575-.43 1.437-.662 2.59-.787 3.93-2.837 5.17-8.258 6.162-5.78 1.057-6.928 1.318-9.972 2.529-4.361 1.734-8.53 4.479-12.736 8.674L3.976 33.21l-.482-1.441a3.504 3.504 0 0 0-.044-.126 1.63 1.63 0 0 0-.177-.352c-.065-.1-.462-.62-.547-.738a22.624 22.624 0 0 1-1.129-1.724 6.738 6.738 0 0 1-.81-2.008 5.61 5.61 0 0 1-.135-.825z"/></g><path d="M36.379 64.607L26.929 70c-.55 2.296-.716 4.13-.5 5.5.216 1.37.882 4.87 2 10.5l3.5.5-2.444 2.315 25.694 60.197v-6.826c-5.485-24.37-9.872-42.574-13.16-54.612-3.289-12.039-5.169-19.694-5.64-22.967zM65.833 63.982L75.93 68.5c.761 3.039 1.095 5.372 1 7-.095 1.628-.764 5.083-2.009 10.365h-4.073l2.507 2.5L55.429 149c-.333-4.25-.5-6.583-.5-7 0-.625 9.024-54.26 10.277-64.888.836-7.086 1.045-11.463.627-13.13z" fill="#7A6448"/><g stroke-linecap="round" stroke-linejoin="round" transform="matrix(-1 0 0 1 126.653 0)"><use fill="#FFF" xlink:href="#s"/><path stroke="#FFF" stroke-width="1.882" d="M59.232 66.662l1.553-7.074 6.86 6.947-.381.627c-1.72 2.832-3.013 4.85-3.886 6.064-.466.649-.82 1.082-1.101 1.331-.3.266-.57.414-.983.361-.672-.085-.903-.58-.903-1.105 0-.778-.376-3.14-1.122-6.96l-.037-.19z"/></g><ellipse fill="#776345" cx="48.286" cy="155.89" rx="3.133" ry="3.126"/><ellipse fill="#776345" cx="48.286" cy="169.645" rx="3.133" ry="3.126"/><ellipse fill="#776345" cx="48.286" cy="183.399" rx="3.133" ry="3.126"/><g stroke-linecap="round" stroke-linejoin="round"><use fill="#FFF" xlink:href="#t"/><path stroke="#FFF" stroke-width="1.882" d="M36.675 66.398l1.553-6.75 6.829 6.595-.323.623c-1.716 3.315-3.005 5.701-3.871 7.164-.451.763-.793 1.285-1.047 1.591-.236.286-.421.45-.744.528-.864.208-1.242-.43-1.242-1.05 0-.754-.38-3.645-1.128-8.523l-.027-.178z"/></g><g stroke-linecap="round" stroke-linejoin="round"><use fill="#976D51" xlink:href="#u"/><path stroke="#976D51" stroke-width="1.882" d="M36.047 33.765c1.004 4.87 2.103 8.248 3.26 10.097.97 1.55 1.714 1.81 2.61 1.165 3.504-2.83 13.79-3.28 19.436-.747 2.783 1.248 5.131-2.765 6.684-12.951l1.867.226c-1.263 14.051-2.27 21.372-3.233 22.805-.187.279-1.447 3.1-2.008 4.069-1.687 2.916-3.95 4.703-7.293 5.04-8.61.87-16.433-.746-18.78-5.489-1.711-3.453-3.159-11.388-4.401-23.932l1.858-.283zm23.79 13.802c-3.002-1.109-6.399-1.497-9.723-1.258-1.469.106-2.843.334-3.953.64-.927.254-1.588.548-1.753.715.03-.03.03.229.205.702.245.666.735 1.465 1.38 2.218 1.526 1.784 3.524 2.932 5.438 2.932 3.659 0 7.358-2.978 8.407-5.949z"/></g></g><ellipse fill="#494947" transform="rotate(17 300.59 70.782)" cx="300.591" cy="70.782" rx="12.568" ry="9.368"/><g transform="translate(0 69.7)"><g transform="translate(54.462)"><mask id="w" fill="#fff"><use xlink:href="#v"/></mask><use fill="#FCF2D0" xlink:href="#v"/><path d="M7.331 27.625c2.793 18.042 3.84 31.4 3.143 40.075-.699 8.674 1.396 13.185 6.284 13.532l34.039-7.807c-2.793-20.124-3.492-37.473-2.095-52.045-9.426-1.388-14.663-5.378-15.71-11.97-4.233 5.78-7.899 9.77-10.998 11.97-3.098 2.2-7.986 4.281-14.663 6.245z" fill="#E8DBB2" mask="url(#w)"/></g><use fill="#FCF2D0" xlink:href="#x" transform="translate(54.462)"/><g transform="translate(0 67.7)"><mask id="z" fill="#fff"><use xlink:href="#y"/></mask><use fill="#ABD733" fill-rule="nonzero" xlink:href="#y"/><path d="M60.223 24.982c-2.095 6.592-2.793 11.623-2.095 15.093 1.047 5.205 9.426 14.052 19.376 15.614 6.633 1.04 12.394 14.052 17.282 39.034H58.128l-59.175 3.122c-4.19-16.654-1.222-22.9 8.902-18.736 10.125 4.164 27.58 4.164 52.368 0v-6.245l-8.903-1.562c-2.443-22.553-1.92-35.564 1.571-39.034l7.332-7.286zM127.253 75.466l5.5-18.216V31.227l-12.831 8.848-9.426 37.473z" fill="#9BC02C" mask="url(#z)"/><path d="M58.128 3.643c10.474 0 15.187 11.97 25.66 11.97 10.474 0 14.663-11.45 26.184-11.97 7.68-.347 4.19-5.03-10.473-14.052C64.936-1.041 51.146 3.643 58.129 3.643z" fill="#9BC02C" opacity=".7" mask="url(#z)"/></g><g transform="translate(75.41 50.005)"><mask id="B" fill="#fff"><use xlink:href="#A"/></mask><use fill="#E7CBAF" xlink:href="#A"/><path d="M2.095 28.625c-.699-3.817.698-6.94 4.19-9.368 5.236-3.643 13.091-3.643 14.138-5.205.699-1.04 1.048-5.378 1.048-13.011H-19.9l13.615 26.023 8.379 1.561z" fill="#CFAF8D" opacity=".6" mask="url(#B)"/></g><path d="M101.07 32.83c3.142 0 4.19 1.908 3.142 5.725-1.571 5.725-2.619 3.643-6.284 3.122M65.983 33.35c-3.142 0-4.19 1.908-3.142 5.725 1.571 5.725 2.619 3.643 6.284 3.123" fill="#E7CBAF"/><g transform="translate(65.983 13.573)"><mask id="D" fill="#fff"><use xlink:href="#C"/></mask><use fill="#E7CBAF" xlink:href="#C"/><path d="M6.284 17.175c1.047-.694 2.27-1.04 3.666-1.04s2.618.52 3.666 1.56" stroke="#FBF2CE" stroke-width="1.568" stroke-linecap="round" stroke-linejoin="round" mask="url(#D)" transform="rotate(-17 9.95 16.915)"/><path d="M20.947 17.175c1.047-.694 2.27-1.04 3.666-1.04s2.618.52 3.666 1.56" stroke="#FBF2CE" stroke-width="1.568" stroke-linecap="round" stroke-linejoin="round" mask="url(#D)" transform="scale(-1 1) rotate(-17 0 181.603)"/><path d="M-.524 18.736c9.077-.347 16.933-4.51 23.566-12.49 2.094 4.163 13.092 6.765 13.615 6.765.35 0-.174-5.378-1.57-16.134L13.091-9.368 2.618 0l-7.855 15.093 4.713 3.643z" fill="#CFAF8D" opacity=".3" mask="url(#D)"/></g><path d="M77.504 50.005l13.092-1.041c-1.047 4.163-3.317 6.072-6.808 5.725-3.49-.347-5.586-1.909-6.284-4.684z" fill="#FFF"/><ellipse fill="#2A2A2A" cx="77.504" cy="35.432" rx="2.095" ry="2.082"/><ellipse fill="#2A2A2A" cx="89.025" cy="35.432" rx="2.095" ry="2.082"/><use fill="#FFF" xlink:href="#E"/><use fill="#000" filter="url(#F)" xlink:href="#E"/><g transform="matrix(1 0 0 -1 0 247.818)"><use fill="#FFF" xlink:href="#G"/><use fill="#000" filter="url(#H)" xlink:href="#G"/></g><path d="M58.652 141.084h18.332a2.09 2.09 0 0 1 2.091 2.091v.502a2.09 2.09 0 0 1-2.09 2.091h-8.383 9.962a2.082 2.082 0 1 1 0 4.164H68.067h8.939a2.082 2.082 0 1 1 0 4.164h-8.404 6.297c1.15 0 2.082.932 2.082 2.081 0 .863-.7 1.562-1.562 1.562H59.175c-2.443-3.123-3.49-6.42-3.142-9.889.35-3.47 1.222-5.725 2.619-6.766z" fill="#E7CBAF"/></g><use fill="#494947" xlink:href="#I" transform="matrix(-1 0 0 1 315.253 69.7)"/><g transform="matrix(-1 0 0 1 376 136.4)"><mask id="K" fill="#fff"><use xlink:href="#J"/></mask><use fill="#F8D763" fill-rule="nonzero" xlink:href="#J"/><path d="M60.223 25.982c-2.095 6.592-2.793 11.623-2.095 15.093 1.047 5.205 9.426 14.052 19.376 15.614 6.633 1.04 12.394 14.052 17.282 39.034H58.128l-59.175 3.122c-4.19-16.654-1.222-22.9 8.902-18.736 10.125 4.164 27.58 4.164 52.368 0v-6.245l-8.903-1.562c-2.443-22.553-1.92-35.564 1.571-39.034l7.332-7.286z" fill="#DCB11C" opacity=".5" mask="url(#K)"/><path d="M58.128 4.643c10.474 0 15.187 11.97 25.66 11.97 10.474 0 14.663-11.45 26.184-11.97 7.68-.347 4.19-5.03-10.473-14.052C64.936-.041 51.146 4.643 58.129 4.643z" fill="#DCB11C" opacity=".4" mask="url(#K)"/><path d="M103.5 91.1c.433-2.595-3.099-13.582-1-25.954.489-2.883 5-2.546 7-9.546 3.02-10.573 2.614-22.9 1.914-25-1.5-4.5 6.086 28.5 4.586 36.5s5 22.5 5 24c0 1-2.167 4.333-6.5 10-8-2.667-11.667-6-11-10z" fill="#DCB11C" opacity=".5" mask="url(#K)"/></g><g transform="matrix(-1 0 0 1 300.59 119.705)"><mask id="M" fill="#fff"><use xlink:href="#L"/></mask><use fill="#A68768" xlink:href="#L"/><path d="M2.095 28.625c-.699-3.817.698-6.94 4.19-9.368 5.236-3.643 13.091-3.643 14.138-5.205.699-1.04 1.048-5.378 1.048-13.011H-19.9l13.615 26.023 8.379 1.561z" fill="#795E43" opacity=".6" mask="url(#M)"/></g><path d="M274.93 102.53c-3.142 0-4.19 1.908-3.142 5.725 1.571 5.725 2.619 3.643 6.284 3.122" fill="#A68768"/><g transform="matrix(-1 0 0 1 310.017 86.395)"><mask id="O" fill="#fff"><use xlink:href="#N"/></mask><use fill="#A68768" xlink:href="#N"/><ellipse fill="#2A2A2A" mask="url(#O)" transform="matrix(-1 0 0 1 25.136 0)" cx="12.568" cy="18.736" rx="2.095" ry="2.082"/><path d="M6.808 27.064c9.951-2.393 10.473-10.93 20.423-22.9 2.095 4.163 8.903 5.725 9.426 5.725.35 0-.174-5.378-1.57-16.134l-21.995-6.246L2.618-3.123-5.237 11.97C-3.84 23.628.173 28.66 6.808 27.064z" fill="#795E43" opacity=".32" mask="url(#O)"/></g><path d="M298.496 119.705l-13.092-1.041c1.047 4.163 3.317 6.072 6.808 5.725 3.49-.347 5.586-1.909 6.284-4.684z" fill="#FFF"/><ellipse fill="#2A2A2A" transform="matrix(-1 0 0 1 573.95 0)" cx="286.975" cy="105.132" rx="2.095" ry="2.082"/><path d="M281.974 101.508c.8-.97 1.866-1.659 3.202-2.067 1.335-.408 2.656-.268 3.962.421" stroke="#494947" stroke-width="1.568" stroke-linecap="round" stroke-linejoin="round"/><path d="M317.348 210.784h-18.332a2.09 2.09 0 0 0-2.091 2.091v.502a2.09 2.09 0 0 0 2.09 2.091h8.383-9.962a2.082 2.082 0 1 0 0 4.164h10.497-8.939a2.082 2.082 0 1 0 0 4.164h8.404-6.297c-1.15 0-2.082.932-2.082 2.081 0 .863.7 1.562 1.562 1.562h16.244c2.443-3.123 3.49-6.42 3.142-9.889-.35-3.47-1.222-5.725-2.619-6.766z" fill="#E7CBAF"/><g transform="translate(87.978 63.495)"><g transform="translate(0 64.536)"><mask id="Q" fill="#fff"><use xlink:href="#P"/></mask><use fill="#FFF" fill-rule="nonzero" xlink:href="#P"/><path d="M60.223 24.982c-2.095 6.592-2.793 11.623-2.095 15.093 1.047 5.205 9.426 14.052 19.376 15.614 6.633 1.04 12.394 17.175 17.282 48.402H58.128l-59.175 3.123c-4.19-16.655-1.222-22.9 8.902-18.737 10.125 4.164 27.58 4.164 52.368 0v-6.245L51.32 80.67c-11.198-1.134-18.298-2.535-21.298-4.202-3.148-1.749 21.855-43.192 22.87-44.2l7.33-7.286z" fill="#ECECEC" opacity=".5" mask="url(#Q)"/><path d="M80.123 16.655c10.122 0 16.331-2.843 16.9-16.135.019-.46 2.476-1.066 2.476-1.552v-9.377C82.356-5.88 72.755-2.235 70.696.52c-4.795 6.42 5.18 16.134 9.427 16.134z" fill="#ECECEC" opacity=".4" mask="url(#Q)"/><path d="M109.022 29.468c-2.666 17-3.166 33.167-1.5 48.5 1.667 15.334 1.667 23 0 23h8.5c-2.82-23.78-4.23-40.28-4.23-49.5 0-9.22-.924-16.553-2.77-22z" fill="#ECECEC" opacity=".5" mask="url(#Q)"/></g><path d="M66.522 33.505c-4.84-6.299-5.34-14.132-1.5-23.5 5.76-14.053-5.323-7.923 13.53-7.923 18.852 0 12.044 4.684 15.71 4.684 3.666 0 9.95 6.245 9.95 14.052 0 7.807-2.619 12.491-4.19 8.848-1.047-2.429-12.214-1.15-33.5 3.839z" fill="#3D3D3D"/><g transform="translate(75.41 46.84)"><mask id="S" fill="#fff"><use xlink:href="#R"/></mask><use fill="#F1D5B7" xlink:href="#R"/><path d="M2.095 28.625c-.699-3.817.698-6.94 4.19-9.368 5.236-3.643 13.091-3.643 14.138-5.205.699-1.04 1.048-5.378 1.048-13.011H-19.9l13.615 26.023 8.379 1.561z" fill="#E1BB95" opacity=".6" mask="url(#S)"/></g><path d="M101.07 29.666c3.142 0 4.19 1.908 3.142 5.725-1.571 5.725-2.619 3.643-6.284 3.123M65.983 30.186c-3.142 0-4.19 1.909-3.142 5.725 1.571 5.725 2.619 3.644 6.284 3.123" fill="#F1D5B7"/><g transform="translate(65.936 12.49)"><mask id="U" fill="#fff"><use xlink:href="#T"/></mask><use fill="#F1D5B7" xlink:href="#T"/><path d="M.047 14.052c-.563-7.46 2.928-11.19 10.474-11.19 2.618 0 5.313 2.399 8.902 3.904 2.957 1.24 8.317-.034 11.521 1.04 4.57 1.534 5.556 5.205 5.76 5.205.35 0-.174-5.378-1.57-16.134L13.139-9.368 2.666 0-5.19 15.093l5.236-1.04z" fill="#E1BB95" opacity=".7" mask="url(#U)"/></g><path d="M77.504 46.84l13.092-1.04c-1.047 4.164-3.317 6.072-6.808 5.725-3.49-.347-5.586-1.908-6.284-4.684z" fill="#FFF"/><ellipse fill="#2A2A2A" cx="77.504" cy="33.266" rx="2.095" ry="2.08"/><ellipse fill="#2A2A2A" cx="89.025" cy="33.266" rx="2.095" ry="2.08"/><path d="M72.504 27.644c.798-.97 1.865-1.658 3.2-2.067 1.336-.408 2.657-.268 3.963.422M94.026 27.644c-.8-.97-1.866-1.658-3.202-2.067-1.335-.408-2.656-.268-3.962.422" stroke="#3D3D3D" stroke-width="1.568" stroke-linecap="round" stroke-linejoin="round"/><path d="M59.175 147.81c11.172 0 18.853 1.213 23.042 3.642 4.19 2.43 3.791 6.593-1.195 12.491H58.652c-3.84-3.123-5.062-6.592-3.666-10.409 1.397-3.817 2.793-5.725 4.19-5.725z" fill="#E7CBAF"/><path d="M83.74 157.698c-2.792-2.776-5.76-4.51-8.902-5.205M81.123 160.82c-2.793-2.775-6.285-4.51-10.474-5.204M75.362 162.382c-2.095-1.735-4.364-2.776-6.808-3.123" stroke="#D8BA9B" stroke-width="1.5" stroke-linecap="round" stroke-linejoin="round"/></g><ellipse fill="#F0F0F0" cx="32.992" cy="54.648" rx="1.571" ry="1.561"/></g><path d="M192.52 123.049l.098.097-.233-.131.135.034zm2.32.58l1.551.387-.099.472c-.072.344-.07.702.007 1.054l.667 3a2.5 2.5 0 0 0 2.44 1.958h5.909a2.5 2.5 0 0 0 2.485-2.224l.333-3a2.5 2.5 0 0 0-2.485-2.776h-6.908a2.5 2.5 0 0 0-2.086 1.121l-.176.268-.317-.05c-.47-.072-.91-.142-1.32-.21zm29.583 0c1.438-.24 2.506-.455 3.209-.647.231-.063.4-.1.495-.11.015-.002.015-.002-.017-.009a.44.44 0 0 1-.346-.446c0-.137.037-.203.081-.252-.02.018-.043.038-.075.063-.11.083-.287.2-.527.343l-.097.075-.402.403-2.32.58zm2.321-.58l-.098.097.233-.131-.135.034zm-3.59.897l-.275.069.475.131-.2-.2zm-.1-.099l-.7-.7-.281.848c.34-.05.668-.1.981-.148z" stroke="#3D3D3D"/><path d="M219.908 122.5a2.5 2.5 0 0 1 2.44 3.042l-.666 3a2.5 2.5 0 0 1-2.44 1.958h-5.909a2.5 2.5 0 0 1-2.484-2.224l-.334-3A2.5 2.5 0 0 1 213 122.5h6.908z" stroke="#3D3D3D"/><path d="M208 125c.333-.667.75-1 1.25-1s.917.333 1.25 1" stroke="#3D3D3D" stroke-linecap="round" stroke-linejoin="round"/></g></svg>