<svg width="130" height="130" xmlns="http://www.w3.org/2000/svg" xmlns:xlink="http://www.w3.org/1999/xlink"><defs><ellipse id="a" cx="9.697" cy="25.5" rx="9.697" ry="25.5"/></defs><g fill="none" fill-rule="evenodd"><text font-family="Lato-Bold, Lato" font-size="40" font-weight="bold" fill="#2A2A2A" transform="translate(-657 -1061)"><tspan x="698.3" y="1223">17</tspan></text><g transform="translate(26 29)"><path d="M50.83 12.95S78 11 78 26c0 4.186-1.231 9.5-4.231 12-3.99 3.324-5.861 5.988-4.242 13.2 2.424 10.8 6.666 15 4.242 16.8-2.424 1.8-7.879 2.4-10.303 2.4-2.424 0-4.849-1.8-4.849-5.4 0-3.6 1.819-19.2-1.818-22.8-3.636-3.6-5.214-4.2-5.214-4.2H39.5V12.95h11.33z" fill="#EAE8E2"/><path d="M41.397 13h10.635c5.873 0 10.635 4.752 10.635 10.625v3.55c0 5.868-4.76 10.625-10.635 10.625H41.397" fill="#897157"/><mask id="b" fill="#fff"><use xlink:href="#a"/></mask><use fill="#DCB11C" xlink:href="#a"/><path d="M8 18c5-2 7.833-7 8.5-15 .667-8 4.5-5 11.5 9l-3 39-7-3c-1.667-6.667-5-11.833-10-15.5C9 27.167 9 22.333 8 18z" fill="#B79416" mask="url(#b)"/><path d="M10 0s9.377 8.75 8.623 25.25C17.868 41.75 12.264 48.75 10 51c2.425-.5 13.906-3.25 17.68-7 3.773-3.75 14.339-6 14.339-6s6.792-3.75 6.038-13.5c-.755-9.75-6.038-12-6.038-12s-6.793-1.5-14.34-6S10 0 10 0z" fill="#F8D763"/><ellipse fill="#FFF" cx="8.091" cy="25.4" rx="3.03" ry="7.2"/></g></g></svg>
