<svg width="130" height="130" xmlns="http://www.w3.org/2000/svg" xmlns:xlink="http://www.w3.org/1999/xlink"><defs><path d="M60.833 27.608C60.833 11.476 52.416.105 36.5.105c-15.916 0-24.333 11.371-24.333 27.503v9.168H6.119A6.12 6.12 0 0 0 0 42.888v48.895c0 3.375 2.74 6.112 6.13 6.112h60.74c3.386 0 6.13-2.745 6.13-6.112V42.888a6.11 6.11 0 0 0-6.119-6.112h-6.048v-9.168zM18.25 36.776V27.61c0-8.71 3.042-21.392 18.25-21.392S54.75 18.9 54.75 27.609v9.167h-36.5z" id="a"/></defs><g fill="none" fill-rule="evenodd"><g transform="translate(29 13)"><mask id="b" fill="#fff"><use xlink:href="#a"/></mask><use fill="#F8D763" xlink:href="#a"/><path d="M65.82 34.061s0 59.159-37.697 71.707c-37.697 12.55 92.147-4.183 92.147-4.183L77.19 22.707l-11.37 11.354z" fill="#DCB11C" opacity=".2" mask="url(#b)"/></g><path d="M89.833 40.608c0-16.132-8.417-27.503-24.333-27.503-15.916 0-24.333 11.371-24.333 27.503v9.168h48.666v-9.168zM47.25 49.776V40.61c0-8.71 3.042-21.392 18.25-21.392S83.75 31.9 83.75 40.609v9.167h-36.5z" fill="#D9D5CE"/><path d="M62.82 95.189a15.872 15.872 0 0 1-4.61-1.344c-1.434-.672-2.656-1.505-3.664-2.499l1.596-2.373c.14-.21.325-.381.556-.514.231-.133.473-.2.725-.2.308 0 .637.109.987.326.35.217.749.472 1.197.766.448.294.959.588 1.533.882.574.294 1.253.511 2.037.651l.798-9.408a32.41 32.41 0 0 1-2.95-.987 9.892 9.892 0 0 1-2.625-1.501c-.777-.623-1.404-1.411-1.88-2.363s-.714-2.142-.714-3.57a7.97 7.97 0 0 1 .64-3.118 8.295 8.295 0 0 1 1.859-2.72c.812-.798 1.813-1.456 3.003-1.974 1.19-.518 2.555-.812 4.095-.882l.231-2.646c.028-.336.168-.637.42-.903s.581-.399.987-.399h1.911l-.357 4.137c1.484.238 2.765.658 3.843 1.26a13.97 13.97 0 0 1 2.814 2.037l-1.26 1.911c-.196.28-.392.49-.588.63-.196.14-.434.21-.714.21-.21 0-.458-.067-.745-.2a31.15 31.15 0 0 1-.987-.483c-.371-.189-.781-.381-1.229-.577a8.42 8.42 0 0 0-1.491-.483l-.735 8.694c1.008.308 2.006.647 2.993 1.018.987.371 1.876.851 2.666 1.439a6.903 6.903 0 0 1 1.922 2.194c.49.875.735 1.971.735 3.287 0 1.302-.217 2.524-.651 3.664a8.961 8.961 0 0 1-1.9 3.024c-.833.876-1.859 1.586-3.077 2.132s-2.611.875-4.179.987l-.252 3.087c-.028.322-.168.62-.42.892-.252.273-.581.41-.987.41h-1.911l.378-4.494zm8.085-8.904c0-.532-.094-.997-.283-1.396a3.337 3.337 0 0 0-.798-1.061 5.169 5.169 0 0 0-1.208-.798 12.576 12.576 0 0 0-1.512-.609l-.714 8.526c1.484-.196 2.608-.696 3.37-1.501.763-.805 1.145-1.859 1.145-3.161zM60.699 72.551c0 .532.091 1.001.273 1.407.182.406.438.767.767 1.082.329.315.717.595 1.165.84.448.245.938.465 1.47.661l.651-7.77c-.77.098-1.428.263-1.974.494-.546.23-.994.514-1.344.85-.35.336-.605.71-.766 1.124-.161.413-.242.85-.242 1.312z" fill="#50432C"/></g></svg>
