<?xml version="1.0" encoding="UTF-8"?>
<svg width="187px" height="43px" viewBox="0 0 187 43" version="1.1" xmlns="http://www.w3.org/2000/svg" xmlns:xlink="http://www.w3.org/1999/xlink">
    <!-- Generator: Sketch 52.2 (67145) - http://www.bohemiancoding.com/sketch -->
    <title>Group 2</title>
    <desc>Created with Sketch.</desc>
    <defs>
        <rect id="path-1" x="0" y="0" width="185" height="40" rx="2"></rect>
        <filter x="-1.1%" y="-5.0%" width="102.2%" height="112.5%" filterUnits="objectBoundingBox" id="filter-2">
            <feOffset dx="0" dy="1" in="SourceAlpha" result="shadowOffsetOuter1"></feOffset>
            <feGaussianBlur stdDeviation="0.5" in="shadowOffsetOuter1" result="shadowBlurOuter1"></feGaussianBlur>
            <feColorMatrix values="0 0 0 0 0   0 0 0 0 0   0 0 0 0 0  0 0 0 0.24 0" type="matrix" in="shadowBlurOuter1" result="shadowMatrixOuter1"></feColorMatrix>
            <feOffset dx="0" dy="0" in="SourceAlpha" result="shadowOffsetOuter2"></feOffset>
            <feGaussianBlur stdDeviation="0.5" in="shadowOffsetOuter2" result="shadowBlurOuter2"></feGaussianBlur>
            <feColorMatrix values="0 0 0 0 0   0 0 0 0 0   0 0 0 0 0  0 0 0 0.12 0" type="matrix" in="shadowBlurOuter2" result="shadowMatrixOuter2"></feColorMatrix>
            <feMerge>
                <feMergeNode in="shadowMatrixOuter1"></feMergeNode>
                <feMergeNode in="shadowMatrixOuter2"></feMergeNode>
            </feMerge>
        </filter>
    </defs>
    <g id="Landing-v2" stroke="none" stroke-width="1" fill="none" fill-rule="evenodd">
        <g id="Landing-page---Beautiful-Books" transform="translate(-391.000000, -608.000000)">
            <g id="Group-2" transform="translate(392.000000, 609.000000)">
                <g id="Group">
                    <g id="button">
                        <g id="button-bg">
                            <use fill="black" fill-opacity="1" filter="url(#filter-2)" xlink:href="#path-1"></use>
                            <use fill="#FFFFFF" fill-rule="evenodd" xlink:href="#path-1"></use>
                        </g>
                    </g>
                    <polygon id="Shape" points="11 11 29 11 29 29 11 29"></polygon>
                    <path d="M56.2138672,22.4365234 C56.2138672,21.9990212 56.0600601,21.661785 55.7524414,21.4248047 C55.4448227,21.1878243 54.889978,20.9485689 54.0878906,20.7070312 C53.2858033,20.4654936 52.6477888,20.1966161 52.1738281,19.9003906 C51.2669225,19.3307263 50.8134766,18.5878952 50.8134766,17.671875 C50.8134766,16.8697877 51.140459,16.208987 51.7944336,15.6894531 C52.4484082,15.1699193 53.2971953,14.9101562 54.3408203,14.9101562 C55.0335321,14.9101562 55.651039,15.0377591 56.1933594,15.2929688 C56.7356798,15.5481784 57.1617823,15.9116187 57.4716797,16.3833008 C57.7815771,16.8549828 57.9365234,17.3779268 57.9365234,17.9521484 L56.2138672,17.9521484 C56.2138672,17.4326146 56.0509456,17.0258804 55.7250977,16.7319336 C55.3992497,16.4379868 54.9332713,16.2910156 54.3271484,16.2910156 C53.7620414,16.2910156 53.3234065,16.4117826 53.0112305,16.6533203 C52.6990544,16.894858 52.5429688,17.2320942 52.5429688,17.6650391 C52.5429688,18.0296242 52.7115869,18.3338204 53.0488281,18.5776367 C53.3860694,18.821453 53.9420534,19.0584298 54.7167969,19.2885742 C55.4915403,19.5187186 56.1136044,19.7807602 56.5830078,20.074707 C57.0524112,20.3686538 57.3964833,20.70589 57.6152344,21.0864258 C57.8339855,21.4669615 57.9433594,21.9124323 57.9433594,22.4228516 C57.9433594,23.2522828 57.6254915,23.9119442 56.9897461,24.4018555 C56.3540007,24.8917668 55.4915419,25.1367188 54.4023438,25.1367188 C53.6822881,25.1367188 53.0203481,25.0034193 52.4165039,24.7368164 C51.8126597,24.4702135 51.3432634,24.1022159 51.0083008,23.6328125 C50.6733382,23.1634091 50.5058594,22.6165396 50.5058594,21.9921875 L52.2353516,21.9921875 C52.2353516,22.5572945 52.4221987,22.9947901 52.7958984,23.3046875 C53.1695982,23.6145849 53.7050746,23.7695312 54.4023438,23.7695312 C55.0039093,23.7695312 55.4562159,23.6476249 55.7592773,23.4038086 C56.0623388,23.1599923 56.2138672,22.8375671 56.2138672,22.4365234 Z M61.2861328,25 L59.625,25 L59.625,17.6035156 L61.2861328,17.6035156 L61.2861328,25 Z M59.5224609,15.6826172 C59.5224609,15.4274076 59.6033521,15.2154956 59.7651367,15.046875 C59.9269214,14.8782544 60.1582016,14.7939453 60.4589844,14.7939453 C60.7597671,14.7939453 60.9921867,14.8782544 61.15625,15.046875 C61.3203133,15.2154956 61.4023438,15.4274076 61.4023438,15.6826172 C61.4023438,15.9332695 61.3203133,16.1417635 61.15625,16.3081055 C60.9921867,16.4744474 60.7597671,16.5576172 60.4589844,16.5576172 C60.1582016,16.5576172 59.9269214,16.4744474 59.7651367,16.3081055 C59.6033521,16.1417635 59.5224609,15.9332695 59.5224609,15.6826172 Z M63.0224609,21.2470703 C63.0224609,20.0986271 63.2924778,19.1814813 63.8325195,18.4956055 C64.3725613,17.8097296 65.0891882,17.4667969 65.9824219,17.4667969 C66.825525,17.4667969 67.4886044,17.7607392 67.9716797,18.3486328 L68.046875,17.6035156 L69.5439453,17.6035156 L69.5439453,24.7744141 C69.5439453,25.745122 69.2420278,26.5107394 68.6381836,27.0712891 C68.0343394,27.6318387 67.2197317,27.9121094 66.1943359,27.9121094 C65.6520155,27.9121094 65.1222357,27.7993175 64.6049805,27.5737305 C64.0877253,27.3481434 63.6946628,27.0530617 63.4257812,26.6884766 L64.2119141,25.6904297 C64.7223333,26.2965525 65.3512332,26.5996094 66.0986328,26.5996094 C66.6500679,26.5996094 67.0852849,26.4503596 67.4042969,26.1518555 C67.7233089,25.8533514 67.8828125,25.4147164 67.8828125,24.8359375 L67.8828125,24.3369141 C67.4042945,24.8701199 66.76628,25.1367188 65.96875,25.1367188 C65.1028603,25.1367188 64.3953478,24.7926467 63.8461914,24.1044922 C63.297035,23.4163377 63.0224609,22.4638733 63.0224609,21.2470703 Z M64.6767578,21.390625 C64.6767578,22.1334673 64.8282862,22.7179341 65.1313477,23.144043 C65.4344091,23.5701519 65.854815,23.7832031 66.3925781,23.7832031 C67.0625033,23.7832031 67.5592432,23.4960966 67.8828125,22.921875 L67.8828125,19.6679688 C67.5683578,19.1074191 67.0761752,18.8271484 66.40625,18.8271484 C65.8593723,18.8271484 65.4344091,19.0436176 65.1313477,19.4765625 C64.8282862,19.9095074 64.6767578,20.5475218 64.6767578,21.390625 Z M73.0097656,17.6035156 L73.0576172,18.4580078 C73.6044949,17.7971972 74.3222612,17.4667969 75.2109375,17.4667969 C76.7513098,17.4667969 77.5351561,18.348624 77.5625,20.1123047 L77.5625,25 L75.9013672,25 L75.9013672,20.2080078 C75.9013672,19.7386044 75.7999685,19.3911144 75.597168,19.1655273 C75.3943675,18.9399403 75.0628278,18.8271484 74.6025391,18.8271484 C73.9326138,18.8271484 73.4335954,19.1302053 73.1054688,19.7363281 L73.1054688,25 L71.4443359,25 L71.4443359,17.6035156 L73.0097656,17.6035156 Z M84.9453125,25 L83.2841797,25 L83.2841797,17.6035156 L84.9453125,17.6035156 L84.9453125,25 Z M83.1816406,15.6826172 C83.1816406,15.4274076 83.2625317,15.2154956 83.4243164,15.046875 C83.5861011,14.8782544 83.8173813,14.7939453 84.1181641,14.7939453 C84.4189468,14.7939453 84.6513664,14.8782544 84.8154297,15.046875 C84.979493,15.2154956 85.0615234,15.4274076 85.0615234,15.6826172 C85.0615234,15.9332695 84.979493,16.1417635 84.8154297,16.3081055 C84.6513664,16.4744474 84.4189468,16.5576172 84.1181641,16.5576172 C83.8173813,16.5576172 83.5861011,16.4744474 83.4243164,16.3081055 C83.2625317,16.1417635 83.1816406,15.9332695 83.1816406,15.6826172 Z M88.5136719,17.6035156 L88.5615234,18.4580078 C89.1084012,17.7971972 89.8261674,17.4667969 90.7148438,17.4667969 C92.255216,17.4667969 93.0390624,18.348624 93.0664062,20.1123047 L93.0664062,25 L91.4052734,25 L91.4052734,20.2080078 C91.4052734,19.7386044 91.3038747,19.3911144 91.1010742,19.1655273 C90.8982737,18.9399403 90.5667341,18.8271484 90.1064453,18.8271484 C89.4365201,18.8271484 88.9375016,19.1302053 88.609375,19.7363281 L88.609375,25 L86.9482422,25 L86.9482422,17.6035156 L88.5136719,17.6035156 Z M105.179688,22.7099609 L106.355469,17.6035156 L107.975586,17.6035156 L105.958984,25 L104.591797,25 L103.005859,19.9208984 L101.447266,25 L100.080078,25 L98.0566406,17.6035156 L99.6767578,17.6035156 L100.873047,22.6552734 L102.390625,17.6035156 L103.641602,17.6035156 L105.179688,22.7099609 Z M111.072266,25 L109.411133,25 L109.411133,17.6035156 L111.072266,17.6035156 L111.072266,25 Z M109.308594,15.6826172 C109.308594,15.4274076 109.389485,15.2154956 109.55127,15.046875 C109.713054,14.8782544 109.944334,14.7939453 110.245117,14.7939453 C110.5459,14.7939453 110.778319,14.8782544 110.942383,15.046875 C111.106446,15.2154956 111.188477,15.4274076 111.188477,15.6826172 C111.188477,15.9332695 111.106446,16.1417635 110.942383,16.3081055 C110.778319,16.4744474 110.5459,16.5576172 110.245117,16.5576172 C109.944334,16.5576172 109.713054,16.4744474 109.55127,16.3081055 C109.389485,16.1417635 109.308594,15.9332695 109.308594,15.6826172 Z M115.180664,15.8056641 L115.180664,17.6035156 L116.486328,17.6035156 L116.486328,18.8339844 L115.180664,18.8339844 L115.180664,22.9628906 C115.180664,23.2454441 115.23649,23.4493809 115.348145,23.574707 C115.459799,23.7000332 115.659178,23.7626953 115.946289,23.7626953 C116.137696,23.7626953 116.331379,23.7399091 116.527344,23.6943359 L116.527344,24.9794922 C116.149087,25.0843104 115.784507,25.1367188 115.433594,25.1367188 C114.157546,25.1367188 113.519531,24.4326242 113.519531,23.0244141 L113.519531,18.8339844 L112.302734,18.8339844 L112.302734,17.6035156 L113.519531,17.6035156 L113.519531,15.8056641 L115.180664,15.8056641 Z M119.610352,18.4101562 C120.152672,17.7812469 120.838538,17.4667969 121.667969,17.4667969 C123.2448,17.4667969 124.044596,18.366853 124.067383,20.1669922 L124.067383,25 L122.40625,25 L122.40625,20.2285156 C122.40625,19.7180964 122.295737,19.3569347 122.074707,19.1450195 C121.853677,18.9331044 121.528973,18.8271484 121.100586,18.8271484 C120.435218,18.8271484 119.938478,19.1233694 119.610352,19.7158203 L119.610352,25 L117.949219,25 L117.949219,14.5 L119.610352,14.5 L119.610352,18.4101562 Z M137.458984,23.7080078 C137.098957,24.1774112 136.599938,24.5328764 135.961914,24.7744141 C135.32389,25.0159517 134.599288,25.1367188 133.788086,25.1367188 C132.954097,25.1367188 132.215824,24.947593 131.573242,24.5693359 C130.930661,24.1910788 130.43506,23.6499059 130.086426,22.9458008 C129.737791,22.2416957 129.556641,21.4202521 129.542969,20.4814453 L129.542969,19.7021484 C129.542969,18.1982347 129.902991,17.0236045 130.623047,16.1782227 C131.343103,15.3328408 132.347975,14.9101562 133.637695,14.9101562 C134.745123,14.9101562 135.624671,15.183591 136.276367,15.7304688 C136.928063,16.2773465 137.319986,17.0657501 137.452148,18.0957031 L135.756836,18.0957031 C135.565429,16.8971294 134.870449,16.2978516 133.671875,16.2978516 C132.897132,16.2978516 132.308107,16.5769829 131.904785,17.1352539 C131.501463,17.6935249 131.292969,18.5126899 131.279297,19.5927734 L131.279297,20.3583984 C131.279297,21.4339246 131.50602,22.26904 131.959473,22.8637695 C132.412925,23.4584991 133.042965,23.7558594 133.849609,23.7558594 C134.733728,23.7558594 135.362628,23.5553405 135.736328,23.1542969 L135.736328,21.2060547 L133.685547,21.2060547 L133.685547,19.8935547 L137.458984,19.8935547 L137.458984,23.7080078 Z M139.106445,21.2333984 C139.106445,20.5087854 139.249999,19.8559599 139.537109,19.2749023 C139.82422,18.6938448 140.227536,18.2472346 140.74707,17.9350586 C141.266604,17.6228826 141.863603,17.4667969 142.538086,17.4667969 C143.536138,17.4667969 144.346188,17.7880827 144.968262,18.4306641 C145.590335,19.0732454 145.926432,19.9254504 145.976562,20.9873047 L145.983398,21.3769531 C145.983398,22.1061234 145.843263,22.7578096 145.562988,23.3320312 C145.282713,23.9062529 144.881676,24.3505844 144.359863,24.6650391 C143.838051,24.9794938 143.235355,25.1367188 142.551758,25.1367188 C141.508133,25.1367188 140.673017,24.7892287 140.046387,24.0942383 C139.419756,23.3992478 139.106445,22.4729876 139.106445,21.3154297 L139.106445,21.2333984 Z M140.767578,21.3769531 C140.767578,22.1380246 140.924803,22.7338846 141.239258,23.1645508 C141.553713,23.595217 141.991208,23.8105469 142.551758,23.8105469 C143.112307,23.8105469 143.548664,23.5917991 143.86084,23.1542969 C144.173016,22.7167947 144.329102,22.0765016 144.329102,21.2333984 C144.329102,20.4859989 144.168459,19.8935569 143.847168,19.4560547 C143.525877,19.0185525 143.089521,18.7998047 142.538086,18.7998047 C141.995766,18.7998047 141.565106,19.0151346 141.246094,19.4458008 C140.927082,19.876467 140.767578,20.520178 140.767578,21.3769531 Z M147.295898,21.2333984 C147.295898,20.5087854 147.439452,19.8559599 147.726562,19.2749023 C148.013673,18.6938448 148.41699,18.2472346 148.936523,17.9350586 C149.456057,17.6228826 150.053057,17.4667969 150.727539,17.4667969 C151.725591,17.4667969 152.535641,17.7880827 153.157715,18.4306641 C153.779788,19.0732454 154.115885,19.9254504 154.166016,20.9873047 L154.172852,21.3769531 C154.172852,22.1061234 154.032716,22.7578096 153.752441,23.3320312 C153.472167,23.9062529 153.071129,24.3505844 152.549316,24.6650391 C152.027504,24.9794938 151.424808,25.1367188 150.741211,25.1367188 C149.697586,25.1367188 148.862471,24.7892287 148.23584,24.0942383 C147.609209,23.3992478 147.295898,22.4729876 147.295898,21.3154297 L147.295898,21.2333984 Z M148.957031,21.3769531 C148.957031,22.1380246 149.114256,22.7338846 149.428711,23.1645508 C149.743166,23.595217 150.180661,23.8105469 150.741211,23.8105469 C151.301761,23.8105469 151.738117,23.5917991 152.050293,23.1542969 C152.362469,22.7167947 152.518555,22.0765016 152.518555,21.2333984 C152.518555,20.4859989 152.357912,19.8935569 152.036621,19.4560547 C151.71533,19.0185525 151.278974,18.7998047 150.727539,18.7998047 C150.185219,18.7998047 149.754559,19.0151346 149.435547,19.4458008 C149.116535,19.876467 148.957031,20.520178 148.957031,21.3769531 Z M155.505859,21.2470703 C155.505859,20.0986271 155.775876,19.1814813 156.315918,18.4956055 C156.85596,17.8097296 157.572587,17.4667969 158.46582,17.4667969 C159.308923,17.4667969 159.972003,17.7607392 160.455078,18.3486328 L160.530273,17.6035156 L162.027344,17.6035156 L162.027344,24.7744141 C162.027344,25.745122 161.725426,26.5107394 161.121582,27.0712891 C160.517738,27.6318387 159.70313,27.9121094 158.677734,27.9121094 C158.135414,27.9121094 157.605634,27.7993175 157.088379,27.5737305 C156.571124,27.3481434 156.178061,27.0530617 155.90918,26.6884766 L156.695312,25.6904297 C157.205732,26.2965525 157.834632,26.5996094 158.582031,26.5996094 C159.133466,26.5996094 159.568683,26.4503596 159.887695,26.1518555 C160.206707,25.8533514 160.366211,25.4147164 160.366211,24.8359375 L160.366211,24.3369141 C159.887693,24.8701199 159.249678,25.1367188 158.452148,25.1367188 C157.586259,25.1367188 156.878746,24.7926467 156.32959,24.1044922 C155.780433,23.4163377 155.505859,22.4638733 155.505859,21.2470703 Z M157.160156,21.390625 C157.160156,22.1334673 157.311685,22.7179341 157.614746,23.144043 C157.917808,23.5701519 158.338213,23.7832031 158.875977,23.7832031 C159.545902,23.7832031 160.042642,23.4960966 160.366211,22.921875 L160.366211,19.6679688 C160.051756,19.1074191 159.559574,18.8271484 158.889648,18.8271484 C158.342771,18.8271484 157.917808,19.0436176 157.614746,19.4765625 C157.311685,19.9095074 157.160156,20.5475218 157.160156,21.390625 Z M165.71875,25 L164.057617,25 L164.057617,14.5 L165.71875,14.5 L165.71875,25 Z M171.00293,25.1367188 C169.95019,25.1367188 169.096846,24.8051791 168.442871,24.1420898 C167.788896,23.4790006 167.461914,22.5960342 167.461914,21.4931641 L167.461914,21.2880859 C167.461914,20.549801 167.604328,19.8901396 167.88916,19.309082 C168.173992,18.7280244 168.573891,18.2757178 169.088867,17.9521484 C169.603844,17.6285791 170.178057,17.4667969 170.811523,17.4667969 C171.81869,17.4667969 172.59684,17.7880827 173.145996,18.4306641 C173.695152,19.0732454 173.969727,19.982416 173.969727,21.1582031 L173.969727,21.828125 L169.136719,21.828125 C169.186849,22.4388051 169.390786,22.9218732 169.748535,23.2773438 C170.106284,23.6328143 170.556312,23.8105469 171.098633,23.8105469 C171.859704,23.8105469 172.47949,23.5029328 172.958008,22.8876953 L173.853516,23.7421875 C173.55729,24.184247 173.161949,24.5271798 172.66748,24.7709961 C172.173012,25.0148124 171.618167,25.1367188 171.00293,25.1367188 Z M170.804688,18.7998047 C170.348956,18.7998047 169.980958,18.9593083 169.700684,19.2783203 C169.420409,19.5973323 169.241537,20.0416638 169.164062,20.6113281 L172.329102,20.6113281 L172.329102,20.4882812 C172.292643,19.9322889 172.144533,19.5118829 171.884766,19.2270508 C171.624999,18.9422186 171.264976,18.7998047 170.804688,18.7998047 Z" id="Sign-in-with-Google" fill-opacity="0.54" fill="#000000"></path>
                </g>
                <path d="M28.64,20.2045455 C28.64,19.5663636 28.5827273,18.9527273 28.4763636,18.3636364 L20,18.3636364 L20,21.845 L24.8436364,21.845 C24.635,22.97 24.0009091,23.9231818 23.0477273,24.5613636 L23.0477273,26.8195455 L25.9563636,26.8195455 C27.6581818,25.2527273 28.64,22.9454545 28.64,20.2045455 L28.64,20.2045455 Z" id="Shape" fill="#4285F4"></path>
                <path d="M20,29 C22.43,29 24.4672727,28.1940909 25.9563636,26.8195455 L23.0477273,24.5613636 C22.2418182,25.1013636 21.2109091,25.4204545 20,25.4204545 C17.6559091,25.4204545 15.6718182,23.8372727 14.9640909,21.71 L11.9572727,21.71 L11.9572727,24.0418182 C13.4381818,26.9831818 16.4818182,29 20,29 L20,29 Z" id="Shape" fill="#34A853"></path>
                <path d="M14.9640909,21.71 C14.7840909,21.17 14.6818182,20.5931818 14.6818182,20 C14.6818182,19.4068182 14.7840909,18.83 14.9640909,18.29 L14.9640909,15.9581818 L11.9572727,15.9581818 C11.3477273,17.1731818 11,18.5477273 11,20 C11,21.4522727 11.3477273,22.8268182 11.9572727,24.0418182 L14.9640909,21.71 L14.9640909,21.71 Z" id="Shape" fill="#FBBC05"></path>
                <path d="M20,14.5795455 C21.3213636,14.5795455 22.5077273,15.0336364 23.4404545,15.9254545 L26.0218182,13.3440909 C24.4631818,11.8918182 22.4259091,11 20,11 C16.4818182,11 13.4381818,13.0168182 11.9572727,15.9581818 L14.9640909,18.29 C15.6718182,16.1627273 17.6559091,14.5795455 20,14.5795455 L20,14.5795455 Z" id="Shape" fill="#EA4335"></path>
            </g>
        </g>
    </g>
</svg>