<svg width="170" height="160" xmlns="http://www.w3.org/2000/svg" xmlns:xlink="http://www.w3.org/1999/xlink"><defs><rect id="a" x=".672" y="32.894" width="2.474" height="10.068" rx="1.237"/><rect id="b" x="16.841" y="33.065" width="2.474" height="10.068" rx="1.237"/><path id="c" d="M5.977 49.021l.774 21.762h1.778l1.083-22.768z"/><path id="d" d="M10.926 49.021l.928 21.762h1.778l.773-22.768z"/><path d="M9.938.263c-3.996 1.652-6.374 2.762-7.135 3.33C2.051 4.154 1.25 6.456.4 10.497c-.02.094-.03.19-.033.286C.207 18.81.208 23.307.37 24.27c.125.75.304 1.085.99 1.24.684.154.893.443 1.444-.233.759-.93 1.266-6.066 1.522-15.411l-.276 12.66a1.254 1.254 0 0 0 2.335.663l.223-.38c.262-8.207.58-14.184.953-17.929.56-5.618.787-3.6 1.574-4 .398-.202 3.015-.357 3.149.8.262 2.264.728 9.458 1.4 21.584a1.24 1.24 0 0 0 2.277-.75l-.756-12.88c.651 9.133 1.184 14.27 1.597 15.41.316.872.848.804 1.446.698.575-.103 1.22-.208 1.369-1.24.203-1.4-.025-6.092-.683-14.077a1.254 1.254 0 0 0-.004-.038c-.415-3.661-.976-5.85-1.68-6.568-.707-.718-3.144-1.904-7.311-3.556z" id="e"/><path d="M3.629.812l.185 9.05s-.471 2.013-1.971 2.013S0 9.862 0 9.862V0l3.629.812z" id="g"/><path d="M.39 7.454C.128 6.41 0 5.357 0 4.494 0 1.698 1.67.057 3.943.002c2.274-.054 3.807.85 4.408 2.943.243.85.092 2.514-.369 4.193-.674 2.458-2.816 4.6-3.749 4.636C3.534 11.8.978 9.792.39 7.454z" id="i"/><path d="M6.115 0h104.114a4.32 4.32 0 0 1 4.32 4.264c.232 18.081 1.018 28.98 2.356 32.696 1.017 2.825-1.086 2.395-29.04 2.16-11.692-.098-30.786-3.506-45.36-3.6-24.595-.16-43.278 1.834-42.48 0 1.479-3.402 2.069-13.777 1.77-31.126A4.32 4.32 0 0 1 6.116 0z" id="k"/><path id="n" d="M86.24 70l3.84-13.2h8.64L96.56 70z"/><filter x="-4%" y="-3.8%" width="116%" height="115.2%" filterUnits="objectBoundingBox" id="m"><feOffset dx="1" dy="1" in="SourceAlpha" result="shadowOffsetOuter1"/><feColorMatrix values="0 0 0 0 0 0 0 0 0 0 0 0 0 0 0 0 0 0 0.0500169837 0" in="shadowOffsetOuter1"/></filter><path id="p" d="M82.4 70l3.84-13.2h8.64L92.72 70z"/><filter x="-4%" y="-3.8%" width="116%" height="115.2%" filterUnits="objectBoundingBox" id="o"><feOffset dx="1" dy="1" in="SourceAlpha" result="shadowOffsetOuter1"/><feColorMatrix values="0 0 0 0 0 0 0 0 0 0 0 0 0 0 0 0 0 0 0.0500169837 0" in="shadowOffsetOuter1"/></filter><path id="r" d="M78.56 70l3.84-13.2h8.64L88.88 70z"/><filter x="-4%" y="-3.8%" width="116%" height="115.2%" filterUnits="objectBoundingBox" id="q"><feOffset dx="1" dy="1" in="SourceAlpha" result="shadowOffsetOuter1"/><feColorMatrix values="0 0 0 0 0 0 0 0 0 0 0 0 0 0 0 0 0 0 0.0500169837 0" in="shadowOffsetOuter1"/></filter></defs><g fill="none" fill-rule="evenodd"><path d="M39.5 128H5l-4.5 6.294h14.66L34 139H2.97l33.53 7.5h104a4 4 0 0 0 4-4v-2L43 139h-1l-21-4.706h28.525L39.5 128z" fill="#F4F1EC"/><g transform="translate(27.8 31.8)"><g transform="translate(47.52 32.32)"><path d="M6.862 13.137s.619 1.471 0 2.246c-.618.774 1.547-.465 1.392-1.627-.155-1.161-1.392-.62-1.392-.62zM11.875 12.089s-.232 2.168.85 3.407c1.083 1.24.232.542 0-1.549-.232-2.09-.85-1.858-.85-1.858z" fill="#F8D763"/><g transform="rotate(3 1.909 37.928)"><use fill="#F4D9BD" xlink:href="#a"/><rect stroke="#606060" stroke-width=".5" x=".922" y="33.144" width="1.974" height="9.568" rx=".987"/></g><g transform="rotate(-4 18.078 38.099)"><use fill="#F4D9BD" xlink:href="#b"/><rect stroke="#606060" stroke-width=".5" x="17.091" y="33.315" width="1.974" height="9.568" rx=".987"/></g><use fill="#606060" xlink:href="#c"/><path stroke="#606060" stroke-width=".5" d="M6.234 49.21l.758 21.323H8.29l1.054-22.185-3.11.862z"/><use fill="#606060" xlink:href="#d"/><path stroke="#606060" stroke-width=".5" d="M11.184 49.207l.91 21.326h1.297l.753-22.182-2.96.856z"/><path d="M6.055 21.374l-1.47 29.584 11.676 3.485L8.48 42.48s-1.089-12.474-.8-20c.124-3.233 2.4-5.615 2-5.6-1.33.05-3.625 4.494-3.625 4.494z" fill="#F0F0F0"/><path d="M13.992 21.374l1.47 29.584-11.676 3.485 7.78-11.963s1.09-12.474.8-20c-.123-3.233-2.4-5.615-2-5.6 1.332.05 3.626 4.494 3.626 4.494z" fill="#F0F0F0"/><g transform="translate(0 16)"><mask id="f" fill="#fff"><use xlink:href="#e"/></mask><use fill="#F8D763" xlink:href="#e"/><path d="M1.68 24.08c1.067-10.4 1.867-15.067 2.4-14 .533 1.067.933 5.733 1.2 14l9.6-.4c-.267-9.6-.133-14.4.4-14.4s1.467 4.8 2.8 14.4l-1.6 4-14.8-3.6z" fill="#EBC84E" mask="url(#f)"/></g><g transform="translate(8.05 11.512)"><mask id="h" fill="#fff"><use xlink:href="#g"/></mask><use fill="#F4D9BD" xlink:href="#g"/><path d="M-.619 3.346s.522 2.231 2.75 2.231c2.226 0 2.748-2.789 2.748-2.789l-5.498.558z" fill="#383231" opacity=".1" mask="url(#h)"/></g><g transform="translate(5.776 4.261)"><mask id="j" fill="#fff"><use xlink:href="#i"/></mask><use fill="#F4D9BD" xlink:href="#i"/><path d="M-.496 7.419c4.266-2.4 6.666-4.134 7.2-5.2.533 1.333 1.333 2.133 2.4 2.4l.8-5.6-8 .8-2.4 7.6z" fill="#E1C7AE" mask="url(#j)"/></g><path d="M9.174 2.463s-1.243-1.21.292-2.208c1.536-.997 5.117 1.14 5.483 2.706.365 1.567-1.9.997-1.9.997L9.173 2.463z" fill="#E7C756"/><path d="M5.735 10.873s5.258-2.168 6.263-5.963c1.623 1.162 2.474 3.718 2.474 3.718s1.237-4.105-2.32-5.809c-3.556-1.703-5.412.31-6.417 1.782-1.005 1.47-.541 5.343 0 6.272z" fill="#F8D763"/><path fill="#DCB11C" d="M8.053 16.8L4.96 20.285l3.093 8.519zM11.68 16.8l3.093 3.485-3.093 8.519z"/><ellipse fill="#A1A1A1" cx="14.173" cy="12.236" rx="1" ry="1"/><ellipse fill="#A1A1A1" cx="5.823" cy="12.236" rx="1" ry="1"/></g><path d="M3.68 82.56h110.4v26.4a2.88 2.88 0 0 1-2.88 2.88H6.56a2.88 2.88 0 0 1-2.88-2.88v-26.4z" fill="#5D5D5D"/><rect fill="#5D5D5D" x="13.6" width="5.6" height="72" rx=".96"/><rect fill="#5D5D5D" x="98.4" width="5.6" height="72" rx=".96"/><path fill="#353535" opacity=".5" d="M13.6 0h5.6v39.293h-5.6zM98.4 0h5.6v39.293h-5.6z"/><g transform="translate(0 70.4)"><mask id="l" fill="#fff"><use xlink:href="#k"/></mask><use fill="#F8D763" xlink:href="#k"/><path stroke="#DCB11C" stroke-width="2" d="M1.23 35.142c.721.108 1.894.16 3.569.159 1.495 0 3.359-.04 6.011-.124 1.463-.045 7.226-.244 8.032-.27 9.087-.302 16.101-.436 23.67-.387 4.944.032 10.511.423 17.968 1.18 1.727.175 3.452.359 5.908.626 12.985 1.412 16.731 1.754 21.485 1.794 1.467.012 2.935.026 4.48.041 19.33.19 18.785.188 21.445-.01 2.465-.185 2.42-.146 2.166-.852-1.393-3.869-2.18-14.802-2.416-33.022A3.32 3.32 0 0 0 110.228 1H6.059a3.32 3.32 0 0 0-3.263 3.377c.283 16.405-.218 26.58-1.564 30.765z"/><path d="M8-4.8c1.333 24 24.8 36.667 70.4 38 45.6 1.333 67.067 6.4 64.4 15.2l-166 9.2 2-61.6L8-4.8z" fill="#DCB11C" opacity=".4" mask="url(#l)"/></g><path d="M9.92 69.92h13.92s0-1.92-1.92-1.92H11.84c-1.92 0-1.92 1.92-1.92 1.92z" fill="#8F8F8F"/><path d="M9.92 68.52h13.92s0-1.92-1.92-1.92H11.84c-1.92 0-1.92 1.92-1.92 1.92z" fill="#8F8F8F"/><path d="M9.92 67.12h13.92s0-1.92-1.92-1.92H11.84c-1.92 0-1.92 1.92-1.92 1.92z" fill="#8F8F8F"/><path d="M9.92 65.72h13.92s0-1.92-1.92-1.92H11.84c-1.92 0-1.92 1.92-1.92 1.92zM25.28 69.92H39.2s0-1.92-1.92-1.92H27.2c-1.92 0-1.92 1.92-1.92 1.92z" fill="#8F8F8F"/><path d="M25.28 68.52H39.2s0-1.92-1.92-1.92H27.2c-1.92 0-1.92 1.92-1.92 1.92z" fill="#8F8F8F"/><path d="M25.28 67.12H39.2s0-1.92-1.92-1.92H27.2c-1.92 0-1.92 1.92-1.92 1.92z" fill="#8F8F8F"/><path d="M25.28 65.72H39.2s0-1.92-1.92-1.92H27.2c-1.92 0-1.92 1.92-1.92 1.92z" fill="#8F8F8F"/><path d="M80 67.6l6.96 2.88h12.981V67.6l-4.101-2.4 1.92-11.52h-1.2s-1.692 7.341-2.4 11.04c-.012.061.24.24.24.24l-8.16-.24 2.64-11.28h-1.2L84.32 65.2 80 67.6z" fill="#D9D5CE"/><path d="M9.92 64.32h13.92s0-1.92-1.92-1.92H11.84c-1.92 0-1.92 1.92-1.92 1.92zM98.72 56.8l.72.72-1.92 13.2H86.96l-.72-.72z" fill="#8F8F8F"/><use fill="#000" filter="url(#m)" xlink:href="#n"/><use fill="#D9D5CE" xlink:href="#n"/><text transform="rotate(2 92.148 61.868)" font-family="Lato-Bold, Lato" font-size="2.304" font-weight="bold" fill="#FFF"><tspan x="91.928" y="60.868"> MY </tspan> <tspan x="90.996" y="62.868">NEW </tspan> <tspan x="89.675" y="64.868">BOOK</tspan></text><path fill="#8F8F8F" d="M94.88 56.8l.72.72-1.92 13.2H83.12L82.4 70z"/><use fill="#000" filter="url(#o)" xlink:href="#p"/><use fill="#D9D5CE" xlink:href="#p"/><text transform="rotate(2 87.828 61.868)" font-family="Lato-Bold, Lato" font-size="2.304" font-weight="bold" fill="#FFF"><tspan x="87.608" y="60.868"> MY </tspan> <tspan x="86.676" y="62.868">NEW </tspan> <tspan x="85.355" y="64.868">BOOK</tspan></text><path fill="#8F8F8F" d="M91.04 56.8l.72.72-1.92 13.2H79.28l-.72-.72z"/><g><use fill="#000" filter="url(#q)" xlink:href="#r"/><use fill="#D9D5CE" xlink:href="#r"/></g><text transform="rotate(2 83.508 61.868)" font-family="Lato-Bold, Lato" font-size="2.304" font-weight="bold" fill="#FFF"><tspan x="83.288" y="60.868"> MY </tspan> <tspan x="82.356" y="62.868">NEW </tspan> <tspan x="81.035" y="64.868">BOOK</tspan></text></g><path d="M45.52 27h.724L31 57.4h-8l14.886-25.975A8.8 8.8 0 0 1 45.52 27zm6.546 0h5.822L47 57.4h-8L52.066 27zm11.645 0h5.822L63 57.4h-8L63.71 27zm11.644 0h5.823L79 57.4h-8L75.355 27zM87 27h5.822L95 57.4h-8V27zm11.645 0h5.822L111 57.4h-8L98.645 27zm11.644 0h5.823L127 57.4h-8L110.29 27zm11.645 0h5.822L143 57.4h-8L121.934 27z" fill="#F8D763"/><path d="M46.244 27h5.822L39 57.4h-8L46.244 27zm11.644 0h5.823L55 57.4h-8L57.888 27zm11.645 0h5.822L71 57.4h-8L69.533 27zm11.645 0H87v30.4h-8L81.178 27zm11.644 0h5.823L103 57.4h-8L92.822 27zm11.645 0h5.822L119 57.4h-8L104.467 27zm11.645 0h5.822L135 57.4h-8L116.112 27zm11.644 0h.723a8.8 8.8 0 0 1 7.635 4.425L151 57.4h-8L127.756 27z" fill="#DCB11C"/><path d="M23 57.4h8V59a4 4 0 0 1-8 0v-1.6zm16 0h8V59a4 4 0 1 1-8 0v-1.6zm16 0h8V59a4 4 0 1 1-8 0v-1.6zm16 0h8V59a4 4 0 1 1-8 0v-1.6zm16 0h8V59a4 4 0 1 1-8 0v-1.6zm16 0h8V59a4 4 0 0 1-8 0v-1.6zm16 0h8V59a4 4 0 0 1-8 0v-1.6zm16 0h8V59a4 4 0 0 1-8 0v-1.6z" fill="#E4C24A"/><path d="M31 57.4h8V59a4 4 0 0 1-8 0v-1.6zm16 0h8V59a4 4 0 1 1-8 0v-1.6zm16 0h8V59a4 4 0 1 1-8 0v-1.6zm16 0h8V59a4 4 0 1 1-8 0v-1.6zm16 0h8V59a4 4 0 1 1-8 0v-1.6zm16 0h8V59a4 4 0 1 1-8 0v-1.6zm16 0h8V59a4 4 0 1 1-8 0v-1.6zm16 0h8V59a4 4 0 1 1-8 0v-1.6z" fill="#C79D08"/></g></svg>
