<svg width="130" height="130" xmlns="http://www.w3.org/2000/svg" xmlns:xlink="http://www.w3.org/1999/xlink"><defs><path d="M12 6.676A6.675 6.675 0 0 1 18.678 0h84.644A6.675 6.675 0 0 1 110 6.676V66H12V6.676z" id="a"/></defs><g fill="none" fill-rule="evenodd"><text font-family="Lato-Bold, Lato" font-size="40" font-weight="bold" fill="#2A2A2A" transform="translate(-990 -1061)"><tspan x="1030.3" y="1223">40</tspan></text><g transform="translate(4 27)"><use fill="#FFF" xlink:href="#a"/><path stroke="#50432C" stroke-width="3.24" d="M13.62 64.38h94.76V6.676a5.055 5.055 0 0 0-5.058-5.056H18.678a5.055 5.055 0 0 0-5.058 5.056V64.38z"/><path d="M7 74h108a7 7 0 0 0 7-7v-1H0v1a7 7 0 0 0 7 7z" fill="#F8D763"/><g transform="translate(19 7)"><rect fill="#F8D763" width="84" height="52" rx="1"/><path d="M0 34h84v17a1 1 0 0 1-1 1H1a1 1 0 0 1-1-1V34z" fill="#EAE8E2"/><rect fill="#FFF" x="12" y="14" width="19" height="31" rx="2"/><rect fill="#FFF" x="78" y="1" width="5" height="3" rx="1.5"/><rect fill="#FFF" x="1" y="1" width="11" height="3" rx="1.5"/><rect fill="#FFF" x="34" y="19" width="30" height="4" rx="2"/><rect fill="#FFF" x="34" y="25" width="19" height="4" rx="2"/><rect fill="#D1D1D1" x="34" y="37" width="35" height="3" rx="1.5"/><rect fill="#D1D1D1" x="34" y="42" width="35" height="3" rx="1.5"/><rect fill="#FFF" x="15" y="1" width="6" height="3" rx="1.5"/></g><rect fill="#D8D8D8" x="34" y="30" width="13" height="3" rx="1"/><rect fill="#D8D8D8" x="36" y="46" width="9" height="1" rx=".5"/><rect fill="#D8D8D8" x="38" y="48" width="5" height="1" rx=".5"/><rect fill="#D8D8D8" x="38" y="24" width="5" height="1" rx=".5"/></g></g></svg>
