<svg width="130" height="130" xmlns="http://www.w3.org/2000/svg" xmlns:xlink="http://www.w3.org/1999/xlink"><defs><path d="M12 6.676A6.675 6.675 0 0 1 18.678 0h84.644A6.675 6.675 0 0 1 110 6.676V66H12V6.676z" id="a"/></defs><g fill="none" fill-rule="evenodd"><g transform="translate(4 26)"><use fill="#FFF" xlink:href="#a"/><path stroke="#50432C" stroke-width="3.24" d="M13.62 64.38h94.76V6.676a5.055 5.055 0 0 0-5.058-5.056H18.678a5.055 5.055 0 0 0-5.058 5.056V64.38z"/></g><path d="M27.5 39h74a1.5 1.5 0 0 1 0 3h-74a1.5 1.5 0 0 1 0-3zm0 8h74a1.5 1.5 0 0 1 0 3h-74a1.5 1.5 0 0 1 0-3zm0 8h74a1.5 1.5 0 0 1 0 3h-74a1.5 1.5 0 0 1 0-3zm0 8h74a1.5 1.5 0 0 1 0 3h-74a1.5 1.5 0 0 1 0-3zm0 8h74a1.5 1.5 0 0 1 0 3h-74a1.5 1.5 0 0 1 0-3zm0 8h74a1.5 1.5 0 0 1 0 3h-74a1.5 1.5 0 0 1 0-3z" fill="#D8D8D8"/><path d="M11 100h108a7 7 0 0 0 7-7v-1H4v1a7 7 0 0 0 7 7z" fill="#F8D763"/><g><path d="M41.889 50.257h19.487a6.628 6.628 0 0 0 0-13.257H39.624a6.628 6.628 0 0 0 0 13.257h.598v14.914c0 .45.373.829.834.829a.83.83 0 0 0 .833-.83V50.258z" fill="#ABD733"/><path d="M71.889 70.257h19.487a6.628 6.628 0 0 0 0-13.257H69.624a6.628 6.628 0 0 0 0 13.257h.598v14.914c0 .45.373.829.834.829a.83.83 0 0 0 .833-.83V70.258z" fill="#DCB11C"/><path d="M72.328 63.71c.043.082.083.166.12.254l.109.265c.035-.091.072-.182.11-.27.039-.09.08-.175.123-.256l1.633-3.057a.424.424 0 0 1 .063-.092.195.195 0 0 1 .073-.05.32.32 0 0 1 .09-.019c.032-.002.072-.003.117-.003h.775V66h-.904v-3.564a4.527 4.527 0 0 1 .023-.458l-1.668 3.129a.44.44 0 0 1-.149.166.385.385 0 0 1-.214.06h-.14a.385.385 0 0 1-.215-.06.44.44 0 0 1-.148-.166l-1.691-3.14a3.384 3.384 0 0 1 .027.469V66h-.905v-5.518h.775c.046 0 .085 0 .118.003a.32.32 0 0 1 .09.02c.027.01.051.026.074.05a.385.385 0 0 1 .065.09l1.649 3.065zM81.506 66h-.794a.347.347 0 0 1-.343-.233l-.412-1.126H77.67l-.412 1.126a.361.361 0 0 1-.34.233h-.798l2.168-5.518h1.05L81.505 66zm-3.572-2.084h1.76l-.672-1.835a8.383 8.383 0 0 1-.21-.65c-.036.13-.07.251-.105.363-.034.112-.068.21-.101.294l-.672 1.828zm5.202-.072V66h-1.027v-5.518h1.683c.377 0 .7.038.968.116.268.078.488.186.66.326.172.14.298.307.378.502.08.195.12.41.12.643 0 .186-.027.361-.082.527a1.524 1.524 0 0 1-.618.805 2 2 0 0 1-.518.244c.13.074.242.18.336.317L86.418 66h-.924a.45.45 0 0 1-.227-.053.464.464 0 0 1-.158-.153l-1.16-1.767a.407.407 0 0 0-.143-.141.501.501 0 0 0-.231-.042h-.44zm0-.737h.64c.194 0 .363-.024.507-.072a.978.978 0 0 0 .354-.2.805.805 0 0 0 .208-.304c.046-.117.07-.246.07-.386 0-.28-.093-.494-.278-.644-.184-.15-.466-.226-.845-.226h-.656v1.832zm6.392.748V66h-1.026v-2.145l-2.012-3.373h.905c.089 0 .16.021.212.064a.547.547 0 0 1 .131.165l1.012 1.843a4.616 4.616 0 0 1 .27.599 3.571 3.571 0 0 1 .263-.6l1.005-1.842a.51.51 0 0 1 .126-.157.315.315 0 0 1 .213-.072h.909l-2.008 3.373zM41.778 44.038c0 .31-.038.59-.114.84-.077.25-.19.462-.342.637-.151.176-.34.31-.566.405-.227.094-.49.141-.79.141a3.259 3.259 0 0 1-.821-.103l.053-.61a.203.203 0 0 1 .063-.136c.037-.034.091-.052.163-.052.043 0 .1.01.17.027a1.1 1.1 0 0 0 .265.027c.145 0 .273-.021.385-.063a.652.652 0 0 0 .28-.2.923.923 0 0 0 .17-.357c.039-.147.058-.324.058-.533v-3.58h1.026v3.557zm6.408-.797c0 .404-.067.779-.202 1.124a2.575 2.575 0 0 1-1.45 1.485 2.974 2.974 0 0 1-1.142.211c-.417 0-.798-.07-1.143-.212a2.59 2.59 0 0 1-.885-.59 2.648 2.648 0 0 1-.57-.894 3.059 3.059 0 0 1-.203-1.124c0-.405.068-.78.202-1.124.135-.345.325-.643.571-.895a2.59 2.59 0 0 1 .885-.59 2.988 2.988 0 0 1 1.143-.211c.418 0 .798.07 1.141.213.344.143.638.34.882.59.244.25.434.548.569.893.135.345.202.72.202 1.124zm-1.053 0c0-.303-.04-.575-.12-.815a1.723 1.723 0 0 0-.346-.613 1.487 1.487 0 0 0-.548-.385 1.884 1.884 0 0 0-.727-.134c-.27 0-.512.045-.729.134-.216.09-.4.218-.551.385a1.73 1.73 0 0 0-.35.613c-.08.24-.121.512-.121.815 0 .303.04.574.122.815.081.24.198.444.349.61.151.167.335.295.551.384.217.089.46.133.73.133.27 0 .511-.044.726-.133.215-.09.398-.217.548-.384.15-.166.265-.37.345-.61.08-.24.12-.512.12-.815zM53.65 46h-1.034v-2.412h-2.588V46h-1.034v-5.518h1.034v2.373h2.588v-2.373h1.034V46zm1.652-5.518a.95.95 0 0 1 .115.005c.03.004.058.012.082.023a.275.275 0 0 1 .07.05c.023.021.049.05.077.086l2.897 3.69a3.8 3.8 0 0 1-.027-.5v-3.354h.904V46h-.53a.47.47 0 0 1-.202-.038.45.45 0 0 1-.157-.138l-2.885-3.675a5.294 5.294 0 0 1 .023.462V46h-.905v-5.518h.538z" fill="#FFF"/></g></g></svg>
