<?xml version="1.0" encoding="UTF-8"?>
<svg width="16px" height="11px" viewBox="0 0 16 11" version="1.1" xmlns="http://www.w3.org/2000/svg" xmlns:xlink="http://www.w3.org/1999/xlink">
    <!-- Generator: Sketch 50.2 (55047) - http://www.bohemiancoding.com/sketch -->
    <title>Combined-Shape</title>
    <desc>Created with Sketch.</desc>
    <defs></defs>
    <g id="Page-1" stroke="none" stroke-width="1" fill="none" fill-rule="evenodd">
        <g id="you" fill="#2A2A2A" fill-rule="nonzero">
            <path d="M15.6704449,1.7211765 C16.0131123,2.9505882 15.9999328,5.5129412 15.9999328,5.5129412 C15.9999328,5.5129412 15.9999328,8.0623529 15.6704449,9.2917647 C15.4859316,9.9647059 14.9455715,10.4952941 14.2602366,10.6764706 C13.0081826,11 7.9999664,11 7.9999664,11 C7.9999664,11 3.0049297,11 1.7396961,10.6635294 C1.0543613,10.4823529 0.5140011,9.9517647 0.3294879,9.2788235 C0,8.0623529 0,5.5 0,5.5 C0,5.5 0,2.9505882 0.3294879,1.7211765 C0.5140011,1.0482353 1.0675408,0.5047059 1.7396961,0.3235294 C2.9917502,0 7.9999664,0 7.9999664,0 C7.9999664,0 13.0081826,0 14.2602366,0.3364706 C14.9455715,0.5176471 15.4859316,1.0482353 15.6704449,1.7211765 Z M6.4052449,7.8552941 L10.5699721,5.5 L6.4052449,3.1447059 L6.4052449,7.8552941 Z" id="Combined-Shape"></path>
        </g>
    </g>
</svg>